<?xml version="1.0" encoding="UTF-8"?>
<!DOCTYPE svg PUBLIC "-//W3C//DTD SVG 1.1//EN" "http://www.w3.org/Graphics/SVG/1.1/DTD/svg11.dtd">
<!-- Creator: CorelDRAW 2020 (64-Bit) -->
<svg xmlns="http://www.w3.org/2000/svg" xml:space="preserve" width="8.4666mm" height="7.553mm" version="1.1" style="shape-rendering:geometricPrecision; text-rendering:geometricPrecision; image-rendering:optimizeQuality; fill-rule:evenodd; clip-rule:evenodd"
viewBox="0 0 735.55 656.18"
 xmlns:xlink="http://www.w3.org/1999/xlink"
 xmlns:xodm="http://www.corel.com/coreldraw/odm/2003">
 <defs>
  <style type="text/css">
   <![CDATA[
    .fil0 {fill:#FEFEFE}
   ]]>
  </style>
 </defs>
 <g id="Слой_x0020_1">
  <metadata id="CorelCorpID_0Corel-Layer"/>
  <g id="_2023673142848">
   <path class="fil0" d="M608.25 476.04c-18.29,0 -26.21,-1.09 -41.8,-8.2 -17.38,-7.93 -35.74,-24.94 -42.86,-42.08 -7.35,-17.72 -8.5,-22.34 -8.5,-42.19 0,-12.43 4.19,-26.22 8.44,-34.71l8.13 -13.8c1.49,-2.19 2.98,-4.28 4.82,-6.13l10.7 -10.54c5.72,-4.61 13.35,-9.75 20.25,-12.62 35.94,-14.97 73.1,-8.07 99.54,18.38 38.61,38.6 33.79,101.54 -10.19,134.67 -12.69,9.57 -31.95,17.22 -48.54,17.22zm66.99 180.15l-5.18 0c-5.92,-0.47 -11.93,-2.55 -17.51,-6.65 -9.55,-7 -11.12,-14.99 -14.08,-24.26l-28.42 -96.94c-0.88,-2.95 -2.26,-6.93 -2.49,-9.83 -44.51,0 -77.87,-15.79 -105.96,-48.84 -3.38,-3.97 -6.26,-8.55 -9.11,-12.81l-107.54 0c2.08,3.1 55.46,55.81 60.79,61.13 5.36,5.36 16.61,14.19 16.61,23.8 0,10.32 -16.03,11.64 -23.98,11.64l-202.74 0c-6.39,0 -16.91,-0.48 -21.43,-4.6 -11.17,-10.16 8.41,-26.57 13.73,-31.87 5.29,-5.29 57.68,-56.99 59.76,-60.11 -77.63,0 -155.26,0 -232.89,0 -9.76,0 -30.57,1.28 -38.1,-0.94 -8.18,-2.4 -16.7,-11.39 -16.7,-21.66l0 -411.66c0,-11.79 11.42,-22.6 23.29,-22.6l626.73 0c10.36,0 18.95,8.02 21.7,15.97 3.04,8.83 1.59,24.21 1.59,35.4l0 223.98c5.33,3.57 20.4,14.46 24.46,19.37 8.07,9.77 10.87,11.3 18.73,24.42 23.41,39.08 24.53,80.63 7.21,122.37 -2.74,6.58 -6.15,11.75 -9.76,17.64 -3.61,5.89 -12.55,16.56 -17.18,21.18 -4.27,4.27 -19.75,17.65 -24.83,19.01l18.1 61.35c3.03,10.55 16.84,52.46 16.84,62.62 0,17.57 -14.8,31.56 -31.64,32.88zm-202.61 -273.99c0,5.74 -0.23,12.7 0.48,18.02 0.33,2.5 0.84,6.06 0.89,8.02 -18.08,0 -34.32,0.68 -52.74,0.68l-267.13 0c-35.64,0 -70.04,0.69 -106.17,0.69l0 -360.28 576.74 -0.69 0 208.23c-6.76,0 -11.96,-1.37 -20.55,-1.37 -34.22,0 -68.55,14.01 -91.62,37.16l-14.94 17.24c-14.6,19.41 -24.95,47.52 -24.95,72.31z"/>
   <path class="fil0" d="M252.06 119.86l0 209.6c0,8.83 9.67,18.5 18.5,18.5l4.11 0c8.83,0 18.5,-9.67 18.5,-18.5l0 -209.6c0,-8.83 -9.67,-18.5 -18.5,-18.5l-4.11 0c-8.83,0 -18.5,9.67 -18.5,18.5z"/>
   <path class="fil0" d="M361.66 160.96l0 168.5c0,8.83 9.67,18.5 18.5,18.5l4.11 0c8.83,0 18.5,-9.67 18.5,-18.5l0 -168.5c0,-8.83 -9.67,-18.49 -18.5,-18.49l-4.11 0c-8.83,0 -18.5,9.66 -18.5,18.49z"/>
   <path class="fil0" d="M197.27 202.06l0 127.4c0,8.83 9.66,18.5 18.49,18.5l4.11 0c8.84,0 18.5,-9.67 18.5,-18.5l0 -127.4c0,-8.83 -9.66,-18.5 -18.5,-18.5l-4.11 0c-8.83,0 -18.49,9.67 -18.49,18.5z"/>
   <path class="fil0" d="M306.86 202.06l0 127.4c0,8.83 9.66,18.5 18.49,18.5l4.11 0c8.84,0 18.5,-9.67 18.5,-18.5l0 -127.4c0,-8.83 -9.66,-18.5 -18.5,-18.5l-4.11 0c-8.83,0 -18.49,9.67 -18.49,18.5z"/>
   <path class="fil0" d="M142.47 239.05l0 90.41c0,8.83 9.67,18.5 18.5,18.5l4.11 0c8.83,0 18.5,-9.67 18.5,-18.5l0 -90.41c0,-8.84 -9.67,-18.5 -18.5,-18.5l-4.11 0c-8.83,0 -18.5,9.66 -18.5,18.5z"/>
   <path class="fil0" d="M417.14 284.25l0 45.21c0,8.83 9.67,18.5 18.5,18.5l4.11 0c8.83,0 18.5,-9.67 18.5,-18.5l0 -45.21c0,-8.83 -9.67,-18.5 -18.5,-18.5l-4.11 0c-8.83,0 -18.5,9.67 -18.5,18.5z"/>
   <path class="fil0" d="M655.51 385.63c0,21.95 -8.9,26.69 -8.9,33.56 0,6.49 10.05,13.47 16.59,2.89 17.44,-28.19 10.59,-66.83 -16.38,-88.73 -23.94,-19.44 -26.58,1.1 -21.33,6.26 1.35,1.32 8.86,5.13 14.79,10.56 8.51,7.79 15.23,22.9 15.23,35.46z"/>
  </g>
 </g>
</svg>
