<?xml version="1.0" encoding="UTF-8"?>
<!DOCTYPE svg PUBLIC "-//W3C//DTD SVG 1.1//EN" "http://www.w3.org/Graphics/SVG/1.1/DTD/svg11.dtd">
<!-- Creator: CorelDRAW 2020 (64-Bit) -->
<svg xmlns="http://www.w3.org/2000/svg" xml:space="preserve" width="8.4668mm" height="8.4669mm" version="1.1" style="shape-rendering:geometricPrecision; text-rendering:geometricPrecision; image-rendering:optimizeQuality; fill-rule:evenodd; clip-rule:evenodd"
viewBox="0 0 810.55 810.56"
 xmlns:xlink="http://www.w3.org/1999/xlink"
 xmlns:xodm="http://www.corel.com/coreldraw/odm/2003">
 <defs>
  <style type="text/css">
   <![CDATA[
    .fil0 {fill:#FEFEFE}
   ]]>
  </style>
 </defs>
 <g id="Слой_x0020_1">
  <metadata id="CorelCorpID_0Corel-Layer"/>
  <g id="_2023679977792">
   <path class="fil0" d="M540.92 404.45c-26.73,0 -52.66,-6.43 -75.75,-16.05 -10.37,-4.32 -20.88,-10.6 -29.79,-16.52 -4.84,-3.23 -8.85,-6.26 -13.3,-9.86 -13.39,-10.84 -23.24,-21.25 -33.59,-35.06 -20.03,-26.75 -36.14,-68.53 -36.14,-102.81 0,-35.86 2.88,-58.3 17.9,-89.61 4.86,-10.12 10.75,-19.36 16.99,-28.5 4.91,-7.2 15.26,-18.45 21.14,-24.35l24.84 -20.65c9.61,-6.42 17.88,-11.39 28.83,-16.65 59.34,-28.49 130.01,-20.62 183.9,15.16 4.89,3.25 8.94,6.55 13.7,10.29 5.17,4.06 8.03,6.9 12.56,11.43 27.94,27.93 40.5,50.68 51.59,89.84 3.57,12.61 4.36,27.36 5.66,42.35l-1.37 21.69c-3.13,22.59 -5.92,35.39 -14.91,56.23 -6.47,15 -16.91,31.51 -27.27,43.85 -14.5,17.24 -31.39,32.86 -51.27,43.85l-23.89 11.68c-3.14,1.25 -5.36,2 -8.53,3.04 -5.62,1.87 -12.5,4.23 -18.5,5.5 -7,1.46 -13.12,2.68 -20.49,3.5 -6.62,0.74 -15.24,1.65 -22.32,1.65zm-215.87 -199.33l0 25.65c0,27.03 11.95,62.04 21.22,80.5 10.42,20.72 32.15,52.13 49.07,65.06 6.61,5.05 11.04,9.88 21.17,16.88 30.1,20.8 74.06,38.54 114.48,38.54 25.54,0 39.63,0.23 65.17,-6.79 17.87,-4.91 40.33,-13.98 55.75,-23.65 5.78,-3.63 10.28,-6.74 15.88,-10.59l37.24 -34.72c23.43,-29.99 37.31,-51.02 46.97,-91.98 9.71,-41.23 5.48,-96.66 -13.12,-135.28 -7.3,-15.17 -9.59,-19.88 -18.97,-33.96 -7.41,-11.11 -14.49,-20.03 -23.7,-29.24 -16.92,-16.93 -23.55,-22.63 -43.45,-35.11 -5.58,-3.49 -11.15,-6.15 -17.27,-9.2 -42.81,-21.42 -67.05,-21.23 -114.41,-21.23 -17.89,0 -43.83,7.78 -60.15,14.29 -29.16,11.62 -53.66,28.87 -75.28,50.43l-11.67 13.14c-28.96,35.87 -48.91,79.52 -48.91,127.25z"/>
   <path class="fil0" d="M490.47 634.38c-41.88,0 -77.66,-3.14 -117.81,-8.73 -15.14,-2.11 -24.17,-3.68 -40.17,-3.68 -5.3,0 -14.8,16.94 -0.82,24.81 5.58,3.14 42.96,7.53 50.92,8.64 50.63,7 88.35,5.43 139.31,5.43 18.07,0 36.86,-1.46 52.35,-8.03 5.14,-2.17 9.19,-4.45 14.17,-6.51l110.48 -53.28c4.64,-2.33 8.3,-4.17 13.47,-6.39 22.23,-9.48 47.35,-29.87 64.05,-9.94 8.32,9.92 9.46,24.05 0.56,34.02 -5.76,6.46 -70.46,45.46 -85.86,55.56 -3.31,2.17 -5.78,3.62 -9.09,5.79l-37.23 23.15c-18.61,11.4 -55.75,35.79 -75.39,43.71 -26.64,10.75 -70.93,17.01 -107.05,17.01 -27.5,0 -53.73,-7.33 -75.74,-13.57 -26.28,-7.46 -41.54,-14.81 -64.97,-24.35 -21.62,-8.8 -40.92,-19.64 -60.53,-28.79 -25.22,-11.76 -56.17,-13.51 -88.23,-13.51 -10.81,0 -18.34,22.49 1.54,26.58 8.86,1.83 43.71,0.21 65.46,8.98 12.2,4.91 22.61,10.08 33.9,15.73 29.78,14.89 74.45,33.52 106.34,42.53 13.24,3.74 25.38,7.24 39.7,9.92 7.68,1.44 13.59,2.18 21.71,3.11 41.75,4.74 112.38,-4.54 149.03,-21.65 17.59,-8.21 145.61,-90.71 173.72,-107.49 6.96,-4.15 13.15,-8.64 20.16,-12.91 7.65,-4.67 12.59,-8.12 17.53,-15.56 4.94,-7.45 7.79,-16.16 8.6,-25.09l0 -10.54c-1.3,-14.57 -8,-28.6 -19.96,-37.56 -10.14,-7.58 -26.75,-14.79 -44.09,-11.22 -7.99,1.65 -14.02,5.31 -20.58,8.36l-137.85 66.45c-3.21,1.62 -6.25,2.68 -9.67,4.39 -29.67,14.92 -50.49,14.62 -87.93,14.62z"/>
   <path class="fil0" d="M-0 443.33c0,14.01 7.38,15.82 23.15,15.73 19.63,-0.11 50.94,-0.48 69.45,0.84 16.35,1.18 12.57,9.05 13.98,21.6l0.95 139.66c0,46.66 -0.83,92.37 -0.83,139.78 0,23.02 1.62,22.32 -47.97,22.32 -11.58,0 -23.17,0.03 -34.75,-0.02 -16.57,-0.07 -23.97,1.62 -23.97,15.74 0,4.79 8.23,11.57 9.93,11.57 0.76,0 1.6,0.01 2.5,0.01l69.6 0c10.61,-0.28 19.39,-0.79 23.8,-1.7 6.16,-1.26 9.23,-2.8 13.55,-6.3 6.63,-5.38 15.45,-18.59 15.45,-24.26l0 -314.29c0,-5.94 -9.35,-19.18 -15.58,-24.12 -8.07,-6.41 -17.5,-8.13 -31.57,-8.13l-77.74 0c-2.29,0 -4.52,3.26 -6.01,4.74 -2.01,1.97 -3.92,3.19 -3.92,6.84z"/>
   <path class="fil0" d="M162.11 497.92c0,22.63 24.66,12.13 50.33,15.01 18.87,2.12 41.84,0.71 62.15,0.71 18.49,0 16.98,-0.47 35.62,10.7 38.95,23.34 55.14,43.29 104.28,67.74l29.62 1.81c23.15,0.03 45.59,-0.25 67.89,1.58 15.54,1.27 14.44,-2.28 31.53,8.17 15.01,9.16 23.84,1.68 23.84,-9.77 0,-8.26 -5.35,-11.78 -10.58,-15.06 -19.71,-12.33 -39.5,-12.23 -64.69,-12.23l-62.89 -0.79c-9.09,0.05 -19.43,-7.48 -26.9,-11.97l-30.38 -20.91c-14.16,-10.66 -44.58,-33.03 -61.81,-40.76 -12.06,-5.41 -27.27,-6.62 -44.65,-6.62l-71.99 -0.03c-5.05,0.06 -7.98,0.9 -14.02,0.86 -5.18,-0.05 -9.08,-0.56 -12.22,1.84 -1.99,1.51 -5.15,6.53 -5.15,9.74z"/>
   <path class="fil0" d="M486.33 172.87c0,13.41 3.15,24.81 10.38,34.28 1.29,1.68 3.22,4.22 4.46,5.46 19.14,18.98 35.4,14.26 50.4,19.9 13.34,5.01 18.19,23.25 13.02,35.16 -5.71,13.16 -33.76,25.09 -47.95,-1.06 -1.16,-2.13 -1.8,-4.04 -2.4,-6.69 -2.06,-9.04 0.22,-16.75 -16.33,-16.75 -11.33,0 -11.57,11.01 -11.57,18.2 0,13.28 11.11,28.32 20.87,37.02 2.55,2.27 5.15,4.17 8.23,5.83 2.2,1.19 8.61,3.65 9.96,4.93 3.15,3.02 -0.11,4.32 4.99,9.9 8.49,9.31 18.97,5.84 24.68,-7.14 1.28,-2.93 1.57,-2.76 4.6,-4.5 3.54,-2.05 8.17,-4.12 11.17,-6.2 19.56,-13.54 28.64,-38.55 21.08,-61.87 -13.36,-41.2 -54.3,-35.22 -64.21,-40.83 -13.87,-7.85 -18.87,-29.78 -5.2,-42.39 12.91,-11.9 35.25,-10.21 42.74,11.46 2.53,7.33 2.38,24.68 20.32,20.19 16.51,-4.13 10.12,-44.83 -20.1,-60.93 -9.72,-5.18 -8.64,-2.8 -11.23,-9.45 -2.79,-7.15 -8.27,-9.84 -15.8,-9.84 -3.78,0 -6.46,3.27 -8.49,5.56 -3.44,3.88 -2.13,7 -5.36,9.53 -2.55,1.98 -21.42,7.98 -31.91,26.81 -2.78,4.98 -6.34,16.04 -6.34,23.44z"/>
   <path class="fil0" d="M26.47 722.06c0,27.79 41.36,27.36 41.36,0 0,-5.48 -3.25,-10.77 -6.02,-13.83 -11.31,-12.51 -35.33,-4.62 -35.33,13.83z"/>
  </g>
 </g>
</svg>
