<?xml version="1.0" encoding="UTF-8"?>
<!DOCTYPE svg PUBLIC "-//W3C//DTD SVG 1.1//EN" "http://www.w3.org/Graphics/SVG/1.1/DTD/svg11.dtd">
<!-- Creator: CorelDRAW 2020 (64-Bit) -->
<svg xmlns="http://www.w3.org/2000/svg" xml:space="preserve" width="8.4667mm" height="8.5318mm" version="1.1" style="shape-rendering:geometricPrecision; text-rendering:geometricPrecision; image-rendering:optimizeQuality; fill-rule:evenodd; clip-rule:evenodd"
viewBox="0 0 719.89 725.42"
 xmlns:xlink="http://www.w3.org/1999/xlink"
 xmlns:xodm="http://www.corel.com/coreldraw/odm/2003">
 <defs>
  <style type="text/css">
   <![CDATA[
    .fil0 {fill:#FEFEFE}
   ]]>
  </style>
 </defs>
 <g id="Слой_x0020_1">
  <metadata id="CorelCorpID_0Corel-Layer"/>
  <g id="_2059448654928">
   <path class="fil0" d="M681.3 457.8l7.07 0 0 153.68 -122.8 0 78.29 -83.1c1.66,-1.68 1.99,-2.55 3.51,-4.2 2.55,-2.75 5.27,-4.92 7.72,-7.71l7.4 -8.03c2.87,-2.85 4.58,-5.25 7.4,-8.04 13.81,-13.68 13.45,-13.82 12.09,-30.41 -0.17,-2.07 0.08,-4.33 -0.03,-6.39 -0.14,-2.53 -0.65,-3.09 -0.65,-5.79zm-535.59 -19.28c0,-23.68 26.81,-42.96 51.45,-23.17 11.83,9.5 13.55,31.18 0.81,43.92 -9.05,9.05 -23.2,11.43 -34.7,6.05 -3.69,-1.73 -3.91,-2.31 -6.55,-4.39 -1.12,-0.88 -1.03,-0.56 -2.17,-1.69 -4.49,-4.47 -8.84,-14.38 -8.84,-20.73zm236.61 -363.93c0,10.64 0.89,17 1.45,26.28 0.24,4.1 -2.24,4.21 -4.24,8.2 -9.59,19.11 -8.39,46.75 9.31,60.6 5.25,4.1 4.87,3.69 6.48,10.24 5.25,21.37 14.9,27.61 14.73,34.18 -0.09,3.28 -0.72,3.95 -0.73,7.72 -0.01,2.79 0.02,5.59 0.02,8.38 -5.24,1.22 -12.24,5.45 -17.37,7.7l-43.8 18.57c-18.01,7.37 -41.56,19.82 -52.63,35.46 -0.76,1.06 -1.56,2.19 -2.33,3.46 -3.56,5.85 1.59,5.47 -6.46,6.39 -1.73,0.2 -3.25,0.46 -5.99,0.45 -28.75,-0.13 -64.02,5.21 -92.63,7.68 -7.69,0.66 -14.88,1.96 -22.46,2.61 -3.69,0.31 -7.08,0.9 -10.9,1.32 -25.04,2.74 -19.54,31.46 -2.62,31.46l67.97 -7.26c18.45,-2.34 51.87,-4.96 70.27,-4.96l1.9 27.68c1,12.81 3.38,53.28 5.18,61.05l-61.72 0c-0.84,-10.08 -12.07,-25.39 -19.56,-31.24 -12.95,-10.13 -24.93,-14.42 -42.16,-14.42 -15.41,0 -30.56,7.29 -41.01,17.51 -10.04,9.83 -18.14,25.64 -18.14,40.36 0,20.99 4.83,33.97 18.81,48.07 19.1,19.27 54.07,23.78 77.19,6.78 8.88,-6.53 17.39,-14.87 21.59,-25.34 1.12,-2.79 3.22,-6.9 3.3,-10.21l64.93 0c0,7.4 1.71,21.72 2.85,29.95 1.39,10.13 2.19,20.48 3.39,30.04 1.31,10.31 2.28,20 3.41,30.03 1.16,10.29 3.21,20.02 3.21,30.22l-185.18 0c-13.67,0 -17.87,17.57 -10,26.08 2.07,2.24 5.99,4.79 10,4.79l79.08 0c0,5.7 -1.39,11.51 -3.42,15.87 -6.02,12.93 -17.73,20.13 -33.87,20.13l-41.79 0c-21.76,0 -37.94,-14.81 -37.94,-36.01l0 -185.18c0,-24.35 8.44,-41.91 2.31,-51.18 -8.73,-13.2 -29.32,-8.55 -29.32,13.24 -9.61,0 -17.69,-1.7 -23.65,-7.21 -12.59,-11.66 -10.87,-32.61 3.32,-42.05 15.64,-10.42 49.18,-0.54 61.9,-5.62 9.33,-3.73 12.05,-17.26 15.93,-26.51 0.97,-2.31 1.56,-3.32 2.58,-5.78 7.66,-18.45 18.39,-38.34 28.7,-55.53 4.18,-6.98 8.36,-14.32 12.95,-21.13l23.54 -34.98c7.76,-11.66 9.59,-13.44 23.37,-19.07 22.25,-9.09 43.62,-13.53 67.22,-17.01 4.04,-0.6 11.25,-1.5 15.64,-1.72 10.82,-0.53 20.44,-1.34 32.14,-1.29 6.26,0.03 10.01,-0.38 13.62,-3.1 11.9,-8.97 5.89,-28.41 -8.48,-28.41 -34.4,0 -68.24,3.67 -96.06,10.67 -14.77,3.72 -54.98,16.81 -64.42,29.45 -2.04,2.72 -3.53,5.46 -5.41,8.09 -14.83,20.89 -28.82,41.88 -42.16,64.58 -9.12,15.51 -17.29,31.87 -25.13,48.18 -3.66,7.64 -6.58,16.15 -10.51,23.56 -24.26,0 -42.58,-3.7 -63.27,10.03 -26.18,17.37 -32.93,53.48 -15.7,79.87 9.3,14.24 27.25,25.83 44.89,25.83l5.14 0c0,4.49 -0.64,6.27 -0.64,10.93l0 172.31c0,30.74 9.45,54.11 36.21,68.59 6.82,3.69 17.86,7.29 28.08,7.29l52.72 0c11.6,0 21.99,-4.23 30.51,-9.36 8.56,-5.15 15.49,-11.83 21.07,-20.08 7.37,-10.92 11.44,-22.55 11.44,-37.43l78.44 0c1.07,4.63 1.4,10.71 2.04,15.96l6.2 49.74c1.03,8.41 3.85,42.11 7.68,48.26 8.14,13.03 28.45,6.78 28.45,-8.51 0,-12.38 -4.19,-35.43 -5.74,-48.92 -1.86,-16.28 -4.35,-32.34 -5.9,-48.75 -3.04,-32.36 -8.33,-65.27 -11.45,-97.85l-10.46 -98.85c-0.4,-3.83 -0.95,-7.95 -1.19,-12.3 -0.62,-11.21 -4.41,-40.39 -4.5,-50.17l-0.72 -13.42c-0.88,-7.87 -1.19,-17.63 -1.19,-26.45 0,-3.83 2.29,-5.2 4.34,-7.24 6.38,-6.39 14.06,-10.32 22.23,-14.4l51.01 -22.3c5.8,-2.58 11.57,-4.76 16.94,-7.49 2.71,-1.39 5.64,-2.48 8.37,-3.86 8.31,-4.19 17.35,-7.29 17.35,-19.29l0 -36c0,-8.94 -10.69,-9.86 -16.33,-34.47 -2.89,-12.6 -1.61,-19.41 -14.82,-23.11l-2.24 -0.98c-0.06,-0.05 -1.24,-1.66 -1.35,-1.86 -1.66,-3.2 -2.1,-11.28 -0.27,-14.46 1.45,-2.55 10.58,-4.49 10.58,-13.85 0,-21.94 -9.63,-40.39 5.7,-59.89 20.7,-26.33 62.04,-29.99 88.37,-10.38 8.48,6.31 19.11,19.28 19.11,33.62 0,6.75 -0.65,12.17 -1.22,18.07 -1.5,15.49 -6.14,23.06 7.25,31.2 3.67,2.24 2.89,12.65 0.9,16.18 -1.29,2.3 -1.1,1.79 -3.95,2.47 -19.6,4.68 -8.66,29.84 -24.35,46.38 -3.6,3.8 -6.27,6.63 -6.27,13.02 0,8.72 -1.32,35.01 1.9,41.82 4.27,9.03 30.4,18.22 39.47,22.26 20.32,9.04 71.45,26.64 86.32,37.78 5.83,4.38 5.69,5.32 7.29,13.29 1.22,6.15 1.93,11.68 2.81,18.4 1.53,11.61 2.62,25.17 4.12,37.02l4.04 48.05c0.48,9.99 1.89,19.47 1.95,28.92 0.04,6.67 1.16,13.27 1.33,19.33 0.14,4.91 -1.05,4.2 -3.28,7.06 -5.7,7.3 -23.73,24.16 -30.03,31.69l-12.25 13.47c-5.72,6.5 -12.43,12.07 -17.97,18.68l-25.11 26.98c-1.73,1.72 -3.58,3.33 -5.11,5.17l-14.82 16.04c-1.82,1.82 -3.43,3.27 -5.15,5.14 -2.59,2.81 -13.83,15.93 -15.59,15.93l-74.58 0 0 -153.68 88.09 0c25.18,0 21.66,-31.5 3.21,-31.5l-107.37 0c-7.41,0 -14.79,6.76 -14.79,14.14l0 188.4c0,3.91 2.58,8.03 4.79,10 2.64,2.35 6.59,4.14 11.29,4.14l174.89 0 0 67.52c0,18.88 31.5,21.19 31.5,-1.93l0 -65.59 65.59 0c9.36,0 15.43,-7.7 15.43,-16.72l0 -183.25c0,-9.44 -6.68,-16.72 -16.08,-16.72l-24.44 0 -1.32 -19.9c-2,-26.09 -4.62,-51.56 -8.21,-77.31 -1.35,-9.73 -3.61,-26.37 -8.32,-34.11 -8.16,-13.42 -23.49,-20.67 -37.23,-27.07 -24.78,-11.55 -50.99,-19.23 -75.66,-31.08 -4.76,-2.29 -10.18,-5.47 -15.21,-6.65 0,-22.04 -2.32,-15.35 4.88,-27.26 4.25,-7.04 6.8,-14.22 9.34,-22.81 2.45,-8.28 -0.43,-4.94 6.1,-9.98 17.35,-13.43 20.64,-44.8 8.63,-62.77 -5.44,-8.12 -2.88,-6.12 -1.98,-17.38 1.68,-20.7 -1.87,-34.03 -9.8,-47.35 -14.53,-24.39 -43.69,-42.63 -74.39,-42.63 -22.36,0 -37.11,2.99 -55.1,13.7 -2.25,1.34 -3.76,2.32 -5.81,3.83 -15.13,11.22 -32.97,32.89 -32.97,57.05z"/>
   <path class="fil0" d="M447.26 305.41l0 72.65c0,7.47 7.9,14.15 15.43,14.15 7.86,0 15.43,-6.99 15.43,-14.79l0 -71.37c0,-7.07 -7.07,-14.15 -14.15,-14.15l-3.21 0c-6.53,0 -13.5,6.97 -13.5,13.5z"/>
  </g>
 </g>
</svg>
