<?xml version="1.0" encoding="UTF-8"?>
<!DOCTYPE svg PUBLIC "-//W3C//DTD SVG 1.1//EN" "http://www.w3.org/Graphics/SVG/1.1/DTD/svg11.dtd">
<!-- Creator: CorelDRAW 2020 (64-Bit) -->
<svg xmlns="http://www.w3.org/2000/svg" xml:space="preserve" width="8.4667mm" height="8.4667mm" version="1.1" style="shape-rendering:geometricPrecision; text-rendering:geometricPrecision; image-rendering:optimizeQuality; fill-rule:evenodd; clip-rule:evenodd"
viewBox="0 0 827.35 827.35"
 xmlns:xlink="http://www.w3.org/1999/xlink"
 xmlns:xodm="http://www.corel.com/coreldraw/odm/2003">
 <defs>
  <style type="text/css">
   <![CDATA[
    .fil0 {fill:#FEFEFE}
   ]]>
  </style>
 </defs>
 <g id="Слой_x0020_1">
  <metadata id="CorelCorpID_0Corel-Layer"/>
  <g id="_2023673419952">
   <path class="fil0" d="M626.2 445.05c0,14.97 -1.39,30.81 -10.65,40.03 -5.92,5.88 -9.76,4.08 -15.97,0.31l-72.21 -42.57c-9.47,-5.19 -66.06,-40.91 -73.23,-41.12 -7.11,-0.21 -11.9,5.32 -10.8,12.71 1.09,7.4 20.13,16.21 26.48,19.91 38.76,22.52 76.91,45.09 115.6,67.7 4.38,2.56 10.57,4.93 11.93,10.34 2.55,10.08 -5.92,23.34 -15.63,29.75 -6.52,4.31 -10.99,3.71 -17.43,0.02 -19.14,-10.98 -38.32,-22.96 -57.6,-34.04 -7.59,-4.37 -68.24,-40.68 -72.16,-41.77 -7.28,-2.03 -12.76,2.02 -13.96,7.98 -2.07,10.32 12.78,16 23.39,22.22l86.31 50.76c4.99,2.95 9.54,5.63 14.6,8.52 5.64,3.22 11.56,4.47 9.99,13.02 -2.08,11.29 -11.91,19.92 -22.14,23.3 -13.97,4.6 -24.63,-4.22 -33.4,-9.79 -25.86,-16.44 -47.64,-27.58 -71.75,-42.18 -18.02,-10.92 -24.99,7.05 -16.54,14.91 3.36,3.13 37.91,22.87 43.37,25.99 9.44,5.4 19.92,11.99 29.39,16.75 -5.29,18.28 -24.03,30.34 -44.94,18.59l-47.41 -26.15c1.2,-6.71 10.95,-19.08 -4.14,-37.06 -12.85,-15.31 -30.32,-8.46 -37.86,-7.48 5.85,-17.34 6.92,-25.77 -4.82,-38.19 -8.44,-8.92 -22.55,-14.06 -37.98,-7.47 1.72,-16.9 2.39,-30.08 -18.63,-39.99 -5.97,-2.81 -12.59,-3.98 -20.16,-2.3 -7.8,1.72 -10.95,5.98 -16.01,7.78 -2.65,-2.55 -2.64,-3.5 -5.3,-6.11 -6.81,-6.71 -15.8,-10.53 -26.08,-10 -18.83,0.99 -22.3,12.88 -28.06,20.13l-48.33 -38.97c-4.69,-4.29 -4.68,-4.98 -6.49,-11.62 -2.88,-10.59 -4.18,-19.96 -4.15,-31.73l0.01 -1.65c0.09,-40.98 23.05,-83.68 43.81,-115.06 9.72,-14.73 7.67,-14.9 38.5,-10.63 7.89,1.09 15.07,2.33 23.01,3.22 8.58,0.98 16.85,0.74 25.31,1.44 7.91,0.64 15.93,1.55 24.08,2.36 4.92,0.48 6.95,1.64 11.02,-0.78l40.94 -25.09c14.29,-8.09 25.82,-7.97 41.07,-0.4 -26.96,16.42 -56.18,36.81 -82.47,54.73 -7.99,5.44 -22.37,11.64 -22.73,23.39 -0.53,17.07 31.15,35.64 57.63,34.58 25.72,-1.03 58.46,-22.48 80.48,-34.22 6.25,-3.33 9.1,-6.41 16.58,-2.53 10.08,5.24 20.13,10.46 30.41,15.84l121.66 63.29c9.62,5.1 20.37,11.59 30.35,15.87 8.47,3.64 7.71,2.86 10.36,12.71 1.58,5.85 2.75,14.1 2.75,20.74zm-447.23 48.8c-3.14,12.73 -3.33,18.52 9.33,32.07 7.93,8.49 15.41,14.17 25.26,21.81 35.44,27.51 69.51,55.4 107.71,79.74 14.71,9.36 32.73,19.06 48.76,0.17 3.93,-4.61 5.43,-10.09 8.96,-14.78 3.33,0.95 11.69,6.47 15.24,8.55 10.79,6.32 37.27,22.58 46.47,25.36 20.74,6.25 46.18,-3.71 59.44,-21.12 1.73,-2.28 3.35,-5.04 5.18,-6.97 13.98,0.43 22.73,4.45 39.81,-1.71 11.99,-4.31 19.64,-11.64 25.48,-19.92 12.64,-17.98 5.64,-22.01 17.72,-27.69 15.72,-7.41 27.73,-19.23 32.84,-34.88 2.32,-7.07 2.06,-11.75 3.7,-18.68 1.53,-6.52 6.59,-7.6 10.36,-11.85 3.41,-3.86 6.45,-8.59 8.92,-14.19 10.89,-24.62 10.93,-52.24 5.05,-77.6 21.21,-6.19 42.61,-17.08 55.15,-28.98 5.8,-5.49 28.59,-26.75 21.58,-36.5 -2.89,-4.04 -6.19,-7.77 -9.5,-11.97 -25.31,-32.12 -49.43,-64.94 -75.8,-93.49 -6.76,-7.32 -14.02,-14.12 -20.98,-21.14 -25.19,-25.4 -14.37,-22.51 -49.62,-2.62 -9.09,5.12 -18.16,10.35 -27.32,15.6 -13.42,7.67 -13.47,9.64 -32.17,7.68 -12.58,-1.31 -25.55,-2.56 -38.22,-3.89 -28.42,-2.98 -41.17,-8.32 -69.81,-15.16 -29.82,-7.12 -38.34,-13.87 -70.11,-3.25 -11.21,3.75 -19.76,7.85 -29.39,12.72 -17.4,8.79 -10.54,8.08 -33.84,6.61 -25.85,-1.63 -51.41,-4.92 -77.53,-6.77 -5.65,-0.4 -13.97,-2.04 -18.23,1.04 -4.77,3.43 -24.24,30.83 -27.97,36.47 -21.31,32.24 -43.58,78.1 -39.52,129.2 3.38,42.38 18.35,52.24 48.71,77.68l24.32 18.48z"/>
   <path class="fil0" d="M420.29 785.87l-9.91 0.01c-149.75,0.22 -278.51,-94.76 -334.14,-215.62 -22.61,-49.11 -34.79,-100.1 -34.48,-160.72 0.99,-200.7 167.69,-367.53 370.27,-367.8 82.13,-0.12 154.8,24.62 217.2,68.84 19.78,14.02 33.9,27.12 50.35,42.96l21.86 24.38c6.78,8.3 13.25,16.93 19.82,26.4 12.15,17.49 22.93,37.72 33.02,59.45 21.69,46.79 31.86,100.39 31.59,158.98 -0.77,109.3 -56.6,202.61 -109.5,254.43 -66.28,64.94 -155.23,107.33 -256.08,108.68zm-420.29 -391.37l0 42.2c0.75,1.78 4.16,37.13 5.21,43.74 15.14,96.33 69.21,190.24 140.78,248.83 9.17,7.49 17.33,14.26 27.36,21.36 18.98,13.42 38.3,25.38 61.12,36.29 21.6,10.32 45.69,19.85 70.96,26.46 21.32,5.58 39.75,9.33 61.95,11.77 4.01,0.43 19.72,1.37 22.02,2.2l54.43 0 1.41 -0.46c0.23,-0.06 0.46,-0.13 0.73,-0.19l20.12 -2.23c44.58,-5.87 90.31,-18.7 129.63,-38.81 41.83,-21.39 67.02,-39.11 100.25,-69.04 4.3,-3.87 7.92,-7.96 12.05,-11.91 49.26,-47.16 88.04,-117.96 105.8,-184.07 3.45,-12.87 6.42,-26.4 8.56,-40.11l4.96 -42.65 0 -53.58c-3.55,-7.97 -1.87,-71.52 -41.78,-152.58 -22.91,-46.51 -50.96,-82.05 -80.94,-112.29 -33.22,-33.51 -70.31,-58.1 -114.1,-79.96 -32.56,-16.25 -73.87,-28.3 -110.98,-34.39 -6.7,-1.09 -40.8,-4.23 -42.83,-5.08l-45.29 0c-3.96,1.53 -17.2,1.6 -22.53,2.24 -22.54,2.68 -39.94,5.73 -61.94,11.61 -74.19,19.82 -135.9,57.9 -186.53,108.21 -59.72,59.35 -102.57,141.12 -115.73,228.57l-4.69 43.87z"/>
  </g>
 </g>
</svg>
