<?xml version="1.0" encoding="UTF-8"?>
<!DOCTYPE svg PUBLIC "-//W3C//DTD SVG 1.1//EN" "http://www.w3.org/Graphics/SVG/1.1/DTD/svg11.dtd">
<!-- Creator: CorelDRAW 2020 (64-Bit) -->
<svg xmlns="http://www.w3.org/2000/svg" xml:space="preserve" width="162.56mm" height="91.44mm" version="1.1" style="shape-rendering:geometricPrecision; text-rendering:geometricPrecision; image-rendering:optimizeQuality; fill-rule:evenodd; clip-rule:evenodd"
viewBox="0 0 16241.75 9135.99"
 xmlns:xlink="http://www.w3.org/1999/xlink"
 xmlns:xodm="http://www.corel.com/coreldraw/odm/2003">
 <defs>
  <style type="text/css">
   <![CDATA[
    .fil0 {fill:none}
    .fil1 {fill:#B4B4B4;fill-opacity:0.101961}
   ]]>
  </style>
 </defs>
 <g id="Слой_x0020_1">
  <metadata id="CorelCorpID_0Corel-Layer"/>
  <rect class="fil0" x="0" y="-0.01" width="16241.75" height="9135.99"/>
  <path class="fil1" d="M12893.48 6801.34l379.93 0 0 -3717.3 -379.93 0 0 -1596.91 -2102.92 0 0 1903.78 -1210.79 0 0 -1903.78 -2063.07 0 -1218.74 2349.86 -1218.74 -2349.86 -2110.88 0 0 5575.93 2102.92 0 0 -2230.36 645.21 1234.66 1115.2 0 645.21 -1234.66 0 2230.36 39.82 0 2063.07 0 0 -1983.45 1210.79 0 0 1983.45 2102.92 0 0 -261.72zm0 -2821.17l253.32 0 0 -101.36 -253.32 0 0 101.36zm0 202.63l253.32 0 0 -101.36 -253.32 0 0 101.36zm0 202.64l253.32 0 0 -101.36 -253.32 0 0 101.36zm0 202.63l253.32 0 0 -101.36 -253.32 0 0 101.36zm0 405.27l253.32 0 0 -101.36 -253.32 0 0 101.36zm0 -202.64l253.32 0 0 -101.36 -253.32 0 0 101.36zm0 405.27l253.32 0 0 -101.36 -253.32 0 0 101.36zm0 607.91l253.32 0 0 -101.36 -253.32 0 0 101.36zm0 405.27l253.32 0 0 -101.36 -253.32 0 0 101.36zm0 -202.64l253.32 0 0 -101.36 -253.32 0 0 101.36zm0 -607.91l253.32 0 0 -101.36 -253.32 0 0 101.36zm0 202.64l253.32 0 0 -101.36 -253.32 0 0 101.36zm0 810.54l253.32 0 0 -101.36 -253.32 0 0 101.36zm0 202.63l253.32 0 0 -101.36 -253.32 0 0 101.36zm0 -3039.53l253.32 0 0 -101.36 -253.32 0 0 101.36zm0 -202.63l253.32 0 0 -101.36 -253.32 0 0 101.36zm0 405.27l253.32 0 0 -101.36 -253.32 0 0 101.36zm-851.74 -1467.78c86.34,-36.74 198.9,-59.15 363.86,-54.48 -78.98,-100.44 -149.62,-173.74 -191.95,-247.39 -116.98,67.43 -202.69,137.26 -266.51,208.02 -29.41,-15.41 -62.27,-24.92 -97.41,-26.12 10.98,-92.42 47.24,-200.69 134.42,-342.08 -94.82,0 -189.53,0 -284.34,0 -19.87,168.16 -6.88,285 21.48,376.55 -29.29,18.36 -53.85,43.29 -72.17,72.7 -74.46,-54.21 -149.74,-130.42 -227.56,-237.91 -39.01,87.15 -77.72,145.73 -143.24,196 134.84,100.67 243,148.72 337.02,170.29 1.41,35.43 11.07,68.3 26.84,97.74 -86.34,36.74 -198.9,59.09 -363.86,54.45 78.92,100.43 149.56,173.74 191.98,247.39 116.9,-67.47 202.64,-137.18 266.4,-207.93 29.4,15.41 62.29,24.92 97.53,26.12 -10.98,92.42 -47.25,200.68 -134.42,342.08 94.81,0 189.52,0 284.34,0 19.92,-168.17 6.87,-285 -21.54,-376.55 29.34,-18.36 53.85,-43.29 72.22,-72.7 74.49,54.15 149.86,130.41 227.62,237.72 39.02,-87.05 77.7,-145.69 143.24,-195.9 -134.84,-100.67 -242.96,-148.67 -337.08,-170.29 -1.47,-35.34 -11.1,-68.22 -26.87,-97.71zm-199.73 177.89c-39.23,0 -71.09,-31.92 -71.09,-71.12 0,-39.17 31.83,-71.09 71.09,-71.09 39.2,0 71.09,31.92 71.09,71.09 0,39.2 -31.92,71.12 -71.09,71.12zm199.73 1680.74c86.34,-36.74 198.9,-59.15 363.86,-54.48 -78.98,-100.43 -149.62,-173.73 -191.95,-247.39 -116.98,67.44 -202.69,137.27 -266.51,208.03 -29.41,-15.42 -62.27,-24.93 -97.41,-26.13 10.98,-92.41 47.24,-200.68 134.42,-342.08 -94.82,0 -189.53,0 -284.34,0 -19.87,168.17 -6.88,285 21.48,376.55 -29.29,18.37 -53.85,43.29 -72.17,72.7 -74.46,-54.2 -149.74,-130.41 -227.56,-237.9 -39.01,87.15 -77.72,145.73 -143.24,195.99 134.84,100.68 243,148.73 337.02,170.3 1.41,35.42 11.07,68.3 26.84,97.73 -86.34,36.75 -198.9,59.09 -363.86,54.45 78.92,100.44 149.56,173.74 191.98,247.39 116.9,-67.46 202.64,-137.17 266.4,-207.93 29.4,15.41 62.29,24.92 97.53,26.12 -10.98,92.42 -47.25,200.69 -134.42,342.09 94.81,0 189.52,0 284.34,0 19.92,-168.17 6.87,-285 -21.54,-376.55 29.34,-18.37 53.85,-43.29 72.22,-72.71 74.49,54.15 149.86,130.42 227.62,237.73 39.02,-87.06 77.7,-145.7 143.24,-195.91 -134.84,-100.67 -242.96,-148.66 -337.08,-170.29 -1.47,-35.33 -11.1,-68.21 -26.87,-97.71zm-199.73 177.89c-39.23,0 -71.09,-31.92 -71.09,-71.12 0,-39.16 31.83,-71.09 71.09,-71.09 39.2,0 71.09,31.93 71.09,71.09 0,39.2 -31.92,71.12 -71.09,71.12zm199.73 1680.78c86.34,-36.75 198.9,-59.15 363.86,-54.48 -78.98,-100.44 -149.62,-173.74 -191.95,-247.39 -116.98,67.43 -202.69,137.26 -266.51,208.02 -29.41,-15.41 -62.27,-24.92 -97.41,-26.12 10.98,-92.42 47.24,-200.69 134.42,-342.09 -94.82,0 -189.53,0 -284.34,0 -19.87,168.17 -6.88,285 21.48,376.55 -29.29,18.37 -53.85,43.29 -72.17,72.71 -74.46,-54.21 -149.74,-130.42 -227.56,-237.91 -39.01,87.15 -77.72,145.73 -143.24,196 134.84,100.67 243,148.72 337.02,170.29 1.41,35.42 11.07,68.3 26.84,97.74 -86.34,36.74 -198.9,59.09 -363.86,54.45 78.92,100.43 149.56,173.73 191.98,247.39 116.9,-67.47 202.64,-137.18 266.4,-207.94 29.4,15.42 62.29,24.93 97.53,26.13 -10.98,92.41 -47.25,200.68 -134.42,342.08 94.81,0 189.52,0 284.34,0 19.92,-168.17 6.87,-285 -21.54,-376.55 29.34,-18.37 53.85,-43.29 72.22,-72.71 74.49,54.15 149.86,130.42 227.62,237.73 39.02,-87.06 77.7,-145.7 143.24,-195.9 -134.84,-100.68 -242.96,-148.67 -337.08,-170.3 -1.47,-35.33 -11.1,-68.21 -26.87,-97.7zm-199.73 177.88c-39.23,0 -71.09,-31.92 -71.09,-71.11 0,-39.17 31.83,-71.09 71.09,-71.09 39.2,0 71.09,31.92 71.09,71.09 0,39.19 -31.92,71.11 -71.09,71.11zm924.83 693.45c20.97,0 38,17.02 38,37.99 0,20.98 -17.03,38 -38,38 -20.97,0 -38,-17.02 -38,-38 0,-20.97 17.03,-37.99 38,-37.99zm-1849.63 0c20.97,0 38,17.02 38,37.99 0,20.98 -17.03,38 -38,38 -20.97,0 -38,-17.02 -38,-38 0,-20.97 17.03,-37.99 38,-37.99zm45.63 749.86l-0.39 -349.41 767.13 3.23 0.84 153.82 69.14 -0.24 -0.15 -156.53 64.35 -0.72 0.33 157.19 571.86 -0.09 0 -156.29 61.87 0.09 0.54 156.2 69.29 0.12 -0.45 -156.47 325.69 -0.24 0.51 -172.69 -2102.95 0.36 2.6 522.28 169.79 -0.6zm879.17 -2182.08c368.69,0 667.59,298.88 667.59,667.56 0,368.68 -298.91,667.59 -667.59,667.59 -368.68,0 -667.59,-298.92 -667.59,-667.59 0,-368.69 298.92,-667.56 667.59,-667.56zm0 -1858.67c368.69,0 667.59,298.89 667.59,667.56 0,368.69 -298.91,667.59 -667.59,667.59 -368.68,0 -667.59,-298.91 -667.59,-667.59 0,-368.68 298.92,-667.56 667.59,-667.56zm0 -1858.63c368.69,0 667.59,298.88 667.59,667.56 0,368.68 -298.91,667.59 -667.59,667.59 -368.68,0 -667.59,-298.92 -667.59,-667.59 0,-368.69 298.92,-667.56 667.59,-667.56zm924.83 -173.14c20.97,0 38,17.03 38,38 0,20.97 -17.03,38 -38,38 -20.97,0 -38,-17.03 -38,-38 0,-20.97 17.03,-38 38,-38zm-1849.63 0c20.97,0 38,17.03 38,38 0,20.97 -17.03,38 -38,38 -20.97,0 -38,-17.03 -38,-38 0,-20.97 17.03,-38 38,-38z"/>
 </g>
</svg>
