<?xml version="1.0" encoding="UTF-8"?>
<!DOCTYPE svg PUBLIC "-//W3C//DTD SVG 1.1//EN" "http://www.w3.org/Graphics/SVG/1.1/DTD/svg11.dtd">
<!-- Creator: CorelDRAW 2020 (64-Bit) -->
<svg xmlns="http://www.w3.org/2000/svg" xml:space="preserve" width="11.7869mm" height="11.8398mm" version="1.1" style="shape-rendering:geometricPrecision; text-rendering:geometricPrecision; image-rendering:optimizeQuality; fill-rule:evenodd; clip-rule:evenodd"
viewBox="0 0 109.41 109.9"
 xmlns:xlink="http://www.w3.org/1999/xlink"
 xmlns:xodm="http://www.corel.com/coreldraw/odm/2003">
 <defs>
  <style type="text/css">
   <![CDATA[
    .fil0 {fill:black}
   ]]>
  </style>
 </defs>
 <g id="Слой_x0020_1">
  <metadata id="CorelCorpID_0Corel-Layer"/>
  <g>
   <path class="fil0" d="M93.47 15.97c-10.28,-10.29 -23.96,-15.97 -38.53,-15.97 -30.03,0 -54.46,24.43 -54.47,54.45 -0,9.6 2.5,18.97 7.27,27.23l-7.73 28.22 28.88 -7.57c7.96,4.34 16.91,6.62 26.03,6.63l0.02 0c30.02,0 54.46,-24.43 54.47,-54.46 0.01,-14.55 -5.65,-28.23 -15.94,-38.53l0 0zm-38.53 83.79l-0.02 0c-8.12,-0 -16.09,-2.18 -23.04,-6.31l-1.65 -0.98 -17.14 4.49 4.57 -16.7 -1.08 -1.71c-4.53,-7.21 -6.93,-15.54 -6.92,-24.09 0.01,-24.96 20.32,-45.26 45.3,-45.26 12.09,0 23.46,4.72 32.01,13.27 8.55,8.56 13.25,19.93 13.25,32.02 -0.01,24.96 -20.32,45.26 -45.28,45.26l0 0zm24.83 -33.9c-1.36,-0.68 -8.05,-3.97 -9.3,-4.43 -1.25,-0.45 -2.16,-0.68 -3.06,0.68 -0.91,1.36 -3.52,4.43 -4.31,5.34 -0.79,0.91 -1.59,1.02 -2.95,0.34 -1.36,-0.68 -5.75,-2.12 -10.95,-6.75 -4.05,-3.61 -6.78,-8.06 -7.57,-9.43 -0.79,-1.36 -0.08,-2.1 0.6,-2.78 0.61,-0.61 1.36,-1.59 2.04,-2.38 0.68,-0.79 0.91,-1.36 1.36,-2.27 0.45,-0.91 0.23,-1.7 -0.11,-2.38 -0.34,-0.68 -3.06,-7.38 -4.2,-10.1 -1.1,-2.65 -2.23,-2.29 -3.06,-2.34 -0.79,-0.04 -1.7,-0.05 -2.61,-0.05 -0.91,0 -2.38,0.34 -3.63,1.7 -1.25,1.36 -4.76,4.65 -4.76,11.35 0,6.7 4.88,13.17 5.56,14.08 0.68,0.91 9.6,14.65 23.25,20.55 3.25,1.4 5.78,2.24 7.76,2.87 3.26,1.03 6.23,0.89 8.57,0.54 2.61,-0.39 8.05,-3.29 9.19,-6.47 1.13,-3.18 1.13,-5.9 0.79,-6.47 -0.34,-0.57 -1.25,-0.91 -2.61,-1.59l0 0zm0 0l0 0 0 0z"/>
  </g>
 </g>
</svg>
