<?xml version="1.0" encoding="UTF-8"?>
<!DOCTYPE svg PUBLIC "-//W3C//DTD SVG 1.1//EN" "http://www.w3.org/Graphics/SVG/1.1/DTD/svg11.dtd">
<!-- Creator: CorelDRAW 2020 (64-Bit) -->
<svg xmlns="http://www.w3.org/2000/svg" xml:space="preserve" width="34.4442mm" height="20.5953mm" version="1.1" style="shape-rendering:geometricPrecision; text-rendering:geometricPrecision; image-rendering:optimizeQuality; fill-rule:evenodd; clip-rule:evenodd"
viewBox="0 0 2793.13 1670.1"
 xmlns:xlink="http://www.w3.org/1999/xlink"
 xmlns:xodm="http://www.corel.com/coreldraw/odm/2003">
 <defs>
  <style type="text/css">
   <![CDATA[
    .fil0 {fill:black}
   ]]>
  </style>
 </defs>
 <g id="Слой_x0020_1">
  <metadata id="CorelCorpID_0Corel-Layer"/>
  <path class="fil0" d="M2690.15 1440.39l102.98 0 0 -1007.55 -102.98 0 0 -432.83 -569.98 0 0 516.01 -328.18 0 0 -516.01 -559.18 0 -330.33 636.92 -330.33 -636.92 -572.14 0 0 1511.32 569.98 0 0 -604.53 174.88 334.65 302.27 0 174.88 -334.65 0 604.53 10.79 0 559.18 0 0 -537.6 328.18 0 0 537.6 569.98 0 0 -70.94zm0 -764.66l68.66 0 0 -27.47 -68.66 0 0 27.47zm0 54.92l68.66 0 0 -27.47 -68.66 0 0 27.47zm0 54.92l68.66 0 0 -27.47 -68.66 0 0 27.47zm0 54.92l68.66 0 0 -27.47 -68.66 0 0 27.47zm0 109.85l68.66 0 0 -27.47 -68.66 0 0 27.47zm0 -54.92l68.66 0 0 -27.47 -68.66 0 0 27.47zm0 109.85l68.66 0 0 -27.47 -68.66 0 0 27.47zm0 164.77l68.66 0 0 -27.47 -68.66 0 0 27.47zm0 109.85l68.66 0 0 -27.47 -68.66 0 0 27.47zm0 -54.92l68.66 0 0 -27.47 -68.66 0 0 27.47zm0 -164.77l68.66 0 0 -27.47 -68.66 0 0 27.47zm0 54.92l68.66 0 0 -27.47 -68.66 0 0 27.47zm0 219.69l68.66 0 0 -27.47 -68.66 0 0 27.47zm0 54.92l68.66 0 0 -27.47 -68.66 0 0 27.47zm0 -823.85l68.66 0 0 -27.47 -68.66 0 0 27.47zm0 -54.92l68.66 0 0 -27.47 -68.66 0 0 27.47zm0 109.85l68.66 0 0 -27.47 -68.66 0 0 27.47zm-230.86 -397.83c23.4,-9.96 53.91,-16.03 98.62,-14.77 -21.41,-27.22 -40.55,-47.09 -52.03,-67.05 -31.71,18.28 -54.94,37.2 -72.24,56.38 -7.97,-4.18 -16.88,-6.75 -26.4,-7.08 2.98,-25.05 12.8,-54.4 36.43,-92.72 -25.7,0 -51.37,0 -77.07,0 -5.38,45.58 -1.87,77.25 5.82,102.06 -7.94,4.98 -14.6,11.73 -19.56,19.71 -20.18,-14.69 -40.59,-35.35 -61.68,-64.48 -10.57,23.62 -21.07,39.5 -38.83,53.12 36.55,27.29 65.86,40.31 91.35,46.16 0.38,9.6 3,18.51 7.27,26.49 -23.4,9.96 -53.91,16.02 -98.62,14.76 21.39,27.22 40.54,47.09 52.04,67.05 31.68,-18.29 54.92,-37.18 72.2,-56.36 7.97,4.18 16.88,6.75 26.44,7.08 -2.98,25.05 -12.8,54.4 -36.43,92.72 25.7,0 51.37,0 77.07,0 5.4,-45.58 1.87,-77.25 -5.84,-102.06 7.96,-4.98 14.6,-11.73 19.58,-19.71 20.19,14.68 40.62,35.35 61.69,64.44 10.57,-23.6 21.06,-39.49 38.83,-53.1 -36.55,-27.29 -65.85,-40.29 -91.37,-46.16 -0.4,-9.58 -3.01,-18.49 -7.28,-26.48zm-54.14 48.22c-10.63,0 -19.27,-8.65 -19.27,-19.28 0,-10.61 8.63,-19.27 19.27,-19.27 10.62,0 19.27,8.65 19.27,19.27 0,10.62 -8.65,19.28 -19.27,19.28zm54.14 455.55c23.4,-9.96 53.91,-16.03 98.62,-14.77 -21.41,-27.22 -40.55,-47.09 -52.03,-67.05 -31.71,18.28 -54.94,37.2 -72.24,56.38 -7.97,-4.18 -16.88,-6.75 -26.4,-7.08 2.98,-25.05 12.8,-54.4 36.43,-92.72 -25.7,0 -51.37,0 -77.07,0 -5.38,45.58 -1.87,77.25 5.82,102.06 -7.94,4.98 -14.6,11.73 -19.56,19.71 -20.18,-14.69 -40.59,-35.35 -61.68,-64.48 -10.57,23.62 -21.07,39.5 -38.83,53.12 36.55,27.29 65.86,40.31 91.35,46.16 0.38,9.6 3,18.51 7.27,26.49 -23.4,9.96 -53.91,16.02 -98.62,14.76 21.39,27.22 40.54,47.09 52.04,67.05 31.68,-18.29 54.92,-37.18 72.2,-56.36 7.97,4.18 16.88,6.75 26.44,7.08 -2.98,25.05 -12.8,54.4 -36.43,92.72 25.7,0 51.37,0 77.07,0 5.4,-45.58 1.87,-77.25 -5.84,-102.06 7.96,-4.98 14.6,-11.73 19.58,-19.71 20.19,14.68 40.62,35.35 61.69,64.44 10.57,-23.6 21.06,-39.49 38.83,-53.1 -36.55,-27.29 -65.85,-40.29 -91.37,-46.16 -0.4,-9.58 -3.01,-18.49 -7.28,-26.48zm-54.14 48.22c-10.63,0 -19.27,-8.65 -19.27,-19.28 0,-10.61 8.63,-19.27 19.27,-19.27 10.62,0 19.27,8.65 19.27,19.27 0,10.62 -8.65,19.28 -19.27,19.28zm54.14 455.56c23.4,-9.96 53.91,-16.03 98.62,-14.77 -21.41,-27.22 -40.55,-47.09 -52.03,-67.05 -31.71,18.28 -54.94,37.2 -72.24,56.38 -7.97,-4.18 -16.88,-6.75 -26.4,-7.08 2.98,-25.05 12.8,-54.4 36.43,-92.72 -25.7,0 -51.37,0 -77.07,0 -5.38,45.58 -1.87,77.25 5.82,102.06 -7.94,4.98 -14.6,11.73 -19.56,19.71 -20.18,-14.69 -40.59,-35.35 -61.68,-64.48 -10.57,23.62 -21.07,39.5 -38.83,53.12 36.55,27.29 65.86,40.31 91.35,46.16 0.38,9.6 3,18.51 7.27,26.49 -23.4,9.96 -53.91,16.02 -98.62,14.76 21.39,27.22 40.54,47.09 52.04,67.05 31.68,-18.29 54.92,-37.18 72.2,-56.36 7.97,4.18 16.88,6.75 26.44,7.08 -2.98,25.05 -12.8,54.4 -36.43,92.72 25.7,0 51.37,0 77.07,0 5.4,-45.58 1.87,-77.25 -5.84,-102.06 7.96,-4.98 14.6,-11.73 19.58,-19.71 20.19,14.68 40.62,35.35 61.69,64.44 10.57,-23.6 21.06,-39.49 38.83,-53.1 -36.55,-27.29 -65.85,-40.29 -91.37,-46.16 -0.4,-9.58 -3.01,-18.49 -7.28,-26.48zm-54.14 48.22c-10.63,0 -19.27,-8.65 -19.27,-19.28 0,-10.61 8.63,-19.27 19.27,-19.27 10.62,0 19.27,8.65 19.27,19.27 0,10.62 -8.65,19.28 -19.27,19.28zm250.67 187.95c5.68,0 10.3,4.61 10.3,10.3 0,5.68 -4.61,10.3 -10.3,10.3 -5.68,0 -10.3,-4.61 -10.3,-10.3 0,-5.68 4.61,-10.3 10.3,-10.3zm-501.33 0c5.68,0 10.3,4.61 10.3,10.3 0,5.68 -4.61,10.3 -10.3,10.3 -5.68,0 -10.3,-4.61 -10.3,-10.3 0,-5.68 4.61,-10.3 10.3,-10.3zm12.37 203.25l-0.11 -94.71 207.93 0.88 0.23 41.69 18.74 -0.06 -0.04 -42.43 17.44 -0.19 0.09 42.61 155 -0.02 0 -42.36 16.77 0.02 0.15 42.34 18.78 0.03 -0.12 -42.41 88.28 -0.06 0.14 -46.81 -569.99 0.1 0.71 141.56 46.02 -0.16zm238.3 -591.44c99.93,0 180.95,81.01 180.95,180.94 0,99.93 -81.02,180.95 -180.95,180.95 -99.93,0 -180.95,-81.02 -180.95,-180.95 0,-99.93 81.02,-180.94 180.95,-180.94zm0 -503.78c99.93,0 180.95,81.01 180.95,180.94 0,99.93 -81.02,180.95 -180.95,180.95 -99.93,0 -180.95,-81.02 -180.95,-180.95 0,-99.93 81.02,-180.94 180.95,-180.94zm0 -503.77c99.93,0 180.95,81.01 180.95,180.94 0,99.93 -81.02,180.95 -180.95,180.95 -99.93,0 -180.95,-81.02 -180.95,-180.95 0,-99.93 81.02,-180.94 180.95,-180.94zm250.67 -46.93c5.68,0 10.3,4.61 10.3,10.3 0,5.68 -4.61,10.3 -10.3,10.3 -5.68,0 -10.3,-4.61 -10.3,-10.3 0,-5.68 4.61,-10.3 10.3,-10.3zm-501.33 0c5.68,0 10.3,4.61 10.3,10.3 0,5.68 -4.61,10.3 -10.3,10.3 -5.68,0 -10.3,-4.61 -10.3,-10.3 0,-5.68 4.61,-10.3 10.3,-10.3z"/>
 </g>
</svg>
