<?xml version="1.0" encoding="UTF-8"?>
<!DOCTYPE svg PUBLIC "-//W3C//DTD SVG 1.1//EN" "http://www.w3.org/Graphics/SVG/1.1/DTD/svg11.dtd">
<!-- Creator: CorelDRAW 2020 (64-Bit) -->
<svg xmlns="http://www.w3.org/2000/svg" xml:space="preserve" width="12.2246mm" height="13.3929mm" version="1.1" style="shape-rendering:geometricPrecision; text-rendering:geometricPrecision; image-rendering:optimizeQuality; fill-rule:evenodd; clip-rule:evenodd"
viewBox="0 0 61.72 67.62"
 xmlns:xlink="http://www.w3.org/1999/xlink"
 xmlns:xodm="http://www.corel.com/coreldraw/odm/2003">
 <defs>
  <style type="text/css">
   <![CDATA[
    .fil0 {fill:#89CA8E}
   ]]>
  </style>
 </defs>
 <g id="Слой_x0020_2">
  <metadata id="CorelCorpID_0Corel-Layer"/>
  <g id="_2141791783872">
   <path class="fil0" d="M17.63 63.11c0,-1.96 0,-3.92 0,-5.88 0,-2.43 0.09,-3.81 -2.51,-4.89l-2.11 -0.82c-1.44,-0.5 -2.23,-0.84 -3.44,-1.75 -0.98,-0.74 -1.81,-1.67 -2.54,-2.64 -0.42,-0.56 -0.82,-1.21 -1.14,-1.85 -1.42,-2.83 -2.14,-6.09 -2.59,-9.26 -0.12,-0.86 -0.17,-1.79 -0.27,-2.67 -0.06,-0.55 -0.1,-2.35 -0.1,-2.89 0,-0.61 0.05,-1.06 0.05,-1.65 -0,-1.61 0.3,-4.73 0.53,-6.31l0.7 -4.45c0.29,-1.79 0.83,-3.6 1.71,-5.13 0.42,-0.71 0.84,-1.39 1.36,-2.04l1.22 -1.35c0.43,-0.43 0.9,-0.81 1.39,-1.19 0.33,-0.26 0.65,-0.48 0.99,-0.71 2.95,-1.97 6.44,-3.08 9.91,-3.77 1.97,-0.39 4.04,-0.68 6.11,-0.78 0.55,-0.03 1.02,-0.09 1.61,-0.09 0.61,0 1.07,-0.05 1.7,-0.05 4.52,0 10.3,0.61 14.46,1.75 2.14,0.59 4.03,1.33 5.78,2.35 1.06,0.62 2.02,1.32 2.88,2.17 0.25,0.25 0.52,0.49 0.74,0.77l0.7 0.87c2.14,2.84 3,7 3.51,10.63 0.08,0.57 0.19,1.25 0.23,1.84 0.08,1.24 0.23,2.47 0.23,3.81 0,0.68 0.04,1.26 0.05,1.98 0,0.39 -0.05,0.58 -0.05,0.96 0,0.35 0.01,0.71 0,1.06 -0,0.24 -0.04,0.25 -0.05,0.46 -0.01,0.16 0.01,0.34 0,0.51l-0.06 0.95c-0.13,0.92 -0.11,1.87 -0.24,2.79l-0.41 2.67c-0.14,0.79 -0.35,1.68 -0.58,2.45 -0.68,2.31 -1.88,5.69 -3.62,7.49l-1.59 1.48c-1.19,0.89 -1.93,1.24 -3.19,1.86 -0.23,0.11 -0.46,0.19 -0.71,0.3 -1.79,0.72 -3.73,1.14 -5.69,1.43 -1.39,0.2 -3.22,0.39 -4.67,0.43 -0.23,0.01 -0.23,0.04 -0.46,0.05 -0.75,0.02 -1.66,0 -2.41,0.12 -0.32,0.05 -0.66,0 -0.99,0.02 -0.2,0.01 -0.22,0.05 -0.46,0.05 -0.17,0 -0.34,-0.01 -0.51,-0 -0.24,0 -0.25,0.04 -0.46,0.05l-1.47 0.05c-0.72,0 -1.27,0.04 -1.98,0.04 -1.83,0 -2.88,0.06 -3.96,1.14l-0.96 1.06c-0.09,0.09 -0.17,0.16 -0.25,0.25 -0.53,0.63 -3.13,3.21 -4.04,4.09 -0.11,0.11 -0.17,0.13 -0.28,0.23l-2.08 2.01zm44.08 -35.31l0 2.83c-0.06,3.04 -0.33,6.06 -0.85,8.59 -0.58,2.85 -1.42,5.43 -2.57,7.72 -0.87,1.74 -1.21,2.08 -2.3,3.49 -0.11,0.14 -0.19,0.21 -0.31,0.33 -0.64,0.64 -1.29,1.3 -2.05,1.81 -0.14,0.09 -0.24,0.18 -0.38,0.27 -1.48,0.98 -3.03,1.78 -4.72,2.35 -2.07,0.69 -4.06,1.14 -6.31,1.41 -0.82,0.1 -2.77,0.33 -3.53,0.33 -1.23,0.01 -2.46,0.19 -3.68,0.18 -0.28,-0 -0.38,0.03 -0.6,0.05 -0.21,0.01 -0.44,-0 -0.65,-0 -0.26,0 -0.32,0.05 -0.59,0.05 -0.2,0 -0.45,-0.02 -0.64,0.01l-1.84 0.09c-0.46,0 -2.96,0.02 -3.12,0.09 -0.18,0.09 -1.04,1.06 -1.26,1.31 -0.37,0.45 -0.92,0.85 -1.28,1.29 -0.53,0.67 -1.88,1.91 -2.55,2.59l-1.31 1.26c-0.47,0.47 -1.13,1.2 -1.61,1.6 -0.3,0.25 -2.15,2.17 -2.33,2.17l-2.57 0c0,-0.78 -0.13,-9.97 -0.03,-10.68 0.06,-0.37 0.07,-0.86 0.02,-1.25 -0.03,-0.25 -0.08,-0.29 -0.28,-0.4 -0.66,-0.38 -1.63,-0.65 -2.36,-0.9 -1.65,-0.55 -2.89,-1.22 -4.23,-2.25 -1.34,-1.02 -2.52,-2.31 -3.46,-3.7 -0.36,-0.53 -0.66,-1.08 -0.98,-1.64 -1.68,-3.01 -2.62,-7.13 -3.04,-10.6 -0.28,-2.31 -0.33,-4.33 -0.33,-6.7 0,-3.64 0.71,-9.52 1.53,-13.16 0.66,-2.92 1.82,-5.25 3.6,-7.42l0.86 -0.97c0.27,-0.35 0.62,-0.6 0.93,-0.91 1.06,-1.07 2.72,-2.17 4.02,-2.87 0.49,-0.26 0.99,-0.55 1.53,-0.77 0.13,-0.05 0.19,-0.09 0.31,-0.15 1.62,-0.76 3.39,-1.28 5.12,-1.77 2.03,-0.57 4.13,-0.83 6.22,-1.12 0.91,-0.13 2.48,-0.25 3.38,-0.29 2.15,-0.12 4.38,-0.07 6.52,0.05 0.55,0.03 1.15,0.12 1.7,0.14 0.27,0.01 0.59,0.06 0.83,0.08 2.64,0.28 5.36,0.66 7.8,1.25 1,0.24 1.89,0.48 2.83,0.8 0.92,0.31 1.73,0.65 2.62,1.01 1.38,0.57 3.37,1.78 4.51,2.75 0.82,0.7 1.61,1.45 2.3,2.3 1.98,2.44 2.98,4.97 3.73,8.07 0.36,1.5 0.65,2.97 0.87,4.55 0.28,2.03 0.46,4.35 0.51,6.75z"/>
   <path class="fil0" d="M11.76 19.08c0,1.34 0.35,1.95 0.73,2.9 1.42,3.55 1.73,4.38 3.51,7.33l0.69 1.1c0.23,0.39 0.48,0.71 0.72,1.07 0.42,0.63 1.79,2.49 2.33,3.09l0.85 0.99c1.13,1.27 1.82,2.01 3.1,3.19l1.17 1.08c0.11,0.09 0.14,0.1 0.25,0.21l1 0.84c0.35,0.28 0.64,0.52 1,0.79 0.9,0.67 2.23,1.65 3.21,2.25 1.37,0.83 2.54,1.58 3.99,2.3 0.13,0.06 0.18,0.1 0.3,0.16l2.46 1.17c2.49,1.2 3.87,1.44 6.31,-0.04 0.81,-0.49 1.53,-1.09 2.13,-1.82 0.6,-0.74 1.51,-2.21 1.51,-3.22 0,-1.07 -0.26,-1.53 -0.98,-2.24 -0.58,-0.58 -2.49,-1.93 -3.27,-2.52 -1.09,-0.82 -2.32,-1.8 -3.6,-2.23 -0.8,-0.27 -1.69,-0.28 -2.44,0.05 -0.72,0.32 -1.31,0.9 -1.72,1.54 -0.9,1.35 -1.95,1.9 -3.61,1.23l-1.98 -0.96c-0.97,-0.54 -2.58,-1.61 -3.4,-2.44 -0.12,-0.12 -0.22,-0.23 -0.35,-0.34l-0.12 -0.11c-0.01,-0.01 -0.02,-0.02 -0.02,-0.02 -0.01,-0.01 -0.03,-0.04 -0.04,-0.05l-0.54 -0.56c-0.56,-0.67 -1.12,-1.35 -1.58,-2.09 -0.82,-1.3 -2.34,-3.77 -1.37,-5.43 0.07,-0.13 0.22,-0.35 0.31,-0.47l1.65 -1.48c0.28,-0.24 0.36,-0.28 0.59,-0.56 1.2,-1.53 0.4,-2.59 -0.46,-4.17 -0.88,-1.6 -1.5,-2.32 -2.56,-3.68 -0.36,-0.46 -1.08,-1.18 -1.51,-1.62 -0.48,-0.48 -1.31,-1.07 -2.06,-1.07 -0.97,0 -1.78,0.27 -2.59,0.67 -0.18,0.09 -0.33,0.16 -0.49,0.24 -0.65,0.33 -1.51,1.08 -1.96,1.67l-0.43 0.67c-0.38,0.67 -0.73,1.62 -0.73,2.57z"/>
   <path class="fil0" d="M27.87 11.96l0 0.23c0,0.68 0.62,1.42 1.29,1.42 0.52,0 1.12,-0.15 1.73,-0.24 1.91,-0.28 3.97,-0.05 5.81,0.56 0.37,0.12 0.86,0.3 1.19,0.46 2.19,1.08 3.88,2.34 5.3,4.39 2.04,2.95 2.71,6.3 2.09,9.89 -0.1,0.6 -0.34,1.16 0.27,1.76 0.74,0.73 2.18,0.64 2.53,-0.66 0.24,-0.9 0.36,-2.17 0.37,-3.12 0,-0.25 0.07,-0.31 0.04,-0.54 -0.11,-1.05 -0.02,-1.47 -0.27,-2.72 -0.55,-2.76 -1.57,-5.07 -3.35,-7.26l-1.12 -1.22c-1.81,-1.81 -4.21,-3.25 -6.69,-3.97 -2.52,-0.73 -5.01,-0.83 -7.62,-0.35 -0.39,0.07 -0.8,0.17 -1.08,0.39 -0.22,0.17 -0.5,0.6 -0.5,0.97z"/>
   <path class="fil0" d="M29.3 16.28c0,0.36 0.18,0.82 0.36,1.02 0.25,0.28 0.43,0.42 0.87,0.51 0.38,0.08 0.8,-0.09 1.21,-0.11 0.27,-0.01 0.42,-0.04 0.64,-0.05 0.31,-0.01 0.44,0.04 0.69,0.05 2.13,0.05 3.93,0.98 5.34,2.28 0.13,0.12 0.16,0.1 0.29,0.26 0.01,0.01 0.01,0.02 0.02,0.03l0.37 0.41c0.26,0.29 0.67,0.9 0.87,1.24 0.32,0.53 0.64,1.26 0.83,1.93 0.1,0.35 0.18,0.7 0.25,1.13 0.35,2.27 -0.33,2.81 0.08,3.69 0.11,0.23 0.16,0.26 0.32,0.42 0.15,0.15 0.25,0.2 0.45,0.29 0.75,0.34 1.68,-0.01 1.94,-0.73 0.28,-0.76 0.27,-1.93 0.27,-2.81 0,-3.38 -2.11,-7.15 -4.88,-8.99l-0.83 -0.55c-0.33,-0.18 -0.59,-0.32 -0.93,-0.49 -1.06,-0.53 -2.91,-1.09 -4.47,-1.09 -0.88,0 -2,-0.01 -2.77,0.26 -0.27,0.09 -0.48,0.27 -0.63,0.48 -0.11,0.15 -0.27,0.57 -0.27,0.83z"/>
   <path class="fil0" d="M30.81 20.59c0,0.54 0.29,0.97 0.61,1.22 0.41,0.31 0.91,0.23 1.53,0.31 1.89,0.24 3.44,1.79 3.71,3.68 0.09,0.61 -0,1.14 0.29,1.54 0.86,1.19 2.71,0.58 2.71,-0.74 0,-1.72 -0.42,-3.07 -1.33,-4.36 -1.26,-1.78 -3.48,-3.12 -5.69,-3.12l-0.46 0c-0.78,0 -1.38,0.7 -1.38,1.47z"/>
  </g>
 </g>
</svg>
