<?xml version="1.0" encoding="UTF-8"?>
<!DOCTYPE svg PUBLIC "-//W3C//DTD SVG 1.1//EN" "http://www.w3.org/Graphics/SVG/1.1/DTD/svg11.dtd">
<!-- Creator: CorelDRAW 2020 (64-Bit) -->
<svg xmlns="http://www.w3.org/2000/svg" xml:space="preserve" width="11.7869mm" height="11.8398mm" version="1.1" style="shape-rendering:geometricPrecision; text-rendering:geometricPrecision; image-rendering:optimizeQuality; fill-rule:evenodd; clip-rule:evenodd"
viewBox="0 0 57.15 57.4"
 xmlns:xlink="http://www.w3.org/1999/xlink"
 xmlns:xodm="http://www.corel.com/coreldraw/odm/2003">
 <defs>
  <style type="text/css">
   <![CDATA[
    .fil0 {fill:#89CA8E}
   ]]>
  </style>
 </defs>
 <g id="Слой_x0020_2">
  <metadata id="CorelCorpID_0Corel-Layer"/>
  <g>
   <path class="fil0" d="M48.82 8.34c-5.37,-5.38 -12.52,-8.34 -20.13,-8.34 -15.68,0 -28.45,12.76 -28.45,28.44 -0,5.01 1.31,9.91 3.8,14.22l-4.04 14.74 15.08 -3.96c4.16,2.27 8.83,3.46 13.6,3.46l0.01 0c15.68,0 28.45,-12.76 28.45,-28.44 0,-7.6 -2.95,-14.75 -8.33,-20.12l0 0zm-20.13 43.76l-0.01 0c-4.24,-0 -8.41,-1.14 -12.04,-3.3l-0.86 -0.51 -8.95 2.35 2.39 -8.72 -0.56 -0.89c-2.37,-3.76 -3.62,-8.11 -3.62,-12.58 0.01,-13.04 10.61,-23.64 23.66,-23.64 6.32,0 12.25,2.46 16.72,6.93 4.46,4.47 6.92,10.41 6.92,16.73 -0.01,13.04 -10.61,23.64 -23.65,23.64l0 0zm12.97 -17.71c-0.71,-0.36 -4.21,-2.08 -4.86,-2.31 -0.65,-0.24 -1.13,-0.36 -1.6,0.36 -0.47,0.71 -1.84,2.31 -2.25,2.79 -0.41,0.47 -0.83,0.53 -1.54,0.18 -0.71,-0.36 -3,-1.11 -5.72,-3.53 -2.11,-1.88 -3.54,-4.21 -3.96,-4.92 -0.41,-0.71 -0.04,-1.1 0.31,-1.45 0.32,-0.32 0.71,-0.83 1.07,-1.25 0.36,-0.42 0.47,-0.71 0.71,-1.19 0.24,-0.47 0.12,-0.89 -0.06,-1.25 -0.18,-0.36 -1.6,-3.85 -2.19,-5.28 -0.58,-1.39 -1.16,-1.2 -1.6,-1.22 -0.41,-0.02 -0.89,-0.03 -1.36,-0.03 -0.47,0 -1.24,0.18 -1.9,0.89 -0.65,0.71 -2.49,2.43 -2.49,5.93 0,3.5 2.55,6.88 2.9,7.35 0.36,0.47 5.01,7.65 12.14,10.73 1.7,0.73 3.02,1.17 4.05,1.5 1.7,0.54 3.25,0.46 4.48,0.28 1.37,-0.2 4.21,-1.72 4.8,-3.38 0.59,-1.66 0.59,-3.08 0.41,-3.38 -0.18,-0.3 -0.65,-0.47 -1.36,-0.83l0 0zm0 0l0 0 0 0z"/>
  </g>
 </g>
</svg>
