<?xml version="1.0" encoding="UTF-8"?>
<!DOCTYPE svg PUBLIC "-//W3C//DTD SVG 1.1//EN" "http://www.w3.org/Graphics/SVG/1.1/DTD/svg11.dtd">
<!-- Creator: CorelDRAW 2020 (64-Bit) -->
<svg xmlns="http://www.w3.org/2000/svg" xml:space="preserve" width="12.2252mm" height="11.1022mm" version="1.1" style="shape-rendering:geometricPrecision; text-rendering:geometricPrecision; image-rendering:optimizeQuality; fill-rule:evenodd; clip-rule:evenodd"
viewBox="0 0 61.72 56.05"
 xmlns:xlink="http://www.w3.org/1999/xlink"
 xmlns:xodm="http://www.corel.com/coreldraw/odm/2003">
 <defs>
  <style type="text/css">
   <![CDATA[
    .fil0 {fill:#89CA8E}
   ]]>
  </style>
 </defs>
 <g id="Слой_x0020_2">
  <metadata id="CorelCorpID_0Corel-Layer"/>
  <path class="fil0" d="M1.49 23.27l0.01 -0.01c0.61,-0.57 1.37,-0.96 2.18,-1.14 2.26,-1.06 6.04,-2.69 10.39,-4.53 11.27,-4.76 26.76,-11.25 28.04,-11.78 0.21,-0.09 0.77,-0.33 2.05,-0.87 3.73,-1.59 10.82,-4.59 11.85,-4.83 2.52,-0.57 5.03,1.02 5.59,3.54 0.1,0.43 0.13,0.86 0.11,1.28 -0,0.06 -0.01,0.14 -0.02,0.22l-0.02 0.13c-0.19,1.55 -1.07,5.87 -1.52,8.07l-0.04 0.17 -0.16 0.77c-1.08,5.37 -2.6,13.22 -4.12,21.07 -0.99,5.09 -1.98,10.2 -2.59,13.3l-0.03 0.14c-0.23,1.19 -0.32,1.59 -0.39,1.98l-0.01 0.07c-0.08,0.4 -0.15,0.78 -0.29,1.22 -1.02,3.11 -2.72,4.9 -7.03,3.48 -1.14,-0.37 -5.27,-3.56 -9.21,-6.62 -1.47,-1.14 -2.6,-2.17 -3.43,-2.93l-3.7 3.4 -0.12 0.11c-0.14,0.13 -0.27,0.23 -0.4,0.34 -0.07,0.06 0.03,-0.04 -0.06,0.04l-0.01 0.01 0.01 0.01c-0.08,0.07 -0.06,0.05 -0.06,0.06 -0.15,0.15 -0.29,0.3 -0.53,0.5 -0.06,0.06 -0.07,0.07 -0.22,0.21 -0.38,0.35 -0.79,0.73 -1.4,1.12 -2.18,1.39 -5.07,0.75 -6.45,-1.43 -0.49,-0.76 -0.72,-1.61 -0.73,-2.46l0 -0.1c0,-0.2 0.02,-0.4 0.04,-0.59 0.14,-1.36 0.56,-3.94 0.83,-5.55 0.15,-0.92 0.09,-0.52 0.18,-1.08l0.51 -3.28 -0.01 -0 0.06 -0.39c0.06,-0.38 0.13,-0.87 0.25,-1.36 -0.12,0.06 -0.25,0.12 -0.37,0.17 -1.92,0.8 -9.87,-2 -11.11,-2.43l-0.02 -0.01 -0 0.01 -0.29 -0.11c-0.77,-0.27 -1.55,-0.52 -2.33,-0.77 -1.33,-0.43 -2.65,-0.85 -3.89,-1.33 -2.42,-0.91 -3.64,-3.61 -2.73,-6.03 0.26,-0.7 0.68,-1.3 1.19,-1.78zm3.19 3.43c0.25,-0.23 37.11,-15.69 39.22,-16.56 1.12,-0.46 12.37,-5.28 13.14,-5.46 -0.05,0.91 -1.37,7.27 -1.66,8.7 -2.29,11.4 -4.48,22.93 -6.73,34.38 -0.14,0.73 -0.28,1.44 -0.42,2.16 -0.16,0.83 -0.26,1.52 -1.28,1.18 -0.71,-0.23 -14.06,-10.84 -14.6,-10.99l-6.37 5.84c-0.18,0.18 -0.35,0.29 -0.55,0.47 -0.19,0.18 -0.34,0.34 -0.52,0.5 -0.31,0.26 -0.76,0.73 -1.07,0.92 -0.01,-0.55 0.85,-5.57 1,-6.56l0.52 -3.32c0.05,-0.31 0.19,-1.42 0.29,-1.59l12.74 -11.89c0.7,-0.6 1.29,-1.24 1.98,-1.86 0.61,-0.55 1.4,-1.22 1.95,-1.81 0.58,-0.62 1.41,-1.23 2,-1.84l1.94 -1.82c0.34,-0.29 0.64,-0.61 0.97,-0.91 0.5,-0.45 2.24,-1.94 2.31,-2.41 0.31,-1.92 -2.97,0.4 -3.17,0.53l-26.22 16.23c-0.26,0.16 -1.05,0.7 -1.3,0.81 -0.28,0.12 -7.22,-2.33 -7.85,-2.55 -2.11,-0.74 -4.27,-1.36 -6.33,-2.14z"/>
 </g>
</svg>
