<?xml version="1.0" encoding="UTF-8"?>
<!DOCTYPE svg PUBLIC "-//W3C//DTD SVG 1.1//EN" "http://www.w3.org/Graphics/SVG/1.1/DTD/svg11.dtd">
<!-- Creator: CorelDRAW 2020 (64-Bit) -->
<svg xmlns="http://www.w3.org/2000/svg" xml:space="preserve" width="91.4399mm" height="60.9599mm" version="1.1" style="shape-rendering:geometricPrecision; text-rendering:geometricPrecision; image-rendering:optimizeQuality; fill-rule:evenodd; clip-rule:evenodd"
viewBox="0 0 9143.98 6095.98"
 xmlns:xlink="http://www.w3.org/1999/xlink"
 xmlns:xodm="http://www.corel.com/coreldraw/odm/2003">
 <defs>
  <style type="text/css">
   <![CDATA[
    .fil0 {fill:none}
    .fil2 {fill:black}
    .fil5 {fill:#010101}
    .fil4 {fill:#030303}
    .fil3 {fill:#070707}
    .fil1 {fill:#0C0C0C}
   ]]>
  </style>
 </defs>
 <g id="Слой_x0020_1">
  <metadata id="CorelCorpID_0Corel-Layer"/>
  <rect class="fil0" x="-0" y="-0" width="9143.98" height="6095.98"/>
  <path class="fil1" d="M1807.66 5474.52c-46.75,24.59 -222.57,23.18 -270.3,6.29 5.17,-30.37 19.44,-31.76 52.07,-37.15 77.66,-12.81 151.73,-4.33 218.23,30.86zm0.53 -1382.59c1.94,-1.48 35.34,-23.4 35.22,-59.58 -25.67,2.3 -45.13,34.53 -35.22,59.58zm484.66 -1778.76c38.82,-14.19 -5.3,-33.59 79.63,-98.74l16.78 -15.29c-74.7,0.08 -109.04,78.69 -96.41,114.03zm-1263.29 889.73c9.31,-35.06 -4.39,-114.08 55.03,-163.45 16.32,-13.56 30.06,-22.04 42.41,-40.44 -40.21,5.7 -74.78,41.7 -90.1,72.46 -11.45,23 -15.76,31.4 -20.52,57.75 -13.02,72.01 -1.48,66.72 13.18,73.68zm1603.17 -895.33c-52.89,24.09 -47.26,133.36 11.48,125.61 31.61,-4.16 35.6,-38.71 30.49,-73.97 -4.42,-30.51 -11.23,-65.65 -41.97,-51.64zm134.66 304.5c-105.3,-27.98 -364.78,134.84 -356.28,164.76 3.03,10.66 111.25,-67.09 158.41,-90.54 49.8,-24.75 93.18,-43.49 150.17,-50.98 6.37,-0.84 22.18,-2.15 27.13,-3.75 27.95,-9.05 12.38,-1.3 20.57,-19.49zm-311.99 -256.36c-79.33,14.5 -58.25,131.86 -5.46,136.81 77.71,7.29 50.61,-105.63 5.46,-136.81zm-1453.18 2258.12c75.54,6.15 244.25,204.23 255.19,238.64 -113.12,-21.66 -223.31,-144.56 -255.19,-238.64zm291.57 243.59l-5.52 -7.15c-3.71,-5.25 -3.66,-5.08 -7.61,-11.14 -51.38,-78.86 -46.72,-68.2 -114.38,-142.33 -181.71,-199.11 -267.06,-96.76 -83.61,89.98 36.15,36.8 129.73,101.56 211.12,103.48 18.09,-5.51 310.93,-491.98 347.37,-549.39 40.1,-63.2 107.8,-144.88 115.39,-196.83 -27.44,15.2 -112.25,148.53 -127.16,173.01 -37.84,62.14 -77.86,119.59 -116.48,182.89l-170.48 275.18c-19.81,31.78 -27.66,57.53 -48.64,82.3zm847.99 -1560.78c71.15,-46.25 95.06,136.03 -1.69,163.43 -80.21,22.73 -89.01,-104.47 1.69,-163.43zm-953.14 -10.21c89.97,0.83 172.17,177.67 91.98,192.35 -47.09,8.62 -92.95,-36.36 -107.85,-63.54 -35.43,-64.65 -1.02,-103.76 15.87,-128.81zm142.99 378.9c-9.48,-37.58 -40.73,-126.24 -41.15,-158.86 32.45,-28.43 56,-35.89 47.95,-103.57 -4.11,-34.61 -37.61,-80.01 -53.03,-94.37 -47.6,-44.31 -64.22,-17.82 -79.72,-66.7 -10.84,-34.14 -23.69,-84.21 -28.1,-119.21 28.11,13.54 61.32,42.41 91.11,62.52 28.85,19.47 59.04,40.51 91.38,61.23 236.41,151.47 180.62,65.34 215.65,236.07 23.55,114.78 58.91,261.61 76.7,369.82 15.08,-15.16 3.24,3.42 10.07,-16.23 9.88,-28.37 -30.12,-204.42 -35.96,-233.03l-55.41 -229.91c12.68,4.68 20.5,8.86 34.4,12.14l29.92 6.93c1.24,0.41 4,3.56 4.89,2.1 11.01,-18.11 46.11,215.92 49.26,237.34l39.73 235.98c-41.87,13.74 -34.58,9.21 -72.27,-8.28l-207.65 -103.77c-122.07,-55.29 -100.96,-23.58 -117.77,-90.2zm225.77 -341.82c-28.74,-6.4 -282.4,-164.06 -307.48,-186.84 41.02,0.55 191.84,88.11 244.58,127.98 20.79,15.72 52.29,37.89 62.9,58.86zm1232.6 -976.06c53.64,96.55 65.99,243.92 27.22,360.69 -149.73,450.95 -763.31,381.59 -928.47,52.17 -87.27,-174.06 -25.04,-499.68 171.27,-614.15 70.17,-40.91 79.25,-35.42 167.93,-46.27 -3.42,-22.14 8.29,-0.89 -17.94,-20.59 130.91,-14.75 276.07,-23.26 371.98,53.04 -16.88,16.99 -12.74,3.6 -22.05,24.42 27.27,13.68 42.93,-15.62 82.67,14.17 59.29,44.44 111.45,111.82 147.39,176.52zm-782.94 796.1c-15.65,12.95 -357.45,59.81 -383.56,174.35 25.12,-10.88 26.04,-16.13 44.13,-31.44 70.52,-59.63 301.2,-128.64 376.92,-119.63 -36.81,29.15 -239.6,97.61 -309.4,126.01 -52.06,21.18 -84.44,24.89 -83.62,52.57 40.97,-6.55 327.62,-120.46 383.09,-143.7 41.31,-17.3 76.63,-43.77 118.29,-55.67 -8.45,69.45 -0.51,115.73 -48.26,156.22 -46.59,39.5 -101.17,152.27 -5.91,187.85l17.42 7.76c0.71,-1.29 2.95,1.48 4.24,2.49 -0.06,29.74 -2.2,157.9 -12.8,177.53 -13.75,25.45 -335.99,185.92 -362.66,177.4 -19.83,-71.92 -32.08,-257.93 -60.59,-383.5 -18.57,-81.79 -29.31,-60.08 -10.39,-113.76 -44.31,2.02 -72.63,5.36 -116.56,-34.52 26.25,-46.41 -127.24,-138.71 -179.37,-162.75 -24.41,-11.25 -61.48,-20.47 -68.8,-43.42 137.06,-50.49 242.37,173.44 285.25,199.51 45.31,-62.85 75.77,-104.93 149.78,-142.78 113.03,-57.81 196.49,-28.16 219.35,-29.73 22.25,-1.52 14.27,7.98 22.28,-10.38 -33.24,-7.2 -28.39,-26.59 -121.72,-16.54 -43.41,4.67 -75.85,14.54 -112.78,32.72 -63.5,31.25 -82.63,48.53 -126.17,93.89 -16.08,16.75 -18.85,30.68 -32.07,45.95 -39.86,-53.69 -104.62,-219.33 -266.36,-197.7 -29.99,4.02 -29.45,11.64 -34.33,20.86 -1.41,2.67 -2,6.31 -3.26,8.8l-135.21 -26.31c-1.3,67.38 21.76,118.27 26.98,181.5 -22.31,14.14 -29.23,16.61 -37.85,46.55 -13.56,47.12 -6.21,101.99 29.33,140.73 42.62,46.45 56.59,19.6 76.04,53.52l13.59 -0.13 2.15 37.81c20.16,59.71 43.88,165.94 68.84,206.11 27.31,-11.75 0.39,-35.39 119.56,27.25l183.58 97.41c66.03,41.72 93.07,12.59 203.08,-37.06 39.52,-17.83 83.15,-39.95 122.02,-60.88 179.43,-96.57 176.7,-61.09 183.4,-196.5 3.91,-79.05 -7.83,-104.08 48.14,-139.63l168.24 184.99c36.89,35.59 49.76,59.29 107.48,112.51l106.41 107.33c12.98,12.41 22.13,26.37 35.19,37.83 47.04,41.27 120.5,93.67 185.29,106.79l0.16 29.81 23.41 -0.65 -4.29 -95.5 -11.31 16.9c-19.78,-24.52 -45.97,-73.27 -62.2,-102.53 -20.82,-37.52 -39.69,-68.1 -60.36,-104.56l-238.08 -433.7c-19.11,-34.48 -39.96,-72.39 -61.25,-103.37 -17.24,-25.09 -21.72,-28.29 -21.15,-67.91 0.39,-26.8 -0.7,-56.49 7.09,-81.8 228.73,-29.42 344.6,-98.15 448.72,-284.2 28.85,-51.55 49.73,-119.74 52.71,-189.73 3.65,-85.68 -5.93,-138.74 -32.19,-210.6 -12.62,-34.56 -41.98,-90.59 -64.69,-118.6 -12.42,-15.33 -17.92,-23.7 -26.97,-34.08 -133.18,-152.73 -252.69,-151.76 -311.41,-180.51l127.58 -62.38c-58.87,5.57 -91.81,16.42 -139.85,40.3 -56.78,28.24 -83.47,20.61 -149.86,27.08 45.76,-36.69 112.95,-51.75 161.46,-84.4l-9.03 -2.14c-26.38,-2.41 10.93,-1.03 -9.37,-0.86 -89,0.77 -193.16,116.7 -300.65,138.42 26.14,-39.42 147.33,-96.05 156.44,-114.79 -96.24,10.9 -172.93,100.34 -226.48,147.88 -25.63,22.75 -47.22,34.25 -69.54,58.93 -173.78,192.17 -224.21,550.85 -5.39,723.4 113.15,89.21 209.55,138.17 367.12,146.05l-2.36 107.52c-33.93,15.41 -131.57,44 -146.82,80.65 57.25,-3.2 93.57,-39.28 143.99,-50.94 -7.7,76.71 -41.13,272.51 -18.38,331.95 21.69,-20.35 21.93,-102.92 26.6,-149.22 5.31,-52.74 9.95,-104.1 14.88,-157.57 26.13,10.21 39.22,62.14 51.55,85.49l252.17 468.22c30.92,55.18 78.95,129.81 102.4,184.81 -42.1,-15.39 -121.04,-88.01 -153.29,-115.55 -100.84,-86.11 -235.38,-246.92 -331.82,-339.72 -24.1,-23.2 -39.75,-46.61 -62.88,-70.68 8,-34.12 29.42,-56.87 23.81,-103.38 -6.42,-53.22 -29.69,-51.24 -66.37,-68.65l8.99 -147.1c-24,3.79 -84.87,30.41 -99.05,44.03 -1.64,-0.5 -3.65,-3.94 -4.43,-2.63l-23.25 -10.15c-12,-2.43 -28.17,0.18 -44.76,-1.75zm674.06 1171.54c-30.05,-2.69 -66.04,-1.34 -146.42,9.36l-231.01 26.14c-2.94,0.25 -12.16,1.18 -15.38,2.06 -18.49,5.05 -11.11,3.33 -18.63,8.83 62.42,35.95 225.68,-25.25 411.44,-22.33l0 -24.06zm-823.52 1069.64c-3.13,-96.76 -4.5,-193.7 -10.18,-290.14 -7.72,-130.97 -19.5,-260.41 -26.98,-391.05 -15.05,-262.6 -14.29,-529.67 -47.53,-788.21 19.05,12.66 112.41,156.93 163.09,202.33 32.39,29.01 168.61,160.1 181.42,186.3 -81.8,-15.69 -74.39,-17.47 -162.76,-18.98 -26.49,-0.45 -40.62,-1.26 -56.93,9.32 30.02,21.92 204.24,8.06 263.46,59.67 -57.59,4.94 -119.41,1.6 -175.68,-4.88 -26.15,-3.01 -54.29,-7.71 -80.06,-11.78l-63.58 -9.46c-4.7,0.06 -13.52,1.38 -17.84,3.1 10.97,32.92 79.35,32.13 137.87,41 92.07,13.95 82.65,18.42 154.52,5.29 47.49,-8.67 103.61,15.45 136.57,34.35l108.39 68.87c-7.58,-55.6 -95.63,-89.2 -112.58,-101.53 -23.76,-17.27 -1.38,2.82 -16.03,-20.94 -9.54,-15.48 -5.44,-4.05 -13.76,-19.13 68.11,-23.2 243.33,-21.2 266.72,-32.34l-24.98 -11.45c-56.94,-10.76 -186.1,6.6 -238.67,17.88 13.36,-116.2 35.21,-236.47 51.97,-353.18 8.96,-62.34 54.98,-313.55 23.48,-355.06 -9.24,9.27 -2.39,-1.62 -7.92,11.68l-8.72 61.48c-17.08,156.14 -56.37,473.54 -84.32,602.49 -33.89,-76.8 -60.99,-170.29 -87.48,-250.41 -19.08,-57.69 -75.78,-210.94 -81.13,-259.63 -19.26,10.43 -2.14,-1.34 -12.73,9.56 -4.18,4.29 -7.28,9.12 -10.98,14.92l-128.31 169.74 5.52 23.41 22.02 -19.75c5.77,-7.34 9.07,-12.96 15.05,-21.74l95.48 -126.59 144.92 465.49c-23.67,-14.82 -18.55,-14.43 -38.93,-33.95 -14.95,-14.31 -28.39,-22.66 -43.7,-36.17l-223.83 -248.81c-17.55,-6.28 -56.83,-60.37 -66.4,-75.48 -52.16,11.51 -32.63,54.63 -22.66,167.07 5.82,65.72 9.6,127.4 12.93,193.3 6.8,134.47 8.28,269.27 14.22,403.55 5.69,128.81 16.91,259.97 27,388.4 10.55,134.37 10.17,272.1 14.95,407.89 -29.07,-5 -53.46,-19.85 -85.15,-27.2 -60.33,-13.98 -131.28,-15.37 -189.83,5.89 -28.97,10.53 -49.47,46.05 -55.69,73.68 133.47,21.34 205.75,24.48 355.76,-0.48l0 -118.32z"/>
  <path class="fil2" d="M5427.78 5780.83c10.28,-59.03 145.59,-63.8 145.69,-63.77 20.7,12.5 42.92,28.15 51.91,49.95 -28.44,41.46 -161.56,42.29 -197.6,13.82zm1148.96 18.74c2.64,-32.32 17.15,-27.96 23.86,-62.07l286.12 -0.43 -3.48 59.5 -242.67 2.69c0.08,-23.74 3.9,-14.14 9.77,-36.12 -14.24,20.33 -12.58,31.28 -47,35.05l18.12 -41.87c-22.11,17.79 -12.66,27.92 -44.72,43.25zm-13.57 -67.76c-3.56,22.31 7.97,9.21 -12.3,19.58 0.82,-18.94 -3,-11.74 12.3,-19.58zm-1662.05 28.93c3.5,-38.51 -2.96,-19.51 19.78,-31.68 -6.11,17.48 3.63,2.76 -8.08,20.07l-11.7 11.61zm1653.02 36.47c2.78,-16.8 4.21,-25.64 11.99,-40.55 12.83,-24.64 6.23,-16.87 34.65,-19.32 -11.4,23.84 -26.39,49.49 -46.64,59.87zm-1648.8 1.88c3.22,-22.88 22.38,-46.96 32.17,-66.35 58.96,-2.07 85.32,9.98 137.82,9.38 44.94,-0.53 102.72,-8.14 142.57,-6.57l2.59 63.68 -271.14 0.65 21.66 -59.45c-46.14,20.32 -10.8,61.08 -65.67,58.66zm2069.44 -89.02c-55.79,11.43 -449.51,8.27 -513.91,-0.6 -9.3,-92.95 -1.68,-706.69 -1.6,-854.39 0.04,-85.54 -11.7,-352.65 14.44,-413.11 108.26,-250.31 423.94,-250.76 494.3,-12.03 19.47,66.01 8.68,1170.35 6.77,1280.13zm-1855.05 -811.46c50.76,-2.75 103.77,68.91 108.46,121.51 -48.47,-16.32 -121.25,-57.11 -108.46,-121.51zm604.58 -264.6c13.63,11.02 336.3,65.18 339.98,65.4 62.48,3.76 130.1,-11.85 193.93,-12.53 76.44,-0.8 111.21,13.04 178.13,24.89l-0.73 983.52c-74.91,9.01 -547.99,2.03 -696.15,1.86 -16.28,-0.01 -32.65,-0.35 -48.86,-0.38 -5.84,-0.01 -21.94,0.01 -27,0.83l-20.51 7.23c21.92,20.75 64.16,12.2 96.36,12.16 158.71,-0.26 676.49,-11.97 788.94,22.39l2.53 60.47 -899.13 0.33c5.74,-18.46 22.93,-31.33 13.13,-55.77 -8.07,-20.11 -31.4,-30.91 -35.24,-54.2 -2.2,-13.41 12.73,-135.69 14.73,-162.48 25.22,-338.75 69.17,-659.18 96.13,-984.73 39.69,1.32 241.81,96.51 269.32,117.73 -42.15,-3.32 -88.13,-14.53 -131.07,-21.26 -22.63,-3.55 -96.45,-17.38 -118.21,-12.57 -16.05,3.55 -6.28,-0.23 -16.28,7.11zm547.76 -98.33c-4.19,-8.2 -5.9,-10.58 1.35,-30.83 10.67,-29.78 39.3,-82.34 62.71,-98.34 -2.97,48.24 -37.91,105.17 -64.06,129.17zm-28.2 30.59c74.25,2.62 114.8,-135.55 120.53,-192.85l197.32 -87.94c-15.8,25.32 -42.12,43.05 -62.2,71.58 -87.83,124.73 -52.02,184.54 -63.34,332.18 -268.93,-50.02 -163.66,-9.58 -370.62,-9.26l99.63 -503.82c30.29,-162.15 59.08,-358.74 101.32,-514.16 15.04,7.25 58.12,49.08 71.71,63.01 86.8,88.88 282.83,244.34 366.24,325.45 29.59,28.77 46.07,46.9 69.35,68.58 23.31,21.7 57.07,48.02 73.03,72.82 -26.54,15.02 -153.36,31.86 -197.72,44.78 -88.18,25.68 -276.44,91.41 -328.73,155.23 -28.69,35 -85.42,105.38 -76.52,174.4zm-103.22 -1981.23c-0.01,-1.16 -0.42,-1.94 0,-2.76 135.2,-38.94 281.85,10.09 370.65,71.94 343.13,239.03 243.22,723.96 -136.82,810.43 -232.02,52.8 -526.77,-92.41 -575.38,-319.73 -27.96,-130.73 8.16,-274.55 63.66,-370.3 74.19,-128 149.99,-153.19 277.89,-171.41 0.47,-0.97 0.21,-2.81 0.21,-3.22 0.01,-0.42 0.13,-2.67 0.13,-3.17l-0.34 -11.78zm203.32 -35.44c-150.77,-1.18 -89.39,-8.2 -140.92,-29.48 -16.4,-6.77 -21.16,-5.32 -36.18,-14.46 36.67,-5.09 74.93,-7.62 111.38,1.2 41.96,10.14 55.62,21.36 65.72,42.74zm-946.67 1159.55c-8.31,11.33 24.66,19.08 -24.81,9.65l131.81 161.51c49.03,-6.19 135.2,-40.71 185.33,-56.37 59.87,-18.7 119.34,-37.19 180.31,-54.58l368.27 -106.36 -187.49 982.16c-43.99,-6.37 -215.68,-133.87 -267.49,-165.54 -87.26,-53.33 -63.88,-25.89 -192.89,129.9l-23.55 20.89 -224.66 269.86c-13.23,13.44 -1.44,5.94 -20.38,17.65 -3.84,15.8 4.02,-0.35 -10.33,20.72l-56.13 69.62c-20.71,-26.84 -48.77,-143.47 -145.73,-124.47 -52.89,90.26 105.04,181.76 143.97,156.54l236.51 -282.19c75.19,-84.45 179.5,-231.75 229.74,-287.09 39.68,17.59 117.36,72.67 150.7,99.47 -45.53,-9.66 -128.19,-67.26 -170.32,-57.93 -13.8,197.06 -41.52,389.97 -62.09,587.61 -19.88,190.84 -23.32,410.71 -53.83,595.56 -45.46,13.25 -66.99,5.65 -116.42,27.62 -65.16,28.97 -39.84,26.14 -67.27,76.09l-157.62 0.24c-7.28,-144.14 85.59,7.75 87.14,-135.93 2.07,-192.72 8.27,-509.08 -2.64,-681.91 -35.16,11.58 -22.17,89.48 -22.2,156.46 -0.06,128.88 7.76,492.17 -2.24,572.3l-475.03 3.86c0.51,-160.51 -12.53,-1141.84 11.25,-1212.48 70.26,-208.73 314.14,-208.91 392.47,-134.62 135.11,128.14 40.05,509.08 82.89,549.83 25.49,-62.48 11.99,-164.99 15.63,-244.51 43.08,-4.85 204.67,-22.63 226.71,-43.35 -39.97,-12.17 -187.31,21.96 -228.51,34.14 -0.21,-199.16 -9.78,-367.69 -232.47,-361.29 -89.15,2.56 -169.8,41.69 -211.24,86.01 -54.3,58.06 -74.4,119.63 -74.2,225.06l0.87 891.2c0.99,268.38 -16.67,215.48 68.83,230.15 1.86,85.49 21.12,64.01 -219.75,64.75l0 25.98 2573.07 -1.19 0 -21.65 -325.38 -2.67 1.26 -59.78c38.79,-4.52 55.63,1.95 81.92,-13.41 22.35,-51.21 8.5,-731.82 8.43,-850.86 -0.08,-124.56 8.78,-305.96 -8.1,-422.4 -18.94,-130.77 -67.82,-191.93 -207.46,-224l104.53 -20.48c-9.55,-49.58 -196.81,-212.95 -251.25,-257.76l-265.29 -232.41c-23.58,-21.53 -66.66,-54.86 -86.59,-79.47 -22.04,-27.21 -2.33,-94.55 2.66,-136.31 365.07,-34.23 547.98,-378.05 420.1,-665.44 -67.99,-152.79 -169.25,-213.33 -313.83,-273.92 -39.59,-16.59 -16.81,-42.6 -75.88,-69.38 -86.79,-39.33 -147.14,1.88 -178.63,12.01 -38.22,12.29 -112.16,12.43 -137.36,78.23 18.13,-6.48 113.04,-89.9 194.02,-36.85 -29.12,19.2 -131.79,44.73 -173.58,61.9 -66.51,27.31 -98.01,58.99 -135.24,100.03 -73.84,81.42 -118.69,207.26 -120.41,349.2 -2.61,216.74 128.81,338.29 298.42,405.99 118.59,47.34 152.54,25.82 194.16,43.17 4.43,38.79 -6.65,93.15 -16.72,129.66l-731.69 220.79c-34.4,-53.36 -78.95,-98 -114.3,-149.21z"/>
  <path class="fil2" d="M5195.59 3441.36c-35.12,6 -73.67,-0.64 -106.79,-8.71 -36.57,-8.9 -63.28,-16.22 -67.29,-47.81 63.35,-13.13 158.77,12.25 174.08,56.52zm-213.52 -289.1c17.51,-17.9 -30.27,-7.7 19.95,-18.96 -12.45,24.09 7.16,8.27 -19.95,18.96zm93.97 37.08c31.79,-15.96 33.22,-31.06 56.37,-57.64l85.04 -7.64c-21.89,98.72 -187.41,104.59 -218.73,38.43 25.05,-40.24 60.97,-33.73 116.65,-27.05l-39.33 53.9zm-93.94 -116.66c43.36,-5.93 197.58,-12.37 233.97,-0.13l1.93 34.67c-8.71,4.92 3.94,1.55 -18.31,6.68l-223.13 6.4 5.54 -47.62zm59.34 151.01l48.53 7.91 -4.35 128.25 -51.21 3.85c-47.06,11.35 -71.37,60.32 54.29,95.73 -4.01,91.05 -42.21,42.46 -91.6,89.94 22.87,12.17 124.91,11.74 191.36,1.04 -8.1,-28.59 14.93,-6.11 -21.02,-24.11 -48.83,-24.47 -64.41,10.02 -57.93,-61.77l31.88 -2.3 13.42 5.85 63.65 0.77c48.97,88.08 92.86,181.98 154.03,249.96 49.47,9.43 16.5,1.68 24.81,-9.65 -46.89,-62.35 -85.9,-119.23 -124.61,-197.89 -39.59,-80.4 -65.84,-130.8 -168.69,-149.21l6.99 -136.85c40.15,-11.71 80.54,-21.22 100.21,-44.58 21.34,-25.36 34.55,-74.94 20.73,-119.38 -18.34,-23.05 -225.96,-11.89 -244.52,-6.84 -68.66,18.66 -28.63,154.3 54.03,169.28z"/>
  <path class="fil2" d="M6682.65 4342.92c107.14,-26.2 185.79,54.64 215.43,135.84 43.11,118.09 -1.46,192.1 -108.9,216.24 -283.94,63.76 -302.93,-304.07 -106.53,-352.08zm-150.29 242.74c43.93,234.38 494.68,167.5 390.4,-118.31 -99.73,-273.33 -439.59,-144.15 -390.4,118.31z"/>
  <path class="fil2" d="M4906.68 4668.55c-15.46,-109.7 21.07,-236.67 113.01,-250.51 123.78,-18.63 166.59,58.92 205.91,148.75 53.85,122.99 16.22,191.2 -97.77,223.35 -115.53,32.59 -206.53,-17.8 -221.15,-121.59zm112.16 -266.13c-111.43,23.99 -143.58,141.58 -135.9,273.02 3.45,58.91 36.54,101.18 73.37,125.88 63.14,42.34 104.43,14.21 126.47,12.56 22.75,-1.69 12.58,6.3 42.28,0.7 114.38,-21.58 182.35,-124.75 129.17,-248.52 -42.33,-98.48 -93.2,-194.26 -235.39,-163.64z"/>
  <path class="fil2" d="M5151.53 3022.78c15.86,-24.62 15.52,-77.33 24.34,-112.31 122.38,-484.93 515.68,-309.59 629.17,-355.93 -33.44,-23.16 -348.93,-35.7 -481.51,67.93 -28.25,22.09 -45.62,43.45 -69.02,76.45 -51.5,72.65 -138.25,259.3 -102.98,323.86z"/>
  <path class="fil2" d="M6242.71 3221.16c-20.78,-12.12 -82.61,42.45 -214.15,39.32 -138.19,-3.28 -150.74,-77.6 -191.13,-81.66 10.19,74.05 129.31,105.28 185.81,106.15 52.04,0.81 148.72,-9.7 198.32,-40.14 19.38,-11.9 12.64,-5.82 21.15,-23.67z"/>
  <path class="fil2" d="M5666.6 5666.92c110.69,14.36 590.03,7.42 668.19,-30.97 -54.57,1.15 -107.19,12.42 -166.47,14.37 -57.27,1.88 -115.57,1.36 -172.93,1.55 -59.95,0.2 -119.88,0.48 -179.84,0.79 -28.75,0.14 -135.63,-9.06 -148.95,14.26z"/>
  <path class="fil2" d="M5158.45 3607.52c-14.54,14.15 -10.56,41.86 -10.81,65.95 -1.08,109.18 -9.66,523.63 6.48,570.93 12.4,-27.46 14.4,-588.21 4.33,-636.88z"/>
  <path class="fil2" d="M6412.12 5396.61c18.87,-10.01 12.08,-257.98 12.02,-299.73 -0.1,-56.66 9.45,-268.02 -6.82,-302.61 -20.84,38.32 -10.1,523.1 -5.2,602.34z"/>
  <path class="fil2" d="M6688.34 3313.87l-15.7 1.84c5.03,103.89 -1.41,224.29 -1.54,330.38 -0.04,33.01 -11.04,297.65 9.06,325.97l7.69 -325.97c0.19,-107.1 -5.11,-226.89 0.49,-332.22z"/>
  <path class="fil2" d="M5359.04 4960.44c-15.25,27.08 -14.38,481.88 0,508.07 15.55,-35.85 15.57,-483.9 0,-508.07z"/>
  <path class="fil2" d="M6098.85 2993.47c34.06,-2.03 43.31,-12.14 49.17,-48.14 5.07,-31.2 6.25,-64.11 -18.85,-71.3 -47.24,-13.55 -72.95,74.32 -30.32,119.44z"/>
  <path class="fil2" d="M5958.31 2852.84c-53.22,23.16 -58.39,141.73 -8.55,135.76 43.28,-5.19 67.1,-111.43 8.55,-135.76z"/>
  <path class="fil2" d="M6510.54 5677.2c24.96,14.33 80.93,9.62 114.18,10.82 18.47,0.66 36.56,1.23 55.2,1.82 39.82,1.25 39.49,3.35 58.02,-7.96 -39.7,-4.89 -197.65,-21.63 -227.4,-4.68z"/>
  <path class="fil2" d="M5377.09 5648.22c21.71,-34.01 42.58,-58.84 62.29,-99.76 -19.75,11.13 -35.67,40.41 -48.45,57.17 -16.03,21.01 -35.49,35.47 -42.69,62.46 5.29,2.54 18.26,18.28 46.93,-9.94 10.23,-10.07 27.76,-32.74 33.78,-42.69 -17.08,7.25 -40.34,20.69 -51.86,32.76z"/>
  <path class="fil2" d="M6680.16 4202.58c16.43,-23.54 13.55,-125.66 0,-153.54 -18.6,20.25 -12.4,136.29 0,153.54z"/>
  <path class="fil2" d="M6019.87 4740.6c-35.77,-11.12 -152.47,-38.96 -189.46,-37 30.7,27.03 138.9,43.54 189.46,37z"/>
  <path class="fil2" d="M6168.58 4737.63c28.53,10.46 83.47,-7.88 145.21,0.72 36.72,5.11 23.94,9.98 42.67,-1.96 -45.81,-21.39 -92.78,-16.14 -146.61,-10.94 -4.2,0.41 -19.76,1.74 -23.34,2.7 -19.02,5.12 -11.14,3.33 -17.93,9.48z"/>
  <path class="fil2" d="M6090.65 2835.36c6.7,17.69 -11.59,5.38 21.62,19.74l90.69 37.49c-10.55,-27.91 -20.74,-31.9 -48.57,-45.5 -21.89,-10.7 -40.15,-20 -63.74,-11.73z"/>
  <path class="fil2" d="M5338.79 5711.74c38.83,15.21 111.97,8.45 136.97,-12.2 -26.14,-3.55 -48.93,-2.7 -75.25,-2.21 -9.84,0.18 -33.42,-0.27 -41.77,1.17 -33.62,5.81 -13.94,3.64 -19.95,13.24z"/>
  <path class="fil2" d="M5403.18 5664.78c19.44,7.64 61.69,5.02 87.36,4.48 69.4,-1.47 60.81,-4.73 68.37,-17.97 -31.52,-3.02 -57.47,-2.07 -88.94,1l-54.46 5.83c-20.13,4.37 0.73,-5 -12.33,6.66z"/>
  <path class="fil2" d="M6248.03 4922.04c29.5,-2.67 108.57,-106.15 115.5,-122.72 -26.9,9.52 -106.56,105.7 -115.5,122.72z"/>
  <path class="fil2" d="M6683.12 5753.19c21.32,21.85 109.1,15.37 139.21,4.08 -29.31,-6.35 -115.97,-16.41 -139.21,-4.08z"/>
  <path class="fil2" d="M5037.13 4920.96c4.86,-17.03 8.23,-38.3 15.56,-54.09 16.02,-34.44 24.75,-12.44 35.33,-44.72 -44.54,0.55 -70.32,53.44 -50.89,98.81z"/>
  <path class="fil2" d="M5144.61 3354.15c4.8,-9.61 21.38,-92.65 6.92,-115.76 -13.65,17.39 -11.4,28.23 -13.45,55.09 -2.01,26.38 -5.76,42.61 6.53,60.67z"/>
  <path class="fil2" d="M5888.77 2815.69c39.16,-7.84 107.67,-40.83 134.07,-74.16 -54.14,7.75 -112.35,28.62 -134.07,74.16z"/>
  <path class="fil2" d="M4924.82 5612.09l-2.81 -12.37c-13.79,11.05 -73.38,74.23 -81.38,92.54 21.96,-8.07 70.9,-60.03 84.19,-80.17z"/>
  <path class="fil2" d="M5864.02 2554.54c1.4,0.97 3.38,0.93 4.19,2.94 0.84,2.08 3.36,2.24 4.59,2.63 19.36,5.99 -9.79,-0.47 11.55,3.37l75.75 -1.96c11.58,-3.36 8.35,-4.09 11.95,-6.98 -28.9,-7.97 -83.92,-10.84 -108.03,0z"/>
  <path class="fil2" d="M5610.1 4634.01c12.94,8.56 32.72,10.4 53.02,6.54 12.18,-2.31 9.61,-2.98 16.14,-6.54 -17.85,-25.45 -56.82,-9.96 -69.16,0z"/>
  <path class="fil2" d="M4882.89 5692.35c33.66,-8.88 53.77,-21.35 61.98,-50.56 -28.49,11.09 -47.88,29.74 -61.98,50.56z"/>
  <path class="fil2" d="M5351.91 4731.61c25.9,-10.86 32.62,-26.8 43.4,-43.83 -31.1,7.32 -35.87,13.02 -43.4,43.83z"/>
  <path class="fil2" d="M5412.76 4692.09c29.98,1.49 42.51,-2.4 63.86,-14.27 -38.59,-2.12 -46.68,-7.08 -63.86,14.27z"/>
  <path class="fil2" d="M5113.41 3186.49c13.84,-6.6 11.99,-0.19 25.7,-23.17 4.21,-7.05 6.9,-13.57 10.87,-21.76 -22.82,14.63 -27.02,16.46 -36.57,44.93z"/>
  <path class="fil2" d="M5040.67 3182.94c20.25,-11.7 19.11,-11.37 30.6,-37.42 -24.56,10.61 -20.69,5.88 -30.6,37.42z"/>
  <path class="fil2" d="M5154.81 3468.08l-13.42 -5.85 -1.55 37.58c18.4,-7.25 11.26,-0.57 14.97,-31.73z"/>
  <path class="fil2" d="M5159.77 3174.44c30.43,-10.87 24.74,-3.13 26.83,-30.95 -23.26,10.25 -12.77,5.51 -26.83,30.95z"/>
  <path class="fil2" d="M4922.01 5599.72l2.81 12.37c6.24,-5.84 6.06,-2.54 14.19,-16.35 8.6,-14.59 1.3,-2.49 4.53,-17.82l-21.53 21.8z"/>
  <path class="fil2" d="M5012.74 3176.26c24.19,-13.36 7.53,11.49 24.05,-26.71 -17.67,11.12 1.4,-8.04 -16.94,12.89 -11.82,13.48 -0.87,0.45 -7.11,13.82z"/>
  <path class="fil2" d="M6908.52 5615.03c-0.13,9.25 6.87,13.61 10.55,-1.62 3.97,-16.41 -10.38,-10.5 -10.55,1.62z"/>
  <polygon class="fil2" points="6672.64,3315.71 6688.34,3313.87 6678.01,3300.21 "/>
  <path class="fil2" d="M5206.87 5762.1l3.88 -13.48c-0.28,-0.85 -2.84,-2.72 -3.88,-4.37 -7.8,16.35 -9.85,7.52 0,17.85z"/>
  <path class="fil3" d="M5608.61 2077.97c5.28,-29.45 -26.49,-81.67 12.81,-70.5 41.97,11.94 2.58,70.06 63.05,55.66 27.36,-6.5 122.75,-60.94 141.98,-72.13 268.18,-156 321.94,-494.81 260.48,-740.58 -23.43,-93.7 -67.93,-200.64 -136.38,-270.72 -200.14,-204.87 -493.42,-327.87 -777.29,-216.74 -151.91,59.48 -293.01,215.48 -387.44,352.62 -115.6,167.85 -150.35,385.08 -98.18,591.79 34.37,136.16 210.38,300.71 347.65,368.38 191.27,94.3 395.99,36.38 573.32,2.22zm15.84 35.5c-6.59,0.03 -194.89,34.55 -287.08,39.78 -106.65,6.05 -211.73,-6.55 -311.23,-51.29 -146.81,-65.99 -310.9,-232.95 -363.35,-376.65 -70.08,-192.03 -36.1,-400.31 78.21,-583.55 215.91,-346.13 541.19,-574.99 956.05,-364.66 55.21,27.99 84.44,36.4 131.49,67.83 114.47,76.45 202.7,166.01 250.85,296.57 89.84,243.57 67.94,624.9 -174.69,830.23 -97.98,82.92 -161.93,82.37 -236.75,125.17 9.63,42.08 82.87,175.85 114.24,219.17 22.59,31.17 71.06,116.5 151.53,145.7 -135.34,-16.12 -259.48,-278.11 -309.27,-348.3z"/>
  <path class="fil4" d="M2164.35 5527.67c10.81,21.47 10.2,8.81 2.06,57.4 -49.3,12.87 -48.26,-13.6 -49.01,-58.97l46.95 1.57zm-573.72 -186.94c3.38,-27.66 4.58,-26.56 -9.09,-44.13 -16.47,20.21 2.08,8.09 -8.01,25.91 -0.4,0.71 -14.71,14.57 -16.46,18.63l33.56 -0.41zm-328.92 2.6c-6.32,-31.83 3.44,-21.06 -18.19,-32.73l4.33 47.7 47.12 -1.79c-7.13,-8.04 0.68,-10.69 -33.26,-13.18zm241.9 -351.18l48.61 7.18 10.8 24.74c7.42,-14.24 10.12,-13.96 3.67,-37.56 -11.18,-2.39 -59.21,-6.95 -63.08,5.64zm-729.44 -227.99c3.47,-42.67 20.41,-66.19 60.72,-38.51 5.8,27.14 2.62,26.11 -7.62,50.39l-53.1 -11.88zm60.37 23.31c14.47,-23.34 35.81,-75.2 -10.23,-86.48 -45.16,-11.05 -66.86,24.14 -64.53,69.34 26.75,14.9 33.12,21.12 74.76,17.14zm2626.5 331.92l-44.35 -4.74c4.02,-23.95 5.87,-37.41 28.22,-36.83 24.93,0.64 23.39,20.19 16.13,41.57zm-59.11 26.76c30.95,16.77 49.49,19.93 78.36,4.59 8.62,-33.81 0.87,-57.1 -8.55,-77.85 -65.05,-18.02 -77.8,10.08 -69.81,73.26zm46.56 -236.44c40.13,0.49 4.38,-0.61 19.38,6.9 23.61,50.55 -16.73,57.19 -54.19,40.33 -5.5,-27.36 2.66,-47.62 34.81,-47.23zm35.21 90.95c2.35,-26.64 12.52,-74.86 -6.26,-92.2 -71.35,-65.85 -139.51,126.13 6.26,92.2zm-2662.24 -529.25c4.02,7.56 5.05,5.7 9.47,23.59l6.28 155.37 -44.54 5.16c-15.84,-40.85 -21.02,-135.7 -16.79,-181.7l45.58 -2.42zm-58.6 0.9l9.47 177.56c10.19,37.39 10.95,9.47 40.66,30.83 58.51,-26.78 41.28,-37.45 39.31,-91.96 -1.6,-44.55 -1.86,-79.5 -12.69,-122.08 -47.25,-18.62 -28.5,18.97 -45.07,-31.37 -1.43,1.63 -3.02,2.22 -3.83,5.26 -0.38,1.46 -9.1,12.71 -10.56,14.77 -5.55,6.96 -10.93,11.21 -17.29,16.99zm-5.1 1021.12c17.52,12.1 114.74,-12.7 205.83,-3.61 8.37,35.02 21.05,120.16 10.86,150.95l-51.68 0.25c-2.83,-36.28 -12.47,-84.73 -26.36,-113.42 -49.96,-8.23 -97.69,-3.12 -141.97,3.21 11.29,8.99 -12.8,8.09 28.96,9.12 27.29,0.67 41.09,-10.47 105.58,0.69 5.17,34.68 10.7,86.96 28.19,119.13l76.22 -7.15c4.43,-40.16 -0.92,-54.56 -5.89,-93.19 -11.89,-92.61 13.43,-90.33 -125.88,-85.16 -20.52,0.75 -41.18,0.96 -61.48,3.85 -25.92,3.7 -27.87,4.58 -42.38,15.33zm193.17 -999.87c1.75,14.22 3.9,43.73 4.81,73.44l1.68 -1.87c0,-5.19 1.65,-3.38 1.65,-6.62l1.65 0 1.66 -9.92 6.49 0c-3.85,-139.87 -26.38,-49.38 -36.57,-111.7 -37.64,-0.57 30.44,-3.78 -55.12,30.98 -5.52,40.2 -11.76,195.86 24.97,211 30.32,12.5 9.02,-3.7 33.2,20.14 10.36,-24.59 6.87,-23.53 15.45,-25.24l0 -28.5 -46.72 -5.58c-12.48,-33.22 -13.7,-104.22 -13.78,-143.88l60.63 -2.25zm2464.48 955.81c-5.67,-45.7 -14.38,-156.03 -0.15,-199.26l53.71 6.64 7.07 197.56 -60.63 -4.94zm27.17 -260.57c-15.26,8.39 -7.76,4.72 -17.73,17.17 -40.36,50.4 -35,85.99 -31.72,168.71 0.81,20.56 -0.12,89.81 3.26,103.72 7.57,31.17 6.33,10.97 34.76,41.24 11.91,12.67 6.51,12.99 21.99,18.58l21.91 -25.5c34.3,-37.83 30.01,-71.4 19.14,-148.52 -4.78,-33.97 -2.29,-81.49 -6.85,-106.01 -4.96,-26.7 -25.65,-58.6 -44.76,-69.39zm-2386.52 188c2.68,63.85 10.61,123.91 13.61,186.72 10.47,219.49 -54.81,141.65 289.6,124.93 28.49,-1.39 64.26,9.33 88.44,-5.18 49.56,13.1 494.47,-3.16 547.92,-17.22 -11.41,-39.66 -14.15,-45.54 -3.8,-93.27l66.99 2.82 9.03 51.79c61.8,14.65 542.7,8.17 651.5,11.27l475.33 -0.07c30.43,-0.58 125.36,5.35 143.75,-22.22 17.45,-31.78 -3.26,-382.23 -2.86,-455.38 1.66,-308.11 8.36,-371.63 -3.51,-576.45l7.37 -157.07 -661.04 -6.49c-193.79,4.39 -447.22,20.57 -628.92,20.14l-4.62 57.66c-152.96,-7.93 -157.71,-18.03 -153.03,-66.27 3.8,-39.26 13.76,-54.68 -6.36,-98.94l-57.07 -0.74 -0.22 9.9c31.53,-2.47 50.82,-7.15 55.3,29.09 3.95,31.93 -10.07,68.02 -8.06,109.25 119.73,48.2 155.51,4.42 172.65,44.31 -16.42,19.62 -65.97,7.73 -112.1,3.92 -47.79,-3.95 -76.01,-4.96 -93.15,-11.92l0.32 12.58c63.78,16.8 150.49,6.99 206.62,22.25l-5.95 280.82c-61.08,-4.36 -128.67,-5.69 -196.41,-5.7l4.13 25.53 0.83 0 0 0.98c31.9,-14.08 62.8,-11.97 103.14,8.32 4.42,28.55 17.9,64.28 0.06,100.57 -19.95,40.6 -49.44,50.47 -90.81,39.27l0 15.17c5.54,2.62 11.05,5.37 16.43,8.42l0.63 52.74c-7.48,0.97 -14.11,2.1 -20.01,3.38l2.93 12.6 0.83 0 0.28 2.82c13.33,-1.03 24.81,2.87 25.74,1.1 0.81,-1.56 3.24,0.79 4.8,0.41 64.2,-15.62 107.21,74.63 58.34,127.12 -22.37,24 -47.17,28.29 -76.71,23.28l0 24.22 -1.3 0c9.7,31.39 17.06,73.58 11.71,107.08 -5.78,0.56 -11.53,0.97 -17.28,1.32l-0.16 12.36c9.62,-1.07 19.1,-3.97 31.68,-11.46 9.38,-38.06 -16.91,-83.36 -0.35,-113.25 47.22,6.18 12.28,36.68 46.99,110.45 35.6,12.51 56.32,8.63 92.39,6.38l4.3 14c2.11,9.58 2.2,11.59 3.92,20.97 3.95,21.53 -5.4,8.72 6.14,25.71 -4.7,36.48 11.29,73.72 -2.28,111.2 -121.31,-2.5 -59,19.48 -89.52,96.03 -50.23,14.07 -428.79,23.78 -498.47,17.6 -5.7,-31.27 -13.41,-64.23 -8.85,-94.84 11.27,-75.86 -0.82,-31.58 -2.56,-96.71 -19.9,5.63 -0.64,-3.33 -11.94,7.27l-11.43 13.15c-4.67,-17.3 2.45,-15.96 -14.44,-19.69 -1.4,94.39 53.73,115.7 29.38,194.59l-45.82 -2.55 -14.91 -20.79c-15.56,21.88 19.46,19.51 -24.72,18.51l-13.36 -48.83c-5.02,-49.03 9.6,-73.29 -5.18,-139.97 -8.29,-1.23 -19.13,-5.24 -30.13,-0.63 -29.94,12.57 -8.17,73.15 5.88,90.69 20.87,26.05 26.61,70.7 16.75,102.19l-33.68 2.15c-9.6,-19.53 -9.35,-25.54 -12.03,-52.92 -0.38,-3.93 -1.81,-21.87 -1.68,-25.65 1.28,-37.62 11.63,-26.09 2.02,-77.08 -7.24,-38.38 2.49,-28.09 -25.63,-36.24 -20.25,15.34 -12.99,16.41 -11.18,45.85 4.08,66.32 11.85,28.99 22.02,71.27l5.93 79.56c-43.63,-1.91 -38.03,7.74 -42.95,-34.14 -8.79,-74.68 20.47,-151.84 -25.84,-160.76 -38.15,44.23 20.08,93.16 15.06,197.09 -43.1,-0.81 -99.76,18.29 -135.31,5.79 -3.47,-54.7 -3.76,-109.32 -7.1,-165.57 -3.01,-50.44 -17.51,-118.6 -11.2,-165.34l40.91 4.18c21.08,-47.6 3.43,-177.44 -9.67,-220.16 -55.32,8.31 -136.96,-4.12 -193.87,5.42 -8.95,60.3 8.02,95.84 4.35,150.57 -35.21,16.46 -121.35,15.19 -164.56,16.84 -12.54,-7.11 -23.07,9.08 -17.06,-50.37 36.65,2.27 106.94,-2.12 136.85,-14.28l-26.95 -319.98 -112.43 -10.34c-0.19,-14.5 0.07,-28.62 1.4,-43.22l7.86 -40.22 52.33 -0.47c1.04,28.84 -3.8,55.53 10.94,74.01l3.81 -34.7 4.48 23.69c70.92,17.19 85.87,-16.15 88.59,-18.37 1.07,-0.89 2.58,-2.51 3.74,-3.31 28.43,-19.61 134.22,-10.57 169.19,-6.29l18.4 89.46c4.42,30.09 10.35,71.69 1.75,96.34 -34.24,18.68 -140.19,17.76 -190.95,13.53l-7.53 -154.16c-34.14,-7.1 -59.04,10.71 -91.48,-6.19l3.83 -71.68c36.09,-19.89 58.86,0.04 109.18,-12.08 10.25,-19.99 7.12,-24.2 14.23,-39.15 5.68,-11.93 8.03,-8.2 16.64,-31.19 94.78,69.93 34.1,14.78 62.88,71.29l64.24 -6.39 1.96 -12.73c-26.18,2.64 -49.21,3.44 -61.06,-0.36 -0.25,-22.02 6.72,-28.26 25.37,-34.21l-7.25 -12.03c-11.75,9.39 -33.15,11.52 -65.21,-4.99l7.22 -38.19c5.26,-3.21 10.21,-5.69 14.91,-7.57 -1.25,-3.38 -2.2,-7.01 -2.84,-10.82 -6.32,1.31 -11.78,2.91 -15.18,4.65l-22.05 28.37 -10.74 -13.01c-47.18,-43.53 -89.6,13.69 -77.76,45.8 10.59,28.72 34.18,1.43 48.15,47.89 -18.98,3.94 -43.47,3.57 -67.58,3.66 -46.57,0.15 -36.03,7.8 -43.15,-27.4 -1.39,1.72 -2.28,4.49 -3.15,5.85 -15.35,24.23 -1.53,13.96 -18.91,22.05 -14.79,6.9 -25.39,2.33 -38.98,-0.16 -6.83,-167.14 -27.57,-333.12 -15.69,-505.08l437.48 0.88c126.44,8.01 300.98,6.63 433.64,3.43l5.12 -19.12c-70.96,0.17 -144.71,-2.22 -207.63,-3.57 -222.94,-4.8 -445,-4.19 -668.25,-1.37 -0.12,-10.13 -2.34,-40.84 -2.17,-66.01l-15.28 -1.16c-3.79,131.95 -6.43,270.38 -1.29,397.82 2.91,72.3 16.76,140.47 11.1,215.31 -11.03,145.63 2.51,515.56 8.46,656.76 2.79,66.16 31.13,389.54 18.44,419.04 -10.38,-10.83 -11.09,-10.94 -14.14,-44.07 -12.1,-131.19 -12.21,-246.91 -19.82,-375.25 -4.21,-70.92 -20.09,-142.21 -19.3,-212.07 0.85,-76.53 6.56,-153.88 7.56,-231.45 1.9,-147.8 -8.18,-295.33 -5.06,-442.24 1.75,-82.78 7.09,-152.56 3.35,-229.37 -3.17,-65.24 -1.29,-115.95 3.47,-155.02l-35.07 -2.66c-10.32,5.77 -9.69,-4.26 -33.74,5.76 -46.82,19.5 -38.42,43.84 -18.53,79.47 4.17,7.46 7.23,15.88 11.36,22.8l53.48 6.6 0.69 39.84c-21.2,10.7 -38.3,9.68 -61.82,12.19 -13.88,31.72 -1.26,32.5 -33.75,47.18 2,3.94 14.22,6.91 22.37,32.2 -60.36,12.97 -11.14,6.37 0.9,28.78l-28.07 9.32 27.47 18.15 -26.97 12.85 24.16 26.04c-26.38,13.64 -13.14,-3.4 -25.6,20.27 45.57,22.2 25.21,28.83 -3.14,44.17 10.71,10.45 20.22,11.26 24.96,24.1l-26.98 10.28c16.3,19.16 3.07,8.77 26.14,19.26l-23.66 20.42c1.72,1.06 4.48,0.52 5.16,3.22 0.69,2.76 3.99,2.62 5.11,3.56 5.27,4.69 9.91,8.81 14.77,13.92l-25.98 6.28c9.94,12.86 -0.56,5.66 14.29,14.1 1.14,0.65 12.72,4.89 13.96,5.4 -10.45,23.25 2.5,6.85 -23.88,20.4l13.1 11.75c10.08,10.57 1.6,-2.37 10.17,12.22 -11.31,20.34 -13.44,7.17 -24,26.92 44.05,20.13 14.86,3.02 34.85,50.16l64.75 15c6,56.03 4.52,33.09 -35.24,51.5 -6.99,40.46 -8.09,259.04 3.25,305.16 14.67,59.59 25.59,-20.44 28.5,89.68l-15.82 9.35c-16.46,14.5 -24.88,51.55 -12.05,74.39 28.2,22.3 35.6,-4.59 38.8,28.34 3.85,39.64 -13.09,0.86 -31.74,37.13 -26.13,50.8 29.7,70.08 41.72,81.84 4.86,119.04 -0.15,271.98 25.31,379.75 75.47,0.02 51.91,-93.99 48.02,-150.72l-2.69 -32.28c0.29,-6.98 -1.74,-16.39 8.19,-28.98 38.78,13.31 7.19,9.92 29.03,44.24 97.34,8.77 445.87,1.12 554.2,-13.17 34.03,-4.5 133.66,-6.5 170.18,1.76l18.45 7.22c28.27,12.37 18.46,44.66 21.74,69.55 165.2,13.86 323.85,-5.51 488.79,-11.45 42.91,-1.54 125.52,0.45 161.36,-4.62l-4.51 -74.87c70.5,6.61 26.35,18.07 55.82,67.68l61.53 13.19c22.4,0.68 37.52,-1.25 59.43,-0.89 44.93,0.74 87.11,6.68 132.83,6.3 86.24,-0.73 171.72,-4.59 259.28,1.2 165.07,10.91 333.15,-12.81 497.29,-11.55 5.75,-40.61 -15.31,-75.04 28.25,-80.82 26.55,5.42 19.41,59 27.28,81.47 39.83,8.52 230.49,6.86 263.18,-2.41l6.09 -12.07c0.75,-2.34 16.76,-46.54 -1.35,-97.8 -49.01,-12.75 -74.82,1.32 -128.62,-19.98 -7.57,-79.73 67.53,-53.25 120.44,-61.01 4.31,-7.73 3.15,-1.17 6.91,-19.62 9.58,-47.14 3.76,-99.18 3.79,-147.42 0.04,-59.15 7.72,-118.04 10.78,-177.11 6.12,-117.69 6.51,-219.87 8.18,-333.4 1.69,-115.69 18.14,-229 14.82,-345.47 -1.43,-50.59 -5.49,-104.75 -7.93,-157.44 -2.13,-45.78 6.76,-128.98 -12.98,-162.83l-95.44 -13.43c-9.57,-4.74 -15.11,-9.87 -18.84,-15.02l-20.76 -1.18c20.56,32.5 -9.32,97.91 -51.23,67.32 44.38,-36.61 37.5,-54.43 25.81,-68.92 -26.67,-1.77 -7.65,4.82 -2.58,12.93 -225.74,-15.53 -508.91,-6.97 -726.29,2.56 -217.65,9.53 -445.46,2.22 -662.79,12.51 -77.32,3.65 -155.3,1.2 -233.28,2.67l-0.46 21.1 683.49 -9.32c152.27,-5.41 303.91,-4.56 451.51,-12.56 163.71,-8.87 315.7,4.44 479.53,4.27l-19.22 13.81c-20.71,20.47 -11.76,5.73 -16.09,29.74 15.86,10.52 28.62,17.09 57.41,18.44 23.55,-23.57 23.48,-32.69 44.57,-54.69l91.73 6.75c29.33,251.65 1.66,418.78 -2.18,646.91 -1.81,107.26 -4.8,209.07 -9.72,318.72 -4.91,109.59 -6.29,224.63 -12.99,332.1 -33.18,12.42 -87.54,1.87 -115.38,28.64 -45.45,43.7 11.37,92.73 11.44,92.84l-131.14 9.31c-47.41,-15.79 -254.15,1.51 -319.52,-0.12l-655.33 -12.46c-99.4,6.34 -207.75,16.25 -300.22,19.61 -101.94,3.72 -219.47,-5.05 -322.55,2.35 -51.72,3.72 -99.62,6.28 -150.87,9.94 -43.63,3.12 -33.8,-6.53 -74.97,-10.88 -162.22,-17.13 -498.58,22.45 -698.43,19.17 -21.75,-25.42 -0.77,-20.21 -21.9,-40.21 -13.82,-13.09 -20.22,-5.9 -40.96,-17.89l-2.62 -119.83 81.38 -0.27 18.77 129.63c36.73,4.63 163.78,-8.48 192.48,-20.49 26.62,-93.01 -5.8,-240.76 -13.32,-331.48l24.57 3.9 0.69 -1.93c-6.34,-8.57 0.27,-6.86 -22.43,-8.4 -34.8,-2.36 -4.41,-5.69 -16.61,6.94l38.3 3.55c-0.59,3.54 -1.62,7.37 -2.22,11.29zm636.75 -1063.01l68.26 -2.42 0 -20.5c-22.79,1.36 -45.44,3.52 -68.26,4.67l0 18.25zm68.26 18.17l-71.57 -0.93 0 0.48 -1.65 0 0 1.65 -1.66 0 -1.65 3.31 -1.65 0 -3.46 4.14c13.62,1.16 28.67,2.97 46.17,5.58 -15.25,6.03 -36.12,6.86 -57.22,6.44l-9.62 9.62 102.31 -0.22 0 -30.07zm-171.71 -1.01c-46.71,1.9 -92.1,6.77 -141.21,5.47 -58.4,-1.53 -121.37,-1.61 -179.06,-2.19 -114.34,-1.14 -234.75,-3.94 -352.23,-0.66 -13.45,16.98 -1.43,4.4 -9.59,17.14 -13.19,20.6 -29.69,19.12 -85.09,16.22l-56.6 -1.92c-1.38,0.15 -4.79,3.18 -5.61,1.4 -0.81,-1.74 -3.75,0.8 -5.44,1.65 39.34,18.04 107.73,10.57 157.73,7.83l15.21 -31.91 409.29 2.97c-77.83,27.04 -341.99,15.39 -380.34,23.26 -41.42,8.51 -1.39,14.85 -55.49,24.71 -38.66,7.05 -107.21,-2.11 -137.86,10.8 15.39,10.25 178.51,9.89 190.01,-20.41 1.17,-3.11 3.4,-3.3 5.35,-4.62 49.72,-15.33 437.89,-17.39 543.91,-18.18 8.29,-0.06 30.85,0.13 39.28,-0.68 13.11,-1.27 9.73,-1.2 20.6,-3.59l-70.19 -10.07c14.15,-2.56 36.68,-1.05 55,-2.73 3.42,-0.31 36.53,-3.15 37.1,-3.54l0 -3.31 1.65 0 3.58 -7.64zm195.4 496.7c-52.25,0.51 -103.4,1.51 -150.48,2.19l-300.94 19.01 451.93 -4.34 -0.51 -16.86zm11.33 346.23c-43.06,7.89 -119.86,17.89 -162.74,11.4 1.39,-72.34 -7.11,-29.46 31.86,-52.36 -24.48,-14.6 -16.13,4.69 -35.46,-17.49 8.88,-21.95 -8.26,3.91 8.61,-8.86l22.38 -14.71c-82.95,-7.86 -19.47,-23.65 -4.16,-33.61l-33.55 -10.64c11.22,-13.95 1.39,-2.85 10.92,-10.24l14.61 -10.15c-78.05,-12.6 4.54,-76.81 -85.23,-76.91l-6.26 -32.72 -15.8 30.43c-25.66,-13.32 -9.98,8.49 -20.26,-25.98 -15.59,16.86 -5.83,19.44 -24.68,20.46 -23.25,1.28 -12.35,-3.33 -25.42,-22.07 -7.08,24.74 0.95,31.91 -33.53,29.59 -40.29,-2.71 -16.72,2.24 -34.88,-28.91 -0.81,1.33 -0.62,2.44 -0.91,4.58l-3.83 13.79c-7.49,12.88 9.9,10.41 -13.59,10.42 -30.23,0.02 -10.09,5.1 -26.07,-29.72 -1.17,1.33 -3.95,13.75 -4.62,16.29 -4.96,18.59 6.57,3.08 -5.38,17.9 -45.28,-2.25 -22.56,3.17 -42.11,-31.09 -21.31,27.59 20.96,-37.34 -6.71,13.07l-10.48 18.05c-25.76,-14.62 -8.3,11.64 -21.93,-27.51 -23.89,33.45 9.62,12.38 -22.57,28.01 -5.78,-7.74 -5.13,-4.32 -9.84,-15.51 -3.21,-7.6 -2.15,-7.59 -4.13,-15.24 -19.87,27.56 7.4,10.28 -28.13,36.07 -31.54,22.89 -10.38,2.02 -24.75,43.27l-32.01 6.53c9.16,18.86 12.83,3.27 37.6,19.71l-26.72 12.78c1.34,1.37 4.21,0.77 4.76,3.2 4.63,20.19 11.13,-6.75 23.72,21.17l-32.88 12.37c1.42,0.52 4.82,-0.69 5.69,2.08 5.66,18.21 18.78,-5.01 27.22,19.06 9.09,25.96 2.59,7 -27.8,23.6 38.39,26.26 23.6,-10.84 30.06,39.29 -16.16,11.86 -22.3,7.25 -37.94,14.64 20.65,10.63 5.1,0.58 18.97,5.6l22.07 9.6c-12.25,24.01 0.31,5.53 -22.61,20.49l25.07 14.68 3.7 158.18 46.53 9.79 11.25 31.89c-0.32,-1.19 7.31,-24.03 23.34,-31.21 24.72,21.76 0.29,1.79 19.94,30.23 1.15,-2.18 4.01,-10.62 5.01,-12.23 3.67,-5.85 7.67,-10.63 11.96,-16.03 13.97,6.41 9.36,5.12 15.11,10.42 3.36,3.1 9.69,11.78 12.58,15.3l5.97 -23.57c42.06,-1.51 29.89,-7.8 46.08,21.39 30.91,-46.68 4.29,-26.57 224.17,-48.71 24.68,-50.34 22.49,-112.8 20.96,-168.08l157.53 -14.55 -0.69 -17.23zm24.16 210.73l-69.36 13.89c17.26,8.5 47.32,-0.06 69.22,-2.78l0.14 -11.11zm64.95 -761.86c98.96,-31.96 121.69,118.3 28.11,137.52 -23.99,4.93 -51.52,-6.21 -70.62,-24.45l0.74 25.94c6.97,2.58 15.93,6.42 34.47,11.81 124.23,36.14 164.21,-183.11 17.48,-168.37 -49.52,4.97 -44.05,17.81 -59.56,29.81l0.62 14.24c10.57,-10.14 26.41,-19.28 48.76,-26.5zm-889.73 -151.12l344.84 -0.96c38.68,64.55 35.87,154.01 46.34,190.12l10.22 -12.08c-7.94,-20.12 -0.86,-53.94 -12.27,-91.68 -9.46,-31.24 -19.68,-64.32 -29.3,-97.33l-359.83 11.93zm408.23 205.96c3.5,0.67 7.71,1.22 12.49,1.68l7.11 -12.59c-3.7,0.12 -5.51,-0.29 -9.08,-1.52l-10.52 12.43zm38.12 3.12c81.47,2.25 240.75,-9.2 321.94,-13.66 0.11,-4.28 0.39,-8.59 0.68,-12.76l-315.67 11.51 -6.95 14.91zm333.28 61.04c-63.34,1.12 -129.44,4.99 -192.75,4.18 -39.42,-0.5 -80.32,-5.32 -119.51,-3.11 -25.65,1.44 -47.74,5.62 -71.02,8.48l-3.53 14.37c39.65,-3.99 76.77,-10.83 122.84,-8.51l263.97 0.56 0 -15.97zm-407.49 11.85l-6.83 0.35c-2.4,5.99 -3.64,8.56 -7.07,14.15l5.2 -0.21 8.7 -14.29zm-21.51 -24.71c-3.65,-29.13 -10.26,-62.15 -13.54,-92.39 -16.64,-153.23 28.5,-132.37 -170.17,-123.82 -31.51,1.36 -53.49,3.77 -84.78,6.82 -32.66,3.18 -56.2,0.01 -78.9,17.91l314.57 -17.64c-4.67,92.59 7.29,150.94 22.4,233.17 4.46,-7.28 9.75,-15.26 9.75,-24.05l0.67 0zm-380.4 239.95c10.36,-24.6 19.4,-42.71 41.21,-47.29l-19.49 37.4 28.21 13.67c-1.99,25.21 2.56,17.27 -12.61,36.45 -4.12,-7.73 -3.42,-1.06 -4.9,-15.94 -0.44,-4.51 1.72,-8.53 3.39,-14.42 -17.33,-0.8 -8.35,0.88 -24.55,-3l-11.26 -6.87zm419.5 683.24c-4.99,-43.65 2.99,-44.12 -12.73,-84.47 -9.5,-24.39 -15.71,-63.94 -5.02,-86.67 33.88,1.17 25.97,-6.59 34.44,31.48 7.07,31.8 1.79,40.76 -2.89,52.98 -9.27,24.12 -7.4,58.36 -2.27,89.43l-11.53 -2.75zm-381.82 -449.4c11.5,22.51 6.41,17.27 -4.62,42.54l32.25 8.48c-0.31,29.49 4.38,24.27 -12.88,44.75 -7.27,-17.78 -6.63,-2.15 -1.38,-31.3l-37.54 -9.31 24.17 -55.16zm-253.98 120.52l163.53 -5.42 10.74 40.64 38.78 11.23 -1.98 35.52c-26.68,12.56 -56.31,7.92 -91.16,6.62l-6.83 -55.64c-43.45,-9.16 -95.05,21.62 -126.71,2.37 -4.23,-51.48 -0.1,-26.26 13.63,-35.32zm223.61 82.96l5.91 -39.94 41.06 -4.26c5.44,76.03 36.07,250.6 11.47,321.87l-163.63 13.06 -18.41 -128.25c-30.2,-7.84 -28.17,-4.62 -58.44,-2.95l-41.83 -3.21 -9.63 -184.6 110.39 -11.12c12.39,38.82 -13.94,68.77 84.54,59.62 32.72,-3.04 23.9,1.85 38.57,-20.22zm231.36 -426.62c56.82,-13.64 139.87,-5.55 196.47,-9.63 39.75,-2.87 161.28,-22.93 185.49,6.7 22.54,27.57 48.09,336.72 18.11,369.17 -23.36,25.76 -332.76,44.61 -388.6,25.37l-11.47 -391.61zm701.76 43.89c12.7,6.86 13.02,-17.07 18.78,28 7.54,58.86 1.43,17.5 -8.42,30.84 -20.95,-8.41 -21.15,-1.08 -23.11,-28.03 -3.1,-42.51 8.95,-26.85 12.75,-30.81zm148.57 213.09l-7.26 125.25c-28.77,14.22 -50.43,11.68 -87.09,4.2l-21.43 -101.26c25.79,-32.15 72.62,-60.47 47.03,-128.99 -19.83,-53.09 -48.41,-22.18 -52.85,-123.12 0,-0.02 92.4,-94.63 27.53,-154.91 20.15,-19.82 56.82,-13.08 88.15,-11.15 -2.17,69.05 6.82,127.15 5.31,196.87 -1.25,58.36 -0.15,133.06 0.61,193.11zm532.79 -11.16l102.73 13.88 40.59 236.58c-89.4,13.68 -161.06,6.57 -237.98,-32.84 4.88,-25.51 75.44,-177.53 94.66,-217.62zm158.51 -8.97c47.37,-24.23 51.1,-38.34 78.32,-90.41 75.24,35.79 234.7,135.52 263.66,149.18 -13.03,60.02 -131.42,165.15 -196.33,176.15l-145.65 -234.92zm-526.48 -97.97c45.71,-9.19 223.62,-31 259.42,-25.32 12.03,42.35 28.62,66.58 48.72,90.43 -25.11,43.09 -89.16,82.07 -135.57,126.69 -19.3,18.56 -16.17,23.78 -43.94,41.47 -77.45,-39.81 -128.94,-183.16 -128.63,-233.27zm619.48 -155.03c47.71,-22.14 187.17,-123.2 223.06,-132.07 30.47,43.55 55.92,210.93 50.04,274.48l-270.66 -31.39c5.33,-52.93 -3.25,-70.32 -2.44,-111.02zm-614.47 1.54c14.84,-98.86 48.71,-124.95 82.91,-193.48 35.94,13.55 32.31,25.37 55.87,47.4 47.3,44.21 57.3,29.96 145.67,126.32l-27.63 69.21 -256.82 -49.45zm363.37 232.54c-45,-19.42 -64.35,-44.95 -80.06,-82.91 -38.22,-92.44 34.07,-199.35 89.4,-213.16 7.59,20.83 -1.07,2.68 1.56,15.2l2.96 9.73c0.33,-1.12 0.94,3.64 1.91,5.23 12.82,-34.12 7.07,-41.37 46.06,-43.16 259,-11.89 185.82,272.06 77.12,314.29 -46.8,18.17 -93.96,14.18 -138.95,-5.22zm-200.37 -476.1c22.61,-27.68 64.34,-42.3 96.88,-55.91 38.01,-15.9 70.1,-24.29 114.93,-26.52 72.8,-3.58 45.47,17 45.05,87.2 -0.28,47.88 4.83,91.25 1.77,140.67l-93.23 32.44c-27.95,-31.65 -50.33,-66.05 -78.76,-92.87 -27.48,-25.92 -57.97,-54.42 -86.64,-85.01zm330.3 -83.16c91.25,18.52 177.62,49.04 247.12,97.34 -28.78,59.44 -124.6,133.07 -145.22,183.49 -44.39,-19.28 -30.05,-33.48 -105.8,-43.44l3.9 -237.39zm-208.15 597.06c6.28,-19.85 8.63,-18.59 27.97,-36.76 19.4,5.78 19.31,8.27 36.35,17.06l-24.71 63.55c-14.26,21.46 -71.7,139.83 -76.27,166.74 18.05,18.35 48.05,28.01 74.25,36.66l-24.02 3.94c-119.72,-50.96 -250.57,-102.82 -307.72,-244.49 -54.81,-135.84 -32.95,-330.79 40.48,-442.59 192.77,-293.52 750.51,-213.45 851.68,41.97 92.92,234.61 12.03,369.55 3.31,460.98 -1.24,-1.69 -1.96,-6.85 -2.52,-5.75 -0.56,1.09 -1.87,-4.4 -2.43,-5.75 -14.31,-35.44 2.26,-18.67 -49.47,-55.39l-153.49 -87.72c-51.35,-27.91 -62.86,-23.29 -69.29,-52.01 47.89,-15.05 229.37,29.73 295.41,32.68 5.46,-89.06 -15.48,-273.73 -65.72,-315.99 -31.96,13.4 -84.03,46.8 -117.93,68.73 -34.34,22.2 -85.31,67.81 -121.98,67.12 0.38,-32.16 -11.27,-10.37 32.87,-59.34 29.36,-32.56 124.53,-127.71 133.79,-161.16 -75.45,-42 -176.9,-95.21 -285.97,-103.41 -2.29,44.23 2.4,226.65 -16.01,249.54 -41.15,-4.96 -19.28,-11.09 -24.88,-113.31 -2.12,-38.92 3.11,-107.99 -8.19,-134.77 -108,-15.35 -241.6,34.63 -286.54,94.13 8.36,18.96 32.03,39.85 43.48,50.12 21.78,19.51 26.44,28.77 45.31,50.63 17.5,20.28 74.68,72.19 76.53,91.86 -2.08,13.38 -0.31,20.75 -17.25,14.01 -9.55,-3.81 -8.49,-4.32 -12.73,-7.86 -13.41,-11.22 -33.76,-47.22 -74.22,-74.52 -30.47,-20.56 -29.65,-12.52 -54.99,-42.25 -17.63,-20.68 -28.74,-35.52 -55.16,-51.16 -43.16,23.24 -114.49,143.04 -109.01,223.67 50.37,30.33 235.34,39.06 266.11,64.59l-2.88 29.41 -271.53 31.13c-5.12,46.09 26.49,130.73 43.84,163.14 23.03,42.99 53.91,94.84 107.8,110.27 28.06,-24.72 44.78,-49.93 72.04,-71.68l83.69 -66.02zm204.48 273.91l31.36 -19.16c10.47,-67.82 -52.22,-220.92 -33.01,-262.25 48.87,8.07 141.47,228.76 175.4,238.52 43.32,-4.2 67.85,-32.62 97.46,-36.97 -40.94,28.75 -54.55,46.79 -120.97,62.2 -57.7,13.39 -96.94,9.84 -150.24,17.66zm-1041.78 251.05c32.78,6.91 16.49,-11.42 23.8,23.55 3.77,18.12 0.81,28.36 -5.03,41.32l-27.12 -0.84 -0.82 -47.25c4.09,-17.45 1.66,-7.23 9.17,-16.78zm-64.39 2.06l34.58 0.12c0.97,2.15 2.6,2.89 2.76,6.75 0.36,8.8 13.38,28.39 -0.25,57.88l-29.61 0.31 -7.48 -65.06zm100.87 -2.14l22.88 -1 9.93 47.13c-2.33,15.37 -4.01,11.82 -7.44,17.87 -7.86,-1.87 -40.29,15.5 -25.37,-64zm-125.9 6.36c11.97,8.91 13.95,-11.98 15.47,27.29 2.05,53.37 -7.05,25.9 -12.58,32.42 -2.77,-9.44 -5.12,-18.16 -6.57,-32.58l3.68 -27.13zm489.98 -10.88c16.35,42.05 1.59,44.36 -3.85,50.88 -10.12,-5.56 -12.8,7.96 -15.44,-22.53 -3.33,-38.33 4.33,-23.67 19.29,-28.35zm111.89 -9.51l8.5 38.83c2.03,32.02 1.47,16.76 -12.98,20.19 -26.92,-44.82 4.38,-58.9 4.48,-59.02zm-267.24 12.99c26.31,-0.15 54.07,-5.37 75.33,5.64l1.75 45.36 -66.84 5.73 -10.24 -56.73zm364.05 -19.11c17.96,8.64 20.55,4.76 13.6,71.63 -3.14,-1.59 -29.55,3.39 -24.41,-48.01 2.52,-25.28 -2.59,-9.22 10.81,-23.62zm-147.58 7.98l28.29 0.08c-1.87,33.77 2.47,33.14 -11.45,54.63 -10.39,-3.61 -36.68,14 -16.84,-54.71zm-129.54 17.65c10.43,-6.58 -10.08,-0.51 16.18,-7.93 1.58,-0.44 15.57,-2.15 15.57,-2.15 19.35,42.62 -4.23,51.13 -4.26,51.16 -37.03,-5.99 -22.34,3.29 -27.49,-41.08zm-184.67 53.21l-64.14 4.42 -11.13 -67.49 42.46 -1.22c-5.1,65 0.81,46.07 11.8,60.63l-0.41 -61.39 109.58 5.64 0.55 57.58 -25.59 1.85c-6.5,-19.92 -1.43,-14.37 -5.83,-31.84 -11.1,-44.08 1.9,-10.01 -15.44,-28.4l2.74 60.6 -25.97 -1.34c-4.92,-16.7 -0.93,-13.18 -2.79,-28.03 -3.25,-25.87 4.05,10.18 -1.78,-14.11 -6.87,-28.61 -0.24,-5.76 -7.88,-18.29l-6.17 61.39zm492.48 -80.21l38.72 1.39 -9.89 70.01c-27.89,0.01 -23.01,7.38 -28.55,-19.35 -2.02,-9.72 -0.93,-41.72 -0.28,-52.05zm-217.31 19.15l23.34 -5.98 -0.63 30.17c-4.46,22.25 0.55,9.59 -11.32,21.06 -13.64,-8.35 -8.9,10.61 -15.61,-22.68 -1.86,-9.21 4.46,-20.13 4.22,-22.57zm631 -13.56l22.17 0.78c4.82,32.53 6.69,51.42 -5.27,69.54 -7.71,-1.72 -28.83,8.4 -24.19,-46.95 2.22,-26.56 0.65,-11.74 7.29,-23.37zm-60.36 -1.33l44.62 3.5 -5.23 67c-42.82,-3.66 -38.82,-25.17 -39.39,-70.5zm-218.51 -6.1l211.13 5.24 -0.02 68.8c-67.99,-3.95 -127.83,10.09 -196.75,0.67 -5.64,-17.98 -9.57,-51.02 -14.36,-74.71zm367.83 7.06c6.68,2.14 28.36,-5.34 20.72,47.94 -6.36,44.44 2.52,7.9 -11.5,25.95 -11.03,-6.41 -26.22,10.92 -18.24,-51.1 4.09,-31.66 0.78,-12.12 9.02,-22.79zm122.37 3.21l32.76 4.19 10.31 63.17 -30.14 2.26c-10.61,-19.17 -13.95,-42.24 -12.93,-69.62zm-46.06 2.46l31.76 -0.58 6.47 71.25 -36.93 -4.48 -1.3 -66.19zm-120.81 -5.26c30.93,3.77 21.28,-9.87 23.42,26.59 1.14,19.33 0.86,31.99 -6.61,44.99 -26.57,-3.51 -20.76,8.5 -24.74,-27.86 -1.94,-17.78 -1.57,-32.67 7.93,-43.72zm-397.87 66.76c-4.36,-2.33 -26.74,8.78 -18.5,-51.43l9.41 -24.08 70.82 -1.1c9.12,26.64 9.25,48.98 5.17,76.38l-30.02 -1.25c-8.37,-27.26 0.9,-42.18 -18.24,-67.99 -12.66,91.5 16.67,54.33 -18.64,69.47zm612.84 -63.57l42.91 1.04 -1.33 58.68 -28.95 1.66 -12.63 -61.38zm-139.23 3.12l33.45 -1.11 -7.47 68.5c-35.22,-10.82 -16.24,-30.37 -25.98,-67.39zm410.17 56.04c-42.27,-2.64 -77.66,10.67 -127.39,0.6 -1.93,-13.92 -1.81,-32.78 -11.44,-46.35 -22.86,33.16 10.52,40.36 -26.05,50.35 -20.26,-12.9 -8.41,-18.37 -18.19,-53.38l-12.43 34.42c-5.24,17.04 1.6,7.14 -6.32,17.45 -9.92,-10.36 -5.09,2.34 -11.27,-19.29 -3.18,-11.16 -2.6,-23.67 -3.23,-35.07 34.14,-12.48 193.67,-13.36 223.61,-8.86l-7.29 60.13zm280.57 -68.59c28.96,1.68 21.69,3.89 41.1,-6.55l2.1 75.15 -34.84 -0.6 -8.36 -68zm-195.14 -3.64c58.6,16.39 126.22,-1.42 188.21,4.77l-4.38 70.61c-61.08,-6.59 -29.3,-3.9 -41.27,-59.88 -20.13,20.91 0.19,36.09 -22,57.43 -29.75,-6.3 -17.2,-18.15 -23.29,-53.56 -1.54,1.55 -2.97,2.2 -3.57,5.48 -0.6,3.27 -2.55,4.15 -3.09,5.73l-11.56 39.17c-0.65,1.71 -1.73,4.33 -3.18,6.12 -30.43,-12.9 -18.18,-26.65 -20.57,-62.11 -22.97,23.24 -8.13,16.11 -14.52,61.83l-31.56 -0.57c-11.56,-21.61 -13.83,-45.82 -9.22,-75.02zm-2663.55 -254.51c15.45,14.2 15.72,35.19 3.09,56.98 -11.4,-11.62 -15.65,-13.79 -17.3,-31.03 -3.06,-31.89 3.23,-20.75 14.21,-25.95zm-23.06 -98.44c-2.87,-33.49 4.06,-20.91 10.36,-27.25 29.34,24.1 5.23,51.04 3.29,54.19 -4.65,-5.2 -11.09,3.07 -13.65,-26.94zm15 -142.85c-5.89,-8.48 -5.07,-2.68 -9.39,-16.84l-6.9 -140.45c-1.08,-75.25 -16.81,-130.28 22.25,-140.11l-5.96 297.4zm111.95 -136.44c-21.21,9.32 -23.13,6.77 -53.86,2.45l6.66 -27.41c26.55,-6.73 39.38,10.1 70.99,-7.63 -17.1,-2.38 -29.77,-1.7 -44.85,-3.49l-31.98 -11.53c6.15,-32.42 -1.27,-26.64 34.48,-28.2l33.95 -3.63c-37.43,-21.67 -27.13,-7.42 -32.01,-8.32 -21.06,-3.86 -6.39,4.18 -32.5,-6.59l3.04 -29.78c36.65,2.11 30.87,6.82 60.91,-1.99 2.08,-0.61 5.2,-0.18 6.9,-3.22 1.7,-3.09 4.71,-2.12 6.8,-3.61 -36.9,-3.34 -77.66,6.54 -81.44,-25.69 22.92,-13.98 78.49,-6.9 105.9,5.07l14.61 297.25c-36.25,-0.05 -87.46,10.96 -119.72,2.29l2.43 -40.46c26.73,-1.04 58.93,-3.19 79.32,-13.61l-10.64 -5.13c-21.49,-5.77 -20.33,-0.42 -37.83,0.54 -49.57,2.71 -27.09,6.32 -34.26,-16.49 20.73,-8.79 46.36,-4.8 70.91,-7.87 -14.16,-15.65 4.45,-2.71 -16.95,-10.12l-40.58 -7.66c-25.11,-9.8 -1.46,9.98 -14.09,-11.42 9.06,-12.83 0.4,-11.89 41.4,-15 25.63,-1.94 17.37,5.74 40.27,-11.94l-27.86 -6.81zm146.12 -373.01c23.74,52.54 -29.54,57.28 -45.87,39.08 -15.48,-17.28 -2.58,-69.21 45.87,-39.08zm-253.08 -327.11c3.84,74.62 -2.03,154.8 -3.2,227.05 -1.23,75.94 0.94,158.04 4.52,232.37l-57.69 -5.22 4.32 -449.8 52.05 -4.4zm0.3 -164.49l-3.46 78.68 -38.26 -2.7 1.77 -72.96 39.95 -3.02zm2547.97 1317.05c2.64,-28.69 10.01,-32.55 31.67,-44.16l29.51 25.75c10.19,20.17 4.59,19.04 -6.74,36.86 -18.76,2.38 -19.89,7.75 -54.44,-18.45zm-1049.78 -1008.8c-32.05,9.44 -47.19,4.63 -68.14,-16.04 3.35,-21.4 -2.28,-13.28 10.99,-28.22 18.92,-21.3 -0.15,-2.37 20.57,-12.67 9.42,4.06 17.1,10.05 25.01,19.27 18.04,21.06 12.03,0.62 11.57,37.66zm1034.82 -28.63c5.75,-35.75 8.3,-36.82 44.85,-36.86 7.19,30.55 6.73,11.24 -8.85,38.73 13.93,-19.8 6.19,-12.93 33.89,-18.73 -13.41,55.41 -40.83,46.31 -69.89,16.86z"/>
  <g>
   <path class="fil2" d="M7598.13 5837l-1.22 -25.56 118.83 -2.49c38.51,-2.02 63.29,-9.74 95.46,-23.74 4.72,24.52 -10.99,31.02 -30.18,36.62 -48.32,14.08 -139.87,23.95 -182.89,15.17zm35.09 -1658.28c3.41,1.21 0.31,-1.18 5.12,3.45 26.22,25.28 49.94,79 68.99,84.88 7.46,-9.97 7.96,-12.56 -0.34,-25.28 -5.28,-8.09 -9.5,-14.92 -15.5,-22.28l-109.01 -119.81c-20.6,-10.03 -59.09,-52.51 -73.07,-37.8 -15.19,15.99 36.73,31.91 76.79,69.21 12.73,11.85 39.88,28.77 47.02,47.63zm-21.56 324.1c25.83,-28.47 113.07,-50.95 149.57,29.15 15.04,33.01 5.57,68.18 -12.61,88.46 -7.07,7.9 -8.45,6.57 -15.21,12.28 -8.75,7.37 -6.07,8.11 -18.14,12.05 -16.51,5.39 -30.07,12.07 -47.51,12.8 -8.67,-25.46 -16.12,-52.87 -25.47,-79.5 -9.43,-26.85 -22.79,-51.59 -30.63,-75.24zm44.96 168.97c16.52,-0.34 55.07,-15.15 69.29,-23.85 88.6,-54.27 49.22,-156.91 -11.66,-174.82 -28.75,-8.46 -56.25,-6.54 -82.92,4.72 -44.2,18.66 -39.9,11.85 -22.73,48.25 22.01,46.71 41.03,135.28 48.02,145.7zm272.88 1017.77c-22.53,0 -33.77,6.57 -32.08,-16.41 21.77,-17.73 59.4,-3.9 107.2,-19.63 9.79,-3.23 20.55,-12.36 28.26,-10.22 20.94,42.54 -81.56,46.14 -103.38,46.26zm-48.45 -95.45c30.8,-1.3 124.4,-1.11 143.11,15.17 8.34,7.27 5.1,19.61 -1.96,26.45 -24.31,23.56 -214.27,34.92 -238.74,5.6 -31.41,-37.64 76.65,-46.34 97.59,-47.22zm-111.76 41.97c3.11,29.14 1.67,43.29 23.32,51.7 32.29,12.55 72.33,13.53 109.23,12.77 40.99,-0.84 143.15,-0.7 147.67,-51.88 0.74,-8.38 -8.23,-33.94 -11.72,-39.95 -12.53,-21.57 -96.65,-27.88 -123.38,-24.86 -42.09,4.75 -150.13,5.39 -145.12,52.22zm131.29 -505.43c8.11,-15.66 21.14,-30.49 30.93,-45.63 6.33,-9.79 4.21,-10 14.43,-13.73l15.61 25.03c6.93,14.31 -7.8,27.44 -21.98,46.96 -5.26,6.57 -11.73,16.38 -18.42,21.06l-20.57 -33.69zm92.92 16.23c-2.8,-7.65 -6.54,-15.33 -11.21,-23.81 -8.99,-16.33 -7.83,-14.38 9.73,-40.55 1.61,-2.4 5.77,-9.21 6.86,-10.56 7.54,-9.37 1.46,-3.79 9.88,-8.22 4.42,14.96 18.59,30 10.23,45.59 -6.37,11.86 -15.33,31.9 -25.49,37.55zm-23.76 -49.52c-2.3,-1.91 -26.11,-28.41 -17.97,-42.23l28.03 -38.99c5.78,3.81 17.49,27.71 21.42,36.56 -4.05,10.76 -25.36,40.05 -31.48,44.66zm-114.98 75.4c-12.7,23.64 -44.91,40.3 -37.59,51.89 13.35,-4.32 61.66,-66.48 74.17,-83.53 8.7,4.39 19.95,22.57 23.06,34.79 -1.63,16.07 -66.16,79.32 -61.11,96.04 13.71,3.27 13.87,-5.85 19.5,-14.53 10.07,-15.54 40.06,-64.42 49.92,-69.54 3.39,8.54 9.88,25.7 19.36,31.95 0.26,-0.55 1.2,-3.45 1.26,-4.03 2.41,-22.52 -24.85,-29.23 -9.2,-50.15 6.13,-8.2 11.13,-15.48 17.09,-23.33 5.74,-7.56 11.63,-18.57 18.52,-23.99 6.32,4.59 24.6,31.28 17.48,44.63 -6.45,12.12 -23.34,29.21 -23.81,41.91 16.51,1.32 19.69,-27.3 33.99,-35.37 1.51,2.2 3.34,4.57 4.48,6.97l16.09 44.19c5.08,14.71 3.87,12.48 9.6,15.96 5.15,-10.46 -5.97,-32.94 -20.41,-63.06 -9.09,-18.99 3.62,-31.45 20.08,-60.62 12.11,9.5 21.92,54.63 26.03,72.74 2.61,11.51 2.02,20.61 10.15,25.02 9.16,-22.23 -22.85,-85.95 -27.42,-101.54 -3.3,-11.25 -2.69,-8.98 1.95,-18.45 9.63,-19.68 3.66,-13.3 2.19,-15.43 -7.26,3.82 -5.5,8.71 -12.57,13.02 -29.06,-33.6 -12.35,-42.69 4.52,-73.83 11.18,-20.64 29.5,-59.29 33.88,-84.08 -12.03,5.31 -8.47,7.98 -15.28,29.57 -5.49,17.38 -18.35,42.94 -27.02,58.65 -6.05,10.96 -9.12,19.65 -19.12,24.77l-18.76 -35.95c7.56,-18.62 56.22,-95.69 60.45,-133.51 -6.68,3.86 -1.99,-1.25 -7.1,6.99l-46.79 103.83c-3.4,5.7 -5.07,9.04 -10.05,13.67l-12 -16.67c-3.51,-6.01 -4.76,-11.28 -12.5,-13.52 -4.61,18.22 26.8,28.11 15.67,47.71 -3.82,6.74 -10.37,14.26 -14.79,20.8 -6.33,9.36 -7.98,12.9 -14.33,20.35 -9.11,-8.06 -18.54,-24.58 -27.97,-29.11 1.23,37.41 56.13,1.22 -19.99,94.33 -6.63,-6.13 -8.01,-13.19 -16.14,-15.58 -2.56,11.59 5.21,14.65 8.27,26.26 -2.99,4.02 -5.45,5.93 -9.04,10.5l-24.72 29.28zm-334.19 -684.93c26.35,-22.97 88.37,-44 134.85,-43.97 148.18,0.1 219.11,189.84 50.87,252.45 -14.47,5.38 -34.04,6.06 -34.37,14.74 -0.35,9.27 5.36,24.61 8.27,32.48 30.08,-5.49 82.5,-31.16 141.66,-31.16l8.77 30c-23.53,7.37 -111.35,17.29 -143.77,37.65 -1.33,29.46 13.65,71.18 16.17,102.7 -11.09,3.68 -29.37,14.41 -43.42,12.44 -3.97,-9.99 -6.17,-33.16 -9.69,-45.61 -4.26,-15.03 -7.21,-32.62 -14.11,-42.74l-30.48 4.91c-5.47,-11.16 -7.65,-21.75 -7.94,-33.11l24.37 -10.78c0.58,-9.88 -2.77,-27.24 -7.19,-36.06 -14.66,-3.87 -22.72,4.13 -37.28,5.95 -3.93,-7.61 -8.11,-14.76 -7.5,-26.57 43.5,-16.66 35.83,-4.25 3.16,-109.16 -13.98,-44.9 -47.77,-92.29 -52.37,-114.16zm-18.84 -5.95c1.79,10.29 4.4,7.59 12.59,22.96 25.04,46.95 68.76,140.69 71.74,188.93l-32.32 11.62c1.74,12.98 9.74,35.96 16.67,44.5 14.55,-3.72 19.75,-8.81 37.59,-9.67l4.16 20.18c-10.59,6.24 -22.53,7.13 -32.87,13.17l15.77 49.17 32.52 -5.1c8.15,13.08 10.29,28.63 12.67,43.81 1.07,6.89 3.76,41.86 9.98,45.92 13.01,4.09 52.6,-10.66 65.01,-15.76 0.66,-27.16 -17.33,-72.26 -17.79,-103.73 11.11,-2.58 19.83,-8.62 32.87,-12.24l76.19 -19.07c9.54,-2.07 33.11,-5.62 40.07,-8.14 -0.07,-12.96 -2.42,-4.97 -7.06,-20.69 -2.22,-7.53 -2.94,-14.32 -5.99,-21.78 -43.37,-11.74 -110.38,18.86 -148.11,20.86l-0.78 -17.21c51.73,-12.66 98.87,-34.56 116.95,-74.09 32.42,-70.88 -7.09,-210.08 -158.38,-202.96 -33.57,1.57 -125.15,31.53 -141.48,49.32zm-521.55 -256.29c-15.98,-1.57 -12.32,83.5 10.48,41.45 11.89,-21.94 56.78,-55.73 30.87,-55.47 -1.93,0.01 -20.33,2.5 -31.88,9.21 -4.25,0.04 -7.48,2.12 -9.47,4.81zm-31.51 -13.39c11.93,-18.74 -29.65,-11.9 -29.16,32.81 0.21,19.83 52.53,52.52 34.19,-6.3l-5.03 -26.51zm247.01 -168.09c11.7,21.92 18.44,-7.91 9.37,-14.32 -1.83,-15.26 -26.32,9.16 -9.37,14.32zm6.39 -4.62l5.7 -2.42 -5.7 2.42zm28.08 -34.54c12.41,-20.59 -31.87,-10.94 -15.85,27.11 4.84,11.51 15.19,14.06 15.21,4.51 7.24,-5.72 7.4,-20.01 -0.24,-25.51l0.88 -6.11zm36.52 -18.75c15.99,-13.71 -26.1,-25.28 -23.51,31.19 0.92,20.19 8.73,-8.73 16.37,3.64l7.14 -34.83zm-115.93 88.88l-79.12 -52.63c-4.32,-3.19 -9.65,-4.83 -14.48,-5.3 0.5,-2.02 0.18,-4.39 -1.11,-6.45l0.12 -0.1c-9.41,-9.13 -27.68,-6.76 -19.03,2.81 -5.2,20.6 16.79,32.2 32.31,39.05 16.72,9.74 39.57,19.96 49.64,27.37 6.72,4.94 15.09,10.18 21.07,15.77 4.48,2.82 4.42,5.99 10.2,8.96 7.21,3.7 14.34,20.73 23.36,17.02 10.21,14.3 33.27,-4.72 0.86,-32.8 -6.07,-5.26 -16.29,-11.63 -23.82,-13.7zm-98.55 119.2l29.01 -17.48c26.61,0 24.15,-27.88 -25.25,-3.72 -33.06,16.16 -9.94,34.98 -3.76,21.2zm-31.83 -20.65c6.88,-10.73 48.5,-12.21 28.45,-23.34 -3.39,-1.88 -27.11,-3.45 -41.06,17.5 -7.22,10.86 8.8,16.74 12.61,5.84zm-22.74 -25.7l4.68 -9.03c41.53,-6.93 -4.43,-34.34 -17.08,2.69 -5.68,16.65 10.19,17.42 12.4,6.34zm-26.66 -25.21c18.46,-24.61 44.15,-19.45 29.96,-31.15 -19.8,-16.34 -62.01,45.24 -34.78,36.96l4.82 -5.81zm439.96 1313.23c-1.77,-12.58 -42.18,2.42 -40.86,15.03 1.63,15.59 86.46,30.87 60.66,2.74l-14.09 -10c-1.46,-2.67 -3.47,-5.75 -5.71,-7.77zm-314.47 239.17c7.5,2.81 45.58,10.66 41.64,-5.08 10.15,-16.14 -32.98,-11.6 -42.55,-13.83 -6.85,-1.6 -41.17,-15.92 -30.24,7.21l31.15 11.7zm-26.31 -45.51c16.66,15.61 95.91,19.77 71.77,1.95l-33.52 -2.64c-2.71,-2.7 -11.23,2.45 -32.03,-12.9 -8.87,-6.54 -16.15,9.13 -6.22,13.59zm1116.77 -77.27c3.36,16.8 68.17,28.39 50.91,4.99 -6.24,-8.46 -27.46,-22.87 -38.81,-18.19 -7.84,-10.99 -14.36,6.23 -12.1,13.2zm-149.85 -83.48c-11.58,-16.74 -30.5,14.21 15.32,19.81 2.1,0.25 37.61,5.53 22.62,-9.46 -4.6,-4.6 -19.98,0.49 -37.41,-9.97l-0.53 -0.38zm35.5 -29.03c-2.61,-6.18 -65.58,-21.43 -47.32,0.71 8.36,10.14 69.92,20.32 50.78,1.17l-3.46 -1.88zm-644.86 147.49l3.38 0 0 -13.84 -12.16 -3.38c-1.85,-1.86 -24.55,-3.14 -28.03,-3.37l0 13.84c2.44,0.4 4.62,1.35 6.76,1.35 1.15,1.17 27.03,4.95 30.05,5.4zm-20.26 -55.06l-17.9 0 0 0.68 -1.36 0 0 13.84 38.17 5.41 0 -13.85 -18.91 -6.08zm192.23 -56.08l-115.54 2.03 0 13.84c35.93,0 121.83,9.33 146.27,-10.81l2.03 -1.35 0 -13.84c-26.92,0 -11.91,5.95 -32.76,10.13zm-111.49 47.63l148.98 -11.48c4.08,-1.36 9.84,-2.91 13.52,-4.74l0 -13.84 -18.58 1.35c-1.62,1.63 -6.76,2.88 -8.78,3.38l-138.51 11.48 0 13.85 3.37 0zm-317.91 -129.06c36.65,0 67.17,10.04 95.95,5.41 1.41,0 0.6,-0.68 2.03,-0.68l15.53 -2.7 0 -13.85 -129.38 -0.67 0 13.84 15.87 -1.35zm-94.41 -31.34l-1.87 -0.07 0 1.44c-9.6,5.31 1.34,14.79 6.24,18.95l-0.07 0 1.2 0.8c19.37,19.37 62.67,-7.09 21.55,-20.55 -3.69,-1.2 -11.19,-2.15 -18.06,-1.73 -1.92,-1.25 -4.7,-1.63 -8.53,-0.46l-0.46 1.62zm736.5 398.4c-13.43,54.71 -200.21,43.98 -249.38,36.63 -55.78,-8.34 -73.07,-33.19 -20.54,-61.52 31.66,-17.08 91.53,-23.8 127.21,-23.69 36.52,0.11 91.24,-2.22 125.11,19.77 6.06,3.94 20.93,15.23 17.6,28.81zm-721.19 -36.52l63.65 20.36c5.71,25.79 8.03,40.93 -43.78,19.71 -18.94,-7.76 -19.9,-17.61 -19.87,-40.07zm109.38 -13.71c11.85,-8.85 53.75,-2.74 70.29,-4.14 18.51,-1.57 54.67,-11.23 70.49,-8.01 11.38,22.37 1.45,16.65 13.18,22.13 2.32,-20.91 -6.58,-25.7 17.25,-33.97 -1.24,72.01 2.57,49.48 17.33,76.88 -46.64,12.2 -139.8,32.76 -188.92,17.35 -3.05,-7.15 -5.57,-17.02 -4.04,-26.68 21.34,-10.45 149.18,6.86 171.71,-15.97l-10.88 -2.39c-14.8,0.81 -43.16,9.39 -86.27,9.08 -17.56,-0.12 -35.91,0.19 -52.84,-1.9 -20.03,-2.46 -30.45,-16.85 -17.3,-32.38zm-106.7 -20.94c8.16,-1.08 24.37,2.6 33.29,8.3 1.94,9.87 1.08,15.69 -2.05,25.23 -11.94,1.67 -25.29,-5.58 -32.9,-9.78 -0.57,-12.09 -2.05,-13.38 1.66,-23.75zm335.67 -2.16c3.34,8.77 1.11,24.4 0.65,35.62l-1.57 30.31c-0.42,1.7 -1.34,3.61 -2.02,5.23 -8.99,-1.22 -24.36,-7.54 -31.68,-11.52 -11.58,-6.29 -10.88,-15.39 -8.55,-27.98 16.07,-5.15 14.24,0.51 25.27,0.1l4.76 -1.18c-12.14,-12.99 -31.24,-5.27 -31.04,-30.5 0.1,-12.55 6.88,-9.22 18.49,-7.28 10.63,1.76 18.53,2.26 25.69,7.2zm-46.17 -48.59c17.16,-4.37 64.33,15.72 43.32,33.71 -5.87,5.03 -26.96,-0.7 -34.06,-3.66 -13.3,-5.53 -10.19,-13.24 -9.26,-30.05zm-93.75 19.09c7.38,-5.42 0.91,1.32 4.22,-4.86 3.65,-6.81 -1.43,4.73 2.08,-5.72 2.25,-6.69 -1.15,-4.08 4.71,-10.11 4.92,-5.06 14.56,-6.96 22.66,-9.6 17.98,-5.87 33.3,-11.95 49.66,-17.45l-0.71 55.02c-41.35,34.2 -142.36,34.31 -194.13,28.69 -10.6,-1.15 -20.33,-1.67 -24.09,-12.86 -5.92,-17.57 7.32,-11.76 20.47,-16.36 -7.95,-5.9 -30.98,-7.34 -16.76,-24.22 10.06,-11.94 29.37,-5.23 44.82,-4.05 16.32,1.23 35.69,0.22 53.09,0.14 33.64,-0.16 24,2.95 33.98,21.38zm94.09 -60.33c15.33,-1.01 34.95,4.64 45.28,12.28l0.73 27.08c-11.81,0.96 -28.06,-3.01 -37.86,-7.69 -13.68,-6.52 -9.12,-17.17 -8.15,-31.67zm-256.34 -46.18c17.21,15.46 5.63,15.44 50.8,25.19 25.97,5.61 48.39,4.94 74.95,3.65 62.59,-3.03 69.42,-10.27 119.99,-31.82 3.48,8.51 3.06,21.81 1.29,31.36 -3.83,20.76 -42.53,34.42 -61.38,39.55 -47.28,12.87 -73.38,13.33 -122.67,7.98 -29.97,-3.24 -85.89,-8.81 -110.85,-22.45 -13.05,-7.15 -28.81,-28.34 -5.4,-38.18 13.83,-5.83 37.65,-13.64 53.27,-15.28zm62.86 -6.7c24.54,34.29 -26.91,26.97 -45.02,14.51 -8.27,-5.7 -20.6,-22.84 3.81,-21.37 12.16,0.73 31.68,1.88 41.21,6.86zm1065.99 29.31c-4.55,-10.36 -3.28,-13.68 -0.15,-25.12 38.67,-7.91 104.34,-1.31 150.13,-12.87 13.69,-3.46 30.2,-11.46 41.07,-13.36 6.77,40.67 -48.89,44.46 -74.1,48.1 -35.44,5.12 -83.51,12.47 -116.95,3.25zm-884.88 -33.73c-4.9,6.62 -57.93,26.13 -74.6,29.47 -16.04,3.23 -34.93,4.5 -51.31,3.82 -16.54,-0.69 -36.16,-10.24 -20.44,-24.27l126.02 -32.79c6.02,-1.95 13.99,-3.47 19.51,1.22 6.77,5.76 3.82,18.52 0.82,22.55zm252.48 14.26c12.14,8.61 28.01,-11.05 44.09,-5.02 2.44,6.12 4.03,14.84 1.8,21.79 -4.91,15.37 -44.26,20.23 -57.75,24.43 1.53,1.8 -0.18,6.79 15.05,3.8 24.49,-4.82 29.9,-14.64 41.53,-7.2 1.89,9.21 2.47,25.94 -3.82,31.81 -5.3,4.93 -21.85,10.36 -31.08,12.08 5.89,4.53 -1.37,1.36 6.7,2.87 9.16,1.71 13.56,-3.16 27.59,-1.19 3.15,18.81 -0.83,21.96 -1.72,32.95 -0.71,8.94 7.47,18.42 1.35,31.53 -12.12,7.33 -36.69,4.1 -52.01,5.44 -27.13,2.37 -65.98,12.62 -88.74,27.26 -17.81,11.46 -17.1,9.01 -23.21,22.31 -3.99,8.67 -2.19,13.64 -31.73,9.65 -18.13,-2.45 -22.81,-10.34 -19.23,-28.75 2.92,-15.03 6.49,-1.79 4.45,-13.5 -0.95,-5.43 -9.33,-23.56 1.53,-30.13 31.4,-18.98 5.87,51.16 15.48,62.53 4.74,-5.02 0.35,4.56 3.27,-5.59 1.11,-3.89 0.84,-6.74 1.12,-10.85 4.01,-58.13 8.13,-37.08 23.37,-50.43 -11,-10.34 -14.75,2.03 -18.73,-10.71 -2.89,-9.24 1.26,-19.87 4.66,-25.85 25.07,-4.6 95.48,7.99 114.8,-3.68 -10.39,-10.06 -92.65,2.06 -118.14,-9.36 -1.81,-10.63 -0.41,-19.23 3.31,-27.26 18.97,-6.51 53.14,3.73 77.64,-2.33 -7.51,-15.4 -33.41,-0.61 -80.88,-11.11 -3.57,-43.04 41.65,-7.78 52.7,-31.7l-49.84 -0.87c-3.89,-23.27 9.76,-27.41 29.62,-28.11 19.32,-0.68 39.14,-0.66 57.72,-2.93 60.15,-7.37 73.36,-26.5 93.24,-26.67 7.55,42.23 -25.57,24.44 -44.14,44.79zm821.06 -45.26c-17.3,32.03 -326.1,41.11 -259.87,-10.78 32.96,-25.81 89.63,-29.05 136.69,-31.37 26.25,-1.3 143.49,4.56 123.18,42.15zm-1085.83 -40.83c9.37,2.77 19.69,8.98 30.65,13.67 12.99,-1.97 43.32,5.58 44.77,15.01 2.55,16.6 -7.34,23.59 -22.98,19.05 -12.12,1.13 -25.81,-5.73 -36.94,-10.44 -16.58,-7.03 -18.23,-17.57 -15.5,-37.29zm-287 10.9c9.14,-0.88 21.34,2.83 29.64,8.02 12.15,7.62 8.62,17.81 6.11,30.18 -22.08,2.25 -42.5,-13.28 -35.75,-38.2zm1.67 -42.27c12.94,-1.54 39.21,5.97 36.5,40.42 -8.3,-1.46 -22.7,-7.07 -28.05,-11.11 -8.59,-6.49 -8.52,-15.48 -8.45,-29.31zm231.2 2.54c10.38,-1.23 22.25,-5.69 29.46,-3.94 5.8,10.51 9.75,30.84 -3.12,38.55l-22 10.53c-11.22,5.4 -24.6,6.13 -34.21,11.95 8.56,3.02 7.93,2.57 17.85,0.16 24.18,-5.85 43.87,-18.51 55.75,-17.48 8.39,34.74 -20.32,39.38 -66.82,48.27 -31.42,6.02 -80.3,9.93 -109.57,2.42 -3.22,-14.98 -1.63,-17.17 2.44,-30.79 16.43,-0.37 24.5,3.04 41.27,-2.58 -4.28,-4.67 2.96,-0.87 -5.86,-3.56 -19.45,-5.94 -62.43,12.81 -51.86,-36.29 14.01,-0.67 34.93,4.33 47.17,0.87 8.9,-2.52 7.87,-3.18 9.39,-8.8 -15.88,-1.26 -54.04,-0.47 -58.01,-6.89 -5.15,-8.34 -0.3,-21.14 3.6,-25.87 4.71,-2.09 71.62,-0.51 85.18,-0.95 16.1,-0.52 25.06,-0.28 40.76,-3.66 8.68,-1.86 27.07,-6.71 34.58,-5.38 11.16,26.03 -5.67,22.85 -16,33.44zm-202.72 -8.29c-20.81,9.26 -44.41,-21.05 -29.72,-34.59 3.88,-3.57 39.75,5.38 29.72,34.59zm598.56 -17.6c-16.17,46.26 -298.53,47.73 -286.97,-9.57 7.12,-35.31 120.73,-29.99 151.11,-30.84 24.34,-0.68 66.56,-2.25 88.25,2.33 19.77,4.16 55.88,14.39 47.61,38.08zm320.65 -28.24c0.61,-0.26 1.62,-1.13 1.94,-0.47l5.75 -0.31c8.84,1.27 34.26,7.96 37.3,15.34 1.87,4.53 1.98,14.83 -1.5,18.5 -6.37,6.73 -25.49,0.6 -33.43,-3.65 -10.97,-5.85 -12.31,-15.35 -10.06,-29.41zm0.62 -17.03c8.64,-27.3 104.03,-34.25 130.09,-35.7 31.92,-1.78 128.53,-8.52 145.5,20.62 -5.65,20.08 -36.74,24.59 -55.79,27.59 -49.57,7.8 -189.14,25.24 -219.8,-12.51zm-624.58 -29.08c5.46,27.9 -12.97,30.6 -33.84,38.8 -78.95,30.99 -68.92,-7.61 -54.44,-16.48 8.13,-4.97 21.29,-4.32 31.64,-5.87 25.65,-3.84 35.62,-9.86 56.64,-16.45zm-0.94 -13.66c-14.39,24.92 -111.48,30.84 -140.9,31.62 -28.78,0.76 -55.51,-1.5 -83.33,-3.9 -18.3,-1.57 -56.92,-13.24 -60.41,-25.88 -11.63,-42.2 194.11,-31.45 226.49,-28.26 22.54,2.23 52.44,4.85 58.15,26.42zm932.19 -380.6c4.68,-1.97 9.88,-1.31 16.21,-1.93 17.18,-1.68 -0.9,-2.1 14.61,-6.52 10.73,2.89 17.75,7.79 30.14,7.29 12.63,-0.51 17.92,-6.32 31.7,-4.06 10.41,18.4 2.29,50.87 -1.56,74.31l3.73 82.68c0.05,29.45 -0.67,56.15 -1.34,85.49 -0.82,34.99 2.35,52.91 -39.81,45.12 -16.57,-3.07 -20.04,0.8 -35.52,2.25 -24.24,2.27 -17.93,-4.95 -18.99,-27.24l0.83 -257.39zm-11.31 26.6c-45.7,16.66 -119.47,-8.16 -133.8,8.26 2.28,15.71 11.81,10.24 27.55,9.39 12.36,-0.69 24.84,-0.98 37.19,-0.93 15.34,0.06 58.18,-6.18 67.58,1.38 15.7,17.79 -69.73,11.12 -79.73,11.08 -12.95,-0.06 -20.49,-2.06 -22.43,10.49 11.87,10.5 71.32,-3.61 94.96,1.55 11.57,2.53 5.32,0.75 8.38,5.99 -12.01,6.77 -14.42,0.62 -25.55,5.03 4.76,13.76 10.41,3.08 26.37,8.48 2.19,15.26 3.01,77.79 -3.8,86.89 -19.35,11.58 -116.96,-9.06 -141.54,1.93 -1.57,16.37 23.57,7.85 68.68,10.41l66.65 2.59c10.88,1.78 9.75,1.03 10.05,12.92 -8.11,4.82 -20.06,3.37 -31.34,3.54l-45.28 0.59c-14.16,-0.07 -22.18,-4.23 -27.09,8.45 8.02,10.62 24.22,5.58 49.73,3.22 12.79,-1.18 41.8,-5.48 51.35,0.44 2.66,2.43 11.07,49.72 -5.1,55.52 -15.58,5.58 -34.96,2.86 -51.29,3.39 -16.93,0.54 -45.98,5.16 -56.49,-4.74 15.5,-3.88 41.78,6.35 53.28,-5.03 -12.44,-18.96 -59.39,9.3 -73.93,-7.55 7.32,-6.72 34.47,-1.45 46.97,-1.76 9.29,-0.22 16.09,0.17 25.28,0.75 11.98,0.76 16.11,3.37 19.64,-6.53 -20.19,-9.64 -96.66,9.1 -122.63,-12.88 -8.78,-7.43 -16.14,-13.44 -25.67,-18.98 2.23,-38.44 2.39,-75.05 4.37,-113.75 1.74,-34.11 -0.77,-75.35 5.98,-108.26 99.21,-16.99 75.98,3.53 109.16,-0.36 15.12,-1.76 62.6,-4.43 73.07,-1.26l-0.57 29.74zm483.84 -47.08l15.79 4.4c0.64,22.09 2.58,7.61 5.65,22 -9.79,5.42 -70.54,8.92 -86.02,10.1 -12.62,0.97 -88.47,-3.31 -78.14,12.28 5.53,4.4 -0.36,1.95 7.94,3.27l149.03 -11.63c-1.53,13.18 -14.3,12.19 -41.03,12.48 -25.18,0.28 -41.89,-6.76 -44.1,8.03 16.08,11.88 62.58,-5.34 75.53,3.19 -10.42,7.39 -99.78,5.88 -127.02,7.28 -13.83,0.71 -31.58,-2.69 -31.22,11.42 9.68,3.9 122.89,-8.5 151.93,-4.83 6.26,8.1 -0.26,-0.68 0.69,5.36l0.53 3.11c1.07,5.62 9.57,4.74 -8.4,6.81 -30.92,3.55 -93.56,-0.23 -108,13.6 13.97,13.23 100.52,-5.68 120.37,7.54 -6.7,11.6 -6.78,-0.68 -20.72,9.98 -5.79,4.41 6.67,2.02 -8.89,5.16 -1.7,0.35 -11.12,0.57 -13.24,0.63 -42.18,1.22 -154.22,-13.04 -169.16,-5.71 -0.9,15.67 8.88,11.25 43.37,11.56l110.67 2.31c14.78,-0.03 38.43,-4.11 43.37,11.8 -50.93,7.04 -110.69,-2.18 -159.26,-4.38 -3.95,-0.18 -8.29,-0.66 -12,1.04 -6.45,2.97 -4.37,0.63 -5.88,7.85 10.52,5.74 154.49,2.46 164.43,4.75 7.98,1.84 4.97,-1.22 7.65,5.31 -29.39,12.7 -118.18,-6.03 -131.7,5.02 4.57,14.27 31.26,5.45 63.18,5.27 22.77,-0.14 50.78,-1.64 72.92,0.09l1.1 17.25c-21.81,5.61 -123.92,-0.31 -151.91,-0.91l-118.29 -4.4c-17.53,-0.73 -27.41,-3.85 -24.73,15.39 8.59,2.57 248.97,-14.68 272.13,2.52 -4.48,14.13 -22.92,5.9 -32.58,17.6 10.18,8.33 34.36,11.37 49.74,12.96l-1.07 18.64 -32.68 1.38c-0.84,12.44 1.83,6.46 1.36,10.21 -0.26,2.11 5.5,0.73 -4.66,5.55 -6.96,3.31 -14.88,2.85 -21.75,3.74 3.04,7.72 -4.21,3.17 8.53,8.23 0.61,0.23 9.3,1.8 11.06,2.15l5.2 15.69c-42.48,3.55 -109.72,-5.5 -152.51,-9.63 -29.35,-2.84 -148.02,2.31 -163.5,-6.04 -4.82,-25.54 -6.67,-158.85 -2.65,-181.58 21.06,-7.62 80.5,-1.51 88.19,-12.06 -0.51,-0.44 -1.43,-1.57 -1.76,-1.01 -9.21,-2.89 -10.99,-2.97 -20.86,-2.78 -11.34,0.22 -69.01,4.33 -63.27,-8.05 3.98,-8.59 94.87,-3.51 112.48,-2.41 11.14,0.7 30.58,6.82 36.44,-3.35 -9.58,-14.53 -113.49,-0.11 -148.01,-7.65 2.54,-14.04 22.03,-9.9 37.17,-10.68 17.02,-0.87 33.28,-0.83 50.3,-0.32l99.56 -1.47c-2.51,-6.72 1.32,-3.05 -5.07,-6.5 -6.78,-3.66 -26.28,0.12 -34.13,0.92 -37.68,3.83 -109.57,2.82 -143.35,-6.65 -5.68,-11.5 -6.71,-13.67 -3.5,-28.8 15.65,-5.9 164.15,-9.94 190.35,-10.21 31.73,-0.32 59.79,-8.68 92.2,-9.44 31.29,-0.74 64,-6.74 95.56,-7.63 -6.97,16.19 -7.75,-3.34 -13.36,14.25zm-156.85 -44.01c11.55,-6.38 14.35,-13.66 12.38,-29.06 19.58,2.91 45.78,18.7 68.69,25.42 18.07,5.29 56.7,14.66 68.8,23.76 -10.23,2.42 -23.74,0.23 -35.01,1.28 -32.41,3.03 -71.21,12.34 -103,11.12l-11.86 -32.52zm-471.97 -126.91c15.7,1.44 34.6,-2.61 38.76,8.31 12.54,33.03 -59.09,9.3 -74.35,25.56 14.52,18.29 53.14,-6.74 71.06,7.55 -5.87,4.67 -24.21,5.31 -35.49,6.32 -22.68,2.02 -29.69,-0.35 -34.48,8.76 8.91,8.17 11.98,4.11 34.95,1.88 12.52,-1.21 26.13,-3.52 39.19,-2.84l0.86 18.56 -13.87 4.54 13.14 8.04 1 84.24c-16.21,7.47 -58.31,8.77 -76.24,7.38 -2.63,-9.35 -1.04,-21.15 1.29,-30.72 17.01,-5.61 53.97,-5 60.49,-8.03 7.49,-3.49 1.46,2.58 5.79,-5.1 -10.09,-8.43 -19.43,-3.66 -33.59,-2.06l-24.97 1.68c-2.92,-0.24 -5.5,-1.27 -8.3,-2.13 4.2,-20.33 37.33,2.68 46.52,-18.94l-45.34 0.05c10.92,-6.41 34.05,-4 52.59,-7.99 10.12,-2.17 9.44,-1.19 13.46,-8.33 -16.84,-11.21 -46.76,-0.52 -68.13,-3.93 -3.85,-14.49 -16.37,-97.25 -13.6,-106.75 14.75,-2.23 70.52,-3.54 81.04,2.56 -8.03,11.25 -22.12,-0.4 -31.78,11.39zm331.23 -21.45c2.29,9.71 -0.92,8.35 31.9,6.97 35.82,-1.5 71.27,-2.36 107.12,-3.03 0.71,0.14 2.88,0.78 3.51,1.09 -24.52,9.35 -26.66,-2.95 -33.99,14.36 11.6,0.54 20.32,1.75 31.85,3.38 13.41,1.89 23.87,-1.4 22.47,10.39l-36.64 5.09c6.3,12.53 4.96,6.14 35.83,11.89 -4.99,11.02 -4.96,0.65 -9.14,13.12l10.49 7.15 -7.68 19.6c-12.46,0.99 -34.61,-2.12 -44.07,5.55 5.93,14.6 20.58,3.82 33.14,12.57 -8.01,6.3 -37.66,7.66 -49.53,8.45 -15.23,1.03 -12.27,3.55 -13.72,6.64 13.74,8.32 41.93,4.03 59.19,4.8 5.53,20.07 -10.79,8.46 -22.61,20.34 6.96,8.39 8.48,2.99 17.63,10.06l-8.53 10.06c0.43,0.42 1.24,0.29 1.47,1.03 0.72,2.4 6.49,0.77 11.9,9.03 -22.98,10.97 -256.24,19.02 -287.02,12.36 15.29,-7.91 32.91,-0.74 45.98,-6.47 9.61,-4.21 1.51,-5.97 17.46,-7.1l119.85 -6.04c6.23,-1.53 3.93,-0.82 6.74,-2.81 -29.71,-12.64 -173.32,16.85 -191.52,2.51 3.73,-10.22 38.67,-7.59 50.25,-7.67 35.11,-0.23 82.63,-4.72 119.51,-4.5 15.01,0.09 49.59,6.23 58.93,-5.43 -3.98,-3.21 0.14,-1.55 -6.32,-3.17 -7.59,-1.9 -13.83,-0.22 -22.43,0.48l-144.87 5.44c-14.03,-0.01 -46.21,9.19 -54.93,-0.24 12.07,-16.73 226.53,-6.08 246.69,-13.14l3.75 -1.94c-3.83,-6.92 5.63,-5.39 -25.39,-4.09l-95.66 4.11c-32.36,1.3 -114.72,5.43 -125.28,2.32 -0.98,-0.29 -3.37,-1.29 -4.24,-1.81 1.28,-9.22 11.04,-7.74 21.24,-7.95 16.26,-0.34 24.93,3 32.12,-5.16 -3.31,-7.96 0.04,-5.04 -9.04,-7.37 -8.73,-2.24 -35.22,7.4 -42.26,-0.85 -7.13,-12.39 32.44,-11.14 44.42,-12.17 31.26,-2.67 52.98,4.16 56.86,-7.24 -17.71,-10.16 -77.57,4.77 -101.72,-0.52 10.94,-10.12 84.36,-12.06 104.09,-13.27 23.12,-1.42 98.81,-1.47 111.96,-8.19 -1.69,-11.38 -1.47,-12.95 -12.28,-13.29 -10.08,-0.32 -115.59,19.03 -202.09,17.13 -0.56,-2.06 -1.47,-3.42 -1.82,-5.06 -1.94,-9.08 -0.99,-9.79 1.93,-19.89 21.31,-6.67 88.98,-11.58 116.96,-13.69l92.23 -5.39c14.24,-0.65 22.07,2.2 22.7,-10.78 -26.07,-13.5 -190.93,21.2 -232.1,18.14 -4.09,-28.35 11,-23.42 33.27,-24.75 45.07,-2.66 58.02,-0.55 88.23,-1.67 21.51,-0.79 17.11,-7.5 18.05,-10.86 -17.92,-5.43 -120.72,14.23 -139.35,-0.97 2.55,-12.66 14.5,-11.62 32.9,-13.56 12.42,-1.32 29.46,-1.81 42.94,-2.18 31.36,-0.85 50.02,-4.47 80.51,-8.62 29.77,-4.06 144.25,-22.41 163.86,-10.85 2.94,26.89 -17.94,20.34 -75.81,23.62 -16.28,0.92 -91.92,0.13 -99.89,4.04zm-400.42 -95.66c21.04,-5.41 40.37,-2.02 63.8,-6.71 21.4,-4.28 33.46,6.69 47.9,15.62 29.5,18.25 59.04,33 94.14,49.29 8.6,4 15.11,6.85 23.9,11.35 10.92,5.59 14.83,4.58 16.27,18.54l-7.03 205.67c-19.18,1.17 -33.95,-2.33 -55.68,0.29 -19.41,2.34 -33.32,3.78 -53.35,2.09 -6.44,-18.21 -8.19,-57.38 -7.9,-79.77 0.22,-17.03 -5.47,-84.58 -4.28,-90.54 12.39,-2.73 34.61,0.44 40.92,-10.06 -9.19,-8.54 -22.71,-4.31 -33.66,-6.08l66.14 -3.3c11.02,-0.86 11.06,0.22 15.88,-8.22 -14.84,-27.3 -89.31,7.94 -133.35,-18.66 -7.5,-4.53 -15.2,-10.6 -22.54,-15.06 -16.1,-9.8 -28.24,-20.93 -42.15,-33.34 -5.44,-7.9 -10.99,-19.22 -9.01,-31.11zm135.75 7.65c71.6,-9.87 97.22,2.37 180.81,-15.34 17.6,-3.72 38.41,-13.62 51.42,-15.95 16.52,-2.96 69.66,34.33 86.74,41.79 23.37,10.19 87.65,14.16 102.6,29.73 -11.75,12.37 -263.55,34.32 -295.84,31.06 -14.34,-1.44 -9.13,-5.82 -19.18,-12.05l-65.2 -32.77c-7.48,-3.64 -13.77,-7.96 -20.81,-11.88 -30,-16.73 -15.18,-11.2 -20.54,-14.59zm-1259.05 -431.53c-18.76,5.12 -27.09,-11.97 -25.16,-28.91 6.97,-5.63 23.52,-16.58 34.72,-10l3.45 27.87c-13.99,-6.35 -1.95,-5.59 -13.93,-9.85 -7.45,11 2.22,9.55 0.92,20.89zm925.08 -94.02c-8.22,4.59 -12.23,-1.31 -20.39,7.54 5.64,12.26 11.17,1.63 19.91,10.06 -15.6,3.48 -30.01,-3.4 -39.86,-12.57 -4.45,-20.04 0.13,-39.15 19.57,-41.44 27.87,-3.29 24.07,15.12 20.77,36.41zm170.5 5.97l10.1 13.06c-16.17,0.73 -22.69,-5.07 -35.38,3.14 5.37,12.37 5.31,2.94 11.86,11.24 -15.04,-2.01 -11.09,-3.06 -18.39,1.8 1.38,14.84 12.56,11.59 27.31,14.33 14.26,2.65 22.07,4.21 26.75,15.84 -9.26,7.3 -15.49,0.62 -25.54,-1.23 1.59,13.64 -0.97,7.06 11.97,15.31l4.38 3.52c-34.07,13.44 -51.89,-25.61 -66.78,-17.38 -1.22,14.58 36.79,15.24 56.49,50.07 -9.43,14.66 -6.11,-2.24 -12.03,20.16l-14.4 2.35c-6.35,1.75 -4.36,3.95 -9.99,0.95 -11.08,-5.87 -12.44,-13.81 -21.19,-21.49 -8.16,-7.16 -15.49,-11.81 -23.3,-19.49 -6.43,-6.31 -13.49,-18.32 -26.49,-14.58 2.12,12.94 33.87,31.42 39.68,56.87 3.53,15.45 0.72,7.73 -1.52,10.96 -28.4,2.61 -5.56,-29.05 -62.8,-82.62 -9.85,-9.22 -18.29,-14.46 -25.91,-26.03 2.26,-7.81 -2.46,1.22 2.78,-3.57l5.4 -3.97c-6.5,-8.14 -10.14,-5.48 -9.94,-13.41 18.71,-9.85 34.09,15.5 53.48,15.6 2.08,-27.51 -48.02,-19.75 -57.61,-29.86 5.05,-10.05 10.1,-6.13 21.62,-3.7 44.56,9.46 46.83,25.2 60.85,23.99 -0.91,-15.82 -7.62,-15.5 -20.76,-21.82 -42.77,-20.57 -62.32,-8.8 -59.18,-25.48 2.19,-11.66 23.77,-8.41 33.98,-6.21 33.84,7.27 42.55,28.03 51.77,32.91 29.11,15.46 51.7,0.01 72.79,-1.26zm-499.25 -67.62c60.96,-2.28 193.55,87.67 237.46,124.73l43.98 36.53c24,23.19 72.46,86.26 90.9,112.65 20.5,29.33 41.21,68 58.25,102.39 17.78,35.87 32.2,75.73 44.97,116.08 19.49,61.61 20.32,59.9 34.55,126.59 6.09,28.58 25.59,117.47 21.05,141.52 10.74,19.3 3.94,201.27 1.91,235.52 -2.21,37.36 -4.26,77.31 -9.45,113.94 -2.43,17.19 -6.88,33.27 -9.25,50.62 -2.33,16.99 -1.3,43.02 19.35,38.36 16.17,-9.79 7.11,-28.59 12.74,-43.53 23.52,-9.23 74.59,33.34 96.37,50.04 11.38,8.71 47.91,32.69 42.46,50.64 -12.6,19.33 -51.62,11.1 -80.56,11.75 -42.85,0.95 -123.08,6.45 -158.04,28.66 -25.58,16.24 -7.74,50.86 -20.5,73.59 -41.64,23.45 -293.32,61.22 -342.44,49.71 1.29,-4.18 -4.74,2.28 1.78,-2.24 13.65,-9.55 31.4,-2.8 39.86,-24.59 32.04,-82.47 -35.59,-85.59 -116.62,-86.16 -39.01,-0.28 -128.64,-1.86 -160.6,19.99 -11.38,7.78 -11.21,8.58 -16.78,21.01 -4.96,11.04 -11.77,9.27 -23.16,14.38 -9.63,4.33 -14.7,10.59 -21.15,12.53l-4.54 -40.57c13.72,-10.26 26.31,-7.51 39.97,-22.94 9.5,-10.74 8.3,-41.76 1.6,-54.04 -12.86,-23.61 -69.57,-23.24 -102.18,-25.34 -37.83,-2.43 -137.9,-6.16 -174.04,8.14 -27,10.68 -19.26,17.32 -22.16,43.78 -7.76,4.81 -24.31,9.61 -33.1,14.33 -18.22,9.75 -7.6,16.63 -12.52,35.06 6.61,13.49 8.53,74.45 3.81,91.87 1.48,7.17 0.8,14.65 -2.01,21.62 2.58,1.62 5.15,3.75 7.76,6.6 14.26,15.58 56.14,17.76 61.43,29.71 -19.1,3.76 -29.06,8.16 -46.44,15.71 -20.61,8.96 -27.59,8.23 -28,33.93 -0.34,22.03 -2.13,40.58 -1.36,63.17 1,29.67 19.33,17.05 31.31,33.38 0.45,20.34 -0.37,56.66 4.96,73.69 26.35,28.01 156.54,38.56 203.05,34.94 28.85,-2.25 75.06,-7.85 100.5,-18.88 23.2,-10.03 27.31,-4.62 50.96,-0.91 18.72,2.95 37.27,2.3 54.68,4.35 7.84,36.35 -0.12,36.66 34.96,49.49 25,9.14 42.12,11.64 68.23,14.57 55.77,6.26 103.74,6.53 158.28,-4.36 21.72,-4.33 48.23,-13.45 56.46,-29.67 15.41,-30.37 9.74,-72.65 -23.36,-89.2 -21,-10.5 -105.41,-15.21 -108.03,-17.45 -5.98,-9.75 -6.77,-182.88 -2.76,-201.01 15.5,-4.07 28.44,-3.98 44.15,-3.53 36.02,1.03 91.3,-8.22 126.44,-14.16 26.56,-4.49 51.58,-9.92 78.2,-14.95 12.94,-2.45 60.64,-20.16 73.22,-14.79 4.73,29.37 -2.39,39.25 62.29,55.12 17.22,4.22 32.76,6.34 50.38,7.54 15.07,1.02 41.44,0.1 55.16,3.73 11.07,40.31 -10.89,49.52 41.06,60.97 59.91,13.21 127.57,13.39 187.34,-2.47 31.13,-8.25 49.73,-15.55 55.08,-48.01 6.39,-38.83 -5.55,-54.22 -38.15,-63.24 -58.79,-16.26 -126.49,-8.74 -184.94,3.31 -85.86,17.7 -31.14,48.12 -114.29,36.08 -22.73,-3.28 -24.55,-6.25 -18.04,-27.41 9.14,0.59 4.93,1.63 12.6,6.53l13.07 -14.89c-9.97,-8.76 -13.17,-22.18 -4.92,-33.7 9.18,-7.34 46.06,-3.03 61.28,-6.73l12.7 -7.35c-20.07,-8.08 -108.43,26.7 -89.83,-22.64 13.16,-4.52 83.76,-4.9 107.47,-8.34 69.3,-10.07 40.74,-5.47 91.04,-25.03 3.05,21.62 0.91,46.45 -0.35,68.67 -0.75,13.32 -1.83,14.65 7,20.03l-0.42 -89.03c50.88,-8.64 -8.01,-68.79 -16.09,-77.51 -10.14,-10.95 -70.12,-53.94 -71.71,-59.79 24.5,-1.99 49.25,-2.43 73.63,-3.06 29.42,-0.77 18.85,1.78 30.3,7.81 8.15,4.3 90.98,4.05 101.24,-1.26 6.87,-3.56 3.16,-4.95 12.67,-6.87 14.42,-2.91 34.08,-2.26 49.29,-3.72 70.67,-6.8 141.26,5.58 211.34,7.74 20.72,0.64 49.66,5.58 67.72,3.89 -0.53,-10.2 1.78,-1.64 -4.68,-9.82 -8.83,-11.21 -2.35,-7.15 -4.29,-16.8 -1.62,-8.13 0.15,2.78 -5.11,-7.65 11.12,-4.35 10.7,-0.5 19.22,-7.53l17.15 -7.98c2.64,-6.96 4.61,-24.49 2.16,-30.96l-31.97 -8.6c28.51,-18.24 10.59,1.66 17.74,-18.35 1.76,-0.03 18.35,0.32 19.28,-1.58 0.42,-0.87 1.47,-0.47 2.12,-0.86 2.93,-15.42 -0.38,-21.66 -3.82,-34.9 -3.15,-12.14 1.33,-4.07 2.07,-15.78 0.37,-5.87 -1.75,-8.79 -4.46,-13.48 10.93,-8.58 19.28,-13.59 22.75,-27.13l-9.82 -6.78 13.24 -3.88c-3.97,-17.53 -5.3,-5.48 -1.19,-18.39 2.36,-7.41 -0.67,-10.86 -1.73,-21 21.82,-9.03 2.89,-14.42 16.4,-32.4 -4.15,-10.49 -5.3,-5.78 -8.54,-23.75 -6.46,-35.93 15,-18.7 -43.47,-39.65 -27.38,-9.82 -109.69,-30.54 -119.22,-52.04 5.4,-9.64 4.6,4.74 10.65,-15.35 4.58,-15.15 0.68,-22.23 0.47,-37.62 -0.2,-14.29 9.37,-13.23 2.2,-31.14l-29.14 -4.85c10.58,-7.96 30.05,-12.15 43.61,-14.71 0.37,-5.67 -0.1,-14.88 -0.96,-20.67 -2.49,-16.53 0.17,-10.69 -10.85,-16.48 12.53,-9.45 9.47,1.5 14.12,-12.57 -12.27,-11.66 -133.5,-27.74 -178.05,-59.96 -31.5,-22.78 -32.23,-27.3 -52.42,-20.14 -30.58,13.25 -42.79,20.29 -79.4,25.11 -35.19,4.62 -63.89,5.51 -99.21,7.09 -99.86,4.45 -60.25,-8.88 -90.83,-15.34 -22.59,-4.76 -70.23,15.27 -92.41,7.92 -17.31,-51.16 -34.17,-105.82 -56.71,-154.77l-53.34 -105.05c-6.23,-12.07 -14.68,-21.48 -21.29,-31.63l-55.1 -75.55c-6.27,-6.87 -6.56,-9.44 -11.79,-16.04l-46.29 -44.09c-30.99,-30.55 -63.02,-49.46 -100.79,-75.79l2.62 -2.69c37.35,-32.99 39.44,-9.19 60.34,8.12 18.83,15.6 18.45,7.66 38.16,17.28 12.58,6.15 11.88,16.93 29.16,26.1 21.38,11.35 28.74,-1.66 39.41,5.77 7.8,5.42 18.75,20.3 27.47,27.84 31.86,27.54 31.38,54.7 39.64,70.42 13.6,1.81 26.61,3.62 32.5,-4.97l4.94 -9.72c0.1,-0.14 2.07,-1.94 2.84,-3.03 4.63,3.36 8.28,9.03 14.36,8.98l24.46 -4.55c3.08,-4.46 3.15,-6.92 6.38,-11.38 4.68,-6.42 4.03,-2.86 9.08,-8.74 9.1,-10.59 2.08,-13.76 -0.51,-28.91l12.98 -5.85 -2.85 -13.69c7.63,-3.49 9.81,-3.89 13.88,-10.63 -2.43,-9.56 -4.06,-7.46 -8.06,-14.09 -11.42,-18.91 8.59,-10.88 -28.78,-24.36 11.24,-3.23 14.15,5.2 21.43,-2.39 10.99,-11.45 -17.04,-28.82 -17.1,-28.84 -33.46,-0.67 -49.48,17.31 -82.34,-6.58 -29.22,-21.23 -32.83,-24.28 -78.6,-20.86 -14.35,-10.61 -15.35,-14.71 -37.01,-10.33 -14.18,2.86 -20.39,10.96 -30.16,15.23 -11.29,-6.32 -33.28,-34.72 -61.95,-43.13 -34.97,-10.25 -59.41,4.76 -90.25,11.55 3.6,-13.04 6.6,-3.14 21.63,-28.96 6.64,-11.39 8.32,-26.27 9.29,-40.77 3.99,-59.65 11.9,-44.56 47,-53.44 6.1,-1.55 12.3,-6.49 18.04,-6.38 5.29,0.09 10.13,4.14 20.06,5.45 75,9.82 59.32,-1.66 90.43,59.04 13.04,-3.59 22.52,-17.15 25.21,-31.59 2.34,-6.52 3.08,-12.81 6.94,-16.45 5.52,-5.22 0.79,-1.32 6.73,-2.65l8.41 -1.85c-0.32,-15.09 -8.84,-23.57 -11.65,-37.03 32.16,3.21 20.32,-6.79 13.7,-23.33 2.33,-5 1.65,-2.86 4.55,-6.43 4.85,-6.02 -1.76,3.61 3.3,-3.46l-2.39 -16.47c1.92,-18.24 2.69,-2.65 -4.59,-16.38 4.17,-5.73 7.35,-8.12 9.59,-15.09 -6.59,-4.75 -3.5,-0.36 -11.27,-4.25l19.32 -10.28c-3.7,-9.93 -8.77,-13.45 -14.9,-23.19 12,-23.69 11.15,-13.59 4.86,-42.3 -29.59,-2.89 -20.27,35.94 -83.02,54.52 -44.62,13.21 -70.24,16.87 -92.62,45.76 -14.1,-0.15 -29.94,-3.48 -39.99,7.57 -15.25,16.75 3.23,11.52 -25.5,22.38 -10.33,3.91 -20.95,15.53 -26.89,20.99 -30.85,28.43 -14.54,86.62 -33.66,107.05 -14.85,15.87 -44.03,28.48 -65.08,22.51 -4.5,-8.34 -4.75,-17.63 -10.02,-24.81 -5.54,-7.55 -12.96,-11.76 -17.55,-17.53 2.93,-10.76 12.62,-24.34 10.61,-36 -2.45,-14.15 -13.1,-17.82 -19.59,-29.38 6.23,-27.53 51.06,-76.23 64.42,-87.78 7.28,-6.3 13.61,-10.38 20.7,-17.07 5.68,-5.36 11.86,-14.46 17.99,-19.75 14.19,-12.25 22.84,-24.34 34.35,-38.5 10.51,-12.94 24.51,-25.66 28.06,-47.39 3.65,-22.35 -11.02,-38.95 -31.45,-40.21 -42.53,-2.61 -85.26,36.7 -119.92,7.59 1.78,-12.85 24.4,-43.44 31.32,-62.62 9.42,-26.11 10.7,-53.44 -16.04,-61.83 -41.04,-12.87 -106.64,22.19 -137.89,38.92 -53.99,28.91 -36.93,23.2 -67.62,48.16 -12.71,10.34 -22.87,21.23 -38.66,29.14 -96.27,48.24 -285.1,34.16 -347.4,107.86 -15.85,18.75 -16.97,46.98 -0.49,66.14 16.16,18.76 40.37,17.37 66.02,27.16 23.04,8.79 46.21,32.27 64.54,48.6l76.96 58.79c7.57,4.45 8.82,4.44 12.66,10.69 -10.37,11.01 -24.79,14.48 -28.91,31.52 -4.85,20.09 6.94,31.26 13.16,41.4 -3.76,6.34 -6.88,13.42 -12.61,18.19 -7,-3 -5.87,-3.54 -12.53,-8.17 -49.04,-34.03 -126.34,-92.8 -184.39,-76.03 -60.6,17.51 -80.11,79.9 -50.15,134.48l25.34 27.51c3.47,2.75 5.11,2.69 10.69,7.12 -2.55,2.87 -0.15,1.18 -5.78,4.44 -20.39,11.75 -22.62,9.86 -39.64,28.29 -8.38,9.09 -16.99,22.59 -20.43,35.42 -6.25,23.27 6.12,39.67 18.6,46.8 15.01,8.58 29.99,16.71 49.57,17.02 -2.77,5.89 -5.84,11.21 -8.95,16.49 4.39,0.53 8.6,1.8 12.53,3.68 10.03,-18.6 22.66,-36.28 38.68,-52.05 27.49,-27.05 31.08,-33.75 63.98,-59.16 19.76,-15.27 169.86,-116.17 194.04,-104.21 -0.23,8 -34.01,54.34 -41.34,65.84 -52.36,82.09 -16.82,102.24 -2.4,62.67 16.69,-45.82 37.21,-120.89 85.9,-139.95 12.6,-4.92 65.25,-18.89 75.43,-13.62 4.08,20.73 -19.18,73.95 2.48,75.19 14.61,0.84 10.99,-22.58 10.94,-34.6 -0.04,-14.8 -1.49,-32.03 3.75,-45.61 12.35,8.61 -3.03,13.2 13.36,17.58 5.35,-8.18 2.91,-12.56 4.21,-22.23 27.53,-4.65 124.95,-20.79 147.16,-6.39zm-412.94 80.26c-12.66,10.5 -15.66,19.5 -40.96,17.68 -47.6,-3.41 -79.68,-16.52 -104.28,-52.5 -35.24,-51.57 46.72,-52 97.51,-12.25 7.66,6 43.36,38.54 47.73,47.07zm611.9 -41.82c-11.43,-7.39 -9.12,-30.73 0.42,-36.7 5.55,-3.48 52.47,2.41 25.65,40.82 -26.36,-5.39 -3.19,-17.51 -22.64,-27.29 -6.39,6.88 -3.8,13 -3.43,23.17zm-46.78 -30.49c13.73,-8.45 25.48,-14.85 31.16,-7.18 2.51,9.99 -1.79,15.57 2.54,29.57 3.11,10.09 9.82,17.88 -2.14,22.88 -24.66,10.3 -33.03,-27.61 -31.56,-45.27zm-456.04 -20.41c13.13,40.24 10.87,37 -11.14,44.24 -18.84,6.2 -43.45,15.74 -62.08,13.32 -9.12,-26.33 -3.53,-36.11 20.09,-45.14 15.65,22.79 10.53,36.73 26.53,31.95 6.27,-15.42 -14.89,-9.39 -14.05,-30.88 0.58,-15.1 28.57,-13.06 40.65,-13.49zm-331.62 24.75c6.03,-28.95 59.08,-33.48 66.94,-16.65 3.23,20.23 -12.11,20.16 -28.42,25.92 -14.43,5.1 -20.16,23.92 -33.18,23.02 -5.84,-8.69 -0.21,-16.78 8.22,-22.68 10.48,-7.33 14.69,-2.09 16.35,-17.8 -13.32,-4.41 -17.53,3.58 -29.91,8.19zm3.85 -26.84c6.26,-13.08 29.49,-40.39 51.73,-38.62 18.94,1.5 43.82,31.78 34.09,50.37 -13.56,-3.03 -13.85,-16.03 -36.66,-18.07 -20.65,-1.84 -38.99,8.44 -49.16,6.32zm500.69 -49.53c14.64,-2.18 39.2,-10.1 48.33,0.74 11.08,13.17 2.24,37.98 -6.71,46.99 -0.96,-13.86 5.53,-21.89 -5,-29.72 -15.1,4.16 -4.06,16.4 -12.58,28.98 -3.33,-10.6 3.9,-7.59 -7.54,-11.63 -11.28,11.25 1.66,19.58 -17.2,25.05 -22.8,6.61 -19.79,0.41 -24.01,-13.9l-23.11 -10.1c-6.63,13.16 -0.24,7.46 -1.79,23.42 -0.58,6 0.39,2.33 -1.78,5.5 -11.27,-15.17 0.53,-50.48 -21.15,-43.85 -7.31,15.12 16.1,37.08 -4,50.26 -15.9,-8.77 -2.43,-28.24 -26.53,-30.04l1.38 33.55c-36.4,17.75 -30.7,-11.24 -40.23,-18.88 -17.01,4.84 2.52,16.33 0.93,30.03 -8.52,-4.71 -23.11,-7.06 -20.47,-39.13l26.88 -11.08c3.85,13.98 -0.23,27.96 15.29,29.27 8.62,-19.09 -22.23,-26.41 24.58,-43.33 24.04,-8.68 36.3,-14.82 60.92,-9.14 7.11,-7.77 7.11,-9.99 20.51,-8.38 9.78,31.92 -10.22,30.91 8.51,38.77 11.6,-20.43 -0.82,-26.01 4.77,-43.38zm247.86 33.99c10.65,15.49 -10.63,-13.4 5.22,5.29 0.01,0 8.18,5.19 0.2,11.17 -18.03,13.53 -41.39,-15.55 -36.03,-33.46 5.04,-16.78 10.17,-15.18 12.31,-39.77 1.51,-17.44 0.26,-32.86 8.22,-45.98 6.52,5.57 6.31,9.25 12.48,16.08 13.14,14.53 20.38,8.28 22.85,32.4 0.56,5.55 1.46,20.48 -2.11,23.85 -16.19,7.55 -19.34,-6.65 -34.93,-1 4.22,17.64 20.01,8.8 32.57,12.52 -10.76,10.99 -17.83,0.53 -26.12,11.3l24.77 4.12 -19.43 3.48zm-187.25 10.57c-0.59,-3.35 -0.13,-6.7 0.04,-10.12 3.34,-29.09 -0.26,-19.18 -0.4,-40.68 7.56,-3.51 22.64,-3.1 31.27,-2.43 13.28,1.02 16.57,3.53 16.54,16.31 -0.06,22.66 -9.98,38.08 -29.77,41.41 2.32,-10.49 7.62,-18.04 7.16,-29.09 -0.38,-9.48 -4.85,-18.91 -12.3,-10.87 -7.3,7.02 3.1,21.58 -11.39,39.17l-1.15 -3.7zm-172.35 -40.35c7.25,-7.76 8.63,-33.55 16.54,-42.99 6.64,-7.92 30.19,-13.77 43.63,-11.61 3.1,11.43 7.38,38 5.54,47.52 -13.51,-6.32 -8.35,-14.31 -21.23,-3.82 -2.45,-9.82 0.11,-11.9 -10.06,-9.3l-3.4 19.21c-0.09,-0.33 -0.4,1.26 -0.85,1.72 -8.93,-21.36 6.64,-23.33 -2.52,-38.71 -10.08,2.73 -1.86,-5.55 -8.97,7.42 -5.95,10.86 -1.11,31.17 -3.82,36.41 -8.29,9.28 -42.44,22.64 -59.51,21.56 -8.64,-15.07 -10.28,-47.46 6.63,-56.24 1.37,9.75 -0.5,6.97 -0.61,14.62l3.42 14.29c5.81,-3.86 5.26,-4.85 6.17,-16.71 0.61,-7.94 0.26,-7.61 2.36,-14.87l0.32 18.2c23.45,-3.72 3.49,-22.96 23.86,-27.9 2.5,15.29 -9.03,31.03 2.5,41.2zm85.82 -11.33c-14.39,-1.53 -15.13,-10.24 -13.16,-26.21 4.54,-36.94 52.65,-31.63 57.44,-21.09 3.34,7.38 2.57,31.38 -0.05,38.72 -8.62,-0.77 -2.33,1.6 -9.36,-7.74 -4.83,1.2 -3.98,-1.98 -8.54,4.85 0.06,-12.77 3.62,-10.33 -4.03,-20.08 -14.62,5.8 -3.63,14.46 -10.06,26.94 -13.31,-13.05 9.51,-29.34 2.51,-41.04 -18.48,4.35 -12.82,32.06 -14.75,45.65zm64.36 -9.41c-17.33,-1.65 -13.45,-38.97 3.71,-48.34 12.66,-6.91 48.31,-4.21 61.95,0.17 20.84,6.71 16.84,41.64 6.09,48.38 -27.48,17.25 -6.82,-29.94 -25.8,-40.97 -15,10.34 -1.13,23.71 -10.05,37.92 -13.42,-6.18 0.55,-11.79 -16.18,-15.71 -4.18,7.86 -0.8,3.9 -1.94,9.66l-1.38 5.7c-0.08,-0.32 -0.26,1.24 -0.62,1.73 -5.52,-12.83 1.16,-16.98 -5.22,-27.27 -18.73,-6.48 -8.61,18.47 -10.56,28.73zm240.02 -31.07c-37.65,1.26 -39.98,-39.71 -13.59,-58.59 39.77,-28.47 49.38,18.51 34.68,39.85 -6.25,-0.29 -1.31,0.24 -7.9,-3.36l-6.27 6.49c-2.65,11.7 1.9,-3.84 -0.83,6.12 -9.21,-7.99 2,-9.35 -14.95,-10.87 1.23,8.76 5.25,13.23 8.86,20.36zm117.2 -52.99c-11.22,-12.33 -24.38,2.77 -36.61,-8.06 -5.98,-5.3 -11.9,-24.39 -10.55,-31.57 3.23,-17.19 28.28,-32.19 49.08,-36.85 80.8,-18.08 99.58,-56.9 109.19,-61.68 8.1,12.95 -1.05,22.5 -9.2,30.89 -12.42,12.78 -47.08,16.17 -40.3,29.07 20.18,18.07 33.61,-31 52.6,-9.81l-29.05 14c-13.13,4.64 -24.74,6.74 -24.31,18.7 18.29,6.52 24.11,-6.17 47.87,-8.12 -2.58,5.69 -3.98,5.77 -4.37,8.89 -0.68,5.6 3.77,7.06 2.38,12.85 -2.29,9.51 4.95,-10.64 -1.58,3.16l-2.32 3.33c22.49,31.03 -27.32,2.71 -42.18,17.6 1.23,29.66 53.2,-13.55 43.69,23.71 -11.05,2.03 -17.48,-2.42 -30.49,1 1.24,28.85 14.92,-0.4 25.74,33.13l-8.47 1.82c-4.39,0.74 -1.85,-0.78 -9.12,1.28 -5.51,26.65 0.09,32.58 -18.28,48.52 -17.08,-20.08 -5.73,-51.77 -37.83,-53.6 -14.92,-0.86 -27.65,0.36 -42.75,-0.85 -25.95,-2.09 -27.15,-4.43 -25.44,-18.28 10.38,-1.34 98.7,26.04 88.1,-2.02 -13.36,-5.9 -60.64,10.45 -79.09,-10.91 33.64,0.16 27.72,5.96 33.29,-6.2zm-242 -177.26c15.36,-2.01 14.64,-9.13 23.48,-16.67 14.64,-12.48 68.39,-34.49 77.33,-11.13 8.36,21.87 -50.64,89.83 -64.06,102.36l-26.82 28.54c-4.51,5.1 -6.44,5.31 -10.48,9.55l-39.03 51.57c-23.18,29.76 -12.91,39.64 -37.03,38.84l-27.5 -2.05c-3.05,-0.51 -2.53,2.18 -4.01,-1.08 -0.34,-0.73 -1.29,-0.35 -1.89,-0.64l27.6 -7.56c6.35,-2.71 3.14,-0.71 6.8,-4.41 -9.03,-5.5 -13.59,-3.49 -25.75,-4.79 9.3,-6.67 24.54,-1.7 33.62,-10.29 -12.35,-5.85 -29.37,-3.56 -43.37,-5.04 12.3,-9.2 47.26,0.14 58.73,-12.77 -14.02,-7.5 -46.56,-1.26 -63.99,-5.91l65.3 -11.49c-15.51,-9.26 -45.83,-1.38 -59.89,-10.05 12.16,-7.42 37.46,-4.56 46.12,-12.58 -11.83,-4.38 -24.47,-1.77 -36.29,-6.65 -0.31,-0.78 -1.23,-0.54 -2.08,-1.87l29.6 -9.08c-7.1,-3.81 -13.35,-2.68 -23.5,-3.44 -0.39,-7.8 34.1,-108.76 61.92,-112.73 38.62,-5.49 33.82,11.68 35.19,19.37zm-548.76 127.6c-10.35,5.72 -29.03,1.12 -38.68,-5.54 -20.05,-13.86 -18.55,-56.65 1.11,-69.51 55.84,-36.5 127.04,-43.85 197.58,-54.13 207.93,-30.3 142.66,-71.78 279.98,-122.08 27.25,-9.97 37.28,-29.35 69.77,-33.47 73.26,-9.29 23.09,67.43 13.52,84.26 -34.51,60.67 -59.29,88.28 -90.05,161.2 -37.3,88.39 -21.89,113.48 -77.14,124.15 -15.55,3 -73.56,16.27 -84.88,14.33 -10.38,-24.52 -20.3,-48.77 -32.56,-72.75 -9.75,-19.05 -29.24,-54.85 -55.88,-45.48 -11.81,17.53 -0.07,61.75 15.09,70.08 14.9,-4.06 5.6,-7.26 17.6,-11.43 7.78,13.09 13.92,32.32 14.41,51.2 0.75,28.35 -7.58,23.37 -28.98,34.83 -24.92,13.35 -32.05,-2.91 -44.84,-11.56 -24.48,-16.57 -50.93,-37.49 -70.7,-57.51 -24.64,-24.95 -64.12,-91.06 -87.24,-73.88 -7.71,5.73 -0.31,10.63 1.89,17.29z"/>
  </g>
  <path class="fil3" d="M3057.54 1702.22c-7.38,-27.32 35.59,-86.58 -0.53,-72.84 -38.58,14.68 -7.35,73.07 -65.52,64.44 -26.32,-3.9 -65.39,-26.96 -84.43,-35.93 -265.5,-125.13 -351.61,-367.74 -313.75,-604.4 14.43,-90.22 106.77,-296.18 165.56,-367.82 171.9,-209.44 472.88,-326.72 749.51,-245.17 148.03,43.65 293.75,179.16 393.96,300.7 122.66,148.76 87.17,357.26 54.88,556.35 -10.64,65.57 -58.69,150.5 -119.58,228.42 -60.88,77.91 -134.58,148.8 -196.51,186.3 -86.2,52.19 -211.43,87.84 -317.31,73.51 -106.09,-14.36 -181.23,-54.02 -266.28,-83.56zm-6.31 33.1c3.11,-0.26 59.16,19.06 125.35,38.12 66.18,19.05 142.52,37.85 186.17,36.55 50.52,-1.5 100.28,-7.37 148.66,-19.15 48.39,-11.79 95.43,-29.47 140.49,-54.62 132.96,-74.18 292.51,-284.07 330.21,-423.79 50.37,-186.72 47.62,-449.69 -35.39,-550.22 -231.77,-308.59 -591.65,-520.32 -965.48,-288.2 -49.74,30.89 -76.6,41.2 -118.38,74.67 -101.65,81.41 -236.62,274.55 -271.34,401.54 -64.78,236.9 -5.23,522.2 240.22,695.9 99.12,70.15 104.07,43.94 178.08,78.18 -12.11,86.99 -83.43,310.74 -163.75,427.39 116.33,-112.23 163.96,-346.15 205.16,-416.37z"/>
  <path class="fil2" d="M2935.88 1032.77c40.18,0 80.24,16.08 80.24,59 0,42.92 -27.62,56.22 -67.8,56.22 -40.18,0 -57.87,-8.34 -57.87,-51.26 0,-42.92 5.25,-63.96 45.43,-63.96z"/>
  <path class="fil2" d="M3349.79 1043.5c29.41,27.38 47.76,66.45 18.51,97.86 -29.25,31.41 -58.53,22.31 -87.93,-5.07 -29.4,-27.38 -36.66,-45.54 -7.41,-76.95 29.25,-31.41 47.43,-43.23 76.83,-15.84z"/>
  <path class="fil2" d="M3729.16 1103.44c-8.46,39.28 -32.62,75.05 -74.58,66.01 -41.95,-9.04 -49.14,-38.84 -40.67,-78.12 8.46,-39.28 20.34,-54.82 62.3,-45.78 41.95,9.04 61.41,18.61 52.95,57.89z"/>
  <path class="fil5" d="M5445.15 1362.37c1.32,-0.22 7.69,-0.75 9.65,-0.92 13.78,-1.27 44.2,-6.25 53.13,-3.39 21.59,81.2 -0.2,194.09 -13.92,274.58 -9.33,54.72 -11.54,31.34 -54.71,45.38 -0.44,-9.26 3.43,-27.87 4.53,-37.52 7.15,-63.15 5.68,-139.01 -0.59,-202.08 -1.51,-15.25 -8.6,-64.24 -7.64,-73.1l9.55 -2.95zm112.85 -9.59c11.95,-2.52 40.35,2.84 50.29,6.38 68.33,24.36 83.9,158.26 58.15,198.86 -21.48,33.87 -81.84,78.97 -132.35,94.03 3.64,-12.23 5.72,-33.84 8.23,-47.74 9.02,-49.84 15.87,-103.73 15.53,-154.83 -0.13,-19.21 -1.4,-35.67 -3.22,-53.84 -0.58,-5.78 -1.03,-14.72 -1.99,-22.86 -1.2,-10.36 -4.77,-17.85 5.36,-20zm-180 -45.96c-0.59,0.3 -1.37,0.54 -1.85,0.68l-74.19 7.25c-26.24,1.47 -54.39,4.29 -79.75,0.54 -44.3,-6.53 -96.68,-21.58 -93.85,-73.07 2.1,-38.13 33.36,-90.67 51.96,-115.11 20.61,-27.07 63.46,-64.83 97.39,-68.49 21.91,22.61 103.95,223.31 100.29,248.2zm104.67 -78.02c4.85,18.5 15.42,50.66 17.2,67.77 -17.89,2.07 -34.91,3.35 -52.3,4.7 -5,0.39 -21.65,3.04 -25.83,1.69 -6.48,-2.09 -5.42,-9.16 -7.8,-18.32 -7.47,-28.86 -16.99,-57.32 -27.49,-84.88 -9.7,-25.42 -22.99,-53.7 -34.78,-77.78 -6.31,-12.88 -34.24,-64.26 -33.53,-75.04 27.13,-0.28 58.41,-5.29 85.28,-1.57 13.16,13.65 48.63,92.86 57.76,116.88 8.76,23.05 15.1,42.24 21.49,66.55zm-268.48 -320.5c-3.39,-1.74 -0.81,-1.88 -6.97,-1.82 -10.48,0.08 -4.77,0.56 -7.42,2.21 -4.29,18.51 34.52,67.92 42.16,86.25 -58.55,29.54 -96.32,55.86 -126.74,102.4 -24.68,37.79 -64.14,112.63 -52.85,172.49 11.53,61.12 68.46,91.23 124.37,103.11 46.32,9.85 108.24,6.73 156.75,1.23 11.46,-1.31 32.67,-5.57 43.97,-3.13 13.43,2.89 14.87,56.25 16.8,71.7 5.54,44.18 7.26,194.16 -5.52,231.55 -20.78,8.05 -79.22,-22.01 -95.39,-32.09 -60.97,-38.01 -36.82,-64 -70.09,-62.81 -15.2,21.7 -6.4,38.25 4.24,60.23 12.8,26.45 63.9,60.68 91.49,69.64 14.5,4.71 48.33,13.2 59.53,20.32 1.33,25.93 -21.58,118.46 -13.77,133.9 9.44,-3.63 16.34,-24.99 21.27,-37.56 35.17,-89.66 13.88,-103.15 77.61,-100.74 -8.98,35.46 -22.09,74.79 -26.19,112.12 10.2,-3.74 24.63,-23.74 31.81,-34.17 8.4,-12.19 15.05,-28.61 20.76,-43.02 23.61,-59.58 5.43,-39.88 64.55,-63.56 58.54,-23.45 119.53,-64.58 146.13,-109.67 32.86,-55.69 21.81,-149.13 -4.8,-203.83 -13.53,-27.83 -34.33,-52.33 -61.02,-66.97 -41.89,-22.97 -55.21,-16.55 -104.12,-23.9 -5.85,-23.34 -9.57,-46.51 -15.76,-69.74 -5.96,-22.39 -13.7,-44.47 -21.58,-64.84 -11.62,-29.99 -48.41,-102.01 -51.11,-118.13 72.31,-6.78 108.2,24.71 118.95,3.46 4.05,-7.8 -6.1,-21.87 -11.57,-27.61 -21.01,-22.04 -67.59,-30.61 -98.88,-33.88 -12.81,-1.34 -26.57,-1.77 -40.64,-3.01 -19.34,-1.71 -19.35,-5.15 -28.45,-15.66 -11.12,-12.84 -35.92,-48.16 -49.55,-33.18 -9.14,10.2 10.96,29.68 13.61,45.97 -14.69,0.09 -28.1,0.79 -42.32,2.45 -12.49,1.47 -26.08,5.41 -37.95,5.74 -8.22,-2.84 -48.66,-69.01 -61.31,-75.45z"/>
 </g>
</svg>
