<?xml version="1.0" encoding="UTF-8"?>
<!DOCTYPE svg PUBLIC "-//W3C//DTD SVG 1.1//EN" "http://www.w3.org/Graphics/SVG/1.1/DTD/svg11.dtd">
<!-- Creator: CorelDRAW 2020 (64-Bit) -->
<svg xmlns="http://www.w3.org/2000/svg" xml:space="preserve" width="91.4399mm" height="60.9599mm" version="1.1" style="shape-rendering:geometricPrecision; text-rendering:geometricPrecision; image-rendering:optimizeQuality; fill-rule:evenodd; clip-rule:evenodd"
viewBox="0 0 9143.98 6095.98"
 xmlns:xlink="http://www.w3.org/1999/xlink"
 xmlns:xodm="http://www.corel.com/coreldraw/odm/2003">
 <defs>
  <style type="text/css">
   <![CDATA[
    .fil0 {fill:none}
    .fil1 {fill:black}
    .fil2 {fill:#080808}
    .fil3 {fill:black;fill-rule:nonzero}
   ]]>
  </style>
 </defs>
 <g id="Слой_x0020_1">
  <metadata id="CorelCorpID_0Corel-Layer"/>
  <polygon class="fil0" points="-0,0 9143.98,0 9143.98,6095.98 -0,6095.98 "/>
  <path class="fil1" d="M8459.84 4493.8l115.25 23.96c-3.55,103.64 -6.07,198.57 -1.87,301.01l-119.45 0.77c15.67,-57.15 1.92,-249.56 6.07,-325.74zm-100.77 108.51c19.83,-5.08 7.83,0.87 14.33,-12.19l-14.33 12.19zm-1893.36 -177.39c-12.72,10.53 -0.85,10.15 0,11.28l2.11 -8.52c0.05,-1.53 -1.48,-1.79 -2.11,-2.76zm1705.82 69.97c-0.01,7.34 11.11,11.4 8.16,0.22 -3.15,-11.99 11.88,0.04 -2.43,-1.62 -5.58,-0.65 -5.72,-8.76 -5.73,1.4zm97.29 167.06l30.09 -32.03c-18,6.76 -4.01,-7.49 -19.8,11.88 -2.93,3.6 -7.32,13.23 -10.29,20.15zm66.44 -439.48c12.57,-5.2 10.43,-0.57 20.48,-13.75 5.95,-7.8 4.94,-7.87 7.9,-18.13 -12.64,8.52 -18.27,15.17 -28.38,31.88zm-301.73 -42.46c10.99,20.75 9.5,30.18 32.55,47.53 -6.03,-19.3 -16.62,-36.81 -32.55,-47.53zm-1198.91 -1144.97l61.75 3.83c22.96,-2.56 14.19,-0.28 17.37,-9.48l-79.12 5.65zm-4.64 43.35c19.69,-1.94 46.38,-3.17 54.47,-19.87 -19.61,3.63 -41.07,8.52 -54.47,19.87zm-371.61 -205.11c1.33,-0.96 3.3,-3.97 3.94,-2.93 1.4,2.27 32.98,-36.82 40.27,-60.71 -16.83,11.94 -13.11,10.69 -24.92,29 -9.42,14.61 -12.2,15.25 -19.29,34.64zm1809.49 1720.74c22.19,-10.02 60.1,-56.55 73.26,-76.98 -12.23,6.87 -3.31,0.28 -11.89,7.66l-61.37 69.32zm-1754.21 -889.98c-6.8,-15.03 -31.5,-40.16 -45.92,-53.74 -2.42,20.16 1.88,18.85 14.48,30.48 13.38,12.36 14.22,15.63 31.44,23.26zm1750.01 924.57c7.58,-5.05 3.7,-1.23 9.88,-7.58 2.29,-2.35 6,-7.67 8.69,-10.93 18.7,-22.67 40.79,-38.81 59.05,-62.56 -28.29,10.76 -63.22,54.54 -77.62,81.07zm-1477.9 -1333.53c12.39,5.42 8.15,5.92 21.44,12.58 8.71,17.6 33.39,32.75 50.1,47.11 10.08,8.66 40.73,34.47 55.13,30.89 19.63,-4.87 88.75,-53.89 120.34,-64.83 -5.34,8.23 -3.07,0.94 -3.62,12.75 28.68,9.97 32.93,27.71 64.07,8.69 32.23,-19.68 117.03,-109.66 122.25,-125.54 0.17,25.28 -63.03,274.09 -70.35,426.94 -2,41.64 -2.43,85.52 -1.7,127.23 1.18,66.95 6.43,47.18 -25.15,95.39 -70.27,107.29 -124.32,206.56 -190.04,313.7 -21.74,35.44 -28.59,40.66 -39.14,88.26 -37.44,168.8 -78.79,342.56 -107.91,512.78 -43.09,1.87 -120.57,-8.5 -150.06,31.66 -0.5,0.68 -1.72,4.05 -2.06,3.27 -0.36,-0.79 -1.27,2.29 -2.02,3.31l-65.1 0.08c13.49,-82.45 3.71,-269.2 0.45,-358.71 -4.18,-114.83 0.12,-240.39 -1.73,-357.1l-0.79 -350.8c4.61,-91.95 8.93,-257.34 -1.1,-344.35 -85.01,-4.29 -178.27,-0.8 -264.17,-0.79 -307.93,0.02 -256.88,-45.55 -257.52,182.29 -0.16,57.6 -0.24,115.54 0.82,172.44 1.97,106.59 -7.05,236.47 0.52,348.08 7.71,113.57 -7.74,240.44 1.73,355.13 8.56,103.66 -1.43,244.13 0.05,353.63l-1341.64 0.22 0 14.31 3321.77 0.3c120.83,-0.08 606.56,5.58 684.43,-2.93l0 -11.17 -121.46 -2.15c0.39,-16.11 6.23,-293.09 -7.68,-306.77 -11.6,-11.41 -108.86,-28.7 -149.48,-25.16 -54.77,4.77 -111.21,-0.49 -166.26,3.53 -6.36,9.23 -4.96,-9.44 -4.86,9.27l193.4 -2.41c2.01,87.7 -10.11,245.57 3.81,322.97l-215.39 -0.15 0.88 -294.76 -0.26 -55.8c-59.22,-13.66 -263.83,2.31 -342.54,0.1l-0.22 -306.04 491.47 -1.25 1.17 284.02c2.21,10.09 2.56,8.24 4.54,11.04 7.91,-19.8 7.53,-277.35 1.24,-299.45 -13.05,-6.88 -20.56,-5.73 -59.9,-6.24 -21.2,-0.26 -42.36,-0.58 -63.56,-0.7 -84.14,-0.45 -328.15,-6.01 -382.09,3.43l-4.5 316.71c-29.7,-2 -58.02,-1.19 -87.62,-1.35 -35.06,-0.19 -63.07,-6.66 -76.23,9.27 -13.65,17.19 -5.86,293.32 -6.74,341.19l-226.52 -0.32c10.21,-16.17 22.3,-22.04 35.49,-40.57 45.47,-63.87 12.54,-96.65 -15.97,-144.99 -34.41,-58.36 -69.87,-110.65 -104.86,-173.96l-100.68 -182.7c-25.74,-64.41 -46.73,-143.56 -66.7,-211.93 -21.38,-73.2 -44.71,-145.99 -65.25,-218.54 -53.01,-187.16 46.77,-551.87 85.47,-730.25 112.38,-7.14 153.09,-24.52 212.06,-86.12 46.01,-48.06 85.23,-129.62 65.39,-221.88 -17.39,-80.86 -68.11,-142.15 -124.07,-174.5 -16.73,-9.67 -32.56,-15.39 -53.28,-25.09 -31.34,-14.69 -3.77,-17.29 -35.86,-37.47 -40.99,-25.76 -76.69,-15.6 -125.16,-15.06l4.79 5.73c49.73,2.57 104.94,-1.41 127.78,36.89l-42.98 -2.93c-28.18,-26.28 -33.48,-32.14 -84.8,-25.18l-20.06 3.78c-21.92,2.96 -37.29,9 -41.83,31.94 22.14,-22.34 85.51,-41.54 122.04,-14.1l-49.15 14.08c-57.11,16.1 -88.42,28.68 -126.17,64.67 -45.05,42.96 -74.15,108.18 -78.24,175.46 -6.17,101.77 14.99,136.14 65.38,188.71 36.53,38.12 101.2,69.1 170.21,79.13 1.82,16.01 -9.12,60.17 -17.15,73.62 -9.92,16.62 -36.87,30.18 -55.63,42.1 -39.65,25.21 -83.38,46.75 -124.7,71.03 -146.67,86.17 -122,82.72 -180.57,35.2 -26.92,-21.84 -34.56,-36.25 -50.08,-40.98 -5.4,-10.39 0.04,-3.34 -8.58,-13.21 -3.87,-4.43 -7.75,-7.4 -12.64,-11.27l1.53 -5.76c-43.59,-17.81 -128.78,-159.7 -147.54,-208.05 14.78,-16.52 34.56,-36.63 15.74,-67.15 -31.65,-51.35 -104.32,-21.73 -95.36,46.78 4.7,35.91 35.41,25.96 67.39,30.23 16.66,26.29 93.88,183.75 140.21,204.83 6.64,13.76 7.2,10.29 13.63,23.71zm960.8 1496.35c9.8,-17.3 5.57,-63.09 0.22,-81.06 -10.74,15.3 -9.68,62.44 -0.22,81.06zm247.3 -611.7c14.32,22.58 28.64,61.92 53.65,77.76 -5.66,-18.89 -35.48,-73.15 -53.65,-77.76zm306.76 444.9c24.7,-10.09 72.81,-65.09 84.74,-86.43 -17.62,11.6 -71.26,66.21 -84.74,86.43zm-2146.29 -763.69c-10.49,-21.66 -18.24,-26.99 -31.83,-44.98 -13.62,-18.02 -21.09,-30.91 -36.9,-35.12 8.65,18.61 49.69,71.21 68.73,80.1zm-177.5 -176.74c14.58,-12.77 17.88,-18.95 13.28,-43.57 -3.01,-16.15 -7.08,-39.14 -13.28,-50.74l0 94.31zm117.65 944c6.23,-14.31 6.63,-39.95 8.16,-59.72 0.89,-11.49 1.64,-23.01 1.92,-34.54 0.1,-4.3 0.41,-15.97 -0.13,-19.75l-5.39 -14.06c-10.63,23.91 -5.69,97.48 -4.56,128.07zm1757.63 -42.38c-10.93,-19.49 -57.12,-86.36 -74.84,-90.27 5.13,16.3 48.73,79.61 74.84,90.27zm474.42 219.1c24.43,-10.49 78.49,-76.91 92.22,-97.36 -27.66,12.47 -77.23,69.63 -92.22,97.36zm-1745.21 -1636.54c9.41,19.54 38.3,32.19 61.93,48.46 16.78,11.55 47.81,33.31 65.65,39.35 -9.17,-18.31 -103.8,-79.15 -127.58,-87.81zm1710.9 1558.7c11.37,-5.58 3.91,0.05 11.76,-6.63l93.47 -97.6c12.17,-10.21 9.65,-8.89 15.16,-22.53 -21.25,15.28 -43.81,41.4 -61.66,59.2 -26.22,26.15 -39.72,30.8 -58.73,67.56zm5.11 47.82c7.51,-4.37 4.35,-1.61 10.53,-6.69l27.33 -26.72c21.44,-20.23 92.61,-83.54 100.31,-107.94 -23.38,17.97 -45.03,44.51 -68.88,65.89 -25.51,22.89 -50.92,43.52 -69.29,75.46zm-1576.97 -1878.66l-18.68 -17.1c-11.07,-8.51 -10.71,-7.58 -20.48,-13.83 -36.2,-23.17 -98.44,-68.1 -136.64,-77.01 13.77,14.15 63.88,42.22 85.33,55.08 27.46,16.46 59.55,39.96 90.47,52.86zm-556.19 1047.93c-7.94,-22.86 -88.3,-140.51 -104.98,-150.78 8.3,33.15 60.85,98.48 86.17,131.48 4.21,5.5 2.61,4.58 6.08,8.52 9.43,10.71 1.11,3.61 12.73,10.78zm1668.04 709.52c-3,-8.25 -55.26,-99.17 -80.16,-158.33 -16.74,24.98 43.57,115.65 59.7,139.47 10.87,16.06 10.81,13.18 20.46,18.86zm-1403.95 -864.76c-67.69,-2.76 -140.06,10.69 -212.03,6.46 -23.54,-1.38 -43.21,-8.04 -62.23,-8.63 38.98,30.91 179.54,13.32 238.25,9.74l36.01 -7.57zm1778.87 978.51c-3.3,-56.6 10.03,-167.34 -1.02,-212.21 -10.31,13.26 -5.4,76.38 -7.07,105.88 -0.92,16.39 -7.45,82.08 -0.72,96.27 6.45,13.61 0.86,2.08 8.81,10.06zm-386.35 -268.81c10.94,7.26 268.47,11.09 292.23,-8.64l-292.23 8.64zm-1713.34 -414.82c13.37,8.87 18.75,7.86 37.46,8.95 55.42,3.23 263.05,-5.68 286.81,-19.22 -52.85,0.98 -103.44,6.53 -156.45,8.71 -56.67,2.33 -112.7,-0.53 -167.82,1.56zm905.4 -777.89c-60.28,-38.85 -121.85,-110.06 -146.5,-114.5 8.68,19.02 34,40.87 49.38,55.77 6.72,6.53 9.94,11.92 16.15,17.97 7.79,7.59 26.56,21.39 38.3,30.34 18.68,14.25 25.96,26.16 42.67,10.42zm773.9 1493.39c20.61,9.53 339.71,8.35 365.9,-1.12 -16.04,-11.81 -66.61,-4.96 -88.31,-4.54 -65.49,1.29 -234.47,-2.13 -277.59,5.66zm-1188.51 -1822.03c37.14,-15.53 86.27,45.13 35.16,71.22 -65.2,33.3 -75.13,-54.52 -35.16,-71.22zm-49.1 773.51c-37.22,7.38 -468.55,2.42 -469.64,2.08 -9.99,-7.41 -7.19,3.39 -4.91,-15.13l-26.32 14.68c0.4,-32.03 0.74,-19.8 7.44,-34.37 10.94,-23.76 12.75,-256.51 10.04,-277.04 39.02,-2.68 48.09,5.84 67.49,-12.59l-68.41 3.18c-15.29,32.31 -9.69,138.49 -15.59,183.64l-0.08 -195.16 503.23 0.58 -3.25 330.13zm233.5 -456.5l-8.81 -6.19c-11.32,16.06 0.8,6.27 -14.79,12.93 -25.7,-11.19 -77.3,-48.98 -104.43,-66.46 -36.13,-23.27 -68.88,-43.96 -104.34,-66.87 -34.61,-22.36 -68.91,-45.75 -103.15,-67.9 -31.44,-20.34 -75.24,-43.91 -103.14,-67.58 7.87,-35.88 148.65,-221.35 173.4,-279.18 23.82,9.13 184.55,112.72 215.99,133.8 34.93,23.42 188.95,118.73 205.7,135.6 -13.2,43.66 -117.4,174.54 -145.16,239.67l86.75 -118.01c15.58,-24.38 70.85,-100.86 72.99,-126.56 -16.25,-17.21 -279.65,-184.02 -321.68,-210.43 -26.35,-16.56 -84.47,-64.81 -117.37,-63.51 -17.19,19.27 -33.61,48.35 -47.7,69.63 -25.96,39.19 -134.06,203.18 -138.51,224.73l214.67 137.11c38.21,23.42 71.02,45.3 106.6,69.38 32.21,21.78 79.75,54.03 114.27,68.64l18.71 -18.8zm940.79 1183.14l502.7 2.53 1.44 338.77 -503.86 0.23 -0.28 -341.53zm-1671.38 0.24l500.58 -1.02 -0.65 333.16 -498.92 1.04 -1.01 -333.18zm591.71 333.33c25.62,-24.6 98.23,-19.81 135.83,-17.75 -17.78,27.81 -105.43,32.4 -135.83,17.75zm813.22 6.48c0.3,-33.84 57.3,-85.51 77.12,-93.52 -10.88,42.51 -42.45,84.88 -77.12,93.52zm-18.4 1.54l-669.56 0.22c32.05,-32.94 16.05,7.9 25.65,-59.08 3.06,-21.43 10.11,-46.7 14.51,-68.6l90.3 -422.83c10.84,-51.79 29.79,-71.27 53.85,-112.67 21.9,-37.66 41.65,-70.69 63.46,-107.66 21.42,-36.29 42.56,-72.15 64.65,-106.48 12.09,-18.8 53.22,-91.04 68.7,-101.83 114.12,342.27 64.42,337.54 262.75,675.57l117.02 194.47c-10.3,12.88 -14.84,11.57 -25.54,21.78 -63.27,60.39 -39.47,42.25 -65.79,87.11zm-1385.77 -361.47c-8.58,-24.39 -5.12,-291.82 -1.82,-333.72l501.47 0.41c-2.77,28.07 3.74,-1.23 -21.58,19.6l-50.38 62.53c7.31,-8.26 10.93,-12.59 18.61,-20.63 19.76,-20.68 23.46,-30.45 42.4,-39.37 -13.49,24.04 -24.22,32.06 -37.96,55.84 10.96,-7.06 12.93,-10.37 23.03,-23.16 15.06,-19.06 9.43,-16.91 24.67,-25.2 1.21,46.65 5.21,275.26 -4.53,305.07l-493.91 -1.37zm-2.38 -351.15c-5.92,-22.68 -5.08,-307.31 0.34,-333.73l497.81 -0.24c6.33,38.34 5.36,308.43 -3.61,335.26l-494.54 -1.29zm982.35 -785.57l161.01 -94.98c-10.06,22.99 -51.47,63.63 -69.81,78.71 -61.76,50.8 -19.67,35.68 -91.2,16.27zm163.04 -693.32c31.1,-8.92 -1.45,2.18 12.09,-9.58 8.48,-7.36 4.07,-4.98 19.83,-7.12 146.29,-19.87 267.92,88.33 289.19,210.18 25.58,146.56 -85.39,267.47 -211.47,277.94 -154.46,12.84 -293.67,-92.6 -291.28,-210.31 2.39,-117.71 41.81,-217.28 181.64,-261.11z"/>
  <path class="fil2" d="M5386.42 4037.72c-0.8,-8.37 1.22,-17.84 4.14,-24.89 4,-9.72 5.29,-10.15 17.53,-6.88 17.4,4.64 31.28,9.77 36.54,23.15 11.66,29.71 -54.11,51.29 -58.21,8.62zm-472.51 -136.66c-10.92,-5.61 -16.01,-7.72 -23.34,-14.83 -12.91,-12.52 -4.39,-19.1 -10.26,-30.68 -12.32,8.7 -8.9,28.21 -2.28,36.4 4.49,5.56 9.44,7.1 16.21,8.8 1.59,0.41 7.7,1.67 9.44,1.83l10.23 -1.52zm471.77 198.23c-1.95,-4.71 -11.27,-16.23 -15.51,-23.11 -9.36,-15.22 -4.32,-16.71 -9.43,-29.95 -2.28,0.65 -9.06,-0.81 -8.79,14.23 0.11,6.59 3.02,13.52 5.8,18.9 5.61,10.85 14.34,18.38 27.93,19.93zm97.78 -56.58c21.59,-13.95 14.1,-62.72 -10.96,-59.38 -0.28,16.67 19.69,21.84 10.96,59.38zm-498.93 -652.43c2.33,-11.97 -13.24,-20.15 -27.88,-28.02 -9.97,-5.34 -29.53,-16.46 -43.47,-14.11 0.41,10.17 17.35,15.66 32.26,23.1 10.86,5.42 30.02,18.81 39.09,19.03zm421.63 353.61c-4.32,-11.4 -32.19,-8.61 -71.81,-35.11 -11.89,-7.95 -21.9,-15.61 -31.44,-23.3 -7.61,-6.14 -22.75,-20.67 -33.47,-21.26 1.07,10.22 18.47,22.74 26.16,28.73 18.4,14.34 87.07,68.65 110.56,50.94zm178.14 -338.96c8.18,-2.87 19.23,-12 26.6,-16.66 24.56,-15.5 57.29,-44.13 76.56,-55.5 -0.8,23.61 -19.04,66.21 -16.63,87.25 15.51,-6.99 31.06,-86.74 26.16,-103.78 -10.14,0.07 -14.19,8.65 -28.78,20.09 -9.11,7.15 -19.31,14.42 -28.48,21.54 -18.29,14.2 -42.45,30.89 -55.43,47.06zm65.45 379.68c-29.2,-7.11 -98.41,-68.23 -129.05,-58.3 8.47,9.53 51.08,28.38 66.23,37.31 8.35,4.91 80.57,54.55 73.11,16.09 -0.83,-4.26 -3.15,-9.44 -4.78,-13.86 -3.25,-8.83 -6.74,-17.31 -10.21,-26.23 -6.01,-15.44 -11.83,-37.65 -22.47,-48.84 -6.84,16.48 20.93,68.43 27.17,93.83zm-737.89 77.73c20.13,9.78 215.66,12.32 249.85,10.22l0.27 -11.56c-48.58,-6.18 -133.06,4.35 -216.88,-8.87 12.69,-11.33 49.85,-33.85 68.15,-45.92 8.63,-5.69 16.88,-9.4 23.01,-17.44 -45.43,13.87 -85.17,49.44 -105.29,60.4 6.6,-14.8 25.13,-37.67 35.54,-53.21 7.79,-11.62 31.93,-43.45 35.52,-55.21 -13.75,4.36 -15.05,10.82 -23.37,21.78 -6.62,8.71 -11.3,15.75 -18.14,25.25l-37.48 52.48c-5.38,-110.34 -0.97,-264.28 -11.56,-365.02 -3.95,-37.64 -11.57,-75.22 -15.16,-112.01 20.24,10.74 70.37,93.15 85.92,97.38 7.1,-10.1 -7.75,-22.57 -13.6,-30.54 -9.92,-13.54 -45.08,-60.31 -56.54,-68.7 -5.73,-4.2 -12.28,-5.19 -16.47,-11.91 53.04,-12.68 133.3,-21.94 191.36,-27.46 43.34,-4.13 57.89,1.47 60.4,-16.01 -61.21,1.72 -132.05,12.07 -191.52,21.34 -14.86,2.33 -29.44,5.44 -43.8,8.65 -17.14,3.84 -32.6,0.82 -30.38,21.19 3.4,30.92 9.47,63.09 13.2,93.71 8.1,66.84 8.46,136.89 9.41,204.3 0.47,33.41 -0.16,187.9 7.56,207.16zm417.6 -2.28c-4.65,-24.32 87.49,-47.15 95.07,-6.54 8.56,45.84 -90.5,30.48 -95.07,6.54zm-127.9 -548.95c6.67,3.21 448.64,-15.79 511.71,2.59 10.25,31.35 7.89,103.5 7.81,145.47 -0.16,80.42 -27.14,264.23 -48.72,341.26 -38.54,8.4 -76.83,15.9 -116.84,22.38 -35.56,5.77 -86.8,16.25 -122.1,17.04 -7.68,-15.47 -18.47,-19.41 -43.07,-19.8 -25.73,-0.4 -32.72,2.66 -50.53,14.58 -24.91,16.66 -13.21,16.23 -42.78,18.13 -15.74,1.01 -45.27,1.66 -59.19,5.02 0.94,4.98 2.76,7.45 4.55,11.4l72.74 -3.57c9.61,14.87 9.23,15.73 26.32,22.87 15.2,6.36 24.82,5.87 42.1,5.46 33.4,-0.81 50.5,-9.68 54.61,-40.64 60,-5.39 164.18,-24.11 227.14,-36.88 15.57,-3.17 15.5,-9.02 20.56,-22.88 29.61,-81.35 59.27,-343.97 43.82,-455.09 -5.26,-37.77 -7.4,-39.05 -43.34,-40.74 -124.03,-5.87 -211.01,-5.29 -334.73,-2.07l-137.46 5.28c-13.79,0.8 -12.39,-1.2 -12.6,10.19zm-178.7 1496.5c7.76,-7.26 38.69,-12.12 48.7,-13.72 16.52,-2.66 42.93,-6.32 54.66,4.6 -7.64,14.76 -79.39,35.08 -103.36,9.12zm522.72 -162.14c5.73,-12.47 86.58,-45.1 106.23,-42.99 -4.48,12.03 -30.28,23.29 -45.5,29.47 -17.2,7 -40.07,15.72 -60.73,13.52zm-356.48 -775.14c-4.76,-31.19 -2.21,-35.16 -21.29,-50.63 -0.47,25.99 8.2,57.44 9.64,83.59 4.27,77.24 -6.78,196 -11.07,274.56 -3.18,58.1 -4.85,123.16 -13.07,178.28 -2.69,17.99 -15.75,54.6 -22.85,73.06 -8.44,21.94 -17.27,48.11 -24.69,71.06 -10.95,33.87 -103.73,294.87 -102.12,304.52 2.85,17.13 20.9,28.01 42.78,28.82 79.75,3 139.18,-58.14 52.46,-54.65 -32.97,1.33 -53.7,8.23 -82.7,15.11 2.05,-11.46 13.52,-34.01 18.44,-48.53l50.59 -145.24c21.37,-64.51 44.13,-129.19 64.88,-194.74 13.94,-44.03 17.75,-62.64 21.58,-110.07l16.29 -244.1c1.87,-26.59 0.29,-106.58 5.22,-124.41 38.47,51.96 74.82,102.53 113.68,153.23 27.52,35.89 59.76,78.42 85.43,117.3 8.77,13.28 17.29,25.46 26.21,39.81 61.25,98.64 60.51,78.83 76.48,192.29 6.41,45.49 23.48,197.84 41.8,226.66 22.48,7.74 61.55,-8.59 79.28,-16.87 16.37,-7.62 49.73,-22.75 48.5,-44.76 -24.66,-19.63 -94.29,27.86 -119.99,34.88 -19.8,-43.94 -31.56,-195.19 -42.26,-255.22 -9.51,-53.45 -18.76,-66.07 -42.65,-105.22 -18.99,-31.11 -38.37,-60.68 -58.25,-89.79l-190.93 -255.5c-16.9,-21.81 -16.06,-18.54 -21.39,-53.44zm270.86 -1106.77c24.5,54.16 28.7,122.74 -5.13,190.68 -41.18,82.72 -112.58,135.78 -217.05,135.99 -120.47,0.24 -250.23,-76.31 -262.02,-202.69 -6.6,-70.72 13.06,-138.59 45.72,-186.92 64.98,-96.14 130.16,-69.48 147.03,-84.22 -6.2,-5.84 -7.48,-2.14 -14.93,-6.04 100.14,-16.7 170.42,-7.16 241.84,54.09 37.56,32.2 40.04,44.95 64.54,99.11zm-252.41 343.16c0.51,11.78 -8.92,50.01 -14.04,59.83 -11.1,21.27 -49.32,63.97 -68.29,84.37 -7.96,8.56 -32.67,29.09 -32.17,43.49 12.07,-4.85 59.4,-60.56 69.45,-70 8.09,-7.61 14.12,-18.34 23.21,-25.42l-34.87 116.24c-20.31,68.81 -50.27,171.05 -61.05,239.89 -8.92,57.06 -0.65,76.5 18.57,124.63 14.35,35.95 31.04,70.96 47.73,102.61 33.57,63.61 44.47,69.69 76.66,112.3 6.01,7.95 12.11,13.25 18.36,20.41 15.17,17.36 38.65,38.22 57.75,53.84 7.28,5.94 14.09,11.32 21.93,16.78 15.12,10.58 33.73,20.8 46.11,31.53 -0.05,23.28 -4.34,44.54 17.05,53.45 38.38,16.01 93.36,-38.16 47.69,-66.13 -13.98,-8.55 -13.8,-5.83 -29.63,-9.49 -20.27,-4.68 -10.76,-4.15 -26.23,6.57 -25.17,-8.52 -95.63,-68.59 -117.28,-92.58 -60.39,-66.96 -95.9,-114.7 -138.53,-212.18 -14.72,-33.68 -33.98,-68.19 -32.35,-105.52 4.36,-99.03 59.71,-241.79 83.43,-340.57 3.77,7.97 -9.52,116.2 -10.21,125.29 -8.08,108.35 -6.8,230.77 -7.33,340.49 -0.13,27.73 -0.57,37.44 14.49,56.1 3.47,-16.54 -0.47,-65.39 -0.74,-85.71 -1.14,-87.19 1.36,-177.09 4.46,-264.28 1.88,-52.61 21.73,-284.36 40.12,-316.59 43.56,-4.82 62.49,-2.91 102.58,-18.02 60.97,-22.98 98.79,-59.07 131.76,-111.98 57.38,-92.08 40.94,-205.42 -16.27,-281.74 -30.1,-40.14 -60.9,-60.22 -103.42,-80.87l-42.6 -19.84c18.31,-7.1 61.66,-1.74 75.39,-11.38 -20.91,-20.39 -104.03,11.86 -148.95,6.09 42.42,-38.44 128.66,-36.52 142.27,-40.57 13.17,-3.93 5.48,-0.46 7.55,-6.53 -27.47,-14.26 -105.18,9.14 -127.48,20.84 -8.64,4.53 -15.43,7.91 -23.14,13.3 -34.45,24.14 -37.34,17.79 -82.32,33.81 -45.75,16.28 -70.88,25.87 -98.08,54.49 -80.99,85.2 -109.47,245.6 -33.99,338.05 21.33,26.12 50.01,49.26 84.54,68.16 17.01,9.29 35.07,17.1 54.28,23.04 22.17,6.85 41.72,8.16 63.59,13.8z"/>
  <path class="fil1" d="M4676.84 5824.2c27.53,-20.27 80.03,-16.67 121.66,-11.25 18.57,2.42 36.98,6.11 53.73,12.19 19.19,6.97 33.43,14.35 32.34,39.44 -57.86,24.35 -202.85,30.26 -207.73,-40.38zm-649.25 -4274.07c30.61,-6.8 37.71,-23.07 77.58,-15.39 30.66,5.92 38.8,28.99 60.55,23.93 11.1,-48.78 -127.45,-64.08 -138.13,-8.54zm-1523.48 1268.6c-25.48,-6.43 -68.72,-22 -90.66,-9.94 4.85,12.03 -2.53,7.59 16.05,14.4l69.86 21.86c55.44,15.69 80.07,29.57 90.85,2.02 -11.56,-14.76 -65.67,-23.17 -86.1,-28.34zm-40.13 -253.27c30.14,-26.38 87.73,-14.43 97.26,22.06 -30.92,8.24 -88.66,11.18 -97.26,-22.06zm121.4 21.11c21.05,-48.84 -120.85,-73.36 -141.74,-21.53 -12.72,31.53 24.38,47.78 56.74,49.53 36.46,1.98 72.12,1.87 85,-28zm-166.48 112.66c16.05,-16.88 101.09,-19.22 119.35,24.64 -13.5,11.43 -52.26,7.44 -71.84,5.22 -22.24,-2.52 -43.94,-9.69 -47.51,-29.86zm-23.5 21.12c11.68,47.33 194.63,52.51 167.76,-12.49 -8.8,-21.27 -62.73,-35.53 -90.61,-37.78 -43.11,-3.5 -85.85,15 -77.15,50.27zm1651.18 -1070.15c-12.16,6.54 -16.74,9.72 -23.33,26.54 -15.83,40.37 -8.25,120.34 42.68,91.95 44.81,-24.99 34.95,-147.69 -19.35,-118.49zm-42.89 4098.68c2.95,-54.61 180.54,-32.41 195.23,-11.66l-9.06 6.28c-24.59,12.1 -159.71,22.32 -186.17,5.38zm577.35 -1106.98c-39.43,-16.11 -66.53,-160.74 -45.76,-217.24l7.04 9.96c2.1,4.07 3.64,8.71 5.13,12.43 10.37,25.93 19.26,51.72 27.05,78.58 7.45,25.67 21.56,93.68 6.54,116.27zm-2202.13 -1879.31c0,-75.4 10.41,-140.99 39.72,-201.76 19.29,-40.01 70.58,-109.32 110.1,-128.25 44.63,43.56 46.96,23.63 113.23,36.13 4.15,9.17 1.08,18.65 -1.41,28.93 -19.82,81.89 -31.85,267.54 -15.82,359.23 4.02,23.01 11.53,51.82 12.39,74.72 -34.1,1.13 -135.1,-26.05 -171.36,-35.49 -77.91,-20.3 -86.85,-2.02 -86.85,-133.51zm286.32 -420.44c49.74,-7.48 124.94,7.12 119.26,42.76 -7.06,44.41 -245,99.5 -231.46,15.49 6.23,-38.68 72.57,-52.3 112.2,-58.25zm1539.34 -97.26c-53.99,-22.43 -186.32,-104.29 -200.85,-145.64 123.02,12.12 282.38,-65.94 383.13,-125.78 22.7,-13.48 91.35,-59.22 81.73,-80.44 -15.78,-7.82 -22.65,10.39 -32.12,20.84 -17.4,19.16 -85.41,57.75 -109.09,70.38 -65.6,35.01 -301.04,145.37 -356.89,75.87 -32.31,-40.23 -55.55,-111.55 -62.05,-174.07 -15.02,-144.43 25.46,-279.6 89.61,-378.88 126.37,-195.6 277.62,-144.54 298.69,-173.81 -11.17,-7.59 -17.38,-6.12 -32.71,-7.69 64.2,-32.17 232.03,-19.49 298.89,4.64 86.43,31.2 159.75,84.17 209.9,135.12 35.16,35.71 46.62,47.01 76.07,96.49 71.86,120.8 93.36,292.37 39.02,423.44 -116.85,281.75 -413.03,371.76 -683.33,259.53zm-74.13 3564.55c100.43,0.02 430.42,5.12 503.53,-0.92l-1.04 -24.47 -503.76 -1.81c13.28,-7.03 75.23,-20.99 95.83,-27.87 26.16,-8.72 20.91,-71.79 22.7,-98.21 26.45,-389.07 52.24,-751.57 58.16,-1144.01 1.09,-72.15 8.36,-152.55 10.52,-228.77 2.09,-72.89 -1.2,-164.17 5.94,-234.2 15.79,92.72 42.9,189.02 60.02,284.66 53.02,295.99 90.97,603 147.77,898 18.78,97.48 41.17,191.64 62.76,285.83 20.46,89.26 50.27,194.79 63.42,285.7 4.49,31.15 -15.24,36.93 9.36,64.02 48.83,53.78 173.06,38.65 210.94,21.12 19.52,-9.02 37.03,-25.88 23.2,-54.52 -26.03,-53.99 -168.28,-35.8 -213.14,-44.25 -8.73,-21.78 -17.56,-73.49 -23.47,-99.67 -52.15,-231.07 -104.36,-457.41 -144.17,-693 -47.44,-280.77 -84.32,-548.83 -140.25,-821.17 -13.78,-67.04 -29.28,-132.35 -43.13,-199.56 -20.73,-100.51 -49.61,-317.73 -57.27,-421.74 -16.66,-226.36 -16.25,-463.94 13.33,-686.94 9.88,-74.32 55.38,-332.25 86.99,-388.75 49.96,133.74 53.75,393.51 61.23,540.68 21.24,418.01 86.56,1040.64 70.43,1436.25 -2.08,50.92 -6.18,95.65 8.98,142.58 9.24,28.66 35.79,82.63 70.01,79.63 44.81,-60.69 12.55,-200.93 -24.8,-258.5 -18.39,-28.32 -23.5,-14.07 -23.98,-58.67 -3.13,-287.48 -21.66,-576.62 -43.59,-862.57 -15.89,-207.07 -25.99,-411.44 -38.45,-619.47 -6.29,-104.95 -10.76,-200.48 -30.53,-301.41 -8.68,-44.41 -18.35,-91.87 -31.38,-133.88 -8.36,-26.95 -1.35,-36.28 6.97,-62.68 6.57,-20.88 12.23,-40.95 20.47,-60.56 45.52,-3.93 71.95,-1.63 117.26,-12.99 90.4,-22.64 187.05,-74.11 247.05,-133.02 146.88,-144.19 205.54,-357.73 119.45,-569.15 -28.64,-70.35 -77.3,-139.64 -132.76,-187.66 -86.17,-74.66 -186.11,-127.48 -307.1,-137.29 32.06,-24.31 197.37,-27.34 225.65,-48.94 -27.68,-25.21 -239.25,28.71 -263.18,35.79 -39.87,11.78 -81.23,17.54 -122.31,29.25 -24.39,6.96 -96.21,34.39 -112.23,34.92 0.45,-0.16 71.48,-52.5 123.04,-73.34 24.25,-9.78 47.31,-16.74 73.55,-25 22.89,-7.2 55.84,-13.28 75.71,-22.73 -8.25,-7.64 -18.24,-6.61 -31.54,-5.09 -96.56,11.06 -192.14,63.28 -262.52,122.72 -27.56,23.27 -55.68,34.49 -82.92,54.44 -106.57,78.04 -185.39,212.45 -204.62,352.22 -10.37,75.38 -11.28,184.36 12.47,252.72 22.38,64.33 59.5,125.83 109.1,169.17 48.37,42.27 94.94,77.86 167.21,110.87 80.98,36.98 128.8,46.2 224.86,53.42 2.17,19.04 -21.11,71.79 -27.07,92.81 -54.35,-3.61 -114.06,-17.56 -168.88,-23.78 -58.41,-6.62 -116.35,-12.24 -175.48,-16.31 -337.31,-23.31 -776.08,-28.5 -1113.7,-31.73 -32.64,-0.3 -65.06,-0.98 -97.68,-2.31 -56.85,-2.33 -58.09,-11.55 -80.8,-13.82 -50.22,-5.04 -125.73,5.36 -163.84,26.89 -23.44,13.23 -29.71,29.92 -45.07,50.29 -13.59,18.01 -35.67,28.24 -50.67,44.2 -5.16,5.49 -5.47,7.19 -11.59,13.06l-33.17 37.21c-9.69,11.43 -27.77,39.91 -36.7,58.27 -19.47,40 -38.35,100.05 -42.31,150.97 -3.41,43.81 -6.97,144.69 13.63,175.89 13.21,20 34.88,20.37 64.71,30.46 62.05,21 129.09,40.76 195.7,44.59 17.42,1 29.97,2.85 37.68,-9.65 11.34,-11.86 -15.97,-141.71 -17.7,-170.53 -5.42,-89.99 2.36,-182.04 15.69,-270.56 6.46,-42.91 4.07,-41.11 41.69,-53.77 26.08,-8.8 47.18,-17.5 68.48,-30.2 12.76,-7.6 18.88,-11.48 26.15,-23.08 10.08,-16.13 5.73,-21.55 11.06,-36.22 82.39,-4.4 311.66,2.47 404.84,5.17 132.76,3.83 265.24,6.07 397.79,11 222.79,8.3 446.75,12.11 667.03,46.73l42.45 6.61c13.87,2.18 30.23,3.06 41.92,9.44 -7.43,50.39 -33.43,124.76 -46.54,176.58 -80.08,316.41 -89.77,686.74 -59.09,1010.97 6.39,67.66 19.48,126.33 27.89,191.57 24.18,187.81 -10.85,843.18 -17.56,1060.04 -1.65,53.47 -39.52,774.38 -52.64,821.21 -2.43,1.22 -8.63,1.66 -11.48,2.05 -16.38,-0.4 -42.51,-10.32 -65.39,-11.63 -24.65,-1.39 -59.91,-1.74 -84.21,1.03 -36.94,4.22 -75.81,21.58 -75.15,60.92 0.31,18.58 5.26,15.81 16.11,23.6 -21.39,3.24 -1267.73,1.44 -1308.28,2.04l-0.61 27.76 1443.02 1.05z"/>
  <path class="fil1" d="M1707.27 5771.81c-21.42,-58.9 -245.88,-75.71 -293.47,-76.16 36.55,98.89 256.55,128.65 293.47,76.16zm-1073.25 -74.08l-1.76 -3.05c-11.97,10.93 5.49,3.28 -18.28,9.12 -6.33,1.55 -14.34,1.66 -23.76,4.01 -13.79,3.47 -27,8.6 -42,12.04l-47.52 22.45c41.18,33.89 239.75,29.62 284.78,8.45 -1.46,-24.41 -18.92,-38.93 -39.87,-46.98 -28.13,-10.81 -75.24,-2.17 -111.59,-6.04zm65.48 -25.22l14.64 0.3 21.61 1.58c3.22,-22.61 -1.07,-8.87 9.02,-13.52 1.25,-29.57 16.06,-64.72 28.01,-93.99 22.38,-87.3 28.94,-88.41 45.65,-143.6 4.63,-15.31 6.57,-32.16 17.56,-43.56 6.47,-48.2 36.92,-136.57 51.56,-187.3 55.86,-193.5 93.91,-384.82 140.32,-579.87 33.53,-140.96 72.92,-445.42 100.84,-619.88 6.8,-42.54 33.44,-170.63 31.39,-204.44 -35.8,33.7 -62.97,111.27 -132.48,103.4 -32.85,-39.17 -17.95,-80.35 9.96,-115.3 30.42,-38.1 48.39,-46.49 93.64,-71.39 -28.24,-36.64 -138.13,-115.17 -185.01,-150.44 -144.92,-109.05 -328.65,-256.3 -459.03,-380.98 -98.27,-93.97 -112.6,-59.81 -54.36,-151.81 9.68,-16.86 18.83,-37.87 28.06,-53.53 5.88,-9.96 7.18,-8.75 18.42,-21.51 14.99,-17.04 -0.44,-5.31 18.39,-17.8 5.44,-23.24 25.61,-48.37 39.97,-66.58 12.38,-33.04 49.63,-82.14 70.71,-114.11 14.35,-21.77 8.99,-20.79 27.44,-34.7 8.65,-25.08 69.6,-107.94 88.87,-135.74 33.17,-47.79 61.77,-86.56 94.13,-132.62 30.04,-42.75 56.84,-91.47 87.22,-139.3 21.77,-34.32 29.09,-36.92 18.24,-88.34 -6.56,-31.02 -12.79,-60.21 -19.2,-87.49 -648.42,42.37 -858.94,-692.1 -380.11,-1004.29 34.52,-22.51 64.86,-34.84 103.43,-56.8 35.76,-20.36 142.22,-184.22 310,-158.05 -56.21,25.02 -189.81,54.38 -242.33,134.48 51.73,-1.47 101.2,-10.47 158.21,-7.65 63.66,3.14 73.85,25.56 135.97,6.36 83.43,-25.8 204.9,-42.85 282.64,-0.72 -49.94,10.9 -88.9,-19.11 -266.95,24.15 5.93,6.55 2.57,4.13 11.79,10.04 38.2,24.48 147.84,26.39 253.04,167.41 57.52,77.12 116.28,202.94 118.9,322.78l-6.31 4.24c-0.43,0.38 -2.19,1.75 -2.57,2.18 -0.27,0.28 -5.98,6.54 -0.02,13.55l9.5 6.68c2.45,92.16 0.82,146.17 -32.12,223.67 -58.24,137.06 -199.34,232.13 -336.86,283.33 -28.62,10.66 -65.19,15.68 -94.27,26.65l29.59 135.25c479.66,-3.78 775.38,607.48 1193.86,692.63 34.1,-0.43 63.43,3.92 85.83,4.45 440.04,114.66 171.89,369.37 -38.42,22.07 -449.68,-20.43 -791.08,-708.12 -1227.18,-697.56 -12,42.49 85.38,339.44 88.6,423.68l17.44 69.39c4.79,26.23 9.52,49.75 13.12,75.63l9.04 69.08c13.97,15.46 13.9,37.85 15.33,60.46 10.78,177.76 69.26,397.7 82.24,666.92 2.91,60.36 -3.74,123.79 1.31,179.89 15.93,176.93 40.03,317.09 67.71,491.47 71.68,451.44 126.81,883.64 147.77,1352.38 109.56,7.18 286.29,18.42 320.24,107.22l1008.58 -0.34 0 27.65 -953.98 2.11c-54.11,0.71 -102.15,8.08 -153.37,8.56 -51.85,0.48 -90.81,-8.38 -139.8,-9.24l-954.32 -1.74c-53.38,0.06 -106.75,-0.07 -160.11,-0.07 -62.68,0.01 -124.83,11.31 -142.01,-16.09 22.38,-23.47 217.92,-10.49 264.34,-12.83l-18.66 -18.27c-19.71,-26.13 0.6,-38.04 14.38,-49.16l42.34 -20.32c16.5,-6.11 35.48,-8.24 48.43,-10.56 32.39,-5.82 72.08,-12 110.19,-8.15zm374.54 -2759.4l-7.73 -47.43 -27.85 -131.59c1.26,-69.89 -28.36,-149.33 -44.48,-220.26 -13.58,-59.75 -33.35,-160.44 -54.48,-211.1l-142.73 220.38c-25.41,35.27 -134.19,186.06 -144.23,216.63 -18.37,25.7 -29.07,43.25 -44.82,67.43 -13.65,20.96 -23.18,44.14 -42.87,57.86 -13.23,34.41 -40.05,59.86 -56.03,94.19 -16.99,27.54 -31.28,52.99 -54.79,73.67 -2.66,22.83 -18.86,26.65 -30.02,53.9 13.83,21.64 65.8,64.43 90.59,85.84l656.92 531.71c-2.74,-119.83 -15.73,-241.24 -31.61,-357.59 -12.96,-95.05 -42.49,-236.82 -44.66,-326.98 -11.88,-17.07 -17.84,-79.61 -21.21,-106.66zm188.87 -1550.6c-30.88,-5.43 -98.24,-34.73 -114.45,-54.65 29.73,-15.92 103.49,27.49 114.45,54.65zm-615.73 245.17c-22,37.46 -28.86,-23.55 -71.49,65.31 -11,-26.14 -11.58,-21.18 -7.18,-52.31 18.55,-13.43 45.36,-34 78.67,-13zm223.02 -262.7c34.66,-27.86 65.72,-52.98 129.45,-42.23 -6.42,18.75 0.8,13.7 -55.78,27.83 -24.73,6.17 -49.13,14.15 -73.67,14.4zm-12.27 4074.83c-7.42,22.23 -17.35,49.48 -24.59,71.48l-25.23 69.16c-10.58,34.59 -39.86,99.76 -41.4,131.42 30.98,27.69 55.06,35.51 40.09,88.29l649.24 0.78c-10.86,-19.15 -1.87,-6.74 -17.5,-19.9 -61.18,-51.61 -50.3,-80.77 -55.95,-182.53 -11.91,-214.77 -37.67,-553.08 -66,-753.72 -45.4,-321.56 -102.7,-634.86 -137.48,-959.12 -16.7,30.84 -99.31,659.44 -134.42,804.03 -30.9,127.27 -56.22,253.39 -86.49,380.5l-100.27 369.61zm103.94 -3964.71c69.88,-12.06 97.13,105.23 64.8,132.57 -51.59,43.63 -93.38,-68.08 -64.8,-132.57zm301.49 134.03c-83.08,21.97 -101.05,-101.99 -55.64,-154.25 73.76,0.85 84.52,102.75 55.64,154.25zm-101.74 318.32c-27.94,-18.18 -106.49,-24.9 -144.28,-36.18 -221.67,-66.25 -285.3,-134.87 -356.09,-161.24 0.76,42.31 32.06,179.88 51.04,206.49 98.38,48.88 344.33,15.41 449.33,-9.07zm78.26 -26.5c-16.86,92.27 -412.31,97.12 -526.13,66.7 -40.8,-10.9 -36.56,-38.09 -45.92,-80.72 -9.27,-42.19 -41.95,-167.71 -37.94,-202.79 22.13,3.35 102.45,57.98 132.53,74.99 41.5,23.45 91.48,48.57 140,67.25 50.46,19.41 99.92,36.28 155.28,51.19 48.22,12.98 165.5,16.58 182.18,23.38zm1188.63 1252.73c62.39,-61.52 -146.47,-134.79 -196.5,-149.97 51.22,122.4 189.96,147.54 196.5,149.97zm-1526.24 -2021.07c-2.42,-29.71 6.02,-20.24 17.47,-42.69 -43.35,-6.16 -114.48,-6.25 -158.21,-1.42 -73.66,8.16 -92.16,11.89 -107.06,46.45 -43.25,-10.88 -47.42,2.1 -87.82,25.82 -73.98,43.45 -140.64,104.07 -188.04,178.45 -225.85,354.43 26.73,835.31 518.9,777.07 141.61,-16.77 248.47,-89.45 329.27,-156.45 194.67,-161.45 171.62,-498.66 6.28,-710.62 -66.16,-84.82 -141.33,-110.6 -244.84,-124.37 -97.88,-13.01 -33.27,4.22 -85.95,7.76zm168.46 2670.16c-20.45,22.88 -39.05,43.98 -36.44,84.04 41.76,-6.71 108.6,-87.89 115.97,-134.15 -42.54,6.11 -58.53,26.61 -79.53,50.11z"/>
  <path class="fil1" d="M7235.52 2975.08c-11.28,-6.58 -41.09,9.38 -112.45,7.69 -74.96,-1.78 -77.64,-18.95 -99.55,-21.15 6.03,25.11 66.02,33.96 96.67,34.43 23.53,0.37 92.77,-6.08 115.33,-20.97z"/>
  <path class="fil1" d="M7165.33 2789.45c18.48,1.2 23.5,7.19 26.68,28.53 2.75,18.49 3.39,37.99 -10.23,42.25 -25.62,8.03 -39.57,-44.04 -16.45,-70.78z"/>
  <path class="fil1" d="M7089.09 2784.78c-28.86,12.57 -31.67,76.89 -4.63,73.65 23.48,-2.81 36.4,-60.45 4.63,-73.65z"/>
  <path class="fil1" d="M7138.31 2770.47c18.4,12.03 54.95,5.03 74.05,4.48 -14.96,-15.07 -59.24,-18.51 -74.05,-4.48z"/>
  <path class="fil1" d="M7038.94 2774.36c21.02,5.26 62.27,5 82.95,-5.2 -28.33,-8.78 -61.72,-12.08 -82.95,5.2z"/>
  <path class="fil1" d="M5197.84 2945.79c0.44,-0.18 163.54,26 212.07,12.42 -18.05,48.3 -183.27,12.1 -212.07,-12.42z"/>
  <path class="fil1" d="M5397.51 2791.13c18.48,1.2 23.5,7.19 26.68,28.53 2.75,18.49 3.39,37.99 -10.23,42.25 -25.62,8.03 -39.57,-44.04 -16.45,-70.78z"/>
  <path class="fil1" d="M5314.32 2784.75c-28.86,12.57 -31.67,76.89 -4.63,73.65 23.48,-2.81 36.4,-60.45 4.63,-73.65z"/>
  <path class="fil1" d="M5378.86 2773.02c19.13,10.85 55.16,1.56 74.19,-0.19 -15.88,-14.09 -60.28,-14.74 -74.19,0.19z"/>
  <path class="fil1" d="M5264.59 2769.71c20.32,7.52 61.35,11.78 83.02,3.9 -27.21,-11.83 -60.03,-18.75 -83.02,-3.9z"/>
  <g>
   <path class="fil3" d="M5061.11 3585.88c-11.74,22.74 -19.83,40.95 -24.44,54.56 -2.67,7.89 -4.54,12.24 -5.5,13.16 -3.88,3.75 -12.38,2 -12.38,-4.4 0,-13.17 27.26,-64.34 35.08,-77.94 -1.65,-5.58 -3.81,-12.65 1.65,-16.88 2.72,-2.11 5.76,-1.32 8.62,0 5.75,-10.06 12.01,-20.03 17.24,-30.33 0.5,3.85 1.77,7.4 3.54,10.52 -1.39,1.57 -2.67,3.39 -4.39,5.6l-0.45 -0.15 -2.55 16.98 2.28 0.11c-1.16,4.22 -1.35,9.08 -0.28,14.18l-9.02 -0.4c2.38,8.82 5.72,16.29 9.45,24.17 -2.98,8.05 -3.23,18.3 -3.01,26.95 -4.72,-9.84 -9.99,-21.88 -15.84,-36.13zm23.87 -80.37c-3.4,1.21 -6.49,1.08 -6.49,-4.45 0,-5.92 5.98,-10.49 12.17,-13.77 -0.95,3.72 -1.65,7.09 -1.69,10.98 -0.58,1.92 -2.31,3.84 -3.17,5.64l-0.76 -0.27 0.77 0.36 -0.83 1.51zm39.95 -27.68c1.49,-1.34 2.87,-2.82 4.07,-4.39 46.28,-7.42 52.6,35.94 26.19,65.95 -11.19,12.72 -24.78,20.16 -40.45,25.78 0.73,-4.09 0.25,-8.27 -1.97,-12.03l-0.11 -0.96c18.08,-6.94 45.88,-27.64 45.88,-49.19 0,-17.29 -18.91,-17.54 -33.37,-14 0.99,-3.96 0.81,-7.79 -0.24,-11.16zm-42.08 69.88l-2.77 -7.69 2.77 7.69zm229.46 -55.5c-17.92,2.75 -34.57,6.13 -49.83,10.6 -3.31,0.97 -5.73,1.74 -7.52,1.74 -7.27,0 -10.8,-11.1 1.74,-14.95 39.24,-12.04 84.28,-19.26 125.26,-19.26 5,0 19.62,-1.05 19.62,6.56 0,4.22 -3.06,6.76 -9.26,7.38 -21.88,2.18 -47.79,0.07 -68.68,5.23 6.64,2.57 1.66,9.66 -0.92,13.43 -17.02,24.91 -33.24,53.16 -48.78,84.78 -11.78,23.98 -21.07,45.13 -25.95,63.91 -3.98,15.32 -15.31,6.77 -15.31,-1.74 0,-18.79 38.9,-91.28 51.39,-112.01 9.22,-15.3 18.68,-30.57 28.24,-45.67zm154.6 59.97c0,-14.95 -1.47,-29.76 -3.02,-44.61 -1.37,-13.2 -3.13,-22.71 -5.32,-28.56 -1.24,-3.31 -1.93,-5.27 -1.93,-5.91 0,-6.02 10.38,-10.08 14.03,-0.97 6.52,16.27 8.37,46.64 10.32,65.06 8.74,-8.66 66.5,-65.2 75.92,-65.2 3.38,0 5.37,3.66 5.37,6.7 0,3.62 -2.06,7.5 -6.56,11.19 -26.25,21.55 -49.9,42.56 -73.68,66.98 0.55,46.44 5.43,80.58 14.12,102.65 5.17,13.14 -10.4,18.93 -15.31,6.19 -3.38,-8.79 -6.03,-23.29 -8.25,-43.32 -2.03,-18.24 -3.4,-35.44 -4.08,-51.54 -31.41,32.33 -54.62,58.91 -69.19,80.01 -3.16,4.57 -8.77,11.95 -13.85,5.27 -4.42,-5.8 3.51,-14.7 7.02,-19.03 25.08,-30.93 49.93,-59.23 74.41,-84.91z"/>
  </g>
  <path class="fil3" d="M6155.47 3589.57c-7.19,13.93 -12.16,25.07 -14.96,33.41 -1.66,4.83 -2.78,7.5 -3.37,8.06 -0.79,0.76 -1.97,1.15 -3.54,1.15 -1.32,0 -2.33,-0.45 -3.06,-1.32 -0.65,-0.81 -0.98,-1.66 -0.98,-2.53 0,-2.58 2.47,-9.4 7.44,-20.49 3.53,-8 8.19,-17.07 14.03,-27.23 -0.75,-2.56 -1.15,-4.5 -1.15,-5.84 0,-1.88 0.73,-3.4 2.16,-4.5 0.71,-0.56 1.49,-0.81 2.31,-0.81 0.75,0 1.77,0.25 2.97,0.81 0.82,-1.43 3.85,-6.68 9.13,-15.75 4.69,-9.18 7.3,-14.54 7.8,-16.14 -1.49,0.65 -2.67,1.24 -3.54,1.71 -0.92,0.51 -1.68,0.76 -2.21,0.76 -0.73,0 -1.32,-0.39 -1.83,-1.15 -0.36,-0.62 -0.56,-1.29 -0.56,-2.08 0,-2.72 1.82,-5.16 5.5,-7.24 2.59,-1.49 5.08,-2.72 7.55,-3.71 0.73,-2.58 1.3,-4.29 1.75,-5.11 0.75,-1.48 1.99,-2.21 3.67,-2.21 1.88,0 3.48,1.04 4.86,3.11 2.58,-0.76 5.03,-1.34 7.36,-1.71 2.33,-0.39 4.52,-0.59 6.59,-0.59 6.38,0 11.18,1.83 14.46,5.45 3.12,3.45 4.69,7.66 4.69,12.6 0,8.06 -3.14,15.7 -9.46,22.88 -5.92,6.71 -13.81,11.85 -23.7,15.42 -7.58,2.75 -15.04,4.12 -22.37,4.12 -1.26,0 -3.2,-0.08 -5.79,-0.25 0.9,3.34 2.08,6.68 3.54,10.05 2.59,5.42 6.26,13.2 11.04,23.36 1.37,2.67 3.62,6.51 6.76,11.51 0.82,1.32 1.24,2.53 1.24,3.62 0,1.04 -0.62,2.02 -1.83,2.95 -1.26,0.87 -2.33,1.32 -3.2,1.32 -1.37,0 -2.83,-1.46 -4.38,-4.38 -0.76,-1.37 -1.71,-3.09 -2.86,-5.11 -4.24,-6.96 -9.58,-18.33 -16.06,-34.14zm10.05 -17.69c2.11,0.12 3.65,0.17 4.69,0.17 11.37,0 21.98,-3.98 31.84,-11.96 4.32,-3.51 7.83,-7.58 10.52,-12.18 1.72,-2.86 2.56,-5.9 2.56,-9.1 0,-3.23 -1.04,-5.67 -3.09,-7.27 -2.05,-1.63 -5.14,-2.44 -9.24,-2.44 -3.73,0 -7.49,0.7 -11.28,2.13 -1.49,0.56 -3.6,1.46 -6.32,2.73 -1.94,4.4 -5.05,10.75 -9.38,19.09 -4.35,8.33 -7.77,14.6 -10.3,18.83zm143.77 -39.67c-10.98,1.69 -21.14,3.85 -30.52,6.49 -1.99,0.7 -3.51,1.07 -4.6,1.07 -1.27,0 -2.33,-0.56 -3.23,-1.72 -0.54,-0.67 -0.82,-1.43 -0.82,-2.3 0,-2.33 1.72,-4.04 5.11,-5.14 9.1,-2.75 19.8,-5.27 32.15,-7.58 15.44,-2.8 30.32,-4.21 44.55,-4.21 4.83,0 8.06,0.31 9.72,0.9 1.54,0.56 2.3,1.6 2.3,3.12 0,2.58 -1.88,4.07 -5.67,4.52 -3.29,0.31 -8.26,0.56 -14.91,0.73 -13.22,0.45 -22.26,1.26 -27.15,2.47 1.38,0.53 2.05,1.4 2.05,2.55 0,1.21 -0.87,3.09 -2.61,5.67 -10.44,15.25 -20.38,32.54 -29.87,51.92 -7.24,14.68 -12.55,27.73 -15.89,39.13 -0.76,3.45 -2.08,5.2 -3.96,5.2 -1.68,0 -3.12,-0.9 -4.27,-2.64 -0.76,-1.15 -1.15,-2.36 -1.15,-3.63 0,-5.05 4.83,-17.32 14.46,-36.86 6.15,-12.55 11.82,-23.13 17.01,-31.72 2.11,-3.51 7.11,-11.65 15.05,-24.43l2.25 -3.54zm94.67 36.73c0,-0.85 0,-1.55 0,-2.16 0,-5 -0.62,-13.4 -1.86,-25.16 -0.84,-8.09 -1.93,-13.9 -3.25,-17.49 -0.79,-2.02 -1.18,-3.23 -1.18,-3.62 0,-1.04 0.5,-1.97 1.48,-2.81 0.87,-0.7 1.86,-1.07 2.92,-1.07 1.91,0 3.32,1.1 4.19,3.29 1.68,4.18 3.06,10.89 4.12,20.16 0.68,5.64 1.41,12.21 2.19,19.68 12.75,-12.64 22.6,-21.87 29.54,-27.74 9.54,-8.12 15.22,-12.19 16.96,-12.19 1.04,0 1.91,0.57 2.64,1.66 0.42,0.76 0.64,1.57 0.64,2.44 0,2.22 -1.35,4.49 -4.01,6.85 -1.49,1.21 -5.84,4.83 -13.06,10.84 -8.84,7.24 -19.54,17.32 -32.06,30.18 0.34,28.44 3.2,49.38 8.65,62.86 0.47,1.26 0.73,2.39 0.73,3.37 0,1.15 -0.48,2.22 -1.41,3.2 -1.01,1.04 -2.21,1.57 -3.65,1.57 -2.21,0 -3.9,-1.46 -5.05,-4.35 -1.99,-5.42 -3.68,-14.26 -5.05,-26.53 -1.24,-11.17 -2.08,-21.7 -2.5,-31.56 -19.23,19.8 -33.36,36.14 -42.37,48.99 -2.07,3.23 -3.93,4.86 -5.58,4.86 -1.1,0 -2.05,-0.53 -2.9,-1.63 -0.59,-0.78 -0.89,-1.54 -0.89,-2.3 0,-1.91 1.74,-5.02 5.19,-9.35 15.38,-18.92 30.57,-36.27 45.57,-51.99z"/>
  <path class="fil3" d="M6172 3953.38c-7.19,13.93 -12.16,25.07 -14.96,33.41 -1.66,4.83 -2.78,7.5 -3.37,8.06 -0.79,0.76 -1.97,1.15 -3.54,1.15 -1.32,0 -2.33,-0.45 -3.06,-1.32 -0.65,-0.81 -0.98,-1.66 -0.98,-2.53 0,-2.58 2.47,-9.4 7.44,-20.49 3.53,-8 8.19,-17.07 14.03,-27.23 -0.75,-2.56 -1.15,-4.5 -1.15,-5.84 0,-1.88 0.73,-3.4 2.16,-4.5 0.71,-0.56 1.49,-0.81 2.31,-0.81 0.75,0 1.77,0.25 2.97,0.81 0.82,-1.43 3.85,-6.68 9.13,-15.75 4.69,-9.18 7.3,-14.54 7.8,-16.14 -1.49,0.65 -2.67,1.24 -3.54,1.71 -0.92,0.51 -1.68,0.76 -2.21,0.76 -0.73,0 -1.32,-0.39 -1.83,-1.15 -0.36,-0.62 -0.56,-1.29 -0.56,-2.08 0,-2.72 1.82,-5.16 5.5,-7.24 2.59,-1.49 5.08,-2.72 7.55,-3.71 0.73,-2.58 1.3,-4.29 1.75,-5.11 0.75,-1.48 1.99,-2.21 3.67,-2.21 1.88,0 3.48,1.04 4.86,3.11 2.58,-0.76 5.03,-1.34 7.36,-1.71 2.33,-0.39 4.52,-0.59 6.59,-0.59 6.38,0 11.18,1.83 14.46,5.45 3.12,3.45 4.69,7.66 4.69,12.6 0,8.06 -3.14,15.7 -9.46,22.88 -5.92,6.71 -13.81,11.85 -23.7,15.42 -7.58,2.75 -15.04,4.12 -22.37,4.12 -1.26,0 -3.2,-0.08 -5.79,-0.25 0.9,3.34 2.08,6.68 3.54,10.05 2.59,5.42 6.26,13.2 11.04,23.36 1.37,2.67 3.62,6.51 6.76,11.51 0.82,1.32 1.24,2.53 1.24,3.62 0,1.04 -0.62,2.02 -1.83,2.95 -1.26,0.87 -2.33,1.32 -3.2,1.32 -1.37,0 -2.83,-1.46 -4.38,-4.38 -0.76,-1.37 -1.71,-3.09 -2.86,-5.11 -4.24,-6.96 -9.58,-18.33 -16.06,-34.14zm10.05 -17.69c2.11,0.12 3.65,0.17 4.69,0.17 11.37,0 21.98,-3.98 31.84,-11.96 4.32,-3.51 7.83,-7.58 10.52,-12.18 1.72,-2.86 2.56,-5.9 2.56,-9.1 0,-3.23 -1.04,-5.67 -3.09,-7.27 -2.05,-1.63 -5.14,-2.44 -9.24,-2.44 -3.73,0 -7.49,0.7 -11.28,2.13 -1.49,0.56 -3.6,1.46 -6.32,2.73 -1.94,4.4 -5.05,10.75 -9.38,19.09 -4.35,8.33 -7.77,14.6 -10.3,18.83zm143.77 -39.67c-10.98,1.69 -21.14,3.85 -30.52,6.49 -1.99,0.7 -3.51,1.07 -4.6,1.07 -1.27,0 -2.33,-0.56 -3.23,-1.72 -0.54,-0.67 -0.82,-1.43 -0.82,-2.3 0,-2.33 1.72,-4.04 5.11,-5.14 9.1,-2.75 19.8,-5.27 32.15,-7.58 15.44,-2.8 30.32,-4.21 44.55,-4.21 4.83,0 8.06,0.31 9.72,0.9 1.54,0.56 2.3,1.6 2.3,3.12 0,2.58 -1.88,4.07 -5.67,4.52 -3.29,0.31 -8.26,0.56 -14.91,0.73 -13.22,0.45 -22.26,1.26 -27.15,2.47 1.38,0.53 2.05,1.4 2.05,2.55 0,1.21 -0.87,3.09 -2.61,5.67 -10.44,15.25 -20.38,32.54 -29.87,51.92 -7.24,14.68 -12.55,27.73 -15.89,39.13 -0.76,3.45 -2.08,5.2 -3.96,5.2 -1.68,0 -3.12,-0.9 -4.27,-2.64 -0.76,-1.15 -1.15,-2.36 -1.15,-3.63 0,-5.05 4.83,-17.32 14.46,-36.86 6.15,-12.55 11.82,-23.13 17.01,-31.72 2.11,-3.51 7.11,-11.65 15.05,-24.43l2.25 -3.54zm94.67 36.73c0,-0.85 0,-1.55 0,-2.16 0,-5 -0.62,-13.4 -1.86,-25.16 -0.84,-8.09 -1.93,-13.9 -3.25,-17.49 -0.79,-2.02 -1.18,-3.23 -1.18,-3.62 0,-1.04 0.5,-1.97 1.48,-2.81 0.87,-0.7 1.86,-1.07 2.92,-1.07 1.91,0 3.32,1.1 4.19,3.29 1.68,4.18 3.06,10.89 4.12,20.16 0.68,5.64 1.41,12.21 2.19,19.68 12.75,-12.64 22.6,-21.87 29.54,-27.74 9.54,-8.12 15.22,-12.19 16.96,-12.19 1.04,0 1.91,0.57 2.64,1.66 0.42,0.76 0.64,1.57 0.64,2.44 0,2.22 -1.35,4.49 -4.01,6.85 -1.49,1.21 -5.84,4.83 -13.06,10.84 -8.84,7.24 -19.54,17.32 -32.06,30.18 0.34,28.44 3.2,49.38 8.65,62.86 0.47,1.26 0.73,2.39 0.73,3.37 0,1.15 -0.48,2.22 -1.41,3.2 -1.01,1.04 -2.21,1.57 -3.65,1.57 -2.21,0 -3.9,-1.46 -5.05,-4.35 -1.99,-5.42 -3.68,-14.26 -5.05,-26.53 -1.24,-11.17 -2.08,-21.7 -2.5,-31.56 -19.23,19.8 -33.36,36.14 -42.37,48.99 -2.07,3.23 -3.93,4.86 -5.58,4.86 -1.1,0 -2.05,-0.53 -2.9,-1.63 -0.59,-0.78 -0.89,-1.54 -0.89,-2.3 0,-1.91 1.74,-5.02 5.19,-9.35 15.38,-18.92 30.57,-36.27 45.57,-51.99z"/>
  <path class="fil3" d="M6162.08 4297.34c-7.19,13.93 -12.16,25.07 -14.96,33.41 -1.66,4.83 -2.78,7.5 -3.37,8.06 -0.79,0.76 -1.97,1.15 -3.54,1.15 -1.32,0 -2.33,-0.45 -3.06,-1.32 -0.65,-0.81 -0.98,-1.66 -0.98,-2.53 0,-2.58 2.47,-9.4 7.44,-20.49 3.53,-8 8.19,-17.07 14.03,-27.23 -0.75,-2.56 -1.15,-4.5 -1.15,-5.84 0,-1.88 0.73,-3.4 2.16,-4.5 0.71,-0.56 1.49,-0.81 2.31,-0.81 0.75,0 1.77,0.25 2.97,0.81 0.82,-1.43 3.85,-6.68 9.13,-15.75 4.69,-9.18 7.3,-14.54 7.8,-16.14 -1.49,0.65 -2.67,1.24 -3.54,1.71 -0.92,0.51 -1.68,0.76 -2.21,0.76 -0.73,0 -1.32,-0.39 -1.83,-1.15 -0.36,-0.62 -0.56,-1.29 -0.56,-2.08 0,-2.72 1.82,-5.16 5.5,-7.24 2.59,-1.49 5.08,-2.72 7.55,-3.71 0.73,-2.58 1.3,-4.29 1.75,-5.11 0.75,-1.48 1.99,-2.21 3.67,-2.21 1.88,0 3.48,1.04 4.86,3.11 2.58,-0.76 5.03,-1.34 7.36,-1.71 2.33,-0.39 4.52,-0.59 6.59,-0.59 6.38,0 11.18,1.83 14.46,5.45 3.12,3.45 4.69,7.66 4.69,12.6 0,8.06 -3.14,15.7 -9.46,22.88 -5.92,6.71 -13.81,11.85 -23.7,15.42 -7.58,2.75 -15.04,4.12 -22.37,4.12 -1.26,0 -3.2,-0.08 -5.79,-0.25 0.9,3.34 2.08,6.68 3.54,10.05 2.59,5.42 6.26,13.2 11.04,23.36 1.37,2.67 3.62,6.51 6.76,11.51 0.82,1.32 1.24,2.53 1.24,3.62 0,1.04 -0.62,2.02 -1.83,2.95 -1.26,0.87 -2.33,1.32 -3.2,1.32 -1.37,0 -2.83,-1.46 -4.38,-4.38 -0.76,-1.37 -1.71,-3.09 -2.86,-5.11 -4.24,-6.96 -9.58,-18.33 -16.06,-34.14zm10.05 -17.69c2.11,0.12 3.65,0.17 4.69,0.17 11.37,0 21.98,-3.98 31.84,-11.96 4.32,-3.51 7.83,-7.58 10.52,-12.18 1.72,-2.86 2.56,-5.9 2.56,-9.1 0,-3.23 -1.04,-5.67 -3.09,-7.27 -2.05,-1.63 -5.14,-2.44 -9.24,-2.44 -3.73,0 -7.49,0.7 -11.28,2.13 -1.49,0.56 -3.6,1.46 -6.32,2.73 -1.94,4.4 -5.05,10.75 -9.38,19.09 -4.35,8.33 -7.77,14.6 -10.3,18.83zm143.77 -39.67c-10.98,1.69 -21.14,3.85 -30.52,6.49 -1.99,0.7 -3.51,1.07 -4.6,1.07 -1.27,0 -2.33,-0.56 -3.23,-1.72 -0.54,-0.67 -0.82,-1.43 -0.82,-2.3 0,-2.33 1.72,-4.04 5.11,-5.14 9.1,-2.75 19.8,-5.27 32.15,-7.58 15.44,-2.8 30.32,-4.21 44.55,-4.21 4.83,0 8.06,0.31 9.72,0.9 1.54,0.56 2.3,1.6 2.3,3.12 0,2.58 -1.88,4.07 -5.67,4.52 -3.29,0.31 -8.26,0.56 -14.91,0.73 -13.22,0.45 -22.26,1.26 -27.15,2.47 1.38,0.53 2.05,1.4 2.05,2.55 0,1.21 -0.87,3.09 -2.61,5.67 -10.44,15.25 -20.38,32.54 -29.87,51.92 -7.24,14.68 -12.55,27.73 -15.89,39.13 -0.76,3.45 -2.08,5.2 -3.96,5.2 -1.68,0 -3.12,-0.9 -4.27,-2.64 -0.76,-1.15 -1.15,-2.36 -1.15,-3.63 0,-5.05 4.83,-17.32 14.46,-36.86 6.15,-12.55 11.82,-23.13 17.01,-31.72 2.11,-3.51 7.11,-11.65 15.05,-24.43l2.25 -3.54zm94.67 36.73c0,-0.85 0,-1.55 0,-2.16 0,-5 -0.62,-13.4 -1.86,-25.16 -0.84,-8.09 -1.93,-13.9 -3.25,-17.49 -0.79,-2.02 -1.18,-3.23 -1.18,-3.62 0,-1.04 0.5,-1.97 1.48,-2.81 0.87,-0.7 1.86,-1.07 2.92,-1.07 1.91,0 3.32,1.1 4.19,3.29 1.68,4.18 3.06,10.89 4.12,20.16 0.68,5.64 1.41,12.21 2.19,19.68 12.75,-12.64 22.6,-21.87 29.54,-27.74 9.54,-8.12 15.22,-12.19 16.96,-12.19 1.04,0 1.91,0.57 2.64,1.66 0.42,0.76 0.64,1.57 0.64,2.44 0,2.22 -1.35,4.49 -4.01,6.85 -1.49,1.21 -5.84,4.83 -13.06,10.84 -8.84,7.24 -19.54,17.32 -32.06,30.18 0.34,28.44 3.2,49.38 8.65,62.86 0.47,1.26 0.73,2.39 0.73,3.37 0,1.15 -0.48,2.22 -1.41,3.2 -1.01,1.04 -2.21,1.57 -3.65,1.57 -2.21,0 -3.9,-1.46 -5.05,-4.35 -1.99,-5.42 -3.68,-14.26 -5.05,-26.53 -1.24,-11.17 -2.08,-21.7 -2.5,-31.56 -19.23,19.8 -33.36,36.14 -42.37,48.99 -2.07,3.23 -3.93,4.86 -5.58,4.86 -1.1,0 -2.05,-0.53 -2.9,-1.63 -0.59,-0.78 -0.89,-1.54 -0.89,-2.3 0,-1.91 1.74,-5.02 5.19,-9.35 15.38,-18.92 30.57,-36.27 45.57,-51.99z"/>
  <path class="fil3" d="M6172 4644.59c-7.19,13.93 -12.16,25.07 -14.96,33.41 -1.66,4.83 -2.78,7.5 -3.37,8.06 -0.79,0.76 -1.97,1.15 -3.54,1.15 -1.32,0 -2.33,-0.45 -3.06,-1.32 -0.65,-0.81 -0.98,-1.66 -0.98,-2.53 0,-2.58 2.47,-9.4 7.44,-20.49 3.53,-8 8.19,-17.07 14.03,-27.23 -0.75,-2.56 -1.15,-4.5 -1.15,-5.84 0,-1.88 0.73,-3.4 2.16,-4.5 0.71,-0.56 1.49,-0.81 2.31,-0.81 0.75,0 1.77,0.25 2.97,0.81 0.82,-1.43 3.85,-6.68 9.13,-15.75 4.69,-9.18 7.3,-14.54 7.8,-16.14 -1.49,0.65 -2.67,1.24 -3.54,1.71 -0.92,0.51 -1.68,0.76 -2.21,0.76 -0.73,0 -1.32,-0.39 -1.83,-1.15 -0.36,-0.62 -0.56,-1.29 -0.56,-2.08 0,-2.72 1.82,-5.16 5.5,-7.24 2.59,-1.49 5.08,-2.72 7.55,-3.71 0.73,-2.58 1.3,-4.29 1.75,-5.11 0.75,-1.48 1.99,-2.21 3.67,-2.21 1.88,0 3.48,1.04 4.86,3.11 2.58,-0.76 5.03,-1.34 7.36,-1.71 2.33,-0.39 4.52,-0.59 6.59,-0.59 6.38,0 11.18,1.83 14.46,5.45 3.12,3.45 4.69,7.66 4.69,12.6 0,8.06 -3.14,15.7 -9.46,22.88 -5.92,6.71 -13.81,11.85 -23.7,15.42 -7.58,2.75 -15.04,4.12 -22.37,4.12 -1.26,0 -3.2,-0.08 -5.79,-0.25 0.9,3.34 2.08,6.68 3.54,10.05 2.59,5.42 6.26,13.2 11.04,23.36 1.37,2.67 3.62,6.51 6.76,11.51 0.82,1.32 1.24,2.53 1.24,3.62 0,1.04 -0.62,2.02 -1.83,2.95 -1.26,0.87 -2.33,1.32 -3.2,1.32 -1.37,0 -2.83,-1.46 -4.38,-4.38 -0.76,-1.37 -1.71,-3.09 -2.86,-5.11 -4.24,-6.96 -9.58,-18.33 -16.06,-34.14zm10.05 -17.69c2.11,0.12 3.65,0.17 4.69,0.17 11.37,0 21.98,-3.98 31.84,-11.96 4.32,-3.51 7.83,-7.58 10.52,-12.18 1.72,-2.86 2.56,-5.9 2.56,-9.1 0,-3.23 -1.04,-5.67 -3.09,-7.27 -2.05,-1.63 -5.14,-2.44 -9.24,-2.44 -3.73,0 -7.49,0.7 -11.28,2.13 -1.49,0.56 -3.6,1.46 -6.32,2.73 -1.94,4.4 -5.05,10.75 -9.38,19.09 -4.35,8.33 -7.77,14.6 -10.3,18.83zm143.77 -39.67c-10.98,1.69 -21.14,3.85 -30.52,6.49 -1.99,0.7 -3.51,1.07 -4.6,1.07 -1.27,0 -2.33,-0.56 -3.23,-1.72 -0.54,-0.67 -0.82,-1.43 -0.82,-2.3 0,-2.33 1.72,-4.04 5.11,-5.14 9.1,-2.75 19.8,-5.27 32.15,-7.58 15.44,-2.8 30.32,-4.21 44.55,-4.21 4.83,0 8.06,0.31 9.72,0.9 1.54,0.56 2.3,1.6 2.3,3.12 0,2.58 -1.88,4.07 -5.67,4.52 -3.29,0.31 -8.26,0.56 -14.91,0.73 -13.22,0.45 -22.26,1.26 -27.15,2.47 1.38,0.53 2.05,1.4 2.05,2.55 0,1.21 -0.87,3.09 -2.61,5.67 -10.44,15.25 -20.38,32.54 -29.87,51.92 -7.24,14.68 -12.55,27.73 -15.89,39.13 -0.76,3.45 -2.08,5.2 -3.96,5.2 -1.68,0 -3.12,-0.9 -4.27,-2.64 -0.76,-1.15 -1.15,-2.36 -1.15,-3.63 0,-5.05 4.83,-17.32 14.46,-36.86 6.15,-12.55 11.82,-23.13 17.01,-31.72 2.11,-3.51 7.11,-11.65 15.05,-24.43l2.25 -3.54zm94.67 36.73c0,-0.85 0,-1.55 0,-2.16 0,-5 -0.62,-13.4 -1.86,-25.16 -0.84,-8.09 -1.93,-13.9 -3.25,-17.49 -0.79,-2.02 -1.18,-3.23 -1.18,-3.62 0,-1.04 0.5,-1.97 1.48,-2.81 0.87,-0.7 1.86,-1.07 2.92,-1.07 1.91,0 3.32,1.1 4.19,3.29 1.68,4.18 3.06,10.89 4.12,20.16 0.68,5.64 1.41,12.21 2.19,19.68 12.75,-12.64 22.6,-21.87 29.54,-27.74 9.54,-8.12 15.22,-12.19 16.96,-12.19 1.04,0 1.91,0.57 2.64,1.66 0.42,0.76 0.64,1.57 0.64,2.44 0,2.22 -1.35,4.49 -4.01,6.85 -1.49,1.21 -5.84,4.83 -13.06,10.84 -8.84,7.24 -19.54,17.32 -32.06,30.18 0.34,28.44 3.2,49.38 8.65,62.86 0.47,1.26 0.73,2.39 0.73,3.37 0,1.15 -0.48,2.22 -1.41,3.2 -1.01,1.04 -2.21,1.57 -3.65,1.57 -2.21,0 -3.9,-1.46 -5.05,-4.35 -1.99,-5.42 -3.68,-14.26 -5.05,-26.53 -1.24,-11.17 -2.08,-21.7 -2.5,-31.56 -19.23,19.8 -33.36,36.14 -42.37,48.99 -2.07,3.23 -3.93,4.86 -5.58,4.86 -1.1,0 -2.05,-0.53 -2.9,-1.63 -0.59,-0.78 -0.89,-1.54 -0.89,-2.3 0,-1.91 1.74,-5.02 5.19,-9.35 15.38,-18.92 30.57,-36.27 45.57,-51.99z"/>
  <path class="fil3" d="M7845.49 4674.36c-7.19,13.93 -12.16,25.07 -14.96,33.41 -1.66,4.83 -2.78,7.5 -3.37,8.06 -0.79,0.76 -1.97,1.15 -3.54,1.15 -1.32,0 -2.33,-0.45 -3.06,-1.32 -0.65,-0.81 -0.98,-1.66 -0.98,-2.53 0,-2.58 2.47,-9.4 7.44,-20.49 3.53,-8 8.19,-17.07 14.03,-27.23 -0.75,-2.56 -1.15,-4.5 -1.15,-5.84 0,-1.88 0.73,-3.4 2.16,-4.5 0.71,-0.56 1.49,-0.81 2.31,-0.81 0.75,0 1.77,0.25 2.97,0.81 0.82,-1.43 3.85,-6.68 9.13,-15.75 4.69,-9.18 7.3,-14.54 7.8,-16.14 -1.49,0.65 -2.67,1.24 -3.54,1.71 -0.92,0.51 -1.68,0.76 -2.21,0.76 -0.73,0 -1.32,-0.39 -1.83,-1.15 -0.36,-0.62 -0.56,-1.29 -0.56,-2.08 0,-2.72 1.82,-5.16 5.5,-7.24 2.59,-1.49 5.08,-2.72 7.55,-3.71 0.73,-2.58 1.3,-4.29 1.75,-5.11 0.75,-1.48 1.99,-2.21 3.67,-2.21 1.88,0 3.48,1.04 4.86,3.11 2.58,-0.76 5.03,-1.34 7.36,-1.71 2.33,-0.39 4.52,-0.59 6.59,-0.59 6.38,0 11.18,1.83 14.46,5.45 3.12,3.45 4.69,7.66 4.69,12.6 0,8.06 -3.14,15.7 -9.46,22.88 -5.92,6.71 -13.81,11.85 -23.7,15.42 -7.58,2.75 -15.04,4.12 -22.37,4.12 -1.26,0 -3.2,-0.08 -5.79,-0.25 0.9,3.34 2.08,6.68 3.54,10.05 2.59,5.42 6.26,13.2 11.04,23.36 1.37,2.67 3.62,6.51 6.76,11.51 0.82,1.32 1.24,2.53 1.24,3.62 0,1.04 -0.62,2.02 -1.83,2.95 -1.26,0.87 -2.33,1.32 -3.2,1.32 -1.37,0 -2.83,-1.46 -4.38,-4.38 -0.76,-1.37 -1.71,-3.09 -2.86,-5.11 -4.24,-6.96 -9.58,-18.33 -16.06,-34.14zm10.05 -17.69c2.11,0.12 3.65,0.17 4.69,0.17 11.37,0 21.98,-3.98 31.84,-11.96 4.32,-3.51 7.83,-7.58 10.52,-12.18 1.72,-2.86 2.56,-5.9 2.56,-9.1 0,-3.23 -1.04,-5.67 -3.09,-7.27 -2.05,-1.63 -5.14,-2.44 -9.24,-2.44 -3.73,0 -7.49,0.7 -11.28,2.13 -1.49,0.56 -3.6,1.46 -6.32,2.73 -1.94,4.4 -5.05,10.75 -9.38,19.09 -4.35,8.33 -7.77,14.6 -10.3,18.83zm143.77 -39.67c-10.98,1.69 -21.14,3.85 -30.52,6.49 -1.99,0.7 -3.51,1.07 -4.6,1.07 -1.27,0 -2.33,-0.56 -3.23,-1.72 -0.54,-0.67 -0.82,-1.43 -0.82,-2.3 0,-2.33 1.72,-4.04 5.11,-5.14 9.1,-2.75 19.8,-5.27 32.15,-7.58 15.44,-2.8 30.32,-4.21 44.55,-4.21 4.83,0 8.06,0.31 9.72,0.9 1.54,0.56 2.3,1.6 2.3,3.12 0,2.58 -1.88,4.07 -5.67,4.52 -3.29,0.31 -8.26,0.56 -14.91,0.73 -13.22,0.45 -22.26,1.26 -27.15,2.47 1.38,0.53 2.05,1.4 2.05,2.55 0,1.21 -0.87,3.09 -2.61,5.67 -10.44,15.25 -20.38,32.54 -29.87,51.92 -7.24,14.68 -12.55,27.73 -15.89,39.13 -0.76,3.45 -2.08,5.2 -3.96,5.2 -1.68,0 -3.12,-0.9 -4.27,-2.64 -0.76,-1.15 -1.15,-2.36 -1.15,-3.63 0,-5.05 4.83,-17.32 14.46,-36.86 6.15,-12.55 11.82,-23.13 17.01,-31.72 2.11,-3.51 7.11,-11.65 15.05,-24.43l2.25 -3.54zm94.67 36.73c0,-0.85 0,-1.55 0,-2.16 0,-5 -0.62,-13.4 -1.86,-25.16 -0.84,-8.09 -1.93,-13.9 -3.25,-17.49 -0.79,-2.02 -1.18,-3.23 -1.18,-3.62 0,-1.04 0.5,-1.97 1.48,-2.81 0.87,-0.7 1.86,-1.07 2.92,-1.07 1.91,0 3.32,1.1 4.19,3.29 1.68,4.18 3.06,10.89 4.12,20.16 0.68,5.64 1.41,12.21 2.19,19.68 12.75,-12.64 22.6,-21.87 29.54,-27.74 9.54,-8.12 15.22,-12.19 16.96,-12.19 1.04,0 1.91,0.57 2.64,1.66 0.42,0.76 0.64,1.57 0.64,2.44 0,2.22 -1.35,4.49 -4.01,6.85 -1.49,1.21 -5.84,4.83 -13.06,10.84 -8.84,7.24 -19.54,17.32 -32.06,30.18 0.34,28.44 3.2,49.38 8.65,62.86 0.47,1.26 0.73,2.39 0.73,3.37 0,1.15 -0.48,2.22 -1.41,3.2 -1.01,1.04 -2.21,1.57 -3.65,1.57 -2.21,0 -3.9,-1.46 -5.05,-4.35 -1.99,-5.42 -3.68,-14.26 -5.05,-26.53 -1.24,-11.17 -2.08,-21.7 -2.5,-31.56 -19.23,19.8 -33.36,36.14 -42.37,48.99 -2.07,3.23 -3.93,4.86 -5.58,4.86 -1.1,0 -2.05,-0.53 -2.9,-1.63 -0.59,-0.78 -0.89,-1.54 -0.89,-2.3 0,-1.91 1.74,-5.02 5.19,-9.35 15.38,-18.92 30.57,-36.27 45.57,-51.99z"/>
  <path class="fil3" d="M7991.01 4363.48c-7.19,13.93 -12.16,25.07 -14.96,33.41 -1.66,4.83 -2.78,7.5 -3.37,8.06 -0.79,0.76 -1.97,1.15 -3.54,1.15 -1.32,0 -2.33,-0.45 -3.06,-1.32 -0.65,-0.81 -0.98,-1.66 -0.98,-2.53 0,-2.58 2.47,-9.4 7.44,-20.49 3.53,-8 8.19,-17.07 14.03,-27.23 -0.75,-2.56 -1.15,-4.5 -1.15,-5.84 0,-1.88 0.73,-3.4 2.16,-4.5 0.71,-0.56 1.49,-0.81 2.31,-0.81 0.75,0 1.77,0.25 2.97,0.81 0.82,-1.43 3.85,-6.68 9.13,-15.75 4.69,-9.18 7.3,-14.54 7.8,-16.14 -1.49,0.65 -2.67,1.24 -3.54,1.71 -0.92,0.51 -1.68,0.76 -2.21,0.76 -0.73,0 -1.32,-0.39 -1.83,-1.15 -0.36,-0.62 -0.56,-1.29 -0.56,-2.08 0,-2.72 1.82,-5.16 5.5,-7.24 2.59,-1.49 5.08,-2.72 7.55,-3.71 0.73,-2.58 1.3,-4.29 1.75,-5.11 0.75,-1.48 1.99,-2.21 3.67,-2.21 1.88,0 3.48,1.04 4.86,3.11 2.58,-0.76 5.03,-1.34 7.36,-1.71 2.33,-0.39 4.52,-0.59 6.59,-0.59 6.38,0 11.18,1.83 14.46,5.45 3.12,3.45 4.69,7.66 4.69,12.6 0,8.06 -3.14,15.7 -9.46,22.88 -5.92,6.71 -13.81,11.85 -23.7,15.42 -7.58,2.75 -15.04,4.12 -22.37,4.12 -1.26,0 -3.2,-0.08 -5.79,-0.25 0.9,3.34 2.08,6.68 3.54,10.05 2.59,5.42 6.26,13.2 11.04,23.36 1.37,2.67 3.62,6.51 6.76,11.51 0.82,1.32 1.24,2.53 1.24,3.62 0,1.04 -0.62,2.02 -1.83,2.95 -1.26,0.87 -2.33,1.32 -3.2,1.32 -1.37,0 -2.83,-1.46 -4.38,-4.38 -0.76,-1.37 -1.71,-3.09 -2.86,-5.11 -4.24,-6.96 -9.58,-18.33 -16.06,-34.14zm10.05 -17.69c2.11,0.12 3.65,0.17 4.69,0.17 11.37,0 21.98,-3.98 31.84,-11.96 4.32,-3.51 7.83,-7.58 10.52,-12.18 1.72,-2.86 2.56,-5.9 2.56,-9.1 0,-3.23 -1.04,-5.67 -3.09,-7.27 -2.05,-1.63 -5.14,-2.44 -9.24,-2.44 -3.73,0 -7.49,0.7 -11.28,2.13 -1.49,0.56 -3.6,1.46 -6.32,2.73 -1.94,4.4 -5.05,10.75 -9.38,19.09 -4.35,8.33 -7.77,14.6 -10.3,18.83zm143.77 -39.67c-10.98,1.69 -21.14,3.85 -30.52,6.49 -1.99,0.7 -3.51,1.07 -4.6,1.07 -1.27,0 -2.33,-0.56 -3.23,-1.72 -0.54,-0.67 -0.82,-1.43 -0.82,-2.3 0,-2.33 1.72,-4.04 5.11,-5.14 9.1,-2.75 19.8,-5.27 32.15,-7.58 15.44,-2.8 30.32,-4.21 44.55,-4.21 4.83,0 8.06,0.31 9.72,0.9 1.54,0.56 2.3,1.6 2.3,3.12 0,2.58 -1.88,4.07 -5.67,4.52 -3.29,0.31 -8.26,0.56 -14.91,0.73 -13.22,0.45 -22.26,1.26 -27.15,2.47 1.38,0.53 2.05,1.4 2.05,2.55 0,1.21 -0.87,3.09 -2.61,5.67 -10.44,15.25 -20.38,32.54 -29.87,51.92 -7.24,14.68 -12.55,27.73 -15.89,39.13 -0.76,3.45 -2.08,5.2 -3.96,5.2 -1.68,0 -3.12,-0.9 -4.27,-2.64 -0.76,-1.15 -1.15,-2.36 -1.15,-3.63 0,-5.05 4.83,-17.32 14.46,-36.86 6.15,-12.55 11.82,-23.13 17.01,-31.72 2.11,-3.51 7.11,-11.65 15.05,-24.43l2.25 -3.54zm94.67 36.73c0,-0.85 0,-1.55 0,-2.16 0,-5 -0.62,-13.4 -1.86,-25.16 -0.84,-8.09 -1.93,-13.9 -3.25,-17.49 -0.79,-2.02 -1.18,-3.23 -1.18,-3.62 0,-1.04 0.5,-1.97 1.48,-2.81 0.87,-0.7 1.86,-1.07 2.92,-1.07 1.91,0 3.32,1.1 4.19,3.29 1.68,4.18 3.06,10.89 4.12,20.16 0.68,5.64 1.41,12.21 2.19,19.68 12.75,-12.64 22.6,-21.87 29.54,-27.74 9.54,-8.12 15.22,-12.19 16.96,-12.19 1.04,0 1.91,0.57 2.64,1.66 0.42,0.76 0.64,1.57 0.64,2.44 0,2.22 -1.35,4.49 -4.01,6.85 -1.49,1.21 -5.84,4.83 -13.06,10.84 -8.84,7.24 -19.54,17.32 -32.06,30.18 0.34,28.44 3.2,49.38 8.65,62.86 0.47,1.26 0.73,2.39 0.73,3.37 0,1.15 -0.48,2.22 -1.41,3.2 -1.01,1.04 -2.21,1.57 -3.65,1.57 -2.21,0 -3.9,-1.46 -5.05,-4.35 -1.99,-5.42 -3.68,-14.26 -5.05,-26.53 -1.24,-11.17 -2.08,-21.7 -2.5,-31.56 -19.23,19.8 -33.36,36.14 -42.37,48.99 -2.07,3.23 -3.93,4.86 -5.58,4.86 -1.1,0 -2.05,-0.53 -2.9,-1.63 -0.59,-0.78 -0.89,-1.54 -0.89,-2.3 0,-1.91 1.74,-5.02 5.19,-9.35 15.38,-18.92 30.57,-36.27 45.57,-51.99z"/>
 </g>
</svg>
