<?xml version="1.0" encoding="UTF-8"?>
<!DOCTYPE svg PUBLIC "-//W3C//DTD SVG 1.1//EN" "http://www.w3.org/Graphics/SVG/1.1/DTD/svg11.dtd">
<!-- Creator: CorelDRAW 2020 (64-Bit) -->
<svg xmlns="http://www.w3.org/2000/svg" xml:space="preserve" width="45.7729mm" height="60.9599mm" version="1.1" style="shape-rendering:geometricPrecision; text-rendering:geometricPrecision; image-rendering:optimizeQuality; fill-rule:evenodd; clip-rule:evenodd"
viewBox="0 0 4479.21 5965.36"
 xmlns:xlink="http://www.w3.org/1999/xlink"
 xmlns:xodm="http://www.corel.com/coreldraw/odm/2003">
 <defs>
  <style type="text/css">
   <![CDATA[
    .fil0 {fill:none}
    .fil2 {fill:black}
    .fil1 {fill:#030303}
    .fil4 {fill:#0B0B0B}
    .fil3 {fill:#0D0D0D}
    .fil5 {fill:#0F0F0F}
   ]]>
  </style>
 </defs>
 <g id="Слой_x0020_1">
  <metadata id="CorelCorpID_0Corel-Layer"/>
  <rect class="fil0" x="-0" y="-0" width="4479.21" height="5965.36"/>
  <path class="fil1" d="M1357.38 2717.3l8.02 -31.29c-35.69,3.16 -29.19,-5.37 -28.99,28.77 -9.89,250.28 -14.26,507.41 64.32,746.03 10.52,31.95 29.39,58.84 39.03,83.8 35.69,0.22 95.72,8.07 123.86,-6.57 -8.68,-32 -28.89,-17.44 -114.93,-15.19 -37.11,-66.37 -69.19,-275.01 -81.87,-366.99 -21.11,-153.32 -2.65,-290.1 -9.44,-438.56zm-533.31 330.03l22.03 31.96c12.87,29.65 34.81,45.74 62.03,96.19 31.39,58.17 26.31,9.67 -79.15,122.69 -12.39,13.27 -91.77,140.69 -27.45,149.48 52.32,7.14 143.08,-97.72 142.61,-159.67 -34.6,39.23 -81.97,147.61 -140.55,135.52 -18.26,-90.88 103.98,-171.62 138.71,-206.03 -1.02,-42.83 -39.73,-98.08 -65.85,-137.59 -4.21,-9.06 -4.84,-11.74 -9.64,-19.35 -1.05,-1.64 -4.18,-6.46 -5.39,-7.96 -7,-8.66 -3.39,-4.04 -11.14,-10.49 -5.62,-21.32 -149,-243.25 -175.28,-287.6l-135.85 -217.22c-17.06,-23.95 -43.8,-46.69 -52.5,-65.6 32.83,-47.66 89.81,-89.47 131.97,-136.37l347.36 -332.91c26.6,-21.87 56.72,-38.24 66.45,-77.98 -40.98,19.31 -48.03,36.76 -78.79,65.32 -30.06,27.91 -42.59,35.19 -74.3,69.85l-146.28 134.92c-44.96,39.04 -262.98,248.66 -272.38,299.41 72.37,38.08 282.92,461.46 363.38,553.43zm1968.55 -1568.49l45.34 17.58c42.59,22.61 94.16,23.82 143.2,36.29 0.65,54.06 -0.2,79.41 -26.71,118.06 -30.85,45 -11.92,54.9 10.94,106.77 34.85,79.05 9.29,184.73 -0.72,270.06l71.65 -30.79c-0.45,-48.61 -2.25,-93.78 -3.48,-140.11 -1.92,-71.68 -6.03,-67.6 29.68,-117.45 32.59,-45.46 21.99,-52.65 -4.02,-107.81 -6.92,-14.68 -15.23,-34.32 -23.81,-47.86 -21.45,-33.86 -29.9,-9.51 -21.48,-50.47 198.97,-5.99 341.07,-54.79 463.75,-210.11 97.23,-123.11 159.78,-334.23 78.24,-518.55 -4.19,-12.67 -7.34,-18.87 -11.75,-30.99 -8.86,-24.32 1.23,-13.42 -16.57,-30.57 -73.61,-155.15 -306.17,-338.33 -567.28,-284.97 -92.89,18.98 -240.44,73.07 -302.2,136.58 -19.04,19.58 -33.1,31.85 -50.68,53.82 -31.52,39.39 -60.17,92.67 -80.62,141.89 -13.38,32.19 -30.02,55.82 -6.3,77.75l54.43 -127.95c83.34,-165.28 172.94,-207.01 337.91,-226.14 -6.11,-18.32 3.51,2.33 -8.08,-10.8l-10.7 -10.77c37.87,-6.42 177.19,-27.64 216.24,-3.52 -99.68,23.78 -306.81,112.51 -346.83,203.8 29.69,-13.4 97.96,-83.91 209.5,-129.63 40.14,-16.45 81.75,-33.05 124.39,-45.45 83.79,-24.38 70.63,-19.76 143.71,3.94l-7.63 6.63c-0.9,0.62 -2.9,2.27 -4.02,2.98 -41.35,26.39 -220.26,86.11 -253.37,175.86 23.56,-11.59 21.88,-16.08 43.21,-32.46l134.4 -81.03c104.02,-53.37 113.68,-68.59 198.43,0.67 -56.55,52.85 -177.93,93.87 -199.39,169.75 29.94,-14.28 134.61,-111.58 224.07,-150.6 27.33,14 43.25,37.29 62.65,62.11 9.47,12.11 46.68,64.21 55.89,71.94 4.98,18.74 -1.77,3.88 6.81,22.4 9.6,20.69 6,11.4 14.78,19.62 4.05,43.26 70.53,158.75 36.34,321.46 -39.22,186.75 -184.1,331.7 -374.59,377.54 -165.19,39.76 -279.49,-16.91 -339.29,-21.23 -7.51,-7.8 3.96,-2.52 -15.46,-11.99 -8.89,-4.34 -14.38,-5.18 -23.07,-8.07 -58.65,-33.92 -18.95,-3.99 -86.09,-52.92 -17.3,-12.6 -25.02,-16.24 -42.06,-29.95 -17.11,-13.75 -22.12,-20.66 -39.65,-29.86l-9.27 38.87c40.29,23.64 85.2,67.39 169.6,105.68zm-1354.15 1211.92c55.54,-5.87 111.54,-7 127.06,-38.05 -72.56,3.25 -111.94,3.5 -127.06,38.05zm478.12 -88.25l-2.11 22.53 120.24 1.37c-11.64,-40.71 -96.63,-34.18 -102.77,-32.49 -12.85,3.53 -7.33,2.55 -15.35,8.59zm-598.5 228.38l-6.38 -121.25c-7.67,-245.82 -32.65,-420.43 -84.17,-651.52 -3.43,-15.36 -6.1,-26.84 -10.02,-42.42l-9.65 -30.75c-4.41,-9.08 -5.64,-9.87 -8.42,-13.32 -25.23,32.81 10.82,121.63 19.87,166.7 23.72,118.19 41.05,245 50.87,366.35 3.84,47.34 5.87,159.09 15.33,196l3.35 135.41 8.35 728.49c-0.16,38.22 4.58,33.44 -14.85,56.58 -23.16,27.59 -36.86,49.48 -45.28,92.41 -22.75,115.98 90.34,136.05 123.07,11.26 9.75,-37.17 14.07,-84.17 -17.06,-108.17 -26.21,-20.22 -16.71,11.89 -22.71,-26.28l-2.29 -759.48zm-354.95 189.61c4,93.14 -9.73,188.34 17.33,272.26 10.72,33.19 61.67,214.73 68.65,226.09 24.73,-11.55 63.55,-88.66 79.13,-117.42 19.85,-36.61 63.75,-91.59 65.14,-131.13 11.4,-324.77 -38.5,-667.46 -38.75,-994.89 -0.07,-80.19 -2.68,-172.4 2.13,-250.24 5.07,-81.78 80.89,-111.61 100.83,-161.91 -7.81,-17.29 -45.78,-54.17 -62.04,-68.05 -15.47,-13.19 -12.67,-1.6 -21.65,-23.53 19.91,-18.04 67.69,-13.59 97.82,-19.19 483.28,-89.78 668.79,-778.51 72.66,-1048.09 35.43,-23.77 101.71,-15.82 134.67,-38.34 -38.15,-23.79 -110.43,1.98 -147.66,14.39 -40.79,13.59 -121.55,3.22 -169.23,-3.19 59.34,-57.13 169.11,-68.28 210.89,-89.71 -49.12,-26.92 -183.45,37.68 -215.98,68.82 -26.07,24.97 -1.95,17.18 -39.88,25.51 -40.32,8.86 -67.28,14.72 -104.33,24.52 15.45,-23.37 53.96,-58.86 74.71,-73.95l81.46 -49.65c7.48,-6.13 6.01,-4.91 11.49,-10.95 -137.92,8.66 -160.18,161.05 -292.71,177.05 16.73,-100.6 113.16,-138.52 130.21,-174.05 -119.64,23.3 -133.73,168.43 -185.79,207.65 -33.32,25.11 -41.65,29.53 -73.61,63.79 -82.67,88.64 -145.51,226.41 -150.32,388.91 -5.69,192.17 57.83,293.22 156.43,376.41 101.15,85.32 215.96,138.16 386.17,149.69 -8.74,27.81 -126.57,94.08 -105.51,144.03 10.7,25.38 25.05,40.56 37.26,61.61 27.3,47.07 0.77,106.42 -8.2,157.31 -51.58,292.36 -85.54,600.12 -111.34,896.25zm2172.87 -1066.11c-1.24,-23.67 -58.92,-161.27 -73.71,-183.41 -2.17,1.5 -8.97,-3.22 -16,16.77 -7.22,20.54 34.74,107.1 44.89,131.47 15.3,36.72 7.87,40.53 44.82,35.17zm310.05 3432.88c40.99,3.49 98.41,-10.83 128.01,6.67 11.88,7.03 4.17,2.31 11.89,12.13l-127.72 27.32c-34.77,2.34 -74.27,0.24 -102.93,-9.73 7.61,-13.26 6.36,-9.09 18.7,-15.65 3.66,-1.95 15,-6.28 19.49,-7.62l47.38 -13.68c1.55,0.69 3.3,0.94 5.18,0.55zm18.99 64.91c32.1,3.5 61.22,-4.33 90.7,-13.66 33.21,-10.51 56.4,-18.95 54.68,-55.6 -30.69,-29.28 -106.61,-28.16 -147.85,-15.99l-138.62 23.77c-4.57,-13.13 -5.25,-19.93 -8.21,-31.96 -5.15,-20.99 -3,-21.38 -14.37,-33.34 0.77,-32.28 -15.89,-94.9 -22.08,-134.19 -52.67,-334.51 -80.35,-684.02 -117.25,-1019.04 -29.17,-264.89 -80.29,-584.57 -123.96,-851.48 -12.82,-78.36 -48.12,-210.02 -48.2,-280.04 -56.47,42.12 -44.87,190.11 -47.19,261.9 -17.48,542.05 -53.87,890.8 -109.01,1426.5l-55.77 565.83c-49.75,1.23 -79.82,-20.34 -136.87,6.61 -31.58,14.9 -81.48,46.91 -62.74,87.97 36.53,33.13 184.94,18.46 211.7,-18.03 12.61,-22.94 29,-227.52 32.9,-266.04 43.9,-434.2 103.4,-954.3 128.28,-1377.71 4.27,-72.53 16.97,-560.58 26.12,-580.11 27.1,45.94 148.1,951.82 160.07,1080.4 34.03,365.64 65.51,755.61 140.32,1099.85 42.92,128.38 14.39,74.77 53.13,106.76 49.6,40.95 115.57,31.65 134.22,17.6zm-18.99 -64.91c5.07,-1.06 11.07,-6.72 16.53,-20.34l-16.53 20.34zm-300.17 -3376.32c-0.01,0.02 -12.88,-1.96 6.32,36.29l54.19 103.24c18.4,34.93 47,115.57 86.05,127.35 6.55,-40.2 -41.23,-112.08 -58.96,-147.64 -35.48,-71.16 -52.27,-132.23 -87.6,-119.24zm-1212.74 1316.1c15.56,-28.83 72.18,-528.09 64.33,-573.34 -23.42,25.66 -23.35,94.27 -28.17,134.95 -11.98,101.01 -45.52,362.27 -36.16,438.38zm-132.9 15.99c38.05,-52.7 37.67,-556.89 13.61,-589.45 -17.44,30.96 -10.36,507.8 -13.61,589.45zm-29.61 -419.7c-1.25,-30.67 1.53,-133.03 -15.84,-157.12 -19.77,48.64 -6.36,127.73 -10.77,185.91 3.25,-23.98 -12.76,-187.97 -28.2,-203.07 -14.45,25.41 9.2,286.53 12.05,337.4l27.17 340.4c23.28,-60.93 19.07,-81.36 20.48,-157.05l-4.88 -346.46zm-488.15 717.57c7.42,-2.01 38.94,-4.69 49.58,-1.55 14.05,41.65 13.63,139.46 -36.31,144.99 -71.74,7.95 -24.59,-112.62 -13.27,-143.44zm734.08 -364.22c30.62,-18.46 74.97,-72.38 104.42,-98.51 46.57,-41.3 30.68,-56.43 26.61,-163.31l-13.93 -294.78c-5.41,-79.15 2.91,-73.02 -25.67,-80.38 -15.48,10.66 -12.48,0.97 -16.42,67.72l-19.91 255.81c-12.12,113.94 -44.95,209.85 -55.1,313.46zm-285.33 -721.27c-11.32,118.18 -80.69,161.52 -111.05,129.8 -15.88,-16.59 -12.6,-121.8 111.05,-129.8zm-113.43 159.02c73.03,1.06 52.96,-8.86 94.46,-44.23 7.2,-6.14 4.39,-3.97 12.47,-9.65 7.65,-38.32 19,-38.83 25.07,-102.49 113.03,-3.81 286.75,33.95 389.57,71.96 56.94,21.06 105.78,46.41 159.07,76.18 94.31,52.69 147.12,126.54 142.99,61.34l-317.79 -788.72 -9.14 14.32c-2.72,5.9 -2.36,3.51 -3.65,9.35 -4.26,19.24 14.11,51.59 21.74,71.76l104.78 274.53c29.21,72.54 132.78,315.3 146.76,367.78 -34.34,-16.6 -63.48,-38.44 -98.73,-56.44 -32.14,-16.41 -66.14,-33.28 -102.22,-48.13 -98.05,-40.33 -434.21,-116.79 -503.57,-72.03 -74.46,48.05 -120.84,132.8 -61.8,174.48zm-5.52 817.5c133.01,-25.09 232.99,13.66 179.32,68.67 -23.59,24.19 -76.04,16.17 -107.36,2 -32.2,-14.56 -61.18,-36.12 -71.96,-70.66zm315.7 -1571.5c-9.43,26.28 -19.87,27.55 -35.75,46.64 -14.8,17.79 -24.55,30.39 -41.22,50.21 -139.3,165.62 -272.03,329.64 -391.19,511.71 -26.52,40.51 -46.51,67.64 -67.55,108.16 -16.05,30.88 -15.59,32.38 -13.65,75.93 8.92,201.16 68.27,581.12 166.89,726.5 27.56,40.61 27.15,11.91 37.65,52.3 10.11,38.84 6.65,33.74 34.61,58.48 19.35,17.12 23.94,28.79 52.19,39.45 116.78,44.09 231.53,-65.09 104.66,-125.95 -57.04,-8.9 -124.18,-11.04 -181.2,-0.58 -122.89,-229.48 -151.82,-418.83 -186.5,-681.93 -18.22,-138.3 -10.94,-114.87 52.45,-213.88 76.4,-119.33 160.75,-234.44 244.5,-337.47l129.32 -158.28c21.33,-28.53 117.48,-128.05 123.31,-163.72l-28.51 12.43zm116.7 695.3l-5.12 57.52 -114.32 -0.44c20.88,147.63 -44.61,529.79 -31.86,648.93 30.83,-47.28 51.61,-538.89 52.21,-630.81l94.8 -0.72c-4.9,227.59 -64.66,460.36 -79.33,693.73 -25.19,16.39 -47.27,26.66 -81.84,22.37 -41.68,-61.42 25.01,-676.13 47.02,-776.21l118.44 -14.37zm-316.51 7.42c6.98,25.54 -8.84,14.46 25.47,17.11l101.09 -12.02 0.68 49.68c-23.93,-2.57 -125.75,-4.88 -149.75,5.8 -15.77,7.04 -1.88,-4.25 -11.58,9.62 38.75,17.04 115.94,-5.79 156.91,-4.13 7.35,129.81 -3.41,273.12 -12.23,403.37 -4.67,68.89 -6.17,332.69 -76.12,331.1 -102.76,-2.32 -67.07,-708.75 -86.05,-740.46 -24.58,14.64 -7.07,5.92 -21.32,29.99 14.46,60.41 -20.33,353.59 32.81,616.35 14.97,74 9.03,133.41 99.6,110.12 10.75,-15.34 21.16,-23.6 32.1,-46.88 10.43,-22.22 12.45,-54.79 20.23,-68.55l9.76 106.28c-22.01,4.27 -35.78,0.77 -52.96,15.15 25.92,20.81 79.8,-4.48 107.09,-14.32 43.88,-15.82 69.02,-20.79 71.98,-64.43 10.12,-149 114.77,-629.04 83.47,-768.91 -28.13,-3.44 -58.2,1.24 -87.11,5.83 -61.36,9.75 -33.82,-11.84 -77.79,-7.08 -21.52,2.33 -50.74,13.48 -81.15,17.13 -27.34,3.29 -65.53,5.94 -85.13,9.23zm79.78 2707.05c9.19,-72.36 151.58,-34.64 174.59,-7.2 -47.75,20.04 -131.11,33.71 -174.59,7.2zm435.63 -32.38c34.32,5.1 121.72,27.37 152.4,51.62 -37.49,18.2 -144.62,-12.18 -152.4,-51.62zm-298.11 -825.02c0.08,313.72 7.53,491.26 26.39,807.91 -77.77,-13.44 -200.08,-34.85 -184.81,71.54 62.8,29.22 194.42,17.01 228.15,-35.52 -9.19,-32.14 -15.17,-14.33 -19.74,-71.58l-19.09 -268.76c-15.84,-433.4 1.59,-1021.36 6.28,-1458.25 29.75,39.7 84.76,341.24 95.86,415.13 23.34,155.42 37.16,305.13 47.35,461.01 15.81,241.56 26.47,463.13 65.75,701.49 6.22,37.77 13.86,73.52 19.59,110.8 2.72,17.67 7.35,40.35 7.92,57.89 1.06,33.15 -7.55,28.98 -4.75,58.29 15.88,33.03 195.53,101.47 216.65,20.16 -49.77,-66.35 -179.32,-33.7 -191.86,-105.18 -79.98,-455.83 -67.8,-961.8 -137.92,-1340 -17.92,-96.66 -70.78,-347.76 -110.49,-445.53l-15.22 -28.14c-26.36,39.07 -17.88,46.18 -18.41,113.22l-11.66 935.52zm-490.37 972.83c4.03,-17.96 5.13,-18.51 43.94,-38.38 54.5,-27.9 147.14,-79.69 207.44,-61.49 14.39,69.97 -141.95,116.59 -251.38,99.87zm-675.66 -121.23c8.2,145.44 -416.18,163.3 -137,30.27 129.02,-61.47 73.28,-1.45 137,-30.27zm-30.93 -20.68c-114.71,7.84 -262.16,108.38 -214.89,156.11 49.22,49.71 279.18,-49.29 266.25,-123.48 -10.3,-59.11 -41.81,61.36 -14.98,-213.6 44.56,-456.61 134.7,-895.11 180.28,-1323.79 7.55,-71.07 9.95,-156.01 22.67,-225.02l202.84 959.72c9.17,40.64 218.46,908.32 237.53,927.16 85.41,55.65 347.68,-44.33 295.78,-132.7 -45.64,-51.05 -248.06,75.12 -276.52,82.59 -95.64,-325.33 -179.88,-667 -256.51,-1007.23l-163.75 -778.68c-10.44,-53.23 -32.97,-245.22 -51.68,-268.63 -10.12,45.9 -10.98,189.63 -15.62,248.38 -19.69,249.53 -55.64,476.49 -95.01,722.48 -52.46,327.82 -94.53,639.58 -116.39,976.69zm2223.82 -2318.73c13.31,-11.99 89.27,-142.5 98.88,-165.47 18.43,-44.02 -1.1,-206.93 -4.69,-263.72 -10.34,-163.42 -6.88,-361.19 -26.65,-518.55 -21.64,-8.03 -79.6,20.21 -86.71,55.74l-49.8 420.74c-13.3,92.77 -26.65,184.03 -39.39,274.93 -8.94,63.75 13.95,70.48 42.73,106.33 24.98,31.14 42.08,62.37 65.61,89.99zm915.94 -652.93c78.62,101.82 -36.68,202.24 -132.26,157.15 -48.82,-23.04 -36.24,-81.43 -4.6,-113.7 32.65,-33.32 76.31,-43.13 136.86,-43.45zm-720.62 277.63c16.2,-62.44 53.52,-118.95 78.67,-177.06 32.66,-75.43 204,-408.8 254.34,-478.24 5.7,-7.86 8.34,-10.58 12.74,-16.8l563.35 47.99 -107.72 149.89c-37.32,49.57 -69.1,99.6 -105.13,150.1 -36.3,50.89 -32.73,19.5 -81.69,48.71 -167.65,100.04 -3.04,172.1 -84.54,236.36 -53.81,23.83 -440.63,38.11 -530.02,39.05zm149.56 -677.3c23.32,9.05 25.04,44.14 35.98,90.47 12.38,52.45 26.78,76.71 10.48,101.01 -29.07,-3.69 -24.9,-20.61 -41.28,-90.19 -12.49,-53.08 -25.08,-82.46 -5.19,-101.28zm42.22 -28.99c-1.66,1.13 -4.09,1.8 -5.56,2.28l-27.72 6.69c-41.73,10.1 -27.51,36 -56.11,41.36 -47.99,8.99 -40.29,-52.11 -26.72,-80.04 41.83,-86.16 135.07,-66.96 116.12,29.7zm-122.51 -178.31c33.01,-2.16 31.15,5.46 40.36,40.15 8.31,31.32 7.11,35.1 -20.28,44.93 -10.68,-22.95 -22.07,-52.82 -20.08,-85.08zm-19.94 -8.73c-11.78,57.67 27.37,100.2 19.25,129.86 -12.62,46.14 -50.16,61.82 -90.66,79.69 -185.9,82.02 -638.4,364.32 -653.58,369.78 49.77,-80.95 458.18,-528.68 448.63,-578.85 -1.14,-0.2 -3.11,-0.99 -3.47,0.32l-13.25 6.49c-8.75,7.89 -11.58,15.04 -16.93,22.59 -11.48,16.18 -18.45,25.45 -30.82,41.2l-327.24 398.85c-27.57,32.83 -114.33,124.74 -117.78,171.1l564.62 -332.41c49.25,-28.09 147.91,-78.35 203.83,-98.75 26.65,53.03 7.42,49.79 88.49,57.05 9.85,36.83 15.1,69.59 24.12,106.28 23.58,95.88 25.82,69.43 47.94,56.09 -11.33,34.8 -40.34,80.95 -57.24,114.63 -20.69,41.24 -38.45,76.14 -58.58,118.05 -28.28,58.9 -98.28,197.36 -105.35,258.51 83.89,2.85 531.3,-19.83 578.44,-46.17l31.22 -73.91c130.52,13.35 201.74,-55.48 188.2,-149.36 -5.43,-37.68 -24.82,-51.6 -58.6,-59.23 26.67,-53.57 81.95,-123.31 117.41,-172.35 22.26,-30.79 39.46,-54.33 60.55,-83.16 17.05,-23.29 54.53,-61.09 60.44,-91.02 -87.79,-7.46 -574.33,-52.4 -618.11,-47l-106.05 165.88c-25.73,-132.2 -40.76,-104.32 -12.56,-168.65 29.43,-67.13 -6.39,-107.65 -69.21,-127.66 -13.76,-28.79 -12.54,-56.56 -32.68,-81.57 -27.15,-1.44 -41.08,4.63 -61.01,13.72zm-616.05 3617.13c-5.72,-34.57 41.57,-56.35 76.55,-61.66 52.08,-7.92 94.8,-0.62 94.79,49.55 -34.4,23.22 -127.84,34.83 -171.35,12.11zm-635.9 -3440.69c12.79,28.33 51.13,100.11 55.49,122.44 20.43,104.4 -80.76,361.25 -83.61,462.71l181.49 51.71c-3.12,-96.69 -21.56,-213.44 -32.96,-311.66 -5.83,-50.19 -12.69,-101.74 -16.99,-152.47 -5.27,-62.31 -8.58,-57.62 20.76,-110.53l21.01 -28.09c6.93,-61.66 75.82,-25.11 -8.36,-136.63 -60.72,-80.45 -48.18,-20.73 -55.11,-65.19l22.22 -7.25c56.74,-8.99 79.34,8.62 194.29,-33.65 446.49,-164.21 493.86,-782.98 29.28,-1001.03 -26.53,-12.45 -66.95,-25.64 -89.76,-39.98 19.95,-29.64 49.75,-61.77 55.87,-109.83 -17.04,12.78 -68.69,88.74 -82.28,106.36l-115.94 -5.27c8.98,-39.47 35.04,-69.69 38.52,-110.63 -14.34,3.37 -4.98,-5.47 -20.25,13.98 -6.81,8.68 -11.58,20.91 -15.79,30.03 -31.27,67.61 -14.59,67.69 -166.14,101.02l-7.06 -92.34c-10.09,-35.17 -0.54,-15.81 -17.02,-23.03 -18.94,34.82 2.99,84.74 -1.84,124.28 -65.28,40.02 -139.71,37.6 -224.42,140.92 -11.43,13.94 -17.71,17.25 -9.05,36.6 19.88,-9.09 58.2,-72.91 121.12,-108.12 76.07,-42.58 98.42,-31.47 185.3,-50.28 -10.98,-18.11 -6.01,-6.44 -27.43,-17.63 104.94,-20.86 219.4,-24.43 315.26,12.87 83.74,32.57 164.71,90.57 212.41,140.39 283.45,296.08 135.94,792.14 -286.32,850.96 -103.9,14.47 -223.31,-5.53 -305.74,-42.3 -100.56,-44.9 -134.55,-91.5 -214.44,-144.69 -26.15,42.87 13.38,59.13 45.9,84.65 88.56,69.51 220.47,130.97 340.97,135.46 -1.47,62.34 3.27,53.92 -24.95,96.17 -14.94,22.36 -38.3,50.02 -34.42,80.07zm-943.91 -1212.76c185.27,-25.66 282.59,-14.95 421.37,75.77 105.86,69.21 184.94,168.24 222.07,294.45 130.42,443.3 -342.13,816.07 -786.67,558.2 -427.5,-247.98 -203.91,-752.57 -36.03,-849.63 106.77,-61.74 117.76,-38.69 196.69,-58.6 -3.79,-10.17 -10.67,-8.19 -17.43,-20.2z"/>
  <path class="fil2" d="M2793.72 1182c-9.75,56.77 217.27,143.03 289.33,149.51 25.82,2.33 29.12,-14.25 43.52,-36.85 14.25,-22.38 59.59,-87.87 64.67,-108.93 -13.47,-2.74 -71.32,11.81 -92.25,15.27 -28.88,4.77 -63.01,8.71 -94.93,9.24 -33.19,0.54 -65.27,-0.17 -100.34,-3.26 -30.55,-2.69 -98.94,-25.36 -110,-24.96zm39.54 31.8c19.94,-4.59 66.66,8.11 90.83,9.58 141.81,8.58 192.99,-17.56 239.38,-17.82 -9.36,24.23 -56.44,96.96 -73.01,108.3 -67.05,7.43 -201.82,-63.78 -257.2,-100.06z"/>
  <path class="fil2" d="M3161.7 1023.54c-81.3,21.5 -98.88,-99.8 -54.45,-150.94 72.18,0.83 82.71,100.55 54.45,150.94z"/>
  <path class="fil2" d="M2866.67 892.38c68.38,-11.8 95.05,102.98 63.41,129.73 -50.48,42.7 -91.38,-66.62 -63.41,-129.73z"/>
  <path class="fil2" d="M2776.96 784.62c33.92,-27.26 64.31,-51.84 126.68,-41.33 -6.28,18.35 0.78,13.41 -54.58,27.23 -24.2,6.04 -48.08,13.85 -72.09,14.09z"/>
  <path class="fil2" d="M3193.19 1149.51c4.79,26.25 21.62,-7.5 27.44,52.75 11.86,-12.75 11.16,-9.77 15.19,-28.65 -7.87,-11.65 -18.98,-29.18 -42.63,-24.09z"/>
  <path class="fil2" d="M3161.26 801.77c-30.22,-5.31 -96.13,-33.99 -112,-53.48 29.09,-15.58 101.27,26.9 112,53.48z"/>
  <path class="fil2" d="M2324.07 1494.54c-20.33,-11.86 -80.84,41.54 -209.56,38.48 -135.23,-3.21 -147.51,-75.94 -187.03,-79.91 9.97,72.46 126.54,103.02 181.83,103.88 50.92,0.79 145.53,-9.49 194.07,-39.28 18.96,-11.65 12.37,-5.7 20.7,-23.16z"/>
  <path class="fil2" d="M1260.31 1246.4c33.33,-1.99 42.38,-11.88 48.12,-47.11 4.96,-30.53 6.12,-62.74 -18.45,-69.77 -46.23,-13.26 -71.39,72.73 -29.67,116.88z"/>
  <path class="fil2" d="M1052.71 1115.89c-52.08,22.66 -57.14,138.69 -8.37,132.85 42.35,-5.08 65.66,-109.04 8.37,-132.85z"/>
  <path class="fil2" d="M1211.54 1050.81c16.4,27.7 84.24,28.84 117.88,36.36 -14.84,-25.14 -25.35,-27.27 -54.45,-35.74 -22.91,-6.64 -42.07,-12.56 -63.43,-0.63z"/>
  <path class="fil2" d="M984.55 1067.29c38.29,7.83 112.61,4.15 149.1,-15.85 -51.76,-13.61 -112.18,-16.95 -149.1,15.85z"/>
  <path class="fil3" d="M1766.63 1136.36c45.36,-2.76 96.99,1.45 143.43,1.46 46.4,0 89.02,-7.73 134.42,-8.21l-20.82 147c-54.47,7.89 -144.42,17.38 -197.04,6.07 -37.22,-8.01 -48.93,-10.5 -54.91,-47.91 -5.02,-31.44 -3.59,-66.02 -5.08,-98.41zm-11.19 -19.5c-9.47,12.58 -6.82,11.21 -9.82,26.91 -11.66,-7.15 -30.8,-22.11 -47.04,-37.47l-8.06 28.38c1.47,1.75 3.16,3.67 5.22,5.75 78.28,79.7 29.82,10.02 53.89,106.45 16.43,65.9 80.7,64.58 155.28,63.8 75.71,-0.78 135.53,1.93 148.07,-71.49 6.03,-35.28 -0.94,-62.88 35.36,-72.6 48.56,-13.02 74.6,11.37 84.82,2.27 34.16,-51.78 -93.78,-18.92 -112.52,-16.99l9.1 -44.86c-52.3,0.83 -100.64,9.86 -154.5,9.97 -52.82,0.1 -107.31,-2.63 -159.8,-0.13zm805.23 -78.61c-6.49,8.43 -13.29,16.46 -19.71,24.25 -9.97,12.1 -11.79,16.05 -20.27,26.24 -10.22,12.26 -12.63,10.81 -23.08,20.51 -5.88,-7.46 -16.69,-40.18 -25.01,-53.06 -47.9,7.56 -95.05,17.9 -145.7,23.48 -57.04,6.28 -101.82,0.57 -144.16,21.66 -2.02,31.19 1.9,63.29 4.36,93.89 1.25,15.55 2.4,32.57 4.57,47.05 3.34,22.31 1.08,22.46 17.33,29.22 10.85,-12.3 5.49,2.54 7.62,-20.41l-5.56 -62.71c-2.7,-26.05 -5.77,-54.56 -6.41,-80.66 48.21,-2.14 88.07,-1.88 136.48,-7.65 31.67,-3.79 91.56,-16.79 117.15,-16.07 14.87,22.05 25,114.24 21.8,144.3 -72.84,40.31 -229.5,13.59 -256.92,32.95 8.21,13.43 8.05,11.81 27.61,14.54 57.1,7.95 170.03,-1.57 226.56,-19.4 61.63,-19.45 8.32,-90.23 23.21,-120.87 22.11,-24.43 56.14,-57.1 74.84,-88.52 -6.84,-3.2 -11.05,-5.6 -14.72,-8.73z"/>
  <path class="fil4" d="M899.78 1381.55c34.54,8.33 64.73,25.62 96.23,37.73 66.21,25.44 127.78,41.66 196.54,58.61 56.65,13.95 83.29,6.7 91.51,30.96 -34.5,18.39 -169.44,-29.11 -208.81,-41.91 -32.67,-10.62 -60.99,-21.21 -93.7,-33.57 -39.99,-15.14 -71.24,-23.95 -81.77,-51.83z"/>
  <path class="fil5" d="M2308.73 1194.24c15.19,-85.55 -54.13,-83.75 -66.73,-23.41 -16.23,77.82 53.39,98.64 66.73,23.41z"/>
  <path class="fil5" d="M1919.74 1265.78c33.88,2.75 48.77,-7.35 55.81,-37.25 7.68,-32.59 0.83,-49.95 -18.36,-69.37 -50.37,4.04 -59.35,68.03 -37.45,106.63z"/>
  <path class="fil3" d="M1866.79 1088.85c28.29,-4.91 46.55,-16.21 72.88,-24.43 20.57,-6.41 48.18,-11.02 67.55,-18.27 -7.15,-6.33 1.86,-5.62 -19.44,-8.86 -34.97,-5.3 -106.66,19.93 -120.99,51.55z"/>
  <path class="fil4" d="M2246.23 1029.39c10.23,12.8 15.33,11.87 50.13,14.78 21.91,1.83 45.07,2.02 64.35,-1.11 -4.9,-5.44 3.15,-8.09 -22.97,-14.08 -22.99,-5.28 -75.68,-11.91 -91.52,0.41z"/>
 </g>
</svg>
