<?xml version="1.0" encoding="UTF-8"?>
<!DOCTYPE svg PUBLIC "-//W3C//DTD SVG 1.1//EN" "http://www.w3.org/Graphics/SVG/1.1/DTD/svg11.dtd">
<!-- Creator: CorelDRAW 2020 (64-Bit) -->
<svg xmlns="http://www.w3.org/2000/svg" xml:space="preserve" width="91.4399mm" height="60.9599mm" version="1.1" style="shape-rendering:geometricPrecision; text-rendering:geometricPrecision; image-rendering:optimizeQuality; fill-rule:evenodd; clip-rule:evenodd"
viewBox="0 0 9143.98 6095.98"
 xmlns:xlink="http://www.w3.org/1999/xlink"
 xmlns:xodm="http://www.corel.com/coreldraw/odm/2003">
 <defs>
  <style type="text/css">
   <![CDATA[
    .str0 {stroke:#2B2A29;stroke-width:35.28;stroke-miterlimit:22.9256}
    .fil0 {fill:none}
    .fil1 {fill:black}
    .fil2 {fill:#0B0B0B}
   ]]>
  </style>
 </defs>
 <g id="Слой_x0020_1">
  <metadata id="CorelCorpID_0Corel-Layer"/>
  <rect class="fil0" x="-0" y="-0" width="9143.98" height="6095.98"/>
  <path class="fil1" d="M4340.68 3661.83l479.67 20.01 61.31 2188.26c-159.44,1.36 -343.54,16.08 -493.15,-6.41 -24.58,-35.06 -18.45,-86.32 -17.13,-125.69 11.29,-339.29 -25.15,-640.96 -27.68,-968.12 -1.8,-230.23 -31.67,-938.58 -3.02,-1108.05zm541.49 665.12l4.04 -29.72c11.4,-745.28 64.27,-638.06 -580.24,-656.99 -11.63,344.61 -30.16,789.17 9.54,1127.73 29.06,247.98 2.83,991.67 30.58,1104.33 146.36,41.62 404.61,19.27 570.72,17.51l-34.64 -1562.86z"/>
  <path class="fil1" d="M5762.65 4613.98l485.65 16.13c56.67,193.66 33.96,407.65 37.75,615.87 3.95,215.91 14.05,422.94 19.11,639.37l-504.78 -8.19 -37.73 -1263.18zm-27.63 -21.25c-33.01,322.47 13.12,654.34 30.26,975.68 5.91,110.62 -1.54,224.52 4.82,337.33l576.93 5.82c-5.67,-134.91 -15.94,-1181.4 -75.39,-1312.77l-536.62 -6.06z"/>
  <path class="fil1" d="M5061.44 4166.85l485.2 14.37c45.3,103.08 68.42,1455.9 65.55,1684.15l-513.23 -1.39c-7.28,-287.88 -26.85,-570.77 -30.94,-839.49 -4.27,-279.69 5.74,-581.66 -6.58,-857.64zm8.57 1714.84c139.46,16.85 436.24,34.76 553.08,1.65l4.6 -411.97c-3.48,-274.53 3.46,-1159.45 -53.28,-1298.79 -83.3,-28.06 -448.02,-38.97 -538.03,-20.48 -29.63,273.01 7.1,581.08 11.92,853.62 4.82,272.24 -0.71,609.07 21.71,875.97z"/>
  <path class="fil1" d="M7094.99 5941.58l-41.13 -919.04c-44.89,47.9 -19.6,67.43 -15.82,99.29l18.13 792.46 -503.91 -10 11.59 -220.25c-31.06,35.66 -23.06,7.99 -35.08,70.64l8.08 183.86 558.14 3.04zm-578 -922.01c139.24,-10.69 356,26 481.8,-23.42l-506.56 -8.69c2.85,126.63 0.2,247.81 4.99,375.6 4.48,119.64 -3.6,248.95 45.7,318.72l-25.93 -662.21z"/>
  <path class="fil1" d="M6877.88 4679.91c43.59,29.77 86.07,51.73 120.96,96.61 -146.31,40.83 -142.06,8.42 -263.62,5.17 32.48,24.53 -3.34,19.18 61.73,30.48l213.02 10.5 64.6 -45.94c-28.38,-45.97 -16.67,-19.56 -97.83,-79.03 -0.53,-0.38 -45.91,-33.76 -49.12,-35.18 -28.25,-12.6 -35.84,4.21 -49.74,17.39z"/>
  <path class="fil0 str0" d="M2280.18 1997.6c156.77,109.97 1860.04,1083.69 2018.44,1214.35 105.24,86.8 1353.05,616.75 1587.12,826.46 147.67,132.29 785.08,532.89 836.04,596.24 38.63,48.03 226.58,168.06 277.07,141.88"/>
  <path class="fil2" d="M5684.69 3704.39c27.49,-28.23 26.14,-83.6 -22.35,-72.37 -33.13,7.67 -38.8,73.28 22.35,72.37zm-1813.79 -2478.16l-7.63 8.97c-5.63,-1.44 -4.74,-2.75 -8.63,-5.72l16.26 -3.25zm3120.87 1197.96l14.83 19.68c-20.25,-10.47 -6.08,8.93 -14.83,-19.68zm-2315.3 -1862.96c-1.12,-1.14 -3.7,-4.28 -3.57,-3.2l2.8 -12.25c5.66,9.97 15.48,-13.15 0.77,15.45zm1021.88 3154.89l-4.32 16.06 27.51 11.64c17.97,-48.88 110.73,-221.7 145.88,-286.54 12.54,-23.11 37.8,-77.56 55.1,-90.55 12.7,23.08 2.71,25.55 -12.1,50.75 -36.95,62.83 -162.13,299.41 -170.82,339.63 26.9,22.77 76.41,52.08 108.72,71.16 158.38,93.55 359.63,226.57 522.45,327.53 68.14,42.25 142.17,95.94 209.37,130.42 3.44,-3.26 7.28,-6.63 10.35,-10.22l606.99 -1033.43c-20.7,-6.52 -90.51,-50.46 -111.87,-63.88 -200.79,-126.19 -349.91,-207.99 -563.39,-318.57l-223.35 -126.02 -42.48 89.85c-12.79,4.5 -9.68,3.74 -17.92,1.94 -6.99,-19.64 27.05,-56.07 47.87,-100.07 -3.21,-5.01 -6.39,-13.56 -11.45,-20.17 -22.09,-10.4 -9.65,-9.52 -37.03,-14.54 -25.46,-4.66 -20.36,0.12 -39.14,-14.38l5.72 -17.14c-5.41,-8.26 -4.79,-1.56 -15.54,-7.17 -24.52,-25.08 -35.58,-45.96 -34.94,-92.6 -11.29,-5.36 -12.29,-4.06 -28.09,-8.55 -4.06,33.36 12.62,47.08 23.64,74.53 -63.3,-34.65 -1.72,-49.3 -88.31,-103.69 -14.16,-8.89 -5.81,-1.85 -19.8,-13.86l-19.23 -19.46c-11.76,-2.44 -2.69,0.64 -16.38,-6.89l-58.27 -43.99c-25.18,-17.34 -120.83,-101.68 -135.74,-125.44 -54.2,-86.35 -178.73,-399.93 -185,-407.16 -3.43,-3.96 -11.18,-1.97 -24.97,-36.13 -4.3,-40.92 -6.36,-120.69 -14.3,-155.01 -7.46,-32.22 -14.97,-24.2 -37.73,-45.58 -246.6,-231.7 -124.66,-567.85 189.02,-628.5 -31.65,-25.26 -120.89,-77.5 -156.34,-92.35l-14.52 -13.92c36.56,-5.67 11.22,-2.5 21.35,5.26 29.83,5.57 117.5,62.74 147.77,81.03 25.44,15.36 137.22,39.1 175.31,46.08 -47.24,-44.76 -237.62,-132.76 -262.24,-165.46 73.47,16.46 345.49,195.59 386.6,237.43 172.72,175.78 106.05,435.22 56.02,458.53 -71.19,7 -195.01,-92.36 -352.88,-55.86 -87.92,20.32 -48.44,84.94 -6.91,113.57 25.64,17.67 118.23,64.38 128.51,86.78 -111.31,29.13 -172.44,-10.92 -257.21,-30.93 7.79,109.39 25.71,140.03 72.4,223.49 107.71,192.53 183.74,332.18 345.91,483.88 14.17,16.35 28.8,21.2 35.69,41.03l10.73 -3.74c13.39,22.25 -2.5,3.07 14.99,20.35 4.77,4.71 13.82,9.57 16.36,11.34 23.89,35.21 34.23,35.42 60.43,61.88 15.03,12.78 27.37,22.53 46.25,36.84 18.12,13.74 30.24,13.12 53.77,22.27 36.96,23.9 62.44,44.41 100.59,67.91 38.55,23.75 65.75,60.73 109.64,37.84 23.25,-12.12 155.82,-78.59 168.54,-96.66 17.72,-25.19 -3.8,-50.1 32.24,-58.11 -20.83,75.69 -21.84,77.07 -85.33,114.68l-97.91 48.68c-9.44,4.5 -5.67,2.17 -13.92,7.23 -9.27,5.68 -6.66,3.69 -12.49,9.81l714.89 402.79c36.79,54.85 195.61,66.92 104.13,157.9 -20.23,-9.23 -18.4,-4.11 -33.84,-23.6 -1.23,1.47 -2.44,3.68 -3.08,4.86l-13.75 34.97c-6.34,17.75 -7.64,20.51 -20.66,33.43 -29.71,29.45 -51.43,20.34 -70.19,34.12 -27.29,20.03 -409.08,689.82 -463.01,787.27l-73.78 126.3c-4.38,2.97 -8.17,7.25 -10.92,13.28 -426.02,-263.02 -956.2,-592.36 -1133.24,-703.32 -83.38,-53.79 -165.61,-104.5 -250.87,-157.21 -323.28,-199.85 94.7,52.37 -158.42,-105.95 1.05,-1.76 1.95,-3.58 2.66,-5.5 19.88,8.53 38.52,16.02 55.63,22.28 -9.79,-27.78 -10.79,-42.94 -2.57,-69.03 33.98,-10.78 60.39,-2.89 81.15,17.39 35.78,84.89 6.64,77.08 -16.19,95.3 52.16,30.2 100.1,66.24 153.54,92.55 31.33,-70.6 -0.08,-28.7 62.95,-66.18 -13.26,-14.29 -175.28,-120.66 -199.88,-128.3 -0.48,-1.49 -2.1,-10.4 -5.77,-18.82 32.04,9.92 220.44,135.71 259.69,162.36l257.5 161.04c-28.65,-57.87 -66.47,-69.45 -118.06,-104.88l-262.12 -181.08c-70.25,-50.72 -78.3,-44.76 -142.78,-46.6l-18.5 -2.46c-1.2,-2.15 -4,-0.7 -5.8,-1.58 5.53,-4.36 16.82,-8.13 23.52,-10.95 72.44,-17.07 218.8,90.63 261.75,125.58 15.27,-1.6 8.07,-1.88 18.42,-6.26 1.59,-0.77 7.87,-2.93 8.19,-4.12 0.5,-1.78 2.55,-1.68 3.99,-2.16 10.29,50.12 -16.09,32.52 28.98,35.75 16.41,52.25 112.22,94.09 156.24,122.97 74.66,48.99 84.56,158.81 46.4,185.01zm-1741.78 -2458.17c-11.11,-10.42 -18.61,3.51 -3.16,-16.87l3.16 16.87zm2757.93 579.58l-21.35 -8.68c35.87,-4.45 10.09,-2.45 21.35,8.68zm-2105.1 -239.51c1.52,11.1 -10.75,9.19 -9.64,-0.94 0.01,-0.03 7.89,-11.82 9.64,0.94zm409.48 -588.91l1.95 -21.53c12.49,11.02 3.45,19.29 -1.95,21.53zm-980.53 266.31c-0.39,28.07 -9.36,7.27 -8.4,2.89 2.72,-12.3 8.47,-8.35 8.4,-2.89zm1623.02 1000.27c4.82,-14.54 -4.87,-9.85 5.06,-14.91l33.11 191.65c-1.99,22.36 3.35,9.07 -10.93,21.47 -13.35,-34.57 -15.81,-89.11 -24.36,-130.1l-2.88 -68.11zm544.09 151.46c-0.41,7.76 -15.79,26.09 -9.54,2.7 3.41,-12.76 9.94,-10.14 9.54,-2.7zm706.44 -323.37c-10,13.11 15.93,8.61 -21.42,15.38 6.52,-7.32 1.81,-3.79 11.93,-11.56 5.91,-4.54 0.21,-0.65 9.49,-3.82zm224.92 84.77c-0.02,0.31 -7.05,14.97 -9.76,-1.27 -1.05,-6.31 11.14,-28.71 9.76,1.27zm-2983.93 -973.18l-12.73 18.43c-1.51,-18.07 -4.6,-5.83 -0.39,-16.89l5.49 -9.86c-0.85,-25.1 -0.84,-29.49 10.42,-48.64 3.54,5.29 12.18,-16.62 5.44,23.77 -2.36,14.19 -6.06,14.86 -8.23,33.19zm2969.39 1812.12c-5.99,25.12 0.75,15.24 -16.5,20.95 9.34,-32.81 -1.06,-11.75 16.5,-20.95zm-2149.97 -2047.4c15.08,18.4 -10.28,29.27 -14.56,33.32l14.56 -33.32zm618.57 2185.93c-0.08,0.06 15.02,28.9 -20.07,1.52 19.02,-12.25 2.74,-7.34 20.07,-1.52zm1533.04 -399.79c-9.78,18.63 -5.66,17.47 -26.56,8.95 11,-10.83 11.52,-9.02 26.56,-8.95 -9.22,-5.11 -2.36,-4.62 -8.9,-15.02 56.53,13.71 102.04,54.39 151.83,69.61 -1.16,1.61 -3.39,1.82 -3.73,4.64l-8.58 19.08c-1.28,6.24 -1.37,20.93 -3.02,30.74 -27.37,7.82 -119.94,18.63 -150.98,11.67 -37.48,-8.41 -6.46,-0.2 -21.66,-9.78 36.64,-3.73 138.62,2.25 167.18,-19.91 -9.51,-20.47 -5.82,-18.59 -33.79,-16.45 -15.87,1.21 -33.18,4.25 -49.6,5.69 -34.43,3.01 -74.67,4.87 -104.85,0.54 20.45,-11.77 64.26,-11.91 90.24,-14.23 31.2,-2.8 63.46,-3.15 93.96,-6.43l-118.1 -60.15zm-2470.32 -1115.75c-23.79,-12.73 -18.24,-5.65 -32.33,-31.07 16.53,8.5 19.85,12.84 32.33,31.07zm2792.43 1086.98c-11.75,22.29 -44.73,10.43 -33.39,3.53l24.72 -37.7c-2.68,-66.18 46.08,-577.07 57.86,-649.39 -6.71,-3.93 -0.94,-2.61 -14.85,-6.03 -1.49,-0.36 -11.61,-0.06 -13.9,0.02 14.52,-47 14.31,2.55 7.01,-19.31 -3.8,-11.38 -56.56,-22.6 -69.2,-26.52 -59.68,-18.5 -692.08,-215.01 -697.83,-230.02 -0.83,-2.17 -3.04,-1.84 -4.48,-2.88l401.36 123.25c66.1,20.19 132.27,41.71 198.68,63.46 36.07,11.81 187.31,44.99 198.52,77.2 0.64,1.84 2.89,8.35 3.39,10.56l-57.89 693.83zm-3224.78 -1426.12c6.53,-27.55 -3.67,1.37 14.23,-12.98l-7.3 31.57c-9.13,-11.71 -15.65,18.24 -6.93,-18.59zm2498.29 1353.64c-18.41,-8.96 -0.29,6.38 -17.52,-10.97 -6.02,-6.08 -6.57,-8.43 -12.81,-18.14l31.76 18.43c21.56,8.3 14.82,0.35 27.6,28.81 -10.31,-2.58 -4.89,2.39 -15.89,-3.98 -14.86,-8.6 -6.85,-3.19 -13.14,-14.15zm-557.22 -146.78c-24.09,-2.58 -15.73,-3.71 -33.38,-17.49 9.64,0.18 13.74,-1.89 21.57,2.19 15.91,8.29 7.63,0.76 11.81,15.3l15.38 -5.98c-14.6,-14.24 -5.47,-5.33 -21.38,-15.87 -12.9,-8.55 -12.38,-11.85 -27.94,-12.33l0.76 -10.96 15.88 -1.62c6.06,10.58 0.13,4.61 11.54,10.93 27.93,-3.89 46,-27.92 61.85,12.93l-20.43 8.91c25.01,12.2 22.48,9.91 34,36.13 -17.46,-0.21 -29.26,-0.13 -46.19,-4.59 -47.9,-12.65 -15.32,-1 -23.47,-17.55zm-2052.64 -1225.77c3.26,-28.66 -1.61,-17.84 18.32,-30.22 -3.47,23.7 2.13,21.06 -18.32,30.22zm3069.75 803.86c-3.61,22.31 9.88,14.13 -16.55,26.59 -2.11,-24.41 -2.51,-18.69 16.55,-26.59zm-184.39 147.41c3.26,-2.36 -9.62,-11.32 38.58,-3.34 -9.52,6.56 -3.94,7.74 -23.28,8.63 -11.29,0.53 -13.12,-4.43 -15.3,-5.29zm-490.67 268.48l24.03 6.69c-7.54,15.36 -3.69,25.24 -21.42,8.65l-52.34 -14.54c-7.24,-23.48 8.65,-17.64 -8.3,-23.93 -19.76,-7.31 -3.45,3.06 -23.09,-0.28l-9.98 -3.93c28.67,-10.52 71.51,2.73 91.1,27.34zm78.95 43.52l21.4 6.24c-14.99,14.93 -8.11,10.36 -30.75,15.59 -5.94,-5.08 -5.31,0.24 -9.51,-11.38 -0.31,-0.85 -3.73,-20.31 -3.79,-20.72 30.14,4.02 15.38,4.17 22.65,10.27zm-1551.21 -1677.19c-16.21,-16.77 -8.46,20.59 -12.77,-16.68 -5.48,-47.38 -2.13,-8.81 8.02,-20.59l4.75 37.27zm2161.48 1249.39c-11.87,-18.1 -8.22,-22.77 0.3,-38.27 11.99,15.67 11.4,18.78 -0.3,38.27zm-388.07 1903.66c-10.62,20.38 5.95,10.43 -17.66,29.56 -15.52,-29.11 1.18,-22.62 17.66,-29.56zm-2892.42 -2870.7l3.31 -45.91c14.34,14.59 13.74,-20.46 10.55,19.64 -1.06,13.39 -12.08,23.82 -13.86,26.27zm831.03 584.3c-20.66,-10.54 -33.68,-17.73 -40.45,-41.04 20.63,13 25.37,13.46 40.45,41.04zm2458.83 460.75c-20.05,25.44 -33.57,1.21 -44.37,-12.07l39.33 10.38c0.63,-1.63 3.41,0.98 5.04,1.69zm-2909.02 -944.68c-6.02,-24.91 -10.07,-37.46 1.46,-59.34 4.76,5.99 4.52,-2.2 7,13.15l-8.46 46.19zm679.64 -359.37l-14.9 -29.55c-4.38,-31.67 7.09,-33.79 8.73,-35.8l6.17 65.35zm-635.29 706.72c-34.91,-6.33 -34.6,-7.88 -52.47,-29.16 28.58,6.4 35.45,9.57 52.47,29.16zm-82.28 -371.22l8.44 -50.84c5.81,6.62 16.95,-16.44 8.54,25.72 -2.7,13.51 -9.91,18.04 -16.98,25.12zm2856.34 863.06c11,-9 8.28,-11.6 19.4,-12.65 22.73,-2.14 18.39,10.2 18.83,10.68 -9.68,6.19 -19.23,8.56 -30.06,12.54 -10.93,-5.27 -4.51,-6.78 -8.17,-10.57 -65.62,-16.07 -32.22,9.6 -74.06,-12.7 -58.98,-31.41 -53.19,5.29 -65.61,-27.72 -31.83,-3.24 -5.52,-1.87 -30.66,-10.41 -15.74,-5.35 -3.8,2.28 -26.01,-7.72 -23.18,-10.43 -27,-10.38 -50.44,-18.24 6.89,-4.12 -0.09,-5.26 15.53,-7.03 23.63,-2.66 9.78,0.49 15.4,2.68 18.83,7.33 -4.43,5.73 27.02,13.04 14.9,3.45 12.52,-2.77 31.96,8.71 30.17,17.82 6.77,-0.66 17.2,18.97 45.23,-1.68 56.14,5.69 83.36,27.4l20.14 -13.18c22.05,13.51 21.85,4.43 36.17,26.2zm-2095.11 -1189.09l-2.22 -23.44c10.27,11.92 2.69,-17.14 11.03,17.42l0.51 59.12c-9.78,-9.44 -2.23,20.88 -11.36,-17.17l2.04 -35.93zm-742.48 389.16c7.25,-11.02 2.14,-3.69 14.61,-10.47l-19.39 57.76c-0.46,-0.6 -25.7,-0.98 4.78,-47.29zm407.8 -612.53c-2.37,-33.62 -2.49,-38.52 8.49,-64.64 4.55,5.14 16.35,-9.27 6.27,28.91 -3.13,11.85 -11.04,28.47 -14.76,35.73zm-629.97 497.91c-2.96,-29.71 -4.96,-43.52 11.75,-66.32 12.49,15.66 -2.29,51.41 -11.75,66.32zm676.87 -451.08c-2.41,-21.74 -7.52,-55.5 6.94,-74.4 12.12,19.81 2.48,58.92 -6.94,74.4zm56.17 972.85c0.57,-1.44 0.33,-13.99 20.23,-3.24 -10.5,20.84 -3.17,16.03 -30.93,14.52 -9.43,-21.7 6.02,-10.45 -12.98,-31.2 37.7,-0.89 14.7,-11.52 23.68,19.92zm2225.72 459.3c-19.9,-1.82 -53.67,-22.34 -63.6,-42.72 23.41,8.43 26.74,19.32 44.54,23.31 24.27,5.43 22.05,-16.55 19.06,19.41zm-2239.9 -1245.28c-14.67,-15.43 -17.47,-25.6 -6.84,-62.39 9.66,-33.45 0.52,-7.32 9.97,-21.28l-3.13 83.67zm-120.97 -335.22l-8.75 -74.94c32.72,23.94 -3.32,-22.4 14.89,13.66 10.99,21.75 4.88,46.91 -6.14,61.28zm55.28 264.29c0.53,-16.23 2.31,-25.66 3.44,-41.95 3.49,-50.12 5.41,-34.87 12.71,-43.9 5.05,41.67 1.12,57.94 -16.15,85.85zm2429.22 1436.78c-30.2,-0.98 -72.69,-25.13 -90.52,-37.79 22.53,2.44 28.82,7.53 49.49,14.94 51.8,18.58 30.82,9.72 41.03,22.85zm-3476.58 -1251.38c2.63,-44.06 6,-80.21 34.97,-94.11l-34.97 94.11zm2604.7 1453.72c-32.77,-10.23 -64.28,-29.21 -82.65,-51.9 28.46,14.55 59.53,18.77 82.65,51.9zm439.77 -784.57c-8.22,9.23 -4.17,7.34 -18.48,15.41l-49.87 23.16c10.48,-30.75 31.44,-37.51 68.35,-38.57zm-1139 562.47c1.95,-13.5 4.49,-25.21 7.14,-36.83l11.99 -28.05c15.51,29.2 10.73,52.18 -19.13,64.88zm-155.94 770.14c-33.17,-12.13 -62.66,-36.57 -86.44,-55.93 17.98,2.84 76.41,33.61 87,51.33 43.12,8.56 96.74,50.45 136.22,73.15 28.05,16.13 110.13,68.18 134.17,73.29l66.75 45.17c46.6,28.2 165.68,106.55 200.12,116.28 15.62,24.08 294.39,176.35 329.12,196.87 35.06,20.71 86.87,41.11 98.3,76.21l-89.6 -56.68c-34.65,-19.73 -63.25,-37.11 -95.41,-54.03 -68.12,-35.83 -122.85,-70.78 -189.38,-109.27 -89.38,-51.71 -338.15,-210.23 -379.01,-222.49 -14.98,-22.08 -173.77,-103.78 -211.84,-133.9zm-616.35 -2227.69c-8.3,-16.14 -16.26,-60.94 -5.25,-77.95 17.35,22.99 16.59,51.45 5.25,77.95zm-716.69 257.07c-23.73,11.62 -102.48,-33.08 -118.4,-48.08l118.4 48.08zm2230.66 1396.22c-25.69,16.55 -3.2,11.62 -37.31,-10.52 -19.56,-12.7 -21.69,-6.83 -38.72,-25.67 15.9,0.65 25.55,6.08 38.26,11.51 47.49,20.3 29.12,11.06 37.77,24.68zm-1542.3 -776.79c-45.14,-19.81 -10.59,-6.89 -40.06,-39.51 -20.5,-22.7 -20.5,-7.97 -30.62,-41.65 19.73,12.39 64.08,61.22 70.68,81.16zm2412.38 1332.92c-26.43,37.32 -20.9,48.77 -50.94,64.42 4.06,-20.97 7.07,-24.9 17.85,-44.78 13.88,-25.59 4.77,-22.61 33.09,-19.64zm-1885.35 -1172.4c9.69,7.72 -7.33,56.34 -12.96,72.51 -10.94,31.4 -3.19,9.32 -11.02,21.22 -1.02,-39.14 0.29,-67.71 23.98,-93.73zm-1100.22 -548.5c-8.86,-7.27 -27.07,17.81 -8.21,-55.21 5.11,-19.75 10.54,-38.2 16.88,-50.49l-8.67 105.7zm2914.41 1013.83c-31.24,-3.82 -94.47,-26.11 -118.26,-38.31 20.4,-0.82 40.65,5.6 61.99,11.48 71.69,19.77 41.4,9.22 56.27,26.83zm1.67 411.15c-2.31,-30.11 -6.59,-67.04 4.38,-93.78 4.52,4.85 13.19,-14.76 9.17,47.83 -2.99,46.61 -7.21,37.1 -13.55,45.95zm97.21 294.89c-14.88,33.81 -22.28,58.26 -54.12,74.58 0.75,-22.75 7.07,-25.31 19.95,-42.61 19.59,-26.28 8.48,-27.86 34.17,-31.97zm-2314.29 -2192c15.74,10.8 -3.49,47.1 -9.74,63.79 -12.81,34.18 6.97,35.64 -28.44,65.3l18.37 -67.28c23.79,-51.28 -0.61,-33.79 19.81,-61.81zm623.55 2467.86c-5.75,-23.17 -3.43,-15.96 9.44,-38.24 16.79,-29.05 4.85,-23.81 36.87,-30.68 -9.77,33.06 -20.86,60.7 -46.31,68.92zm720.04 -595.33c-9.76,21.3 -10.89,29.73 -23.39,51.87 -26.08,46.21 -14.61,29.92 -36.32,38.71 5.22,-25.15 27,-62.18 37.99,-76.47 9.67,-12.59 4.12,-9.07 21.72,-14.11zm-208.65 -1253.52c-12.34,28.27 -52.32,15.91 -78.56,3.44 -27.12,-12.9 -11.12,-0.91 -22.53,-21.45 24.13,3.34 30.02,10.21 49.64,13.85 24.69,4.58 33.57,-3.66 51.45,4.16zm35.22 -185.07c-58.16,-42.93 11.07,-26.21 -90.91,-34.59 -15.84,-1.3 -10,-1.48 -16.2,-3.78 23.26,-28.62 96.22,-11.76 108.34,20.27 10.75,28.37 1.09,11.09 -1.23,18.1zm32.41 1671.4c4.99,-24.69 15.87,-42.12 26.11,-60.43 10.88,-19.47 20.46,-41.04 39.04,-48.82 8.8,26.1 -39.85,91.5 -65.15,109.25zm813.24 -1134.64c-43.32,-4.72 -131.65,-38.34 -162.5,-55.98 23.63,1.59 122.07,27.03 146.3,40.7 20.04,11.31 7.63,4.62 16.2,15.28zm-2370.58 -323.92c-13.68,11.4 23.71,20.13 -26.74,9.11l-128.15 -68.6c38.36,-1.17 111.6,48.93 154.89,59.49zm1864.51 496.51c-35.79,-9.39 -48.03,-26.12 -78.07,-45.11 -27.64,-17.46 -53.06,-31.32 -72.61,-48.43 46.99,13.34 128.84,58.3 150.68,93.54zm973.96 130.52c-41.28,-4.46 -138,-33.08 -167.5,-52.38 35.09,2.21 148.69,24.01 167.5,52.38zm-3038.02 -1579.84c-7.23,-30.31 -8.17,-63.98 -6.18,-95.18 1.19,-18.61 3.06,-26.76 9.98,-43.24 8.11,-19.31 -0.45,-6.39 9.49,-17.68 15.52,-17.63 5.48,-5.31 18.68,-13.44 -8.69,46.91 -37.22,116.07 -31.97,169.54zm3212.44 1591.15c-4.47,-29.44 0.92,-59.48 -4.23,-88.05 -7.38,-40.92 -19.97,-21.35 -30.31,-51.83 59.07,6.63 63.06,111.28 34.54,139.88zm49.54 12.26c-7.88,-139.79 -2.91,-72.76 -24.62,-147.36 -2.16,-7.42 -0.34,-7.72 0.8,-12.31 17.19,9.47 1.45,-7.63 17.07,14.05 1.05,1.46 8.04,17.28 8.82,19.42 14.15,38.95 14.64,88.19 -2.07,126.2zm-3004.91 -669.27c-32.18,-7.26 -162.59,-74.18 -182.69,-93.08 26.71,1.16 168.31,70.54 182.69,93.08zm2538.47 932.02c-32.75,0.32 -175.77,-49.01 -199.87,-64.12 60.3,2.2 153.93,40.12 199.87,64.12zm-2356.5 -1906.07c-30.91,-12.9 -53.91,-43.07 -75.9,-64.23 -22.11,-21.26 -57.6,-43.57 -75.76,-71.73 39.16,12.19 135.2,101.97 151.66,135.96zm1985.04 2132.03l106.05 -1.34c-5.13,9.46 4.97,14.67 -43.25,16.05 -36.84,1.06 -117.27,0.9 -145.58,-10.24 22.19,-12.55 44.26,-5.71 82.78,-4.47zm-2299.73 -2049.32c1.48,-62.67 12.44,-133.25 26.95,-186.49 7.57,10.08 7.81,0.36 8.35,20.23l-20.35 138.51c-7.24,31.4 -4.29,15.56 -14.95,27.75zm1863.56 1942.93l-2.56 17.82c10.68,3.44 18.19,7.07 30.89,10.42 31,8.15 15.35,-3.87 16.58,-5.32l-44.91 -22.92zm74.93 34.52c-24.61,-4.83 -21.13,-3.29 -24.29,10.34 24.06,8.86 15.87,15.75 44.26,12.4l-19.97 -22.74zm-19.56 21.72c-10.69,-2.39 -23.65,-7.68 -34.88,-4.15 -34.37,10.82 -11.9,0.09 -11.47,22.15l40.45 1.12c7.91,-15.62 14.65,15.13 5.9,-19.12zm-46.35 18c-10.69,-5.32 -14.57,-7.89 -23.37,-13.78l-22.04 4.13c1.71,1.84 3.9,1.88 4.87,4.71l34.89 22.98c17.09,8.26 29.51,14.35 48.06,22.87 27.4,-17.29 27.64,-3.73 42.18,-33.53l-43.24 20.9c-5.82,-3.03 -13.19,-6.91 -19.71,-10.88l-21.64 -17.4zm-23.37 -13.78c32.08,-3.57 7.68,2.04 34.76,-14.56 -8.81,-12.33 -14.31,-17.91 -25.67,-27.64 -19.06,8.25 -16.7,10.6 -37.3,15.95l41.09 -36.61c-10.79,-9.67 1.2,-5.36 -12.56,-2.22l-51.83 28.03c15.39,-30.45 41.98,-53.99 76.48,-38.23 1.88,-7.86 2.37,-9.56 6.05,-16.72 28.77,11.46 139.3,55.96 155.85,82.58 26.75,1.5 44.25,15.28 58.89,31.45 -17.1,26.54 -35.07,22.83 -65.67,34.69 -28.57,11.07 -47.66,25.67 -71.04,38.36l-17.53 -14.76 66 -32.94c-105.02,-20.87 -38.95,69.77 -203.54,-38.87 -6.57,-4.31 -10.03,-7.59 -15.85,-13.05 25.83,0.75 43.2,-5.11 61.87,4.54zm36.1 -74.32l29.39 26.02 22.69 1.87c-15.34,-18.86 -24.89,-20.79 -52.08,-27.89zm-800.45 846.85c-9.04,-32.68 10.29,-51.91 23.97,-74.61 17.33,-28.76 19.3,-47.05 50.71,-51.26 -11.4,24.89 -56.96,109.42 -74.68,125.87zm410.73 -177.03c-4.69,31.04 -44.24,109.76 -70.3,128.6 -7.26,-10.92 -11.43,14.92 -5.42,-18.77l30.51 -51.94c15.99,-27.46 21.93,-48.32 45.21,-57.89zm347.46 -744.14c2.13,-2.64 4.27,-5.49 6.48,-8.05 45.28,19.42 48.34,10.03 68.32,36.14 -0.74,0.44 -3.97,14.45 -36.71,8.26 -6.54,-1.24 -26.5,-11.35 -32.75,-14.81 -47.52,-26.37 -42.68,-23.1 -47.54,-41.88l42.2 20.34zm-1732.1 360.34c40.41,25.65 292.09,163.1 310.31,194.56 -45.81,-15.39 -338.14,-193.81 -379,-219.57 -68.64,-43.29 -326.97,-196.23 -367.36,-230.86 285.94,158.66 279.22,156.39 436.05,255.87zm2188.04 -36.21c-5.65,26.51 -4.97,23.88 -25.32,38.36 -26.99,-5.6 -101.49,-42.45 -111.77,-61.07 19.1,7.29 36.96,15.26 58.43,24.4 25.29,10.75 38.7,24.6 56.92,13.36 -14.29,-28.95 -36.07,-15.83 -70.32,-51.06l92.06 36.01zm-1337.78 -88.94c-10.86,-19.18 -17.15,-87.37 -20.85,-110.57 -4.91,-30.71 -17.89,-82.95 -4.44,-107.45 22.43,30.34 23.6,171.8 25.29,218.02zm-1256.97 -1595.4c-31.65,-3.65 -223.23,-98.01 -239.1,-119.99 35.65,9.42 84.27,38.09 119.84,55.2 19.83,9.53 36.34,17.92 58.71,29.55 26.37,13.7 43.6,14.26 60.55,35.24zm1176.59 893.04c4.7,-33.01 11.27,-74.21 40.28,-86.85 -3.05,30.63 -19.96,59.3 -26.3,98.49 -5.26,32.53 -7.65,75.1 -18.52,101.15 -9.12,-21.1 -0.11,-80.19 4.54,-112.79zm10.4 758.34c-11.61,-31.34 -41.42,-182.29 -21.32,-217.82 16.38,22.23 13.15,73.14 15.18,101.82 2.79,39.37 6.81,76.34 6.14,116zm1532.68 -89.21c10.08,6.7 46.74,23.22 61.64,26.14l-5.9 -85.12c25.6,-4.09 18.8,-22.1 21.79,121.51 -16.05,-4.87 2.04,7.95 -9.96,-6.3 -1.72,-2.06 -3.57,-5.76 -5.31,-7.58 -15.58,-16.36 -37.48,-19.32 -57.9,-32.25 -35.89,-22.74 -20.28,-6.88 -4.36,-16.4zm-685.02 -115.86c-0.1,-3.94 0.01,-15.8 -2.78,-18.4 -19.62,-18.27 -15.85,4.39 -16.09,4.56 8.4,11.47 -9.77,5.07 18.87,13.84zm310.01 -801.13c-54.61,-7 -199.09,-97.92 -239.39,-123.34 35.8,7.65 86.85,37.93 122.6,56.52 23.95,12.46 102.97,40.81 116.79,66.82zm-1237.14 -362.06c-6.3,-67.9 -4.4,-213.16 68.53,-250.28 -12.62,40.9 -37.4,57.09 -49.33,112.82 -11.09,51.8 -6.53,111.78 -19.2,137.46zm-737.58 480.92c-29.1,-5.06 -220.86,-135.75 -241.16,-151.74 41.72,13.63 89.06,46.55 126.02,67.72 31.06,17.79 100.27,56.85 115.14,84.02zm1982.11 228.85c-17.49,-84.09 -24.09,-188.63 -4.02,-265.97 14.69,14.69 6.73,33.11 5.42,62.6 -3.11,70.35 5.78,132.96 -1.4,203.37zm-1315.07 541.34c-58.39,5.86 -311.97,-180.42 -348.15,-198.16l348.15 198.16zm1225.49 106.2c24.05,-25.51 71.92,-46.03 108.72,-65.74 49.64,-26.59 90.2,-63.37 110.91,-69.26 -9.03,31.27 -60.67,61.98 -92.68,79.33 -42.06,22.8 -80.87,41.47 -126.95,55.67zm-1561.79 -983.56c-29.55,-28.14 -63.91,-65.47 -92.38,-99.21 -29.56,-35.03 -69.64,-70.23 -93.74,-104.82l14.99 -7.8 9.86 15.13c4.26,5.7 4.09,5.2 9.22,11.52 10.85,13.35 10.76,11.94 23.37,24.83 14.89,15.23 30.87,33.4 46.01,50.86l45.48 50.73c12.44,13 30.08,32.77 42.29,47.04l-5.1 11.72c-8.93,22.5 -4.56,10.88 -30.4,26.34 -52.82,31.6 -139.83,116.64 -223.47,124.86l-175.27 -209.8c-1.32,-26.67 -2.08,-8.08 6.36,-14.7 22.95,-43.97 171.87,-116.16 205.57,-149.93 39.27,-6.71 13.01,-5.83 23.16,8.41 -52.15,27.21 -176.66,133.26 -228.73,141.52l175.19 210.62c65.22,-8.14 177.16,-128.93 247.59,-137.32zm663.12 -678.52c-38.27,-8.82 -257.05,-132.18 -278.45,-157 30.6,5.15 265.14,135.99 278.45,157zm57.79 1118.14c-2.05,-3.43 -42.76,-250.4 -47.91,-282.56 27.33,24.76 35.11,94.87 40.94,130.83 8.26,50.91 11.76,99.08 6.97,151.73zm1636.88 346.72c-1.43,-47.02 -11.49,-356.07 24.18,-401.35l-24.18 401.35zm-2362.91 -1977.81c-34.77,-13.14 -39.55,-34 -58.85,-60.53 -52.33,-71.91 -36.94,-55.95 -98.74,-122.5 -17.81,-19.2 -46.69,-34.01 -58.13,-56.87 62.55,16.8 204.72,208.5 215.72,239.9zm2024.56 3356.33c33.13,-31.89 23.34,17.13 42.97,-98.84 72.94,-22.34 34.5,-10.73 58.27,-77.61 18.93,18.76 4.33,70.2 -12.78,79.36 -54.72,29.28 -24.88,-23.51 -40.92,67.25 -7.72,43.67 -28.23,16.19 -47.09,62.52 -15.57,38.29 -12.92,39.27 -34.52,69.15 0.62,-15.4 20.15,-88.45 34.07,-101.83zm-108.81 -1955.25c21.46,34.88 37.77,382.65 18.03,417.3l-18.03 -417.3zm-196.26 191.45c-3.61,9.74 -4.3,6.82 -8.83,12 -4.89,-62.18 -11.07,-287.98 17.65,-323.34 4.59,40.99 -3.97,116.37 -4.11,163.75 -0.09,25.77 3.59,125.18 -4.71,147.59zm-761.4 1263.23c24,-44.43 16.61,-45.06 43.27,-55.26 0.08,29.73 -13.84,44.95 -27.93,68.6 -29.07,48.78 -77.37,161.79 -105.4,178.34 1.28,-38.49 66.66,-148.35 90.06,-191.68zm209.77 -2071.47c15.24,36.17 18.58,136.53 -35.94,98.87 -15.7,-10.84 -15.82,-42.57 -11.37,-62.96 5.98,-27.39 15.21,-37.95 47.31,-35.91zm-617.55 -159.04c-10.89,24.19 -18.75,46.8 -29.29,70.9 -9.31,21.28 -17.42,39.55 -22.22,64.63 -7.19,37.53 -3.65,145.24 -11.47,163.66 -34.01,-77.38 -2.33,-269.48 62.98,-299.19zm617.3 1334.77c47.97,20.11 59.46,44.26 91.84,53.89 -34.83,-46.39 -44.58,-41.37 -59.33,-72.84 -10.3,-3.99 -1.86,0.06 -12.22,-6.31 -40.53,-24.94 -171.42,-172.15 -195.01,-204.13l-181.62 -297.72c1.58,24.47 -1.79,20.12 12.15,35.4 24.9,88.19 90.63,207.99 130.39,291.22 36.86,77.16 193.26,171.47 213.8,200.49zm-1338.73 -1464.33c-36.22,3.51 -165.02,-86.4 -202.58,-107.17 -34.25,-18.94 -66.66,-37.49 -99.56,-56.49 -35.34,-20.42 -67.17,-36.03 -99.6,-56.4 28.51,-1.34 172.41,83.04 207.82,102.56l193.92 117.5zm1711.27 1412.01c-40.29,0.92 -190.86,-86.91 -238.94,-103.33l-120.21 82.02 -5.55 -8.44c108.4,-72.46 81.23,-108.9 175.19,-65.02l146.98 69.43c22.83,11.01 27.5,5.98 42.53,25.34 32.26,1.67 65.8,24.31 96.73,38.29 56.52,25.55 58.41,1.74 111.23,-7.02 109.41,-18.14 69.42,86.71 133.19,135.99 -26.18,-0.51 -37.05,-25.71 -48.45,-49.09 -6.71,-13.8 -9,-22.13 -13.49,-35.7 -13.8,-41.76 -27.49,-53.16 -96.2,-27.5 -4.76,1.78 -6.56,2.16 -9.99,3.98 -8.47,4.52 -7.42,5.28 -11.92,9.51 22.05,9.39 74.44,40.99 92.45,43.21 -9.18,18.85 20.33,22.43 -59.96,-13.85l-180.42 -83.09c-20.68,-13.23 -6.2,-3.3 -13.17,-14.73zm766.06 -395.12c-82.29,-8.3 -365.14,-106.79 -426.84,-141.13 11.84,2.44 377.58,113.23 414.34,132.23 7.17,3.7 8.42,5.65 12.5,8.9zm-2637.03 129.68c-31.37,-1.86 -409.37,-207.21 -446.38,-246.18 51.09,14 266.97,148.08 338.3,185.33 32.23,16.83 80.25,37.05 108.08,60.85zm1717.54 505.69c1.63,-41.9 -46.44,-80.08 -72.18,-91.48 1.36,47.44 37.5,84.31 72.18,91.48zm18.18 -53.93l-22.76 -6.27c21.26,35.13 32.63,38.88 20.44,83.22 27.13,8.93 4.45,0.94 13.42,11.38 226.02,122.8 536.89,284.17 753.31,420.32l238 149.03c17.93,-14.08 21.64,-18.16 28.51,-45.24l-522.43 -298.5c-88.35,-50.53 -172.6,-93.59 -260.27,-147.02 -23.3,-14.2 -39.93,-22.44 -64.74,-36.84l-154.91 -104.13c-35.04,-16.43 3.39,5.62 -27.4,-5.84l-1.17 -20.11zm-168.18 -197.9l32.07 6.37c-15.69,-21.24 -13.11,-20.11 -32.07,-6.37zm54.96 -11.49l-28.11 -7.9c7.58,10.72 -3.02,9.07 11.41,12.92 27.44,7.32 12.4,-0.06 16.7,-5.02zm24.01 0.62c-12.73,-13.82 -25.44,-23.99 -50.42,-27.87 7.3,14.28 35.08,23.4 50.42,27.87zm-31.62 50.76c-28.16,8.08 -33.5,18.86 -55.16,4.61 24.63,-2.3 33.27,-14.1 49.34,-25.64l-50.06 7.28 16.43 -13.37c-10.5,-6.01 -4.93,-7.48 -7.9,-12.77l-33.07 5.65c13.66,-25.6 -2.09,-13.95 24.05,-34.58 14.76,-11.65 26.54,-18.19 40.96,-25.34l65.58 33.1c-9.17,45.68 -16.26,16.61 -50.17,61.06zm-1759.19 -1774.27c-31,5.08 -197.17,-84.75 -235.41,-103.06l-233.99 -118.06c87.86,22.47 403.16,180.73 469.4,221.12zm3156.86 2005.69c-2.75,-147.97 12.28,-338.81 41.77,-472.08 13.33,13.36 11.8,-15.91 8.64,26.34 -2.96,39.71 -19.84,106.56 -24.48,206.43 -3.21,69.21 5.61,189.36 -25.93,239.31zm-1858.62 484.66l3.4 -14.15c32.86,-5.79 333.6,-73.19 360.2,-71.8 16.96,0.89 7.95,0.95 14.92,5.22 -17.89,21.67 -57.57,21.78 -90.45,28.34 -74.18,14.81 -241.91,60.4 -288.07,52.39zm975.06 -1349.23c6.33,57.69 29.49,511.86 20.3,529.45 -21.61,-35.62 -30.56,-384.82 -28.66,-471.64 0.17,-8.07 -0.09,-22.75 0.52,-29.46 0.95,-10.52 0.9,-8.96 3.12,-18.25l4.72 -10.1zm-432.47 1039.63c-21.31,42.45 -44.14,77.68 -68.38,118.94l-168.69 292.89c-14.93,25.51 -16.98,41.51 -39.74,59.41 -8.42,-26.06 5.49,-35.55 20.67,-63.35 40.21,-73.63 203.99,-360.87 240.85,-410.18l15.29 2.29zm-694.2 534.44c5.48,-38.06 -36.98,-108.82 -68.45,-127.8 8.3,48.53 28.11,115.32 68.45,127.8zm-28.14 2.15c-31.51,-35.27 -45.95,-80.38 -58.96,-133.01 -12.81,-51.85 -3.26,-43.18 -0.56,-48.4l147.47 -37.36 39.58 2.04c-4.57,22.26 -24.56,16.42 -79.88,29.88 -29.98,7.29 -57.64,16.26 -86.78,25.75 23.8,35.48 97.68,112.32 86.67,170.18 -0.19,0.1 -4.72,28.5 -47.54,-9.08zm-174.1 -1686.63c-73.32,-11.28 -435.55,-209.17 -517.61,-258.72 -75.27,-45.46 -84.99,-46.25 -146.12,-99.52 23.9,2.29 127.01,71.04 160.12,90.93 158.05,94.92 299.73,163.21 464.12,240.39 31.64,14.85 25.22,9.81 39.49,26.92zm1917.08 104.5c-51.67,-12.13 -361.85,-179.5 -437.28,-216.43 -12.66,-6.19 -410.57,-203.02 -416.37,-222.38 -0.76,-2.5 -2.46,-2.87 -3.68,-4.31 44.27,10.45 451.82,227.57 541.47,273.21l315.86 169.91zm-811.08 754.02c-28.38,2.53 -4.32,0.01 -14.04,8.35 21.23,8.52 15.23,12.94 31.37,-2.53 -10.09,-6.64 0.65,-7.42 -17.33,-5.82zm61.01 -16.94c-7.53,0.09 -22.65,-1.65 -23.11,-1.6 -28.91,3.28 -13.52,6.17 -18.95,11.89 43.55,13.88 35.56,5.01 50.7,20.79 -36.14,33.99 30.92,-0.66 -7.9,5.96 -18,3.08 1.89,-2.94 -15.5,-0.11 -24.5,3.99 -12.76,-6.93 -20.08,17.53 22.13,3.87 58.52,-10.5 78.84,-22.27 -10.85,-9.26 -7.13,-6.3 -21.53,-14.27l-22.47 -17.92zm-98.69 -37.01c7.36,15.58 4.89,15.87 24.22,24.75 11.97,5.5 18.4,6.39 31.67,2.24 -12.94,-14.05 -33.89,-22.98 -55.89,-26.99zm-227.68 -388.42c-5.59,-17.5 -13.43,-23.74 -23.97,-34.9 -18.51,-19.61 -11.39,-15.48 -38.66,-25.49 -8.54,15.47 -9.87,27.52 -18.83,44.32 -12.08,22.63 -15.22,13.8 -17.01,32.65 38.81,4.07 71.72,-0.78 98.47,-16.58zm7.89 -23.52c-11.84,-45.16 -35.17,-76.08 -71.43,-84.16 0.62,50.07 2.1,20.74 50.55,67.71 13.2,12.79 4.08,6.76 20.88,16.45zm-247 -122.96c16,5.43 5.55,-4.64 14.85,9.32 -18.01,28.54 4.66,71.7 23.71,94.71 18.78,22.66 43.66,37.9 79.34,49.47 30.36,-29.98 46.15,-78.36 40.56,-132.99 -41.95,-23.06 -109.61,-63.63 -158.46,-20.51zm0 0c-0.74,-1.13 -9.24,0.43 -5.21,-17.01 4.27,-18.53 -4.86,-5.48 12.8,-14.36 33.12,-16.66 92.12,5.9 121.34,20.83 143.4,73.23 122.33,126.49 144.34,166.64 5.26,9.6 114.16,164.98 88.97,209.13 -19.17,-22.31 -32.69,-84.25 -44.75,-113.33 -16.45,-39.63 -36.79,-67.92 -61.78,-93.45 -45.2,14.17 -83.45,51.75 -184.85,-10.73 -43,-26.5 -92.07,-78.79 -70.86,-147.72zm1385.18 743.79c6.46,31.11 58.67,107.83 17.26,213.05 -17.66,44.88 -16.58,44.14 -61.72,61.96 -30.05,11.89 -50.69,73.01 -50.85,74.46 9.14,32.94 23.5,49.24 18.82,93.48 -12.18,-23.85 -12.37,-58.76 -29.15,-75.66 -9.65,12.06 -20.72,24.8 -25.93,32.75 -22.99,-8.87 -22.14,12.92 20.05,-60.96 13.19,-23.08 25.17,-42.13 34.61,-67.66 -190.34,-95.21 -258.85,-142.56 -423.71,-241.36 -9.59,7.28 -3.6,1.59 -11.66,10.97l-31.12 44.39c-20.06,27.3 -19.96,39.16 -51.46,49.8 9.17,-32.15 20.57,-38.7 37.18,-62.78 13.33,-19.34 26.82,-37.42 38.51,-59.72 -22.92,-16.58 -54.97,-29.62 -81.72,-43.02 -23.08,-11.55 -68.65,-28.35 -74.72,-48.87 86.21,22.63 172.04,91.25 230.92,129.37 24.87,16.1 49.75,30.64 76.45,45.95l313.48 174.72c74.35,-62.96 87.36,-151.98 52.52,-240.53 -11.65,-29.6 -20.66,-16 2.24,-30.34zm-264.12 -763.47c-56.32,-18.78 -112.14,-38.61 -165.24,-56.65l-148.4 -62.49c-0.8,-2.24 -2.92,-2.06 -4.35,-3.14l498.77 167.43c52.8,16.22 123.79,29.05 170.9,51.11 11.21,60.81 -18.27,236.56 -19.25,317.45 -0.99,82.51 2.85,254.2 -23.05,318.15 -93.61,-33.38 -238.04,-97.89 -324.88,-143.22l-311.26 -156.78c52.71,2.23 547.93,273.15 636.69,283.51l9.77 -313.59c1.7,-76.66 27.09,-238.08 18.03,-297.74l-337.73 -104.04zm-1564.57 136.3c2.94,-33.64 5.2,-78.8 -6.33,-110.31l-29.36 0.14c4.12,101.6 2.56,108.55 35.69,110.17zm110.26 -236.33c59.41,156.97 86.12,243.04 52.76,430.68 -19.09,15.46 -25.86,62.62 -76.28,49.31 -29.5,-7.79 -52.51,-48.82 -55.68,-92.04 22.86,29.53 20.1,53.5 58.3,76.64 132.52,-28.5 56.65,-462.97 -31.78,-504.05 -33.94,12.92 -49.68,63.97 -57.93,98.51 -19.06,79.83 15.38,0.39 17.05,138.29 0.31,26.3 -5.44,53.04 -7.39,69.82 -7.3,63.26 38.13,188 19.36,222.19 -31.56,-27.32 -27.54,-160.06 -35.78,-208.66l-15.37 -11.96c-0.28,1.98 -0.62,3.95 -0.83,6.2l13.5 167.31c-3.92,23.27 8.51,13.52 -15.23,19.94l-26.55 -345.43 29.56 -13.94c2.22,-67.27 17.67,-126.29 65.21,-155.41 53.38,4.78 39.17,20.51 67.08,52.6zm-139.24 465.49l227.63 146.49c20.95,27.18 375.19,248.87 419.24,279.15 24.48,16.84 119.82,82.83 140.94,87.75 27.59,37.3 292.71,184.46 319.33,225.96 -31.63,-7.83 -240.39,-146.92 -293.91,-185.91 -7.96,-5.79 -10.85,-8.71 -20.26,-13.96 -24.47,-13.63 -3.58,-5.5 -22.33,-8.29 -20.46,-24.94 -8.07,-11.37 -63.98,-48.29 -47.13,-31.12 -426.95,-283.63 -453.6,-291.26l-240.37 -155.16c-11.55,-18.8 -152.39,-98.74 -183.52,-118.93 -53.7,-34.83 -136.91,-77.52 -172.79,-122.17 57.6,32.42 112.01,68 170.36,103.12 30,18.06 152.83,97.6 173.26,101.5zm-1645.59 -1427.17c-78.79,209.92 273.08,179.24 368.44,183.42 79.3,3.47 160.93,57.45 162.99,131.65 0.32,11.7 -27.2,91.87 -32.78,113.12 -5.61,21.4 -9.17,37.5 -14.41,58.66 -13.2,53.4 -15.6,39.87 -23.32,44.37 -12.57,-27.67 37.03,-159.74 45.79,-194.03 19.38,-75.78 -45.5,-131.44 -112.24,-136.98 -121.06,-10.06 -269.12,23.69 -381.77,-63.66 -13.66,-10.61 -14.73,-17.97 -30.78,-26.79 -17.51,174.21 -55.69,250.24 124.47,299.12 99.11,26.91 298.32,3.64 338.49,115.7 -23.3,-8.68 -39.06,-39.4 -76.38,-56.69 -81.56,-37.8 -457.83,-0.62 -423.68,-225.21 12.34,-81.18 16.79,-146.18 26.25,-227.85l28.93 -14.83zm1252.3 -115.28c-89.29,30.78 -118.86,28.5 -187.33,-19.61 -87.14,-61.24 -210.4,-395.93 -314.71,-383.42 -4.59,87.99 -3.76,210.25 -19.54,292.02 -7.85,40.65 -5.36,26.93 15.4,59.79 89.4,141.45 80.22,207.93 261.49,297.41 76.07,37.56 161.86,58.97 244.51,4.19l0.18 -250.38zm20.33 -26.23l-2.94 299.22c-49.23,1.7 -62.55,35.19 -145.17,27.06 -111.34,-10.96 -254.48,-101.64 -306.23,-192.13l-91.21 -160.01c-23.5,-37.7 -13.02,-30.15 -8.89,-70.52 9.71,-95.08 11.1,-208.13 16.58,-306.05 52.7,2.95 113.19,69.24 138.51,99.78 36.95,44.56 68.83,102.55 98.73,158.63 31.84,59.67 65.71,118.18 110.3,145.68 116.85,72.04 124.63,-3.13 190.32,-1.66zm2349.8 1279.56l-602.48 -196.47c-52.45,-17.99 -150.99,-56.34 -201.25,-63.82 -5.8,146.32 32.68,493.67 6.87,603.11l551.1 260.57c62.67,28.55 126.04,62.89 188.81,89.34 26.51,-54.86 20.7,-266.06 24.95,-344.13l32 -348.6zm-118.83 683.47c-21.6,-23.09 -190.07,-98.89 -226.7,-110.43 0.83,43.75 5.89,127.13 -11.99,161.99 -28.21,-5.06 -108,-60.38 -120.98,-75.94 43.13,13.65 72.81,44.15 112.18,60.39l7.6 -156.63c-44.92,-13.36 -84.95,-40.12 -133.86,-56.15 -10.85,-15.26 -264.49,-123.81 -310.27,-156.41 3.2,-204.36 -24.37,-412.56 -14.26,-623.88l70.48 6.61c15.4,24.81 520.14,177.64 573.21,197.33 45.58,16.9 160.38,46.88 191.98,69.82 -8.66,112.9 -26.79,232.28 -32.47,355.82 -5.08,110.61 -2,254.56 -28.7,356.65l-76.22 -29.17zm-1653.56 302.66c-15.75,28.56 -29.87,49.17 -43.83,74.57 13.19,15.6 33.83,25.65 52.5,32.03 18.73,-18.65 78.88,-127.22 88.02,-156.73l-55.83 -26.96c-15.23,21.43 -28.34,54.38 -40.86,77.09zm395.49 -15.92c-11.01,-17.55 -34.62,-40.29 -48.76,-55.53 -17.79,-19.18 -36.34,-30.18 -54.94,-47.93 -19.21,-18.33 -34.28,-31.89 -53.1,-49.65 -64.13,-60.57 -247.46,-148.96 -336.04,-141.5 -12.84,27.53 -28.01,77.08 -27.72,109.28l253.85 152.99c38.14,20.72 92.19,58.83 129.55,74.78 43.78,18.67 112.06,-14.52 137.16,-42.44zm-347.98 -482.87c0.41,15.7 27.69,148.43 35.35,182.87 9.01,40.49 24.04,40.13 52.82,57.74 89.7,54.88 178.32,111.8 267.17,168.05 43.45,26.66 47.52,23.92 53.79,50.76 -17.52,-5.39 -141.92,-86.2 -146.34,-91.29 22.22,28.91 82.38,76.31 100.87,120.84 -22.24,40.88 -101.49,76.26 -153.65,51.32 -43.79,-20.96 -99.97,-62.27 -138.89,-75.99 -26.93,24.45 -47.49,102.12 -92.83,152.42 -24.77,15.02 -47.68,-0.87 -95.39,-32.91 15.58,-58.49 77.36,-116.99 91.36,-181.34 -56.63,-15.05 -119.14,-80.77 -169.96,-103.81l8.8 -73.29c-18.17,-9.58 -17.92,-7.37 -28.34,-24.21 24.17,-63.71 11,-90.13 0.74,-167.6 -7.44,-56.1 -14.24,-130.17 -28.87,-179.72 34.37,7.65 27.87,41.98 33.23,79.2l24.47 197.97c3.95,42.58 -9.28,66.65 -2.87,81.99 8.23,-3.55 8.82,2.71 23.32,-30.13 8.3,-18.8 9.59,-14.67 9.11,-39.56l-27.17 -173.77c-2.23,-13.39 -7.2,-32.63 -8.8,-44.84 -5.9,-45.21 5.05,-37.67 11.37,-43.46l45.53 286.85 154.62 36.92 -29.65 -159.17c-10.03,-55.84 0.13,-42.66 10.21,-45.84zm147.76 -1465.44c-216.84,-41.34 -396.97,126.7 -414.92,302.97 -22.94,225.44 157.19,381.61 373.32,358.69 -25.31,-23.41 -83.44,-40.62 -121.84,-85.59 -43.57,-51.02 -38.79,-100.46 35.57,-117.08 148.81,-33.23 232.05,33.42 345.97,57.38 110.86,-131.94 60.29,-485.46 -217.39,-502.03 -7.69,-9.94 -2.78,-13.35 -0.71,-14.34zm-507.96 2444.16c15.79,21.49 50.38,46.36 79.92,23.87 30.48,-23.2 -1.94,-61.98 -8.96,-82.83 -46.4,-0.59 -73.87,12.06 -70.96,58.96zm325.52 99.91c-54.12,-24.32 -174.18,-115.53 -233.27,-142.8 27.95,56.44 23.63,59.84 -16.89,94.2l190.48 122.42 15.92 -59.37 43.76 -14.45zm1476.78 -240.63c60.03,-27.28 61.04,-51.49 81.24,-97.47l-15.15 -9.1c-19.71,18.86 -53.6,74.7 -66.09,106.57zm-2030.42 -61.87c-21.37,83.38 101.63,124.01 50.44,-4.28l-50.44 4.28z"/>
  <path class="fil1" d="M2808.1 2770.45l479.67 27.59 61.31 3018.12c-159.44,1.87 -343.54,22.17 -493.15,-8.85 -24.58,-48.35 -18.45,-119.06 -17.13,-173.35 11.29,-467.96 -25.15,-884.03 -27.68,-1335.25 -1.8,-317.55 -31.67,-1294.53 -3.02,-1528.26zm541.49 917.34l4.04 -40.99c11.4,-1027.9 64.27,-880.02 -580.24,-906.13 -11.63,475.3 -30.16,1088.44 9.54,1555.39 29.06,342.03 2.83,1367.74 30.58,1523.13 146.36,57.4 404.61,26.57 570.72,24.15l-34.64 -2155.55z"/>
  <path class="fil1" d="M3567.58 3220.57l485.65 32.88c56.67,394.96 33.96,831.38 37.75,1256.03 3.95,440.33 14.05,862.55 19.11,1303.94l-504.78 -16.7 -37.73 -2576.15zm-27.63 -43.35c-33.01,657.66 13.12,1334.48 30.26,1989.83 5.91,225.6 -1.54,457.88 4.82,687.94l576.93 11.89c-5.67,-275.15 -15.94,-2409.38 -75.39,-2677.28l-536.62 -12.38z"/>
  <path class="fil1" d="M2646.12 5830.47l-41.13 -3326.65c-44.89,173.38 -19.6,244.08 -15.82,359.4l24.75 2944.55 -503.91 -36.19 -18.19 -874.16c-9.54,133.6 0.1,29.75 -11.92,256.53l8.08 665.52 558.14 11zm-579.65 -3416.78c139.24,-38.7 428.75,21.35 516.52,-35.15l-539.63 -1.7c2.85,458.36 0.2,897 4.99,1359.56 4.48,433.06 -3.6,901.12 45.7,1153.67l-27.58 -2476.38z"/>
 </g>
</svg>
